<?xml version="1.0" encoding="UTF-8"?>
<svg id="Layer_2" data-name="Layer 2" xmlns="http://www.w3.org/2000/svg" viewBox="0 0 118 118">
  <defs>
    <style>
      .cls-1 {
        fill: #006ee5;
      }

      .cls-2 {
        fill: none;
        stroke: #fff;
        stroke-miterlimit: 10;
      }
    </style>
  </defs>
  <g id="Layer_1-2" data-name="Layer 1">
    <g>
      <path class="cls-1" d="M57.23,109.79c-8.25,0-14.96-6.71-14.96-14.96V55.74c0-.61,.05-1.26,.15-2.02l.35-.98,.95-.03c.35,.04,.66,.06,.95,.06v1.25h.08c-.03,.26-.06,.49-.08,.71l-.03,.39s.01,0,0,0c-.01,.22-.02,.42-.02,.62v39.09c0,6.95,5.65,12.61,12.61,12.61,2.19,0,4.37-.59,6.29-1.7l9.27-5.35c3.89-2.24,6.3-6.42,6.3-10.91v-28.39c0-4.49-2.41-8.67-6.3-10.91l-9.27-5.35c-1.11-.64-2.32-1.11-3.59-1.39l.51-2.29c1.51,.33,2.94,.89,4.26,1.65l9.27,5.35c4.61,2.66,7.48,7.62,7.48,12.94v28.39c0,5.32-2.86,10.28-7.48,12.95l-9.27,5.35c-2.28,1.31-4.86,2.01-7.47,2.01h0Zm-.01-7.83c-1.22,0-2.44-.32-3.56-.96-2.23-1.28-3.56-3.59-3.56-6.16V55.75c0-2.57,1.33-4.88,3.56-6.16,2.23-1.29,4.89-1.28,7.11,0l9.27,5.35c2.2,1.27,3.56,3.63,3.56,6.16v28.39c0,2.54-1.36,4.9-3.56,6.16l-9.27,5.35c-1.11,.64-2.34,.96-3.56,.96h0Zm0-50.99c-.82,0-1.64,.22-2.38,.65-1.49,.86-2.38,2.4-2.38,4.13v39.09c0,1.72,.89,3.27,2.38,4.13,1.49,.86,3.27,.86,4.76,0l9.27-5.35c1.47-.85,2.38-2.43,2.38-4.13v-28.39c0-1.7-.91-3.28-2.38-4.13l-9.27-5.35c-.75-.43-1.56-.65-2.38-.65Z"/>
      <path class="cls-1" d="M44.71,54.43l-2.33-.32c.22-1.64,1.41-3.23,2.52-4.65-.65-.18-1.27-.49-1.82-.92-1.25-.97-1.97-2.45-1.97-4.05V18.44c0-1.86,.96-3.52,2.57-4.45,1.61-.93,3.53-.93,5.14,0l6.18,3.57c1.58,.91,2.57,2.62,2.57,4.45v18.95c1.25-.01,2.77,.11,3.47,.33l-.72,2.24c-.66-.21-3.23-.28-3.92-.15l-2,.39,.66-1.93c.11-.31,.16-.61,.16-.91V22c0-.99-.53-1.92-1.39-2.41l-6.18-3.57c-.87-.5-1.91-.5-2.79,0-.87,.5-1.39,1.41-1.39,2.41v26.06c0,.88,.38,1.66,1.07,2.19,.68,.53,1.57,.72,2.39,.52l2.88-.72-1.6,2.5c-.34,.54-.78,1.1-1.25,1.7-.92,1.18-2.07,2.65-2.22,3.75h0Z"/>
      <path class="cls-1" d="M44.31,54.72c-4.64-.55-7.75-4.66-7.75-10.23V18.44c0-5.64,4.43-10.23,9.88-10.23,1.73,0,3.44,.48,4.94,1.38l5.95,3.57c3.04,1.82,4.93,5.22,4.93,8.85v18.93c0,.47-.04,.95-.11,1.47l-1.55-.22c.06-.45,.09-.86,.09-1.25V22c0-3.09-1.59-5.96-4.16-7.51l-5.95-3.57c-1.26-.76-2.69-1.16-4.14-1.16-4.59,0-8.31,3.89-8.31,8.67v26.06c0,4.8,2.5,8.21,6.37,8.67l-.19,1.55h0Z"/>
    </g>
    <rect class="cls-2" x=".5" y=".5" width="117" height="117" rx="36.79" ry="36.79"/>
  </g>
</svg>