<?xml version="1.0" encoding="UTF-8"?>
<svg id="Layer_2" data-name="Layer 2" xmlns="http://www.w3.org/2000/svg" xmlns:xlink="http://www.w3.org/1999/xlink" viewBox="0 0 1920 1080">
  <defs>
    <style>
      .cls-1 {
        font-family: Fahkwang-Regular, Fahkwang;
        font-size: 27.49px;
      }

      .cls-1, .cls-2 {
        fill: #006ee5;
      }

      .cls-3 {
        fill: url(#linear-gradient);
      }

      .cls-4 {
        letter-spacing: -.04em;
      }

      .cls-5 {
        stroke: #f46708;
        stroke-width: 3.94px;
      }

      .cls-5, .cls-6, .cls-7, .cls-8 {
        fill: none;
        stroke-miterlimit: 10;
      }

      .cls-9 {
        fill: #f46708;
      }

      .cls-10 {
        fill: #03b2ff;
      }

      .cls-11 {
        fill: #00c3ff;
      }

      .cls-12 {
        fill: #6995b1;
      }

      .cls-13 {
        fill: blue;
      }

      .cls-14 {
        fill: #ed544c;
      }

      .cls-15 {
        fill: #fff;
      }

      .cls-16 {
        fill: #fee;
      }

      .cls-17 {
        fill: #f5bc48;
      }

      .cls-18 {
        fill: #ffda00;
      }

      .cls-19 {
        fill: #f38b43;
      }

      .cls-20 {
        fill: #ff0351;
      }

      .cls-21 {
        fill: #ffb808;
      }

      .cls-22 {
        fill: #31587c;
      }

      .cls-23 {
        fill: #aac5d2;
      }

      .cls-24 {
        fill: #c74135;
      }

      .cls-25 {
        fill: #dbdbdb;
      }

      .cls-26 {
        fill: #da9346;
      }

      .cls-27 {
        fill: #6d7f53;
      }

      .cls-28 {
        fill: #457395;
      }

      .cls-6 {
        stroke-width: .91px;
      }

      .cls-6, .cls-8 {
        stroke: #f2f2f2;
      }

      .cls-7 {
        stroke: #fff;
        stroke-linecap: round;
        stroke-width: 4.29px;
      }

      .cls-8 {
        stroke-width: .68px;
      }

      .cls-29 {
        fill: url(#linear-gradient-2);
      }

      .cls-29, .cls-30 {
        opacity: .59;
      }

      .cls-30 {
        fill: url(#linear-gradient-3);
      }
    </style>
    <linearGradient id="linear-gradient" x1="92" y1="576.65" x2="1710" y2="576.65" gradientTransform="translate(1864) rotate(-180) scale(1 -1)" gradientUnits="userSpaceOnUse">
      <stop offset="0" stop-color="#fff"/>
      <stop offset=".79" stop-color="#ff7f19"/>
    </linearGradient>
    <linearGradient id="linear-gradient-2" x1="184.54" y1="806.64" x2="482.27" y2="806.64" xlink:href="#linear-gradient"/>
    <linearGradient id="linear-gradient-3" x1="449.07" y1="799.6" x2="746.8" y2="799.6" gradientTransform="translate(1864) rotate(-180) scale(1 -1)" gradientUnits="userSpaceOnUse">
      <stop offset="0" stop-color="#fff"/>
      <stop offset="0" stop-color="#ff7f19"/>
    </linearGradient>
  </defs>
  <g id="Layer_1-2" data-name="Layer 1">
    <rect class="cls-15" width="1920" height="1080"/>
    <g>
      <g>
        <path class="cls-2" d="M175.78,159.16c-9.67,0-17.54-7.87-17.54-17.54v-45.86c0-.72,.06-1.48,.18-2.37l.41-1.15,1.11-.04c.41,.05,.77,.07,1.11,.07v1.47h.09c-.04,.3-.07,.57-.09,.83l-.04,.45s.01,0,0,0c-.02,.25-.02,.49-.02,.73v45.86c0,8.16,6.63,14.79,14.79,14.79,2.57,0,5.13-.69,7.38-1.99l10.87-6.28c4.56-2.63,7.39-7.53,7.39-12.8v-33.3c0-5.26-2.83-10.17-7.39-12.8l-10.87-6.28c-1.3-.75-2.72-1.3-4.22-1.63l.6-2.69c1.77,.39,3.45,1.04,5,1.94l10.87,6.28c5.41,3.12,8.77,8.94,8.77,15.18v33.3c0,6.25-3.36,12.06-8.77,15.19l-10.87,6.28c-2.67,1.54-5.7,2.36-8.76,2.36h0Zm-.01-9.19c-1.43,0-2.87-.38-4.17-1.13-2.61-1.51-4.17-4.21-4.17-7.23v-45.86c0-3.02,1.56-5.72,4.17-7.23,2.61-1.51,5.73-1.51,8.35,0l10.87,6.28c2.57,1.49,4.17,4.26,4.17,7.23v33.3c0,2.97-1.6,5.74-4.17,7.23l-10.87,6.28c-1.31,.76-2.74,1.13-4.17,1.13h0Zm0-59.81c-.96,0-1.92,.25-2.79,.76-1.75,1.01-2.8,2.82-2.8,4.84v45.86c0,2.02,1.04,3.83,2.8,4.84,1.75,1.01,3.84,1.01,5.59,0l10.87-6.28c1.72-1,2.8-2.85,2.8-4.84v-33.3c0-1.99-1.07-3.84-2.8-4.84l-10.87-6.28c-.87-.51-1.84-.76-2.8-.76Z"/>
        <path class="cls-2" d="M161.09,94.22l-2.73-.37c.26-1.93,1.65-3.79,2.95-5.45-.76-.21-1.49-.57-2.14-1.08-1.47-1.14-2.31-2.88-2.31-4.75v-30.57c0-2.18,1.13-4.13,3.01-5.22,1.89-1.09,4.14-1.09,6.02,0l7.25,4.18c1.86,1.07,3.01,3.07,3.01,5.22v22.23c1.47-.02,3.25,.13,4.07,.39l-.85,2.62c-.77-.25-3.79-.33-4.6-.17l-2.35,.46,.78-2.26c.13-.36,.19-.72,.19-1.06v-22.2c0-1.16-.62-2.25-1.63-2.83l-7.25-4.18c-1.02-.59-2.24-.59-3.27,0-1.02,.59-1.63,1.65-1.63,2.83v30.57c0,1.03,.44,1.94,1.25,2.57,.8,.62,1.84,.85,2.8,.61l3.37-.85-1.87,2.93c-.4,.63-.92,1.29-1.47,1.99-1.08,1.38-2.43,3.11-2.6,4.4h0Z"/>
        <path class="cls-2" d="M160.62,94.57c-5.44-.65-9.09-5.47-9.09-12v-30.57c0-6.62,5.2-12,11.59-12,2.03,0,4.03,.56,5.8,1.62l6.98,4.18c3.56,2.14,5.78,6.12,5.78,10.38v22.2c0,.55-.04,1.11-.13,1.72l-1.82-.26c.08-.53,.11-1.01,.11-1.47v-22.2c0-3.62-1.87-7-4.88-8.81l-6.98-4.18c-1.48-.89-3.16-1.36-4.85-1.36-5.38,0-9.75,4.56-9.75,10.16v30.57c0,5.64,2.93,9.63,7.48,10.17l-.22,1.82h0Z"/>
      </g>
      <text class="cls-1" transform="translate(211.62 125.63)"><tspan x="0" y="0">Bannawit</tspan></text>
      <text class="cls-1" transform="translate(211.62 149.51)"><tspan x="0" y="0">Khatti</tspan><tspan class="cls-4" x="80.34" y="0">y</tspan><tspan x="94.94" y="0">anont</tspan></text>
    </g>
    <g>
      <path class="cls-3" d="M1267.14,763.14c65.44-6.59,120.59-49.53,120.75-115.3l.38-125.35-.12-50.53c-.1-43.37,27.32-82.02,68.28-96.26l315.57-109.7v298.73s0,103.91,0,103.91c0,103.54-83.93,187.47-187.47,187.47l-1019.2,31.18h0c-259.15,0-411.33-24.32-411.33-54.5,0-56.08,791.2-37.22,1113.14-69.65Z"/>
      <g>
        <g>
          <path class="cls-2" d="M331.84,816.55l60.68,10.92c3.76,.68,7.1-2.51,6.59-6.3l-27.85-209.53c-.37-2.8-2.76-4.9-5.59-4.9s-5.12,2-5.57,4.72l-32.83,198.61c-.5,3.04,1.53,5.93,4.57,6.47Zm.57-5.62l32.83-198.61c.03-.21,.21-.36,.43-.36s.4,.16,.43,.38l27.85,209.53c.01,.1,.01,.21-.1,.34-.05,.06-.16,.16-.31,.16-.03,0-.06,0-.09,0l-60.68-10.92c-.23-.04-.39-.26-.35-.5Z"/>
          <path class="cls-11" d="M397.1,826.41c1.07-1.22,2.23-3.64,2.02-5.25l-27.85-209.53c-.39-2.8-2.8-4.9-5.59-4.9h0l4-.66c3.19-.53,6.31,1.61,6.75,4.81,0,.02,0,.04,0,.06l27.85,209.53s0,.02,0,.02c.18,1.38-.66,2.7-1.95,3.23l-5.24,2.68Z"/>
          <path class="cls-2" d="M246.43,851.78l67.5,12.14c4.19,.75,7.89-2.79,7.33-7l-30.98-233.05c-.41-3.12-3.07-5.45-6.22-5.45s-5.69,2.22-6.19,5.25l-36.52,220.91c-.56,3.39,1.7,6.59,5.08,7.2Zm.64-6.26l36.52-220.91c.04-.23,.24-.4,.47-.4s.45,.18,.48,.42l30.98,233.05c.01,.11,.01,.24-.11,.38-.06,.07-.18,.17-.35,.17-.03,0-.07,0-.1-.01l-67.5-12.14c-.26-.05-.43-.29-.39-.55Z"/>
          <path class="cls-11" d="M319.01,862.75c1.19-1.36,2.48-4.04,2.25-5.84l-30.98-233.05c-.43-3.12-3.12-5.45-6.22-5.45h0l4.45-.73c3.55-.59,7.02,1.79,7.51,5.35,0,.02,0,.05,0,.07l30.98,233.05s0,.02,0,.03c.2,1.54-.74,3-2.17,3.6l-5.82,2.98Z"/>
          <polygon class="cls-16" points="366.1 612.32 296.01 623.03 326.52 852.58 393.95 821.85 366.1 612.32"/>
          <polygon class="cls-11" points="314.83 852.58 255.57 842.04 286.58 640 284.53 624.63 283.58 624.61 247.45 846.08 314.95 858.22 315.51 857.68 314.83 852.58"/>
        </g>
        <g>
          <polyline class="cls-25" points="354.93 649.08 355.9 649.24 341.02 653.51 339.72 636.3 342.19 652.34 356.72 649.05"/>
          <polygon class="cls-20" points="354.07 633.6 356.72 649.05 342.19 652.34 339.72 636.3 354.07 633.6"/>
        </g>
        <g>
          <polyline class="cls-25" points="361.12 798.49 362.1 798.65 347.21 802.92 345.92 785.72 348.39 801.75 362.92 798.46"/>
          <polygon class="cls-20" points="360.27 783.02 362.92 798.46 348.39 801.75 345.92 785.72 360.27 783.02"/>
        </g>
        <g>
          <polyline class="cls-25" points="366.73 666.84 367.65 666.99 353.56 671.04 352.33 654.75 354.68 669.92 368.43 666.82"/>
          <polygon class="cls-21" points="365.92 652.19 368.43 666.82 354.68 669.92 352.33 654.75 365.92 652.19"/>
        </g>
        <g>
          <polyline class="cls-25" points="368.79 685.43 369.72 685.58 355.63 689.63 354.4 673.34 356.74 688.51 370.49 685.41"/>
          <polygon class="cls-21" points="367.99 670.78 370.49 685.41 356.74 688.51 354.4 673.34 367.99 670.78"/>
        </g>
        <g>
          <polyline class="cls-25" points="349.51 690.94 350.44 691.09 336.35 695.14 335.12 678.85 337.46 694.02 351.21 690.91"/>
          <polygon class="cls-21" points="348.71 676.29 351.21 690.91 337.46 694.02 335.12 678.85 348.71 676.29"/>
        </g>
        <g>
          <polyline class="cls-25" points="370.86 704.71 371.78 704.86 357.69 708.91 356.47 692.62 358.81 707.79 372.56 704.68"/>
          <polygon class="cls-21" points="370.05 690.06 372.56 704.68 358.81 707.79 356.47 692.62 370.05 690.06"/>
        </g>
        <g>
          <polyline class="cls-25" points="348.14 751.53 349.06 751.68 334.97 755.73 333.74 739.44 336.09 754.61 349.84 751.5"/>
          <polygon class="cls-18" points="347.33 736.88 349.84 751.5 336.09 754.61 333.74 739.44 347.33 736.88"/>
        </g>
        <g>
          <polyline class="cls-25" points="365.35 746.71 366.28 746.86 352.18 750.91 350.96 734.62 353.3 749.79 367.05 746.69"/>
          <polygon class="cls-18" points="364.54 732.06 367.05 746.69 353.3 749.79 350.96 734.62 364.54 732.06"/>
        </g>
        <g>
          <polyline class="cls-25" points="332.3 735.01 333.23 735.15 319.14 739.2 317.91 722.91 320.25 738.09 334 734.98"/>
          <polygon class="cls-18" points="331.49 720.36 334 734.98 320.25 738.09 317.91 722.91 331.49 720.36"/>
        </g>
        <g>
          <polyline class="cls-25" points="379.12 772.87 380.05 773.02 365.96 777.07 364.73 760.78 367.07 775.96 380.82 772.85"/>
          <polygon class="cls-18" points="378.31 758.23 380.82 772.85 367.07 775.96 364.73 760.78 378.31 758.23"/>
        </g>
      </g>
      <ellipse class="cls-29" cx="1530.6" cy="806.64" rx="148.86" ry="28.16"/>
      <ellipse class="cls-30" cx="1266.06" cy="799.6" rx="148.86" ry="16.09"/>
      <g>
        <g>
          <path class="cls-11" d="M1410.69,807.04v-126.78c0-6.65,5.4-12.06,12.03-12.06,.24,0,.47,0,.71,.02l127.78,7.36c11.03,.64,19.67,9.79,19.67,20.84v127.46s7.16,.79,7.16,.79v-128.26c0-14.86-11.59-27.14-26.42-27.99l-127.78-7.36c-11.03-.64-20.32,8.14-20.32,19.19v126.07s7.16,.71,7.16,.71Z"/>
          <path class="cls-2" d="M1419.24,661.04l42.41-6.4c16.2-2.44,32.6-3.29,48.96-2.53l102.41,4.76c1.2,.17,8.41,1.3,12.8,7.88,3.01,4.51,3.05,9.12,2.98,10.83v133.74s-6.18,2.35-6.18,2.35l-.71-130.47c-.01-2.35-2.23-4.06-4.51-3.48l-29.97,7.68c-2.32,.6-3.95,2.69-3.95,5.09v131.8s-5.42,2.4-5.42,2.4v-132.39c-.49-2.59-2.17-9.61-8.37-15.73-5.88-5.81-12.49-7.5-15.11-8.03-45.11-2.5-90.23-5-135.34-7.5Z"/>
          <polygon class="cls-2" points="1468.28 670.81 1468.28 793.95 1460.89 795.7 1460.89 670.81 1468.28 670.81"/>
          <path class="cls-2" d="M1428.87,668.53c-.72,.14-9.27,1.92-11.79,9.01-.72,2.04-.75,3.96-.58,5.46v122.37s-5.8,1.66-5.8,1.66v-126.78c.02-1.31,.25-3.45,1.47-5.66,2.83-5.13,8.55-6.19,9.43-6.34,2.43,.09,4.86,.19,7.29,.28Z"/>
          <polyline class="cls-11" points="1462.37 795.7 1456.46 794.86 1456.46 670.12 1462.37 670.81"/>
          <path class="cls-11" d="M1619.77,811.15l-1.83-.33c-1.14-.21-1.97-1.2-1.97-2.36v-128.29c0-.98,.59-1.86,1.5-2.22h0c.55-.22,1.16-.24,1.72-.03l.46,.17c.59,.21,1.08,.65,1.35,1.22l.68,1.41c.15,.32,.23,.67,.24,1.03l.69,127.05c0,1.5-1.35,2.64-2.83,2.37Z"/>
        </g>
        <g>
          <path class="cls-9" d="M1468.13,626.29c5.84,3.01,12.46,4.72,19.47,4.72,23.49,0,42.6-19.11,42.6-42.6,0-15-7.79-28.2-19.53-35.8l1.39-2.41c12.57,8.06,20.9,22.16,20.9,38.21,0,25.05-20.31,45.36-45.36,45.36-7.52,0-14.61-1.83-20.86-5.07l1.39-2.4Z"/>
          <line class="cls-5" x1="1513.64" y1="545.12" x2="1463.63" y2="631.7"/>
          <g>
            <circle class="cls-22" cx="1484.15" cy="589.1" r="38.46"/>
            <circle class="cls-28" cx="1487.08" cy="593.76" r="30.35"/>
            <circle class="cls-12" cx="1492.26" cy="600.31" r="15.18"/>
            <circle class="cls-23" cx="1496.05" cy="605.83" r="5.52"/>
          </g>
          <rect class="cls-9" x="1487.08" y="632.73" width="5.17" height="9.31" transform="translate(2979.34 1274.78) rotate(-180)"/>
          <path class="cls-9" d="M1466.04,642.04h45.53v3.81c0,6.08-4.94,11.02-11.02,11.02h-23.5c-6.08,0-11.02-4.94-11.02-11.02v-3.81h0Z" transform="translate(2977.62 1298.92) rotate(-180)"/>
        </g>
        <g>
          <path class="cls-9" d="M1542.37,654.89h16.28v1.36c0,2.17-1.77,3.94-3.94,3.94h-8.4c-2.17,0-3.94-1.77-3.94-3.94v-1.36h0Z" transform="translate(3101.02 1315.08) rotate(-180)"/>
          <path class="cls-9" d="M1562.06,654.89h16.28v1.36c0,2.17-1.77,3.94-3.94,3.94h-8.4c-2.17,0-3.94-1.77-3.94-3.94v-1.36h0Z" transform="translate(3140.41 1315.08) rotate(-180)"/>
          <line class="cls-5" x1="1569.92" y1="588.92" x2="1569.92" y2="654.89"/>
          <line class="cls-5" x1="1550.23" y1="588.92" x2="1550.23" y2="654.89"/>
          <path class="cls-22" d="M1570.9,594.94c0-1.03,1.34-1.43,1.89-.56,3.01,4.71,6,7.53,7.86,10.01,2.07,2.75-4.83,27.37-4.83,27.37l-4.92-.81v-36Z"/>
          <path class="cls-22" d="M1551.7,594.94c0-1.03,1.34-1.43,1.89-.56,3.01,4.71,6,7.53,7.86,10.01,2.07,2.75-4.83,27.37-4.83,27.37l-4.92-.81v-36Z"/>
        </g>
      </g>
      <g>
        <rect class="cls-2" x="1153.02" y="498.54" width="191.33" height="5.47" transform="translate(2497.37 1002.55) rotate(-180)"/>
        <rect class="cls-2" x="1153.02" y="663.57" width="191.33" height="5.47" transform="translate(2497.37 1332.6) rotate(-180)"/>
        <g>
          <path class="cls-17" d="M1309.93,497.74v-38.96c0-.51-.31-.97-.78-1.16l-1.66-.69v.42h-3.32s-.82-.42-.82-.42h-.54s1.5,.92,1.5,.92c.47,.29,.75,.8,.74,1.34l-.66,38.26c-.01,.65,.51,1.18,1.16,1.18h3.49c.5,0,.9-.4,.9-.9Z"/>
          <path class="cls-26" d="M1304.04,497.87l.59-38.69c0-.65-.31-1.26-.86-1.61l-.96-.63h-1.11s1.16,.84,1.16,.84c.04,.03,.02,.1-.03,.1h-1.17s-2.87,0-2.87,0l-1.2-.94h-.49s1.31,1.16,1.31,1.16l-.24,39.62c0,.51,.41,.93,.92,.93h4.16c.43,0,.78-.35,.79-.78Z"/>
          <path class="cls-24" d="M1297.98,497.56l.2-39.47c0-.07-.03-.13-.07-.17l-.95-.91s-.1-.07-.16-.07h-.03c-.21,0-.32,.25-.17,.4l.13,.14c.14,.15,.04,.4-.17,.4h-3.86c-.06,0-.11-.02-.15-.05l-1-.83s-.1-.05-.15-.05h0c-.13,0-.24,.11-.24,.24v.08c0,.07,.03,.13,.08,.18l.92,.82c.05,.05,.08,.11,.08,.18v39c0,.68,.55,1.22,1.22,1.22h3.24c.6,0,1.09-.49,1.09-1.09Z"/>
          <path class="cls-27" d="M1292.05,497.72l.04-39.41c0-.06-.03-.13-.07-.17l-1.19-1.09s-.1-.06-.16-.06h-.08c-.13,0-.23,.1-.23,.23h0c0,.13-.1,.23-.23,.23h-3.56c-.13,0-.23,.1-.23,.23v40.73c0,.13,.1,.23,.23,.23h4.56c.51,0,.93-.42,.93-.93Z"/>
          <path class="cls-14" d="M1285.43,498.65h-4.68c-.15,0-.28-.12-.28-.28v-41.44c0-.15,.12-.28,.28-.28h3.2c.15,0,.28-.12,.28-.28h0c0-.15,.12-.28,.28-.28h.32s.08,0,.12,.03l1.23,.6c.1,.05,.16,.14,.16,.25l-.09,40.86c0,.45-.36,.81-.81,.81Z"/>
          <path class="cls-24" d="M1279.55,498.65h-4.68c-.15,0-.28-.12-.28-.28v-41.44c0-.15,.12-.28,.28-.28h3.2c.15,0,.28-.12,.28-.28h0c0-.15,.12-.28,.28-.28h.32s.08,0,.12,.03l1.23,.6c.1,.05,.16,.14,.16,.25l-.09,40.86c0,.45-.36,.81-.81,.81Z"/>
          <path class="cls-24" d="M1273.68,498.65h-4.68c-.15,0-.28-.12-.28-.28v-41.44c0-.15,.12-.28,.28-.28h3.2c.15,0,.28-.12,.28-.28h0c0-.15,.12-.28,.28-.28h.32s.08,0,.12,.03l1.23,.6c.1,.05,.16,.14,.16,.25l-.09,40.86c0,.45-.36,.81-.81,.81Z"/>
          <polygon class="cls-19" points="1253.32 495.65 1253.54 497.54 1258.65 498.65 1268.62 459.65 1267.72 458.43 1267.28 458.1 1267.05 458.65 1262.87 458.1 1262.51 457.54 1253.32 495.65"/>
        </g>
        <g>
          <g>
            <path class="cls-17" d="M1233.4,607.99v-38.96c0-.51-.31-.97-.78-1.16l-1.66-.69v.42h-3.32s-.82-.42-.82-.42h-.54s1.5,.92,1.5,.92c.47,.29,.75,.8,.74,1.34l-.66,38.26c-.01,.65,.51,1.18,1.16,1.18h3.49c.5,0,.9-.4,.9-.9Z"/>
            <path class="cls-26" d="M1227.5,608.11l.59-38.69c0-.65-.31-1.26-.86-1.61l-.96-.63h-1.11s1.16,.84,1.16,.84c.04,.03,.02,.1-.03,.1h-1.17s-2.87,0-2.87,0l-1.2-.94h-.49s1.31,1.16,1.31,1.16l-.24,39.62c0,.51,.41,.93,.92,.93h4.16c.43,0,.78-.35,.79-.78Z"/>
            <path class="cls-24" d="M1221.45,607.8l.2-39.47c0-.07-.03-.13-.07-.17l-.95-.91s-.1-.07-.16-.07h-.03c-.21,0-.32,.25-.17,.4l.13,.14c.14,.15,.04,.4-.17,.4h-3.86c-.06,0-.11-.02-.15-.05l-1-.83s-.1-.05-.15-.05h0c-.13,0-.24,.11-.24,.24v.08c0,.07,.03,.13,.08,.18l.92,.82c.05,.05,.08,.11,.08,.18v39c0,.68,.55,1.22,1.22,1.22h3.24c.6,0,1.09-.49,1.09-1.09Z"/>
            <path class="cls-27" d="M1215.52,607.96l.04-39.41c0-.06-.03-.13-.07-.17l-1.19-1.09s-.1-.06-.16-.06h-.08c-.13,0-.23,.1-.23,.23h0c0,.13-.1,.23-.23,.23h-3.56c-.13,0-.23,.1-.23,.23v40.73c0,.13,.1,.23,.23,.23h4.56c.51,0,.93-.42,.93-.93Z"/>
            <path class="cls-14" d="M1208.89,608.89h-4.68c-.15,0-.28-.12-.28-.28v-41.44c0-.15,.12-.28,.28-.28h3.2c.15,0,.28-.12,.28-.28h0c0-.15,.12-.28,.28-.28h.32s.08,0,.12,.03l1.23,.6c.1,.05,.16,.14,.16,.25l-.09,40.86c0,.45-.36,.81-.81,.81Z"/>
            <path class="cls-24" d="M1203.02,608.89h-4.68c-.15,0-.28-.12-.28-.28v-41.44c0-.15,.12-.28,.28-.28h3.2c.15,0,.28-.12,.28-.28h0c0-.15,.12-.28,.28-.28h.32s.08,0,.12,.03l1.23,.6c.1,.05,.16,.14,.16,.25l-.09,40.86c0,.45-.36,.81-.81,.81Z"/>
            <path class="cls-24" d="M1197.15,608.89h-4.68c-.15,0-.28-.12-.28-.28v-41.44c0-.15,.12-.28,.28-.28h3.2c.15,0,.28-.12,.28-.28h0c0-.15,.12-.28,.28-.28h.32s.08,0,.12,.03l1.23,.6c.1,.05,.16,.14,.16,.25l-.09,40.86c0,.45-.36,.81-.81,.81Z"/>
            <polygon class="cls-19" points="1176.78 605.9 1177 607.78 1182.12 608.89 1192.08 569.89 1191.19 568.67 1190.74 568.34 1190.52 568.9 1186.34 568.34 1185.98 567.79 1176.78 605.9"/>
          </g>
          <g>
            <path class="cls-2" d="M1143.9,346.75v419.07c0,9.32,7.56,16.88,16.88,16.88h175.8c9.32,0,16.88-7.56,16.88-16.88V346.75c0-9.32-7.56-16.88-16.88-16.88h-175.8c-9.32,0-16.88,7.56-16.88,16.88Zm9.11,0c0-4.28,3.48-7.77,7.77-7.77h175.8c4.28,0,7.77,3.48,7.77,7.77v419.07c0,4.28-3.48,7.77-7.77,7.77h-175.8c-4.28,0-7.77-3.48-7.77-7.77V346.75Z"/>
            <path class="cls-2" d="M1333.4,798.18h0c1.52,0,2.75-1.23,2.75-2.75v-9.52c0-1.78-1.44-3.22-3.22-3.22h-7.82c-1.77,0-3.04,1.7-2.54,3.39l3.86,6.87c.84,2.88,3.98,5.23,6.97,5.23Z"/>
            <path class="cls-2" d="M1163.97,799.1h0c-1.52,0-2.75-1.23-2.75-2.75v-10.43c0-1.78,1.44-3.22,3.22-3.22h7.82c1.77,0,3.04,1.7,2.54,3.39l-3.86,7.78c-.84,2.88-3.98,5.23-6.97,5.23Z"/>
            <rect class="cls-2" x="1153.02" y="388.52" width="191.33" height="5.47" transform="translate(2497.37 782.51) rotate(-180)"/>
            <rect class="cls-2" x="1153.02" y="443.53" width="191.33" height="5.47" transform="translate(2497.37 892.53) rotate(-180)"/>
            <rect class="cls-2" x="1153.02" y="553.55" width="191.33" height="5.47" transform="translate(2497.37 1112.57) rotate(-180)"/>
            <rect class="cls-2" x="1153.02" y="608.56" width="191.33" height="5.47" transform="translate(2497.37 1222.58) rotate(-180)"/>
            <line class="cls-13" x1="1248.68" y1="668.81" x2="1248.68" y2="773.58"/>
            <g>
              <path class="cls-17" d="M1254.35,443.08v-38.96c0-.51-.31-.97-.78-1.16l-1.66-.69v.42h-3.32s-.82-.42-.82-.42h-.54s1.5,.92,1.5,.92c.47,.29,.75,.8,.74,1.34l-.66,38.26c-.01,.65,.51,1.18,1.16,1.18h3.49c.5,0,.9-.4,.9-.9Z"/>
              <path class="cls-26" d="M1248.46,443.2l.59-38.69c0-.65-.31-1.26-.86-1.61l-.96-.63h-1.11s1.16,.84,1.16,.84c.04,.03,.02,.1-.03,.1h-1.17s-2.87,0-2.87,0l-1.2-.94h-.49s1.31,1.16,1.31,1.16l-.24,39.62c0,.51,.41,.93,.92,.93h4.16c.43,0,.78-.35,.79-.78Z"/>
              <path class="cls-24" d="M1242.4,442.89l.2-39.47c0-.07-.03-.13-.07-.17l-.95-.91s-.1-.07-.16-.07h-.03c-.21,0-.32,.25-.17,.4l.13,.14c.14,.15,.04,.4-.17,.4h-3.86c-.06,0-.11-.02-.15-.05l-1-.83s-.1-.05-.15-.05h0c-.13,0-.24,.11-.24,.24v.08c0,.07,.03,.13,.08,.18l.92,.82c.05,.05,.08,.11,.08,.18v39c0,.68,.55,1.22,1.22,1.22h3.24c.6,0,1.09-.49,1.09-1.09Z"/>
              <path class="cls-27" d="M1236.48,443.05l.04-39.41c0-.06-.03-.13-.07-.17l-1.19-1.09s-.1-.06-.16-.06h-.08c-.13,0-.23,.1-.23,.23h0c0,.13-.1,.23-.23,.23h-3.56c-.13,0-.23,.1-.23,.23v40.73c0,.13,.1,.23,.23,.23h4.56c.51,0,.93-.42,.93-.93Z"/>
              <path class="cls-14" d="M1229.85,443.98h-4.68c-.15,0-.28-.12-.28-.28v-41.44c0-.15,.12-.28,.28-.28h3.2c.15,0,.28-.12,.28-.28h0c0-.15,.12-.28,.28-.28h.32s.08,0,.12,.03l1.23,.6c.1,.05,.16,.14,.16,.25l-.09,40.86c0,.45-.36,.81-.81,.81Z"/>
              <path class="cls-24" d="M1223.98,443.98h-4.68c-.15,0-.28-.12-.28-.28v-41.44c0-.15,.12-.28,.28-.28h3.2c.15,0,.28-.12,.28-.28h0c0-.15,.12-.28,.28-.28h.32s.08,0,.12,.03l1.23,.6c.1,.05,.16,.14,.16,.25l-.09,40.86c0,.45-.36,.81-.81,.81Z"/>
              <path class="cls-24" d="M1218.1,443.98h-4.68c-.15,0-.28-.12-.28-.28v-41.44c0-.15,.12-.28,.28-.28h3.2c.15,0,.28-.12,.28-.28h0c0-.15,.12-.28,.28-.28h.32s.08,0,.12,.03l1.23,.6c.1,.05,.16,.14,.16,.25l-.09,40.86c0,.45-.36,.81-.81,.81Z"/>
            </g>
            <g>
              <path class="cls-17" d="M1322.62,608.42v-27.61c0-.36-.22-.69-.55-.82l-1.18-.49v.3h-2.35s-.58-.3-.58-.3h-.38s1.06,.65,1.06,.65c.33,.2,.53,.57,.52,.95l-.47,27.11c0,.46,.36,.84,.82,.84h2.47c.35,0,.64-.29,.64-.64Z"/>
              <path class="cls-26" d="M1318.44,608.5l.41-27.41c0-.46-.22-.89-.61-1.14l-.68-.45h-.79s.82,.6,.82,.6c.03,.02,.01,.07-.02,.07h-.83s-2.03,0-2.03,0l-.85-.67h-.34s.93,.82,.93,.82l-.17,28.07c0,.36,.29,.66,.65,.66h2.95c.31,0,.55-.25,.56-.55Z"/>
              <path class="cls-24" d="M1314.15,608.29l.14-27.97s-.02-.09-.05-.12l-.67-.65s-.07-.05-.12-.05h-.02c-.15,0-.22,.18-.12,.28l.09,.1c.1,.11,.03,.28-.12,.28h-2.73s-.08-.01-.11-.04l-.71-.59s-.07-.04-.11-.04h0c-.09,0-.17,.08-.17,.17v.06s.02,.09,.06,.13l.65,.58s.06,.08,.06,.13v13.43s0,14.21,0,14.21c0,.48,.39,.87,.87,.87h2.3c.43,0,.77-.34,.77-.77Z"/>
              <path class="cls-14" d="M1308.94,609.06h-4.68c-.15,0-.28-.12-.28-.28v-41.44c0-.15,.12-.28,.28-.28h3.2c.15,0,.28-.12,.28-.28h0c0-.15,.12-.28,.28-.28h.32s.08,0,.12,.03l1.23,.6c.1,.05,.16,.14,.16,.25l-.09,40.86c0,.45-.36,.81-.81,.81Z"/>
              <path class="cls-24" d="M1303.07,609.06h-4.68c-.15,0-.28-.12-.28-.28v-41.44c0-.15,.12-.28,.28-.28h3.2c.15,0,.28-.12,.28-.28h0c0-.15,.12-.28,.28-.28h.32s.08,0,.12,.03l1.23,.6c.1,.05,.16,.14,.16,.25l-.09,40.86c0,.45-.36,.81-.81,.81Z"/>
              <path class="cls-14" d="M1297.34,609.06h-4.68c-.15,0-.28-.12-.28-.28v-41.44c0-.15,.12-.28,.28-.28h3.2c.15,0,.28-.12,.28-.28h0c0-.15,.12-.28,.28-.28h.32s.08,0,.12,.03l1.23,.6c.1,.05,.16,.14,.16,.25l-.09,40.86c0,.45-.36,.81-.81,.81Z"/>
              <path class="cls-14" d="M1286.51,609.06h-4.68c-.15,0-.28-.12-.28-.28v-41.44c0-.15,.12-.28,.28-.28h3.2c.15,0,.28-.12,.28-.28h0c0-.15,.12-.28,.28-.28h.32s.08,0,.12,.03l1.23,.6c.1,.05,.16,.14,.16,.25l-.09,40.86c0,.45-.36,.81-.81,.81Z"/>
              <path class="cls-27" d="M1280.32,609.06h-4.68c-.15,0-.28-.12-.28-.28v-41.44c0-.15,.12-.28,.28-.28h3.2c.15,0,.28-.12,.28-.28h0c0-.15,.12-.28,.28-.28h.32s.08,0,.12,.03l1.23,.6c.1,.05,.16,.14,.16,.25l-.09,40.86c0,.45-.36,.81-.81,.81Z"/>
              <path class="cls-24" d="M1291.47,609.06h-4.68c-.15,0-.28-.12-.28-.28v-41.44c0-.15,.12-.28,.28-.28h3.2c.15,0,.28-.12,.28-.28h0c0-.15,.12-.28,.28-.28h.32s.08,0,.12,.03l1.23,.6c.1,.05,.16,.14,.16,.25l-.09,40.86c0,.45-.36,.81-.81,.81Z"/>
              <path class="cls-27" d="M1274.45,609.06h-4.68c-.15,0-.28-.12-.28-.28v-41.44c0-.15,.12-.28,.28-.28h3.2c.15,0,.28-.12,.28-.28h0c0-.15,.12-.28,.28-.28h.32s.08,0,.12,.03l1.23,.6c.1,.05,.16,.14,.16,.25l-.09,40.86c0,.45-.36,.81-.81,.81Z"/>
              <path class="cls-24" d="M1268.26,609.06h-4.68c-.15,0-.28-.12-.28-.28v-41.44c0-.15,.12-.28,.28-.28h3.2c.15,0,.28-.12,.28-.28h0c0-.15,.12-.28,.28-.28h.32s.08,0,.12,.03l1.23,.6c.1,.05,.16,.14,.16,.25l-.09,40.86c0,.45-.36,.81-.81,.81Z"/>
              <path class="cls-24" d="M1262.08,609.06h-4.68c-.15,0-.28-.12-.28-.28v-41.44c0-.15,.12-.28,.28-.28h3.2c.15,0,.28-.12,.28-.28h0c0-.15,.12-.28,.28-.28h.32s.08,0,.12,.03l1.23,.6c.1,.05,.16,.14,.16,.25l-.09,40.86c0,.45-.36,.81-.81,.81Z"/>
              <path class="cls-24" d="M1255.89,609.06h-4.68c-.15,0-.28-.12-.28-.28v-41.44c0-.15,.12-.28,.28-.28h3.2c.15,0,.28-.12,.28-.28h0c0-.15,.12-.28,.28-.28h.32s.08,0,.12,.03l1.23,.6c.1,.05,.16,.14,.16,.25l-.09,40.86c0,.45-.36,.81-.81,.81Z"/>
            </g>
            <g>
              <path class="cls-17" d="M1322.62,552.84v-27.61c0-.36-.22-.69-.55-.82l-1.18-.49v.3h-2.35s-.58-.3-.58-.3h-.38s1.06,.65,1.06,.65c.33,.2,.53,.57,.52,.95l-.47,27.11c0,.46,.36,.84,.82,.84h2.47c.35,0,.64-.29,.64-.64Z"/>
              <path class="cls-26" d="M1318.44,552.93l.41-27.41c0-.46-.22-.89-.61-1.14l-.68-.45h-.79s.82,.6,.82,.6c.03,.02,.01,.07-.02,.07h-.83s-2.03,0-2.03,0l-.85-.67h-.34s.93,.82,.93,.82l-.17,28.07c0,.36,.29,.66,.65,.66h2.95c.31,0,.55-.25,.56-.55Z"/>
              <path class="cls-24" d="M1314.15,552.71l.14-27.97s-.02-.09-.05-.12l-.67-.65s-.07-.05-.12-.05h-.02c-.15,0-.22,.18-.12,.28l.09,.1c.1,.11,.03,.28-.12,.28h-2.73s-.08-.01-.11-.04l-.71-.59s-.07-.04-.11-.04h0c-.09,0-.17,.08-.17,.17v.06s.02,.09,.06,.13l.65,.58s.06,.08,.06,.13v13.43s0,14.21,0,14.21c0,.48,.39,.87,.87,.87h2.3c.43,0,.77-.34,.77-.77Z"/>
              <path class="cls-14" d="M1308.94,553.48h-4.68c-.15,0-.28-.12-.28-.28v-41.44c0-.15,.12-.28,.28-.28h3.2c.15,0,.28-.12,.28-.28h0c0-.15,.12-.28,.28-.28h.32s.08,0,.12,.03l1.23,.6c.1,.05,.16,.14,.16,.25l-.09,40.86c0,.45-.36,.81-.81,.81Z"/>
              <path class="cls-24" d="M1303.07,553.48h-4.68c-.15,0-.28-.12-.28-.28v-41.44c0-.15,.12-.28,.28-.28h3.2c.15,0,.28-.12,.28-.28h0c0-.15,.12-.28,.28-.28h.32s.08,0,.12,.03l1.23,.6c.1,.05,.16,.14,.16,.25l-.09,40.86c0,.45-.36,.81-.81,.81Z"/>
              <path class="cls-14" d="M1297.34,553.48h-4.68c-.15,0-.28-.12-.28-.28v-41.44c0-.15,.12-.28,.28-.28h3.2c.15,0,.28-.12,.28-.28h0c0-.15,.12-.28,.28-.28h.32s.08,0,.12,.03l1.23,.6c.1,.05,.16,.14,.16,.25l-.09,40.86c0,.45-.36,.81-.81,.81Z"/>
              <path class="cls-14" d="M1286.51,553.48h-4.68c-.15,0-.28-.12-.28-.28v-41.44c0-.15,.12-.28,.28-.28h3.2c.15,0,.28-.12,.28-.28h0c0-.15,.12-.28,.28-.28h.32s.08,0,.12,.03l1.23,.6c.1,.05,.16,.14,.16,.25l-.09,40.86c0,.45-.36,.81-.81,.81Z"/>
              <path class="cls-27" d="M1280.32,553.48h-4.68c-.15,0-.28-.12-.28-.28v-41.44c0-.15,.12-.28,.28-.28h3.2c.15,0,.28-.12,.28-.28h0c0-.15,.12-.28,.28-.28h.32s.08,0,.12,.03l1.23,.6c.1,.05,.16,.14,.16,.25l-.09,40.86c0,.45-.36,.81-.81,.81Z"/>
              <path class="cls-24" d="M1291.47,553.48h-4.68c-.15,0-.28-.12-.28-.28v-41.44c0-.15,.12-.28,.28-.28h3.2c.15,0,.28-.12,.28-.28h0c0-.15,.12-.28,.28-.28h.32s.08,0,.12,.03l1.23,.6c.1,.05,.16,.14,.16,.25l-.09,40.86c0,.45-.36,.81-.81,.81Z"/>
              <path class="cls-27" d="M1274.45,553.48h-4.68c-.15,0-.28-.12-.28-.28v-41.44c0-.15,.12-.28,.28-.28h3.2c.15,0,.28-.12,.28-.28h0c0-.15,.12-.28,.28-.28h.32s.08,0,.12,.03l1.23,.6c.1,.05,.16,.14,.16,.25l-.09,40.86c0,.45-.36,.81-.81,.81Z"/>
              <path class="cls-24" d="M1268.26,553.48h-4.68c-.15,0-.28-.12-.28-.28v-41.44c0-.15,.12-.28,.28-.28h3.2c.15,0,.28-.12,.28-.28h0c0-.15,.12-.28,.28-.28h.32s.08,0,.12,.03l1.23,.6c.1,.05,.16,.14,.16,.25l-.09,40.86c0,.45-.36,.81-.81,.81Z"/>
              <path class="cls-24" d="M1262.08,553.48h-4.68c-.15,0-.28-.12-.28-.28v-41.44c0-.15,.12-.28,.28-.28h3.2c.15,0,.28-.12,.28-.28h0c0-.15,.12-.28,.28-.28h.32s.08,0,.12,.03l1.23,.6c.1,.05,.16,.14,.16,.25l-.09,40.86c0,.45-.36,.81-.81,.81Z"/>
              <path class="cls-24" d="M1255.89,553.48h-4.68c-.15,0-.28-.12-.28-.28v-41.44c0-.15,.12-.28,.28-.28h3.2c.15,0,.28-.12,.28-.28h0c0-.15,.12-.28,.28-.28h.32s.08,0,.12,.03l1.23,.6c.1,.05,.16,.14,.16,.25l-.09,40.86c0,.45-.36,.81-.81,.81Z"/>
            </g>
            <g>
              <path class="cls-17" d="M1177.13,552.84v-27.61c0-.36,.22-.69,.55-.82l1.18-.49v.3s2.35,0,2.35,0l.58-.3h.38s-1.06,.65-1.06,.65c-.33,.2-.53,.57-.52,.95l.47,27.11c0,.46-.36,.84-.82,.84h-2.47c-.35,0-.64-.29-.64-.64Z"/>
              <path class="cls-26" d="M1181.31,552.93l-.41-27.41c0-.46,.22-.89,.61-1.14l.68-.45h.79l-.82,.6s-.01,.07,.02,.07h.83s2.03,0,2.03,0l.85-.67h.34s-.93,.82-.93,.82l.17,28.07c0,.36-.29,.66-.65,.66h-2.95c-.31,0-.55-.25-.56-.55Z"/>
              <path class="cls-24" d="M1185.6,552.71l-.14-27.97s.02-.09,.05-.12l.67-.65s.07-.05,.12-.05h.02c.15,0,.22,.18,.12,.28l-.09,.1c-.1,.11-.03,.28,.12,.28h2.73s.08-.01,.11-.04l.71-.59s.07-.04,.11-.04h0c.09,0,.17,.08,.17,.17v.06s-.02,.09-.06,.13l-.65,.58s-.06,.08-.06,.13v13.43s0,14.21,0,14.21c0,.48-.39,.87-.87,.87h-2.3c-.43,0-.77-.34-.77-.77Z"/>
              <path class="cls-14" d="M1190.81,553.48h4.68c.15,0,.28-.12,.28-.28v-41.44c0-.15-.12-.28-.28-.28h-3.2c-.15,0-.28-.12-.28-.28h0c0-.15-.12-.28-.28-.28h-.32s-.08,0-.12,.03l-1.23,.6c-.1,.05-.16,.14-.16,.25l.09,40.86c0,.45,.36,.81,.81,.81Z"/>
              <path class="cls-24" d="M1196.68,553.48h4.68c.15,0,.28-.12,.28-.28v-41.44c0-.15-.12-.28-.28-.28h-3.2c-.15,0-.28-.12-.28-.28h0c0-.15-.12-.28-.28-.28h-.32s-.08,0-.12,.03l-1.23,.6c-.1,.05-.16,.14-.16,.25l.09,40.86c0,.45,.36,.81,.81,.81Z"/>
              <path class="cls-14" d="M1202.41,553.48h4.68c.15,0,.28-.12,.28-.28v-41.44c0-.15-.12-.28-.28-.28h-3.2c-.15,0-.28-.12-.28-.28h0c0-.15-.12-.28-.28-.28h-.32s-.08,0-.12,.03l-1.23,.6c-.1,.05-.16,.14-.16,.25l.09,40.86c0,.45,.36,.81,.81,.81Z"/>
              <path class="cls-14" d="M1213.24,553.48h4.68c.15,0,.28-.12,.28-.28v-41.44c0-.15-.12-.28-.28-.28h-3.2c-.15,0-.28-.12-.28-.28h0c0-.15-.12-.28-.28-.28h-.32s-.08,0-.12,.03l-1.23,.6c-.1,.05-.16,.14-.16,.25l.09,40.86c0,.45,.36,.81,.81,.81Z"/>
              <path class="cls-27" d="M1219.43,553.48h4.68c.15,0,.28-.12,.28-.28v-41.44c0-.15-.12-.28-.28-.28h-3.2c-.15,0-.28-.12-.28-.28h0c0-.15-.12-.28-.28-.28h-.32s-.08,0-.12,.03l-1.23,.6c-.1,.05-.16,.14-.16,.25l.09,40.86c0,.45,.36,.81,.81,.81Z"/>
              <path class="cls-24" d="M1208.28,553.48h4.68c.15,0,.28-.12,.28-.28v-41.44c0-.15-.12-.28-.28-.28h-3.2c-.15,0-.28-.12-.28-.28h0c0-.15-.12-.28-.28-.28h-.32s-.08,0-.12,.03l-1.23,.6c-.1,.05-.16,.14-.16,.25l.09,40.86c0,.45,.36,.81,.81,.81Z"/>
              <path class="cls-27" d="M1225.3,553.48h4.68c.15,0,.28-.12,.28-.28v-41.44c0-.15-.12-.28-.28-.28h-3.2c-.15,0-.28-.12-.28-.28h0c0-.15-.12-.28-.28-.28h-.32s-.08,0-.12,.03l-1.23,.6c-.1,.05-.16,.14-.16,.25l.09,40.86c0,.45,.36,.81,.81,.81Z"/>
              <path class="cls-24" d="M1231.49,553.48h4.68c.15,0,.28-.12,.28-.28v-41.44c0-.15-.12-.28-.28-.28h-3.2c-.15,0-.28-.12-.28-.28h0c0-.15-.12-.28-.28-.28h-.32s-.08,0-.12,.03l-1.23,.6c-.1,.05-.16,.14-.16,.25l.09,40.86c0,.45,.36,.81,.81,.81Z"/>
              <path class="cls-24" d="M1237.68,553.48h4.68c.15,0,.28-.12,.28-.28v-41.44c0-.15-.12-.28-.28-.28h-3.2c-.15,0-.28-.12-.28-.28h0c0-.15-.12-.28-.28-.28h-.32s-.08,0-.12,.03l-1.23,.6c-.1,.05-.16,.14-.16,.25l.09,40.86c0,.45,.36,.81,.81,.81Z"/>
              <path class="cls-24" d="M1243.86,553.48h4.68c.15,0,.28-.12,.28-.28v-41.44c0-.15-.12-.28-.28-.28h-3.2c-.15,0-.28-.12-.28-.28h0c0-.15-.12-.28-.28-.28h-.32s-.08,0-.12,.03l-1.23,.6c-.1,.05-.16,.14-.16,.25l.09,40.86c0,.45,.36,.81,.81,.81Z"/>
            </g>
            <g>
              <path class="cls-17" d="M1319.89,387.93v-27.61c0-.36-.22-.69-.55-.82l-1.18-.49v.3h-2.35s-.58-.3-.58-.3h-.38s1.06,.65,1.06,.65c.33,.2,.53,.57,.52,.95l-.47,27.11c0,.46,.36,.84,.82,.84h2.47c.35,0,.64-.29,.64-.64Z"/>
              <path class="cls-26" d="M1315.71,388.01l.41-27.41c0-.46-.22-.89-.61-1.14l-.68-.45h-.79s.82,.6,.82,.6c.03,.02,.01,.07-.02,.07h-.83s-2.03,0-2.03,0l-.85-.67h-.34s.93,.82,.93,.82l-.17,28.07c0,.36,.29,.66,.65,.66h2.95c.31,0,.55-.25,.56-.55Z"/>
              <path class="cls-24" d="M1311.42,387.8l.14-27.97s-.02-.09-.05-.12l-.67-.65s-.07-.05-.12-.05h-.02c-.15,0-.22,.18-.12,.28l.09,.1c.1,.11,.03,.28-.12,.28h-2.73s-.08-.01-.11-.04l-.71-.59s-.07-.04-.11-.04h0c-.09,0-.17,.08-.17,.17v.06s.02,.09,.06,.13l.65,.58s.06,.08,.06,.13v13.43s0,14.21,0,14.21c0,.48,.39,.87,.87,.87h2.3c.43,0,.77-.34,.77-.77Z"/>
              <path class="cls-14" d="M1306.21,388.57h-4.68c-.15,0-.28-.12-.28-.28v-41.44c0-.15,.12-.28,.28-.28h3.2c.15,0,.28-.12,.28-.28h0c0-.15,.12-.28,.28-.28h.32s.08,0,.12,.03l1.23,.6c.1,.05,.16,.14,.16,.25l-.09,40.86c0,.45-.36,.81-.81,.81Z"/>
              <path class="cls-24" d="M1300.34,388.57h-4.68c-.15,0-.28-.12-.28-.28v-41.44c0-.15,.12-.28,.28-.28h3.2c.15,0,.28-.12,.28-.28h0c0-.15,.12-.28,.28-.28h.32s.08,0,.12,.03l1.23,.6c.1,.05,.16,.14,.16,.25l-.09,40.86c0,.45-.36,.81-.81,.81Z"/>
              <path class="cls-14" d="M1294.61,388.57h-4.68c-.15,0-.28-.12-.28-.28v-41.44c0-.15,.12-.28,.28-.28h3.2c.15,0,.28-.12,.28-.28h0c0-.15,.12-.28,.28-.28h.32s.08,0,.12,.03l1.23,.6c.1,.05,.16,.14,.16,.25l-.09,40.86c0,.45-.36,.81-.81,.81Z"/>
              <path class="cls-14" d="M1283.78,388.57h-4.68c-.15,0-.28-.12-.28-.28v-41.44c0-.15,.12-.28,.28-.28h3.2c.15,0,.28-.12,.28-.28h0c0-.15,.12-.28,.28-.28h.32s.08,0,.12,.03l1.23,.6c.1,.05,.16,.14,.16,.25l-.09,40.86c0,.45-.36,.81-.81,.81Z"/>
              <path class="cls-27" d="M1277.59,388.57h-4.68c-.15,0-.28-.12-.28-.28v-41.44c0-.15,.12-.28,.28-.28h3.2c.15,0,.28-.12,.28-.28h0c0-.15,.12-.28,.28-.28h.32s.08,0,.12,.03l1.23,.6c.1,.05,.16,.14,.16,.25l-.09,40.86c0,.45-.36,.81-.81,.81Z"/>
              <path class="cls-24" d="M1288.74,388.57h-4.68c-.15,0-.28-.12-.28-.28v-41.44c0-.15,.12-.28,.28-.28h3.2c.15,0,.28-.12,.28-.28h0c0-.15,.12-.28,.28-.28h.32s.08,0,.12,.03l1.23,.6c.1,.05,.16,.14,.16,.25l-.09,40.86c0,.45-.36,.81-.81,.81Z"/>
              <path class="cls-27" d="M1271.72,388.57h-4.68c-.15,0-.28-.12-.28-.28v-41.44c0-.15,.12-.28,.28-.28h3.2c.15,0,.28-.12,.28-.28h0c0-.15,.12-.28,.28-.28h.32s.08,0,.12,.03l1.23,.6c.1,.05,.16,.14,.16,.25l-.09,40.86c0,.45-.36,.81-.81,.81Z"/>
              <path class="cls-24" d="M1265.53,388.57h-4.68c-.15,0-.28-.12-.28-.28v-41.44c0-.15,.12-.28,.28-.28h3.2c.15,0,.28-.12,.28-.28h0c0-.15,.12-.28,.28-.28h.32s.08,0,.12,.03l1.23,.6c.1,.05,.16,.14,.16,.25l-.09,40.86c0,.45-.36,.81-.81,.81Z"/>
              <path class="cls-24" d="M1259.34,388.57h-4.68c-.15,0-.28-.12-.28-.28v-41.44c0-.15,.12-.28,.28-.28h3.2c.15,0,.28-.12,.28-.28h0c0-.15,.12-.28,.28-.28h.32s.08,0,.12,.03l1.23,.6c.1,.05,.16,.14,.16,.25l-.09,40.86c0,.45-.36,.81-.81,.81Z"/>
              <path class="cls-24" d="M1253.16,388.57h-4.68c-.15,0-.28-.12-.28-.28v-41.44c0-.15,.12-.28,.28-.28h3.2c.15,0,.28-.12,.28-.28h0c0-.15,.12-.28,.28-.28h.32s.08,0,.12,.03l1.23,.6c.1,.05,.16,.14,.16,.25l-.09,40.86c0,.45-.36,.81-.81,.81Z"/>
            </g>
            <g>
              <path class="cls-17" d="M1327.17,663.08v-27.61c0-.36-.22-.69-.55-.82l-1.18-.49v.3h-2.35s-.58-.3-.58-.3h-.38s1.06,.65,1.06,.65c.33,.2,.53,.57,.52,.95l-.47,27.11c0,.46,.36,.84,.82,.84h2.47c.35,0,.64-.29,.64-.64Z"/>
              <path class="cls-26" d="M1323,663.17l.41-27.41c0-.46-.22-.89-.61-1.14l-.68-.45h-.79s.82,.6,.82,.6c.03,.02,.01,.07-.02,.07h-.83s-2.03,0-2.03,0l-.85-.67h-.34s.93,.82,.93,.82l-.17,28.07c0,.36,.29,.66,.65,.66h2.95c.31,0,.55-.25,.56-.55Z"/>
              <path class="cls-24" d="M1318.71,662.95l.14-27.97s-.02-.09-.05-.12l-.67-.65s-.07-.05-.12-.05h-.02c-.15,0-.22,.18-.12,.28l.09,.1c.1,.11,.03,.28-.12,.28h-2.73s-.08-.01-.11-.04l-.71-.59s-.07-.04-.11-.04h0c-.09,0-.17,.08-.17,.17v.06s.02,.09,.06,.13l.65,.58s.06,.08,.06,.13v13.43s0,14.21,0,14.21c0,.48,.39,.87,.87,.87h2.3c.43,0,.77-.34,.77-.77Z"/>
              <path class="cls-14" d="M1313.5,663.72h-4.68c-.15,0-.28-.12-.28-.28v-41.44c0-.15,.12-.28,.28-.28h3.2c.15,0,.28-.12,.28-.28h0c0-.15,.12-.28,.28-.28h.32s.08,0,.12,.03l1.23,.6c.1,.05,.16,.14,.16,.25l-.09,40.86c0,.45-.36,.81-.81,.81Z"/>
              <path class="cls-24" d="M1307.63,663.72h-4.68c-.15,0-.28-.12-.28-.28v-41.44c0-.15,.12-.28,.28-.28h3.2c.15,0,.28-.12,.28-.28h0c0-.15,.12-.28,.28-.28h.32s.08,0,.12,.03l1.23,.6c.1,.05,.16,.14,.16,.25l-.09,40.86c0,.45-.36,.81-.81,.81Z"/>
              <path class="cls-14" d="M1301.9,663.72h-4.68c-.15,0-.28-.12-.28-.28v-41.44c0-.15,.12-.28,.28-.28h3.2c.15,0,.28-.12,.28-.28h0c0-.15,.12-.28,.28-.28h.32s.08,0,.12,.03l1.23,.6c.1,.05,.16,.14,.16,.25l-.09,40.86c0,.45-.36,.81-.81,.81Z"/>
              <path class="cls-14" d="M1291.07,663.72h-4.68c-.15,0-.28-.12-.28-.28v-41.44c0-.15,.12-.28,.28-.28h3.2c.15,0,.28-.12,.28-.28h0c0-.15,.12-.28,.28-.28h.32s.08,0,.12,.03l1.23,.6c.1,.05,.16,.14,.16,.25l-.09,40.86c0,.45-.36,.81-.81,.81Z"/>
              <path class="cls-27" d="M1284.88,663.72h-4.68c-.15,0-.28-.12-.28-.28v-41.44c0-.15,.12-.28,.28-.28h3.2c.15,0,.28-.12,.28-.28h0c0-.15,.12-.28,.28-.28h.32s.08,0,.12,.03l1.23,.6c.1,.05,.16,.14,.16,.25l-.09,40.86c0,.45-.36,.81-.81,.81Z"/>
              <path class="cls-24" d="M1296.03,663.72h-4.68c-.15,0-.28-.12-.28-.28v-41.44c0-.15,.12-.28,.28-.28h3.2c.15,0,.28-.12,.28-.28h0c0-.15,.12-.28,.28-.28h.32s.08,0,.12,.03l1.23,.6c.1,.05,.16,.14,.16,.25l-.09,40.86c0,.45-.36,.81-.81,.81Z"/>
              <path class="cls-27" d="M1279.01,663.72h-4.68c-.15,0-.28-.12-.28-.28v-41.44c0-.15,.12-.28,.28-.28h3.2c.15,0,.28-.12,.28-.28h0c0-.15,.12-.28,.28-.28h.32s.08,0,.12,.03l1.23,.6c.1,.05,.16,.14,.16,.25l-.09,40.86c0,.45-.36,.81-.81,.81Z"/>
              <path class="cls-24" d="M1272.82,663.72h-4.68c-.15,0-.28-.12-.28-.28v-41.44c0-.15,.12-.28,.28-.28h3.2c.15,0,.28-.12,.28-.28h0c0-.15,.12-.28,.28-.28h.32s.08,0,.12,.03l1.23,.6c.1,.05,.16,.14,.16,.25l-.09,40.86c0,.45-.36,.81-.81,.81Z"/>
              <path class="cls-24" d="M1266.63,663.72h-4.68c-.15,0-.28-.12-.28-.28v-41.44c0-.15,.12-.28,.28-.28h3.2c.15,0,.28-.12,.28-.28h0c0-.15,.12-.28,.28-.28h.32s.08,0,.12,.03l1.23,.6c.1,.05,.16,.14,.16,.25l-.09,40.86c0,.45-.36,.81-.81,.81Z"/>
              <path class="cls-24" d="M1260.44,663.72h-4.68c-.15,0-.28-.12-.28-.28v-41.44c0-.15,.12-.28,.28-.28h3.2c.15,0,.28-.12,.28-.28h0c0-.15,.12-.28,.28-.28h.32s.08,0,.12,.03l1.23,.6c.1,.05,.16,.14,.16,.25l-.09,40.86c0,.45-.36,.81-.81,.81Z"/>
            </g>
          </g>
          <g>
            <rect class="cls-10" x="1152.56" y="669.26" width="95.67" height="104.78" rx="9.83" ry="9.83" transform="translate(2400.79 1443.3) rotate(-180)"/>
            <rect class="cls-6" x="1154.38" y="680.2" width="92.02" height="82.91" rx="6.45" ry="6.45" transform="translate(1922.04 -478.74) rotate(90)"/>
            <line class="cls-8" x1="1235.47" y1="675.64" x2="1235.47" y2="767.66"/>
            <line class="cls-8" x1="1165.77" y1="675.64" x2="1165.77" y2="767.66"/>
            <line class="cls-8" x1="1171.13" y1="675.64" x2="1171.13" y2="767.66"/>
            <line class="cls-8" x1="1176.49" y1="675.64" x2="1176.49" y2="767.66"/>
            <line class="cls-8" x1="1181.86" y1="675.64" x2="1181.86" y2="767.66"/>
            <line class="cls-8" x1="1187.22" y1="675.64" x2="1187.22" y2="767.66"/>
            <line class="cls-8" x1="1192.58" y1="675.64" x2="1192.58" y2="767.66"/>
            <line class="cls-8" x1="1197.94" y1="675.64" x2="1197.94" y2="767.66"/>
            <line class="cls-8" x1="1203.3" y1="675.64" x2="1203.3" y2="767.66"/>
            <line class="cls-8" x1="1208.66" y1="675.64" x2="1208.66" y2="767.66"/>
            <line class="cls-8" x1="1214.03" y1="675.64" x2="1214.03" y2="767.66"/>
            <line class="cls-8" x1="1219.39" y1="675.64" x2="1219.39" y2="767.66"/>
            <line class="cls-8" x1="1224.75" y1="675.64" x2="1224.75" y2="767.66"/>
            <line class="cls-8" x1="1230.11" y1="675.64" x2="1230.11" y2="767.66"/>
          </g>
          <g>
            <rect class="cls-10" x="1249.14" y="669.26" width="95.67" height="104.78" rx="9.83" ry="9.83" transform="translate(2593.94 1443.3) rotate(-180)"/>
            <rect class="cls-6" x="1250.96" y="680.2" width="92.02" height="82.91" rx="6.45" ry="6.45" transform="translate(2018.62 -575.32) rotate(90)"/>
            <line class="cls-8" x1="1332.05" y1="675.64" x2="1332.05" y2="767.66"/>
            <line class="cls-8" x1="1262.35" y1="675.64" x2="1262.35" y2="767.66"/>
            <line class="cls-8" x1="1267.71" y1="675.64" x2="1267.71" y2="767.66"/>
            <line class="cls-8" x1="1273.07" y1="675.64" x2="1273.07" y2="767.66"/>
            <line class="cls-8" x1="1278.43" y1="675.64" x2="1278.43" y2="767.66"/>
            <line class="cls-8" x1="1283.8" y1="675.64" x2="1283.8" y2="767.66"/>
            <line class="cls-8" x1="1289.16" y1="675.64" x2="1289.16" y2="767.66"/>
            <line class="cls-8" x1="1294.52" y1="675.64" x2="1294.52" y2="767.66"/>
            <line class="cls-8" x1="1299.88" y1="675.64" x2="1299.88" y2="767.66"/>
            <line class="cls-8" x1="1305.24" y1="675.64" x2="1305.24" y2="767.66"/>
            <line class="cls-8" x1="1310.6" y1="675.64" x2="1310.6" y2="767.66"/>
            <line class="cls-8" x1="1315.97" y1="675.64" x2="1315.97" y2="767.66"/>
            <line class="cls-8" x1="1321.33" y1="675.64" x2="1321.33" y2="767.66"/>
            <line class="cls-8" x1="1326.69" y1="675.64" x2="1326.69" y2="767.66"/>
          </g>
        </g>
      </g>
    </g>
    <g>
      <circle class="cls-2" cx="960" cy="927" r="20"/>
      <g>
        <line class="cls-7" x1="959.29" y1="933" x2="949.29" y2="923"/>
        <line class="cls-7" x1="970.71" y1="923" x2="959.29" y2="933"/>
      </g>
    </g>
  </g>
</svg>