<?xml version="1.0" encoding="UTF-8"?>
<svg id="Layer_2" data-name="Layer 2" xmlns="http://www.w3.org/2000/svg" xmlns:xlink="http://www.w3.org/1999/xlink" viewBox="0 0 1200 617.68">
  <defs>
    <style>
      .cls-1 {
        fill: url(#linear-gradient);
      }

      .cls-2 {
        fill: none;
        stroke: #f46708;
        stroke-miterlimit: 10;
        stroke-width: 3.92px;
      }

      .cls-3 {
        fill: #f46708;
      }

      .cls-4 {
        fill: #00c3ff;
      }

      .cls-5 {
        fill: #006ee5;
      }

      .cls-6 {
        fill: #6995b1;
      }

      .cls-7 {
        fill: #fee;
      }

      .cls-8 {
        fill: #ffda00;
      }

      .cls-9 {
        fill: #ff0351;
      }

      .cls-10 {
        fill: #ffb808;
      }

      .cls-11 {
        fill: #31587c;
      }

      .cls-12 {
        fill: #aac5d2;
      }

      .cls-13 {
        fill: #dbdbdb;
      }

      .cls-14 {
        fill: #457395;
      }

      .cls-15 {
        fill: url(#linear-gradient-2);
      }

      .cls-15, .cls-16 {
        opacity: .59;
      }

      .cls-16 {
        fill: url(#linear-gradient-3);
      }
    </style>
    <linearGradient id="linear-gradient" x1="0" y1="308.84" x2="1200" y2="308.84" gradientUnits="userSpaceOnUse">
      <stop offset="0" stop-color="#fff"/>
      <stop offset=".79" stop-color="#ff7f19"/>
    </linearGradient>
    <linearGradient id="linear-gradient-2" x1="92" y1="540.5" x2="388" y2="540.5" xlink:href="#linear-gradient"/>
    <linearGradient id="linear-gradient-3" x1="254" y1="536.5" x2="550" y2="536.5" gradientUnits="userSpaceOnUse">
      <stop offset="0" stop-color="#fff"/>
      <stop offset="0" stop-color="#ff7f19"/>
    </linearGradient>
  </defs>
  <g id="Layer_1-2" data-name="Layer 1">
    <g>
      <path class="cls-1" d="M501.92,494.26c-65.06-6.55-119.89-49.24-120.04-114.63l-.38-124.63,.12-50.24c.1-43.11-27.16-81.54-67.88-95.7L0,0V400.3c0,102.93,83.44,186.38,186.38,186.38l612.62,31h0c257.64,0,401-22.18,401-52.18,0-55.76-378-39-698.08-71.24Z"/>
      <ellipse class="cls-15" cx="240" cy="540.5" rx="148" ry="28"/>
      <ellipse class="cls-16" cx="402" cy="536.5" rx="148" ry="16"/>
      <g>
        <g>
          <path class="cls-4" d="M378.27,540.19v-125.34c0-10.98-9.24-19.71-20.21-19.08l-127.04,7.32c-14.75,.85-26.27,13.06-26.27,27.83v127.51l7.12-.79v-126.72c0-10.99,8.59-20.08,19.56-20.72l127.04-7.32c.24-.01,.47-.02,.71-.02,6.6,0,11.96,5.38,11.96,11.99v126.05l7.12-.71Z"/>
          <path class="cls-5" d="M362.64,395.74l-42.16-6.36c-16.1-2.43-32.41-3.27-48.68-2.52l-101.81,4.74c-1.19,.17-8.36,1.3-12.73,7.83-3,4.48-3.03,9.06-2.96,10.77v132.96l6.14,2.34,.71-129.72c.01-2.34,2.22-4.04,4.48-3.46l29.79,7.64c2.31,.59,3.93,2.67,3.93,5.06v131.03l5.38,2.38v-131.62c.49-2.58,2.16-9.56,8.32-15.64,5.85-5.77,12.42-7.46,15.02-7.98,44.85-2.48,89.7-4.97,134.56-7.45Z"/>
          <polygon class="cls-5" points="313.89 405.45 313.89 527.88 321.23 529.62 321.23 405.45 313.89 405.45"/>
          <path class="cls-5" d="M353.07,403.2c.71,.14,9.22,1.91,11.72,8.96,.72,2.03,.75,3.94,.58,5.43v121.66l5.77,1.65v-126.05c-.02-1.31-.24-3.43-1.46-5.63-2.81-5.1-8.5-6.15-9.37-6.3l-7.25,.28Z"/>
          <polyline class="cls-4" points="319.76 529.62 325.64 528.79 325.64 404.78 319.76 405.45"/>
          <path class="cls-4" d="M163.28,544.99l1.82-.33c1.14-.2,1.96-1.19,1.96-2.35v-127.54c0-.97-.59-1.84-1.49-2.21h0c-.55-.22-1.15-.23-1.71-.03l-.46,.17c-.59,.21-1.07,.65-1.34,1.21l-.67,1.4c-.15,.32-.23,.67-.23,1.02l-.69,126.31c0,1.49,1.34,2.63,2.81,2.36Z"/>
        </g>
        <g>
          <path class="cls-3" d="M314.04,361.2c-5.81,3-12.39,4.69-19.36,4.69-23.35,0-42.35-19-42.35-42.35,0-14.91,7.74-28.04,19.42-35.59l-1.38-2.39c-12.5,8.02-20.78,22.03-20.78,37.98,0,24.9,20.19,45.09,45.09,45.09,7.48,0,14.53-1.82,20.74-5.04l-1.38-2.39Z"/>
          <line class="cls-2" x1="268.79" y1="280.5" x2="318.51" y2="366.57"/>
          <g>
            <circle class="cls-11" cx="298.11" cy="324.22" r="38.24"/>
            <circle class="cls-14" cx="295.19" cy="328.85" r="30.18"/>
            <circle class="cls-6" cx="290.05" cy="335.37" r="15.09"/>
            <circle class="cls-12" cx="286.28" cy="340.85" r="5.49"/>
          </g>
          <rect class="cls-3" x="290.05" y="367.6" width="5.14" height="9.26"/>
          <path class="cls-3" d="M281.8,376.86h23.36c6.05,0,10.95,4.91,10.95,10.95v3.79h-45.27v-3.79c0-6.05,4.91-10.95,10.95-10.95Z"/>
        </g>
        <g>
          <path class="cls-3" d="M227.96,389.63h8.35c2.16,0,3.92,1.76,3.92,3.92v1.36h-16.19v-1.36c0-2.16,1.76-3.92,3.92-3.92Z"/>
          <path class="cls-3" d="M208.38,389.63h8.35c2.16,0,3.92,1.76,3.92,3.92v1.36h-16.19v-1.36c0-2.16,1.76-3.92,3.92-3.92Z"/>
          <line class="cls-2" x1="212.84" y1="324.05" x2="212.84" y2="389.63"/>
          <line class="cls-2" x1="232.42" y1="324.05" x2="232.42" y2="389.63"/>
          <path class="cls-11" d="M211.86,330.03c0-1.02-1.33-1.42-1.88-.56-3,4.69-5.96,7.49-7.81,9.95-2.05,2.73,4.8,27.21,4.8,27.21l4.89-.81v-35.79Z"/>
          <path class="cls-11" d="M230.95,330.03c0-1.02-1.33-1.42-1.88-.56-3,4.69-5.96,7.49-7.81,9.95-2.05,2.73,4.8,27.21,4.8,27.21l4.89-.81v-35.79Z"/>
        </g>
      </g>
      <g>
        <path class="cls-5" d="M1001.12,537.92l-37.36-226.02c-.51-3.1-3.19-5.37-6.34-5.37s-5.94,2.38-6.37,5.58l-31.69,238.44c-.57,4.31,3.22,7.94,7.5,7.17l69.06-12.42c3.46-.62,5.77-3.9,5.2-7.37Zm-6.25,1.53l-69.06,12.42s-.07,.01-.11,.01c-.18,0-.3-.11-.36-.18-.13-.14-.13-.28-.11-.39l31.69-238.44c.03-.24,.24-.43,.49-.43s.45,.17,.49,.41l37.36,226.02c.04,.26-.14,.52-.4,.57Z"/>
        <path class="cls-4" d="M921.66,556.52c-1.22-1.39-2.54-4.14-2.3-5.97l31.69-238.44c.44-3.19,3.19-5.58,6.37-5.58h0l-4.55-.75c-3.63-.6-7.18,1.83-7.68,5.47,0,.02,0,.05,0,.07l-31.69,238.44s0,.02,0,.03c-.21,1.57,.75,3.07,2.22,3.68l5.96,3.05Z"/>
        <path class="cls-5" d="M1098.9,577.18l-41.56-251.4c-.57-3.45-3.55-5.98-7.05-5.98s-6.61,2.65-7.08,6.2l-35.25,265.21c-.64,4.8,3.58,8.83,8.34,7.97l76.81-13.82c3.84-.69,6.42-4.34,5.78-8.19Zm-6.95,1.7l-76.81,13.82s-.08,.01-.12,.01c-.2,0-.33-.12-.4-.2-.14-.16-.14-.31-.13-.43l35.25-265.21c.04-.27,.27-.48,.54-.48s.5,.19,.54,.46l41.56,251.4c.05,.29-.15,.58-.44,.63Z"/>
        <path class="cls-4" d="M1010.52,597.87c-1.35-1.54-2.83-4.6-2.56-6.64l35.25-265.21c.49-3.55,3.55-6.2,7.08-6.2h0l-5.06-.83c-4.04-.67-7.98,2.03-8.55,6.09,0,.03,0,.05-.01,.08l-35.25,265.22s0,.02,0,.03c-.23,1.75,.84,3.42,2.47,4.09l6.63,3.39Z"/>
        <polygon class="cls-7" points="956.93 312.88 1036.69 325.06 1001.97 586.29 925.24 551.32 956.93 312.88"/>
        <polygon class="cls-4" points="1015.27 586.29 1082.72 574.3 1047.43 344.38 1049.75 326.88 1050.84 326.86 1091.95 578.89 1015.14 592.71 1014.5 592.1 1015.27 586.29"/>
      </g>
      <g>
        <polyline class="cls-13" points="969.65 354.71 968.53 354.89 985.48 359.75 986.95 340.17 984.14 358.41 967.61 354.68"/>
        <polygon class="cls-9" points="970.62 337.1 967.61 354.68 984.14 358.41 986.95 340.17 970.62 337.1"/>
      </g>
      <g>
        <polyline class="cls-13" points="962.59 524.74 961.48 524.92 978.42 529.78 979.9 510.2 977.08 528.44 960.55 524.71"/>
        <polygon class="cls-9" points="963.57 507.13 960.55 524.71 977.08 528.44 979.9 510.2 963.57 507.13"/>
      </g>
      <g>
        <polyline class="cls-13" points="956.22 374.92 955.16 375.09 971.2 379.7 972.6 361.16 969.93 378.43 954.28 374.89"/>
        <polygon class="cls-10" points="957.14 358.25 954.28 374.89 969.93 378.43 972.6 361.16 957.14 358.25"/>
      </g>
      <g>
        <polyline class="cls-13" points="953.87 396.08 952.81 396.25 968.85 400.85 970.25 382.32 967.58 399.59 951.93 396.05"/>
        <polygon class="cls-10" points="954.79 379.41 951.93 396.05 967.58 399.59 970.25 382.32 954.79 379.41"/>
      </g>
      <g>
        <polyline class="cls-13" points="975.81 402.34 974.75 402.51 990.79 407.12 992.19 388.58 989.52 405.85 973.87 402.32"/>
        <polygon class="cls-10" points="976.73 385.68 973.87 402.32 989.52 405.85 992.19 388.58 976.73 385.68"/>
      </g>
      <g>
        <polyline class="cls-13" points="973.45 424.28 972.4 424.45 988.44 429.06 989.84 410.52 987.17 427.79 971.52 424.25"/>
        <polygon class="cls-10" points="974.37 407.62 971.52 424.25 987.17 427.79 989.84 410.52 974.37 407.62"/>
      </g>
      <g>
        <polyline class="cls-13" points="951.52 418.02 950.46 418.19 966.5 422.79 967.9 404.26 965.23 421.52 949.58 417.99"/>
        <polygon class="cls-10" points="952.44 401.35 949.58 417.99 965.23 421.52 967.9 404.26 952.44 401.35"/>
      </g>
      <g>
        <polyline class="cls-13" points="977.37 471.3 976.32 471.47 992.36 476.07 993.75 457.54 991.09 474.81 975.44 471.27"/>
        <polygon class="cls-8" points="978.29 454.63 975.44 471.27 991.09 474.81 993.75 457.54 978.29 454.63"/>
      </g>
      <g>
        <polyline class="cls-13" points="957.78 465.81 956.73 465.98 972.77 470.59 974.16 452.05 971.5 469.32 955.85 465.78"/>
        <polygon class="cls-8" points="958.7 449.15 955.85 465.78 971.5 469.32 974.16 452.05 958.7 449.15"/>
      </g>
      <g>
        <polyline class="cls-13" points="995.39 452.49 994.34 452.66 1010.38 457.27 1011.77 438.73 1009.11 456 993.46 452.46"/>
        <polygon class="cls-8" points="996.31 435.82 993.46 452.46 1009.11 456 1011.77 438.73 996.31 435.82"/>
      </g>
      <g>
        <polyline class="cls-13" points="942.11 495.59 941.06 495.76 957.1 500.36 958.49 481.83 955.83 499.1 940.18 495.56"/>
        <polygon class="cls-8" points="943.03 478.92 940.18 495.56 955.83 499.1 958.49 481.83 943.03 478.92"/>
      </g>
    </g>
  </g>
</svg>