<?xml version="1.0" encoding="UTF-8"?>
<svg id="Layer_2" data-name="Layer 2" xmlns="http://www.w3.org/2000/svg" viewBox="0 0 410.47 440.56">
  <defs>
    <style>
      .cls-1 {
        stroke-width: 2.54px;
      }

      .cls-1, .cls-2, .cls-3, .cls-4, .cls-5, .cls-6, .cls-7, .cls-8, .cls-9, .cls-10, .cls-11, .cls-12, .cls-13, .cls-14, .cls-15 {
        stroke: #ceb711;
        stroke-miterlimit: 10;
      }

      .cls-1, .cls-4, .cls-6, .cls-15 {
        fill: #dbdaaf;
      }

      .cls-2 {
        stroke-width: 5.19px;
      }

      .cls-2, .cls-3, .cls-8 {
        fill: #b2af7d;
      }

      .cls-16 {
        fill: #fff;
      }

      .cls-17, .cls-10, .cls-13 {
        fill: #fff7a9;
      }

      .cls-3 {
        stroke-width: 1.02px;
      }

      .cls-4 {
        stroke-width: 2px;
      }

      .cls-5, .cls-9, .cls-11, .cls-12 {
        fill: none;
      }

      .cls-5, .cls-15 {
        stroke-width: 3.37px;
      }

      .cls-6 {
        stroke-width: 2.46px;
      }

      .cls-7 {
        fill: #fff18d;
      }

      .cls-7, .cls-8 {
        stroke-width: .5px;
      }

      .cls-9 {
        stroke-width: 3.45px;
      }

      .cls-11 {
        stroke-width: 1.14px;
      }

      .cls-12 {
        stroke-width: 1.12px;
      }

      .cls-13 {
        stroke-width: 3px;
      }

      .cls-14 {
        fill: #96936b;
        stroke-width: 6px;
      }
    </style>
  </defs>
  <g id="Layer_1-2" data-name="Layer 1">
    <polygon class="cls-16" points="72.5 238.3 72.97 151.56 88.97 135.56 89.97 79.56 88.97 58.56 361.33 58.2 361.33 245.04 209.18 248.83 72.5 238.3"/>
    <g>
      <g>
        <path class="cls-10" d="M409.97,370.2c-43.62-12.09-118.09-20.06-202.65-20.06S43.99,358.58,.97,371.26"/>
        <path class="cls-10" d="M.97,418.94c43.02,12.69,119.35,21.12,206.35,21.12s159.03-7.97,202.65-20.06"/>
      </g>
      <path class="cls-10" d="M.47,418.94c43.02,12.69,119.35,21.12,206.35,21.12s159.03-7.97,202.65-20.06v-49.8c-43.62-12.09-118.09-20.06-202.65-20.06S43.49,358.58,.47,371.26"/>
      <path class="cls-17" d="M1.47,418.94c43.02,12.69,119.35,21.12,206.35,21.12s159.03-7.97,202.65-20.06v-49.8c-43.62-12.09-118.09-20.06-202.65-20.06S44.49,358.58,1.47,371.26"/>
      <path class="cls-9" d="M192.21,188.48c8.41-.13,17.06-.21,25.89-.21,17.72,0,34.74,.28,50.54,.8"/>
      <path class="cls-13" d="M362.33,63.28c26.86-6.12,42.89-13.85,42.89-22.26,0-19.87-89.58-35.97-200.08-35.97S5.06,21.16,5.06,41.03c0,12.06,33.04,22.74,83.74,29.27"/>
      <ellipse class="cls-14" cx="216.94" cy="238.3" rx="144.44" ry="14.05"/>
      <path class="cls-5" d="M217.5,21.92c-52.32,0-98.37,8.99-123.88,17.37-2.88,.95-4.82,3.66-4.82,6.69V123.13c0,1.69,.19,3.37,.41,5.05,.1,.72,.15,1.46,.15,2.2,0,7.75-5.06,14.31-12.06,16.56-2.88,.93-4.8,3.65-4.8,6.67v72.79c0,4.52,4.18,7.88,8.59,6.88,8.08-1.82,21.34-3.96,38.52-5.84,3.57-.39,6.29-3.41,6.29-7.01V101.08c0-.41,.03-.81,.11-1.22,.4-2.27,2.1-9.72,7.76-14.44,6.74-5.62,41.59-30.35,53.95-32.6,12.36-2.25,66.32,28.1,71.94,31.47s7.87,6.74,8.99,11.24c.44,1.77,.29,93.95,.06,122.35-.03,3.71,2.82,6.82,6.52,7.08,25.33,1.82,51.59,4.86,77.88,9.55,4.31,.77,8.27-2.56,8.27-6.94V50.58c0-7.76-64.11-28.66-143.88-28.66Z"/>
      <path class="cls-12" d="M88.23,74.75C30.06,67.27,.56,55.92,.56,41.03,.56,28.47,20.94,18.71,62.86,11.17,100.91,4.33,151.44,.56,205.14,.56s104.23,3.77,142.27,10.61c41.92,7.54,62.3,17.3,62.3,29.86,0,10.81-15.17,19.52-46.39,26.64l-2-8.77c31.1-7.09,39.39-14.57,39.39-17.87,0-3.85-11.47-13.2-54.9-21.01-37.54-6.75-87.5-10.46-140.68-10.46s-103.15,3.72-140.68,10.46c-18.04,3.24-32.15,6.99-41.92,11.15-9.57,4.07-12.99,7.76-12.99,9.86,0,2.62,5.19,7.45,19.82,12.46,14.19,4.86,34.94,9.13,60,12.35l-1.15,8.92Z"/>
      <path class="cls-1" d="M135.53,366.16l4.98-122.13c.13-3.13-2.56-5.73-5.92-5.73h0l.88,41.84s-12.91-39.15-48.63-41.72h0c0,1.77,1.24,3.34,3.06,3.84,9.83,2.72,40.14,13.54,43.82,44.34l-3.95,80.91s.22,1.71,2.22,1.84,3.5-1.39,3.55-3.18Z"/>
      <path class="cls-1" d="M183.86,372.9l4.98-122.13c.13-3.13-2.56-5.73-5.92-5.73h0l.88,41.84s-12.91-39.15-48.63-41.72h0c0,1.77,1.24,3.34,3.06,3.84,9.83,2.72,40.14,13.54,43.82,44.34l-3.95,80.91s.22,1.71,2.22,1.84,3.5-1.39,3.55-3.18Z"/>
      <path class="cls-7" d="M113.34,405.74l23.17,1.24c5.25,.28,9.97-3.17,11.28-8.26l40.84-157.85c1.81-6.99-3.47-13.81-10.69-13.81h-30.71c-5.21,0-9.72,3.65-10.8,8.75l-33.31,156.61c-1.41,6.64,3.44,12.96,10.21,13.33Z"/>
      <path class="cls-15" d="M91.61,407.46l-4.33-36.68c-1.6-13.55-.6-27.28,2.96-40.45,12.07-44.71,40.55-148.8,44.08-148.8,4.5,0,4,44.98,4,44.98l-37.89,178.53c-.43,2.04-1.57,3.9-3.3,5.05-1.9,1.27-4.29,1.7-5.53-2.63Z"/>
      <path class="cls-6" d="M268.52,366.16l-4.64-122.13c-.12-3.13,2.38-5.73,5.51-5.73h0l-.82,41.84s12.02-39.15,45.3-41.72h0c0,1.77-1.15,3.34-2.85,3.84-9.15,2.72-37.39,13.54-40.82,44.34l3.68,80.91s-.21,1.71-2.07,1.84-3.26-1.39-3.31-3.18Z"/>
      <line class="cls-8" x1="109.97" y1="359.84" x2="150.62" y2="359.69"/>
      <line class="cls-8" x1="119.18" y1="320.32" x2="158.49" y2="320.32"/>
      <line class="cls-8" x1="122.52" y1="303.82" x2="156.7" y2="303.82"/>
      <line class="cls-8" x1="132.39" y1="254.46" x2="170.28" y2="254.46"/>
      <line class="cls-12" x1="353.11" y1="234.52" x2="353.11" y2="45.52"/>
      <line class="cls-12" x1="344.66" y1="231.43" x2="344.66" y2="40.71"/>
      <line class="cls-12" x1="326.48" y1="228.5" x2="326.48" y2="35.13"/>
      <line class="cls-12" x1="303.61" y1="227.06" x2="303.61" y2="29.97"/>
      <line class="cls-12" x1="286" y1="224.25" x2="286" y2="27.41"/>
      <line class="cls-12" x1="268.65" y1="95.54" x2="268.65" y2="24.73"/>
      <polyline class="cls-12" points="248.28 189.08 248.28 77.92 248.28 24.73"/>
      <line class="cls-12" x1="221.14" y1="64.01" x2="221.14" y2="21.93"/>
      <line class="cls-12" x1="187.71" y1="52.83" x2="187.71" y2="24.73"/>
      <line class="cls-12" x1="154.92" y1="70.29" x2="154.92" y2="26.1"/>
      <line class="cls-12" x1="133.76" y1="30.98" x2="133.76" y2="85.43"/>
      <line class="cls-11" x1="119.61" y1="227.47" x2="119.61" y2="32.6"/>
      <line class="cls-12" x1="106.16" y1="227.47" x2="106.16" y2="35.13"/>
      <line class="cls-12" x1="92.91" y1="230.85" x2="92.91" y2="39.29"/>
      <line class="cls-12" x1="81.09" y1="233.31" x2="81.09" y2="144.38"/>
      <path class="cls-4" d="M215.55,400.06l-6.36-167.71c-.16-4.29,3.27-7.86,7.57-7.86h0l-1.12,57.45s16.51-53.76,62.21-57.29h0c0,2.43-1.59,4.58-3.92,5.27-12.57,3.73-51.34,18.59-56.04,60.89l5.06,111.1s-.28,2.35-2.84,2.52-4.48-1.91-4.54-4.37Z"/>
      <path class="cls-15" d="M145.56,407.46l-4.33-36.68c-1.6-13.55-.6-27.28,2.96-40.45,12.07-44.71,40.55-148.8,44.08-148.8,4.5,0,4,44.98,4,44.98l-37.89,178.53c-.43,2.04-1.57,3.9-3.3,5.05-1.9,1.27-4.29,1.7-5.53-2.63Z"/>
    </g>
    <line class="cls-2" x1="227.02" y1="66.56" x2="227.02" y2="188.28"/>
    <line class="cls-3" x1="235.46" y1="71.56" x2="235.46" y2="189.08"/>
    <line class="cls-12" x1="259.65" y1="84.3" x2="259.65" y2="188.28"/>
  </g>
</svg>