<?xml version="1.0" encoding="UTF-8"?>
<svg id="Layer_2" data-name="Layer 2" xmlns="http://www.w3.org/2000/svg" viewBox="0 0 293.71 426.46">
  <defs>
    <style>
      .cls-1 {
        stroke-width: 1.25px;
      }

      .cls-1, .cls-2, .cls-3, .cls-4, .cls-5, .cls-6, .cls-7, .cls-8, .cls-9, .cls-10, .cls-11, .cls-12, .cls-13, .cls-14, .cls-15, .cls-16, .cls-17, .cls-18, .cls-19, .cls-20, .cls-21, .cls-22, .cls-23, .cls-24, .cls-25, .cls-26 {
        stroke: #50bad3;
        stroke-miterlimit: 10;
      }

      .cls-1, .cls-2, .cls-3, .cls-5, .cls-7, .cls-8, .cls-9, .cls-11, .cls-13, .cls-14, .cls-15, .cls-16, .cls-20, .cls-26 {
        fill: #dff3f7;
      }

      .cls-2 {
        stroke-width: .47px;
      }

      .cls-3 {
        stroke-width: 2.58px;
      }

      .cls-4 {
        stroke-width: 1.85px;
      }

      .cls-4, .cls-6, .cls-12, .cls-17, .cls-18, .cls-19, .cls-22, .cls-24 {
        fill: #f2f2f2;
      }

      .cls-5 {
        stroke-width: 4.9px;
      }

      .cls-6 {
        stroke-width: .62px;
      }

      .cls-27, .cls-21 {
        fill: #fff;
      }

      .cls-7 {
        stroke-width: 1.21px;
      }

      .cls-8 {
        stroke-width: 2.67px;
      }

      .cls-9 {
        stroke-width: 1.02px;
      }

      .cls-10 {
        fill: #cadadd;
        stroke-width: .8px;
      }

      .cls-11 {
        stroke-width: 1.6px;
      }

      .cls-12 {
        stroke-width: 1.6px;
      }

      .cls-13 {
        stroke-width: .79px;
      }

      .cls-14, .cls-23 {
        stroke-width: .97px;
      }

      .cls-15 {
        stroke-width: 1.9px;
      }

      .cls-16, .cls-25 {
        stroke-width: 1.93px;
      }

      .cls-17 {
        stroke-width: 2.19px;
      }

      .cls-18 {
        stroke-width: 1.35px;
      }

      .cls-19 {
        stroke-width: .85px;
      }

      .cls-20 {
        stroke-width: .74px;
      }

      .cls-21 {
        stroke-width: .75px;
      }

      .cls-22 {
        stroke-width: 1.05px;
      }

      .cls-23, .cls-25 {
        fill: none;
      }

      .cls-24 {
        stroke-width: 1.44px;
      }

      .cls-26 {
        stroke-width: 3.12px;
      }
    </style>
  </defs>
  <g id="Layer_1-2" data-name="Layer 1">
    <polygon class="cls-27" points="117.29 308.26 126.42 198.94 128.44 196.39 206.82 196.25 210.6 199.22 206.42 305.84 117.29 308.26"/>
    <polygon class="cls-27" points="20.27 337.05 31.76 267.47 32.75 264.16 34.7 261.46 39.22 258.46 89.91 258.46 98.17 258.72 105.39 261.56 110.73 266.83 113.43 272.97 113.95 279.66 113.95 309.73 30.76 339.56 20.27 337.05"/>
    <g>
      <ellipse class="cls-10" cx="178.26" cy="403.31" rx="114" ry="22.75"/>
      <g>
        <g>
          <path class="cls-8" d="M.26,97.83c28.86,5.64,67.51,9.1,110,9.1,83.81,0,152.72-13.43,160.91-30.63-11.66,.4-23.67,.6-35.94,.6-104.76,0-190.78-15.03-200.08-34.22-12.73,1.41-24.45,3.17-34.89,5.21"/>
          <path class="cls-26" d="M291.99,3.09c-18-.99-37.05-1.53-56.77-1.53C124.26,1.56,34.3,18.43,34.3,39.23c0,1.16,.3,2.31,.85,3.45,22.45-2.48,48-3.89,75.11-3.89,89.32,0,161.72,15.25,161.72,34.07,0,1.16-.28,2.31-.82,3.44,7.08-.24,14.03-.55,20.83-.92"/>
          <path class="cls-5" d="M110.26,38.79c-27.12,0-52.67,1.41-75.11,3.89,9.3,19.19,95.32,34.22,200.08,34.22,12.27,0,24.28-.21,35.94-.6,.54-1.13,.82-2.28,.82-3.44,0-18.82-72.41-34.07-161.72-34.07Z"/>
        </g>
        <g>
          <path class="cls-25" d="M113.95,295.52l4.81-.49c.21-.02,.41-.03,.62-.01l40.03,2.44c2.1,.13,3.9-1.48,4.01-3.59l4.86-94.03c.1-2.01,1.77-3.59,3.78-3.59h34.76c2.16,0,3.88,1.8,3.78,3.95l-4.18,94.79"/>
          <path class="cls-25" d="M179.83,196.25h-50.51c-1.52,0-2.79,1.17-2.91,2.69l-7.35,96.05"/>
          <path class="cls-16" d="M207.87,391.9l4.71,5.44c.47,.54,.84,1.16,1.26,1.74,.96,1.35,3.18,1.24,3.92-.46,1.83-4.16,1.94-11.25,1.94-11.25"/>
          <path class="cls-3" d="M20.27,397.47l-4.86,9.37c-.48,.94-.87,2-1.3,3.01-.99,2.33-3.27,2.13-4.04-.79-1.88-7.17-2-19.41-2-19.41"/>
          <path class="cls-16" d="M8.58,356.61l5.75,18.72c.62,2.02,3.39,2.15,4.24,.21,1.83-4.16,1.94-11.25,1.94-11.25"/>
          <path class="cls-16" d="M50.29,408.97l2.18,13.54s2.14,4.68,5.04,.81,3.38-13.05,3.38-13.05c-4.35,0-10.15-.97-14.87-1.93-4.71-.97-8.34-1.93-8.34-1.93l-17.18-4.53c-4.94-1.11-9.08-3.91-11.93-7.68-3.21-4.25-4.77-9.71-3.97-15.36l11.81-82.67,40.49,3.52c1.76,.15,3.51,.31,5.27,.52,10.6,1.24,38.36,.8,38.36,.8l-4.83,105.88-12.66,2.78-18.33,.73"/>
          <path class="cls-25" d="M77.34,258.46l-16.44,151.81s19.34,.97,29.01-1.93"/>
          <path class="cls-16" d="M214.64,295l-119.91,6.26c-2.5,.13-4.52,2.07-4.77,4.56l-9.59,97.6c-.32,3.25,2.48,5.94,5.71,5.5l32.93-4.48c3.55-.48,5.51-4.42,3.7-7.52-4.79-8.19-7.06-18.28-5.78-28.85,2.87-23.86,22.68-41.1,44.24-38.5s36.71,24.04,33.83,47.9c-.4,3.31-1.13,6.5-2.14,9.52-1.2,3.58,1.71,7.18,5.45,6.67l17.27-2.35c2.51-.34,4.38-2.48,4.38-5.01v-86.25c0-2.9-2.43-5.2-5.32-5.05Z"/>
          <path class="cls-25" d="M94.74,322.39v1.45c0,.75,.53,1.39,1.27,1.53l7.95,1.48c.74,.14,1.42-.43,1.42-1.18v-2.19l-10.53-1.19c-.06,0-.11,.04-.11,.1Z"/>
          <line class="cls-25" x1="104.41" y1="304.87" x2="116.28" y2="321.31"/>
          <path class="cls-23" d="M114.27,405.09s4.16,5.66,8.99,7.6,23.74,3.38,23.74,3.38"/>
          <line class="cls-25" x1="198.68" y1="315.51" x2="187.57" y2="301.01"/>
          <polygon class="cls-25" points="31.89 304.87 30.92 312.61 65.73 317.44 66.7 308.74 31.89 304.87"/>
          <path class="cls-25" d="M28.02,298.11l3.74-30.63c.63-5.14,4.99-9.01,10.18-9.01h35.54"/>
          <path class="cls-25" d="M77.48,258.46h15.33l-2.9,47.38,2.9-47.38h2.21c10.51,0,19,8.55,18.93,19.06l-.15,22.75"/>
          <path class="cls-25" d="M203.92,325.83l5.6-.37c2.34-.16,4.16-2.1,4.16-4.44v-7.65c0-2.52-2.1-4.54-4.62-4.45l-5.6,.21c-2.39,.09-4.29,2.06-4.29,4.45v7.82c0,2.58,2.18,4.62,4.75,4.44Z"/>
          <g>
            <path class="cls-14" d="M148.89,331.95c-2.49,0-4.92,.27-7.27,.75-12.89,5.92-22.72,19.11-24.68,35.37-1.27,10.57,.99,20.66,5.78,28.85,1.36,2.33,.59,5.14-1.39,6.59,7.02,7.75,16.77,12.56,27.56,12.56,21.36,0,38.68-18.83,38.68-42.06s-17.32-42.06-38.68-42.06Z"/>
            <ellipse class="cls-16" cx="148.89" cy="374.01" rx="29.01" ry="32.39"/>
            <path class="cls-21" d="M147.05,347.9h5.22c4.94,0,8.03,5.35,5.56,9.63l-2.61,4.52-2.61,4.52c-2.47,4.28-8.65,4.28-11.12,0l-2.61-4.52-2.61-4.52c-2.47-4.28,.62-9.63,5.56-9.63h5.22Z"/>
            <path class="cls-21" d="M167.36,389.79l-3.69,3.69c-3.49,3.49-9.46,1.9-10.74-2.88l-1.35-5.04-1.35-5.04c-1.28-4.77,3.09-9.14,7.86-7.86l5.04,1.35,5.04,1.35c4.77,1.28,6.37,7.25,2.88,10.74l-3.69,3.69Z"/>
            <path class="cls-21" d="M129.64,389.79l-3.69-3.69c-3.49-3.49-1.9-9.46,2.88-10.74l5.04-1.35,5.04-1.35c4.77-1.28,9.14,3.09,7.86,7.86l-1.35,5.04-1.35,5.04c-1.28,4.77-7.25,6.37-10.74,2.88l-3.69-3.69Z"/>
          </g>
          <path class="cls-25" d="M209.32,316.48c.8,0,1.45,.65,1.45,1.45s-.65,1.45-1.45,1.45h-1.28c-.11,0-.23,0-.34,.01l-101.27,7.64c-.57,.04-1.05-.41-1.05-.98v-2.57l103.72-6.96c.06,0,.06-.09,0-.09l-14.76-.92-99.6,6.77"/>
          <ellipse class="cls-23" cx="166.78" cy="247.34" rx="29.98" ry="1.93"/>
          <line class="cls-23" x1="136.8" y1="247.34" x2="133.9" y2="295.69"/>
          <line class="cls-23" x1="196.75" y1="247.34" x2="195.02" y2="294.99"/>
          <ellipse class="cls-23" cx="172.58" cy="219.78" rx="23.21" ry=".48"/>
          <path class="cls-23" d="M195.79,219.78l-.53,11.34c-.13,2.86-2.39,5.18-5.25,5.37-7.47,.51-22.09,1.09-35.69-.83-2.79-.39-4.88-2.76-4.89-5.58l-.05-10.31"/>
          <path class="cls-23" d="M179.83,224.25s3.38-1.08,4.35,1.82,3.3,24.26,10.84,15.51c7.53-8.74,3.67-38.72,3.67-38.72h-1.93v-5.12h2.22l-.28,5.12"/>
          <circle class="cls-23" cx="179.83" cy="223.65" r="2.42"/>
          <circle class="cls-23" cx="140.67" cy="245.41" r=".97"/>
          <circle class="cls-23" cx="142.6" cy="247.34" r=".97"/>
          <circle class="cls-23" cx="143.57" cy="245.41" r=".97"/>
          <circle class="cls-23" cx="145.51" cy="247.34" r=".97"/>
          <circle class="cls-23" cx="154.21" cy="244.44" r=".97"/>
          <circle class="cls-23" cx="157.11" cy="243.47" r=".97"/>
          <circle class="cls-23" cx="174.51" cy="247.34" r=".97"/>
          <circle class="cls-23" cx="170.65" cy="244.44" r=".97"/>
          <circle class="cls-23" cx="172.58" cy="243.47" r=".97"/>
          <circle class="cls-23" cx="178.38" cy="247.34" r=".97"/>
          <circle class="cls-23" cx="174.51" cy="217.51" r=".97"/>
          <circle class="cls-23" cx="171.61" cy="217.51" r=".97"/>
          <circle class="cls-23" cx="172.58" cy="215.58" r=".97"/>
          <circle class="cls-23" cx="184.18" cy="217.51" r=".97"/>
          <circle class="cls-23" cx="181.28" cy="217.51" r=".97"/>
          <circle class="cls-23" cx="182.25" cy="215.58" r=".97"/>
          <circle class="cls-23" cx="178.38" cy="217.51" r=".97"/>
          <circle class="cls-23" cx="179.35" cy="215.58" r=".97"/>
          <circle class="cls-23" cx="181.28" cy="213.65" r=".97"/>
          <circle class="cls-23" cx="161.94" cy="217.51" r=".97"/>
          <circle class="cls-23" cx="164.84" cy="217.51" r=".97"/>
          <circle class="cls-23" cx="163.88" cy="215.58" r=".97"/>
          <circle class="cls-23" cx="169.68" cy="217.51" r=".97"/>
          <circle class="cls-23" cx="158.08" cy="217.51" r=".97"/>
          <circle class="cls-23" cx="160.98" cy="244.44" r=".97"/>
          <circle class="cls-23" cx="160.01" cy="247.34" r=".97"/>
          <circle class="cls-23" cx="149.37" cy="247.34" r=".97"/>
          <circle class="cls-23" cx="162.91" cy="247.34" r=".97"/>
          <circle class="cls-23" cx="155.18" cy="246.37" r=".97"/>
          <circle class="cls-23" cx="152.37" cy="247.43" r=".97"/>
        </g>
        <g>
          <rect class="cls-7" x="243.93" y="193.8" width="36.16" height="32.83" rx="6.11" ry="6.11"/>
          <rect class="cls-12" x="218.6" y="154.64" width="46.12" height="45.42" rx="8.12" ry="8.12"/>
          <rect class="cls-15" x="235.76" y="125.98" width="56.99" height="51.74" rx="9.64" ry="9.64"/>
          <rect class="cls-17" x="210.43" y="75.1" width="63" height="62.05" rx="11.1" ry="11.1"/>
          <line class="cls-15" x1="241.93" y1="76.3" x2="241.93" y2="61.78"/>
        </g>
        <g>
          <rect class="cls-9" x="42.81" y="189.49" width="30.5" height="27.7" rx="5.16" ry="5.16"/>
          <rect class="cls-18" x="21.45" y="156.46" width="38.91" height="38.32" rx="6.85" ry="6.85"/>
          <rect class="cls-11" x="35.92" y="132.28" width="48.08" height="43.65" rx="8.13" ry="8.13"/>
          <rect class="cls-4" x="14.55" y="89.35" width="53.15" height="52.34" rx="9.36" ry="9.36"/>
          <line class="cls-11" x1="41.13" y1="90.37" x2="41.13" y2="78.12"/>
        </g>
        <g>
          <rect class="cls-13" x="132.97" y="158.4" width="23.78" height="21.59" rx="4.02" ry="4.02" transform="translate(289.72 338.38) rotate(-180)"/>
          <rect class="cls-22" x="143.08" y="132.64" width="30.33" height="29.87" rx="5.34" ry="5.34" transform="translate(316.49 295.16) rotate(-180)"/>
          <rect class="cls-1" x="124.64" y="113.8" width="37.48" height="34.03" rx="6.34" ry="6.34" transform="translate(286.77 261.63) rotate(-180)"/>
          <rect class="cls-24" x="137.35" y="80.34" width="41.43" height="40.8" rx="7.3" ry="7.3" transform="translate(316.13 201.48) rotate(-180)"/>
          <line class="cls-1" x1="158.06" y1="81.13" x2="158.06" y2="71.58"/>
        </g>
        <g>
          <rect class="cls-2" x="91.99" y="148.35" width="14.09" height="12.79" rx="2.38" ry="2.38" transform="translate(198.08 309.48) rotate(-180)"/>
          <rect class="cls-6" x="97.98" y="133.09" width="17.97" height="17.7" rx="3.16" ry="3.16" transform="translate(213.94 283.87) rotate(-180)"/>
          <rect class="cls-20" x="87.06" y="121.93" width="22.21" height="20.16" rx="3.76" ry="3.76" transform="translate(196.33 264.01) rotate(-180)"/>
          <rect class="cls-19" x="94.59" y="102.1" width="24.55" height="24.18" rx="4.32" ry="4.32" transform="translate(213.72 228.37) rotate(-180)"/>
          <line class="cls-20" x1="106.86" y1="102.57" x2="106.86" y2="96.91"/>
        </g>
      </g>
    </g>
  </g>
</svg>