<?xml version="1.0" encoding="UTF-8"?>
<svg id="Layer_2" data-name="Layer 2" xmlns="http://www.w3.org/2000/svg" viewBox="0 0 292.66 426.46">
  <defs>
    <style>
      .cls-1 {
        stroke-width: 2.58px;
      }

      .cls-1, .cls-2, .cls-3, .cls-4, .cls-5, .cls-6, .cls-7, .cls-8, .cls-9, .cls-10, .cls-11, .cls-12, .cls-13, .cls-14, .cls-15, .cls-16, .cls-17, .cls-18, .cls-19, .cls-20, .cls-21, .cls-22 {
        stroke: #50bad3;
        stroke-miterlimit: 10;
      }

      .cls-1, .cls-2, .cls-3, .cls-6, .cls-7, .cls-8, .cls-9, .cls-10, .cls-11, .cls-14, .cls-21 {
        fill: #dff3f7;
      }

      .cls-2 {
        stroke-width: .62px;
      }

      .cls-23, .cls-12 {
        fill: #fff;
      }

      .cls-3 {
        stroke-width: 2.67px;
      }

      .cls-4 {
        stroke-width: 1.02px;
      }

      .cls-4, .cls-13, .cls-15, .cls-16, .cls-19, .cls-22 {
        fill: #f2f2f2;
      }

      .cls-5 {
        fill: #cadadd;
        stroke-width: .8px;
      }

      .cls-6 {
        stroke-width: .39px;
      }

      .cls-7, .cls-17 {
        stroke-width: .97px;
      }

      .cls-8, .cls-20 {
        stroke-width: 1.93px;
      }

      .cls-9 {
        stroke-width: .89px;
      }

      .cls-10 {
        stroke-width: 1.34px;
      }

      .cls-11 {
        stroke-width: .85px;
      }

      .cls-12 {
        stroke-width: .75px;
      }

      .cls-13 {
        stroke-width: 1.54px;
      }

      .cls-14 {
        stroke-width: .56px;
      }

      .cls-15 {
        stroke-width: .52px;
      }

      .cls-16 {
        stroke-width: 1.13px;
      }

      .cls-17, .cls-20 {
        fill: none;
      }

      .cls-18 {
        fill: #cfe3e5;
        stroke-width: .75px;
      }

      .cls-19 {
        stroke-width: .75px;
      }

      .cls-21 {
        stroke-width: 3.12px;
      }

      .cls-22 {
        stroke-width: .71px;
      }
    </style>
  </defs>
  <g id="Layer_1-2" data-name="Layer 1">
    <polygon class="cls-23" points="117.29 308.26 126.42 198.94 128.44 196.39 206.82 196.25 210.6 199.22 206.42 305.84 117.29 308.26"/>
    <polygon class="cls-23" points="20.27 337.05 31.76 267.47 32.75 264.16 34.7 261.46 39.22 258.46 89.91 258.46 98.17 258.72 105.39 261.56 110.73 266.83 113.43 272.97 113.95 279.66 113.95 309.73 30.76 339.56 20.27 337.05"/>
    <g>
      <ellipse class="cls-5" cx="178.26" cy="403.31" rx="114" ry="22.75"/>
      <g>
        <g>
          <path class="cls-3" d="m.26,97.83c28.86,5.64,67.51,9.1,110,9.1,83.81,0,152.72-13.43,160.91-30.63-11.66.4-23.67.6-35.94.6-104.76,0-190.78-15.03-200.08-34.22-12.73,1.41-24.45,3.17-34.89,5.21"/>
          <path class="cls-21" d="m291.99,3.09c-18-.99-37.05-1.53-56.77-1.53C124.26,1.56,34.3,18.43,34.3,39.23c0,1.16.3,2.31.85,3.45,22.45-2.48,48-3.89,75.11-3.89,89.32,0,161.72,15.25,161.72,34.07,0,1.16-.28,2.31-.82,3.44,7.08-.24,14.03-.55,20.83-.92"/>
          <path class="cls-18" d="m110.26,38.79c-27.12,0-52.67,1.41-75.11,3.89,9.3,19.19,95.32,34.22,200.08,34.22,12.27,0,24.28-.21,35.94-.6.54-1.13.82-2.28.82-3.44,0-18.82-72.41-34.07-161.72-34.07Z"/>
        </g>
        <g>
          <path class="cls-20" d="m113.95,295.52l4.81-.49c.21-.02.41-.03.62-.01l40.03,2.44c2.1.13,3.9-1.48,4.01-3.59l4.86-94.03c.1-2.01,1.77-3.59,3.78-3.59h34.76c2.16,0,3.88,1.8,3.78,3.95l-4.18,94.79"/>
          <path class="cls-20" d="m179.83,196.25h-50.51c-1.52,0-2.79,1.17-2.91,2.69l-7.35,96.05"/>
          <path class="cls-8" d="m207.87,391.9l4.71,5.44c.47.54.84,1.16,1.26,1.74.96,1.35,3.18,1.24,3.92-.46,1.83-4.16,1.94-11.25,1.94-11.25"/>
          <path class="cls-1" d="m20.27,397.47l-4.86,9.37c-.48.94-.87,2-1.3,3.01-.99,2.33-3.27,2.13-4.04-.79-1.88-7.17-2-19.41-2-19.41"/>
          <path class="cls-8" d="m8.58,356.61l5.75,18.72c.62,2.02,3.39,2.15,4.24.21,1.83-4.16,1.94-11.25,1.94-11.25"/>
          <path class="cls-8" d="m50.29,408.97l2.18,13.54s2.14,4.68,5.04.81,3.38-13.05,3.38-13.05c-4.35,0-10.15-.97-14.87-1.93-4.71-.97-8.34-1.93-8.34-1.93l-17.18-4.53c-4.94-1.11-9.08-3.91-11.93-7.68-3.21-4.25-4.77-9.71-3.97-15.36l11.81-82.67,40.49,3.52c1.76.15,3.51.31,5.27.52,10.6,1.24,38.36.8,38.36.8l-4.83,105.88-12.66,2.78-18.33.73"/>
          <path class="cls-20" d="m77.34,258.46l-16.44,151.81s19.34.97,29.01-1.93"/>
          <path class="cls-8" d="m214.64,295l-119.91,6.26c-2.5.13-4.52,2.07-4.77,4.56l-9.59,97.6c-.32,3.25,2.48,5.94,5.71,5.5l32.93-4.48c3.55-.48,5.51-4.42,3.7-7.52-4.79-8.19-7.06-18.28-5.78-28.85,2.87-23.86,22.68-41.1,44.24-38.5s36.71,24.04,33.83,47.9c-.4,3.31-1.13,6.5-2.14,9.52-1.2,3.58,1.71,7.18,5.45,6.67l17.27-2.35c2.51-.34,4.38-2.48,4.38-5.01v-86.25c0-2.9-2.43-5.2-5.32-5.05Z"/>
          <path class="cls-20" d="m94.74,322.39v1.45c0,.75.53,1.39,1.27,1.53l7.95,1.48c.74.14,1.42-.43,1.42-1.18v-2.19l-10.53-1.19c-.06,0-.11.04-.11.1Z"/>
          <line class="cls-20" x1="104.41" y1="304.87" x2="116.28" y2="321.31"/>
          <path class="cls-17" d="m114.27,405.09s4.16,5.66,8.99,7.6,23.74,3.38,23.74,3.38"/>
          <line class="cls-20" x1="198.68" y1="315.51" x2="187.57" y2="301.01"/>
          <polygon class="cls-20" points="31.89 304.87 30.92 312.61 65.73 317.44 66.7 308.74 31.89 304.87"/>
          <path class="cls-20" d="m28.02,298.11l3.74-30.63c.63-5.14,4.99-9.01,10.18-9.01h35.54"/>
          <path class="cls-20" d="m77.48,258.46h15.33l-2.9,47.38,2.9-47.38h2.21c10.51,0,19,8.55,18.93,19.06l-.15,22.75"/>
          <path class="cls-20" d="m203.92,325.83l5.6-.37c2.34-.16,4.16-2.1,4.16-4.44v-7.65c0-2.52-2.1-4.54-4.62-4.45l-5.6.21c-2.39.09-4.29,2.06-4.29,4.45v7.82c0,2.58,2.18,4.62,4.75,4.44Z"/>
          <g>
            <path class="cls-7" d="m148.89,331.95c-2.49,0-4.92.27-7.27.75-12.89,5.92-22.72,19.11-24.68,35.37-1.27,10.57.99,20.66,5.78,28.85,1.36,2.33.59,5.14-1.39,6.59,7.02,7.75,16.77,12.56,27.56,12.56,21.36,0,38.68-18.83,38.68-42.06s-17.32-42.06-38.68-42.06Z"/>
            <ellipse class="cls-8" cx="148.89" cy="374.01" rx="29.01" ry="32.39"/>
            <path class="cls-12" d="m147.05,347.9h5.22c4.94,0,8.03,5.35,5.56,9.63l-2.61,4.52-2.61,4.52c-2.47,4.28-8.65,4.28-11.12,0l-2.61-4.52-2.61-4.52c-2.47-4.28.62-9.63,5.56-9.63h5.22Z"/>
            <path class="cls-12" d="m167.36,389.79l-3.69,3.69c-3.49,3.49-9.46,1.9-10.74-2.88l-1.35-5.04-1.35-5.04c-1.28-4.77,3.09-9.14,7.86-7.86l5.04,1.35,5.04,1.35c4.77,1.28,6.37,7.25,2.88,10.74l-3.69,3.69Z"/>
            <path class="cls-12" d="m129.64,389.79l-3.69-3.69c-3.49-3.49-1.9-9.46,2.88-10.74l5.04-1.35,5.04-1.35c4.77-1.28,9.14,3.09,7.86,7.86l-1.35,5.04-1.35,5.04c-1.28,4.77-7.25,6.37-10.74,2.88l-3.69-3.69Z"/>
          </g>
          <path class="cls-20" d="m209.32,316.48c.8,0,1.45.65,1.45,1.45s-.65,1.45-1.45,1.45h-1.28c-.11,0-.23,0-.34.01l-101.27,7.64c-.57.04-1.05-.41-1.05-.98v-2.57l103.72-6.96c.06,0,.06-.09,0-.09l-14.76-.92-99.6,6.77"/>
          <ellipse class="cls-17" cx="166.78" cy="247.34" rx="29.98" ry="1.93"/>
          <line class="cls-17" x1="136.8" y1="247.34" x2="133.9" y2="295.69"/>
          <line class="cls-17" x1="196.75" y1="247.34" x2="195.02" y2="294.99"/>
          <ellipse class="cls-17" cx="172.58" cy="219.78" rx="23.21" ry=".48"/>
          <path class="cls-17" d="m195.79,219.78l-.53,11.34c-.13,2.86-2.39,5.18-5.25,5.37-7.47.51-22.09,1.09-35.69-.83-2.79-.39-4.88-2.76-4.89-5.58l-.05-10.31"/>
          <path class="cls-17" d="m179.83,224.25s3.38-1.08,4.35,1.82,3.3,24.26,10.84,15.51c7.53-8.74,3.67-38.72,3.67-38.72h-1.93v-5.12h2.22l-.28,5.12"/>
          <circle class="cls-17" cx="179.83" cy="223.65" r="2.42"/>
          <circle class="cls-17" cx="140.67" cy="245.41" r=".97"/>
          <circle class="cls-17" cx="142.6" cy="247.34" r=".97"/>
          <circle class="cls-17" cx="143.57" cy="245.41" r=".97"/>
          <circle class="cls-17" cx="145.51" cy="247.34" r=".97"/>
          <circle class="cls-17" cx="154.21" cy="244.44" r=".97"/>
          <circle class="cls-17" cx="157.11" cy="243.47" r=".97"/>
          <circle class="cls-17" cx="174.51" cy="247.34" r=".97"/>
          <circle class="cls-17" cx="170.65" cy="244.44" r=".97"/>
          <circle class="cls-17" cx="172.58" cy="243.47" r=".97"/>
          <circle class="cls-17" cx="178.38" cy="247.34" r=".97"/>
          <circle class="cls-17" cx="174.51" cy="217.51" r=".97"/>
          <circle class="cls-17" cx="171.61" cy="217.51" r=".97"/>
          <circle class="cls-17" cx="172.58" cy="215.58" r=".97"/>
          <circle class="cls-17" cx="184.18" cy="217.51" r=".97"/>
          <circle class="cls-17" cx="181.28" cy="217.51" r=".97"/>
          <circle class="cls-17" cx="182.25" cy="215.58" r=".97"/>
          <circle class="cls-17" cx="178.38" cy="217.51" r=".97"/>
          <circle class="cls-17" cx="179.35" cy="215.58" r=".97"/>
          <circle class="cls-17" cx="181.28" cy="213.65" r=".97"/>
          <circle class="cls-17" cx="161.94" cy="217.51" r=".97"/>
          <circle class="cls-17" cx="164.84" cy="217.51" r=".97"/>
          <circle class="cls-17" cx="163.88" cy="215.58" r=".97"/>
          <circle class="cls-17" cx="169.68" cy="217.51" r=".97"/>
          <circle class="cls-17" cx="158.08" cy="217.51" r=".97"/>
          <circle class="cls-17" cx="160.98" cy="244.44" r=".97"/>
          <circle class="cls-17" cx="160.01" cy="247.34" r=".97"/>
          <circle class="cls-17" cx="149.37" cy="247.34" r=".97"/>
          <circle class="cls-17" cx="162.91" cy="247.34" r=".97"/>
          <circle class="cls-17" cx="155.18" cy="246.37" r=".97"/>
          <circle class="cls-17" cx="152.37" cy="247.43" r=".97"/>
        </g>
        <g>
          <rect class="cls-11" x="240.96" y="169.5" width="25.4" height="23.06" rx="4.29" ry="4.29"/>
          <rect class="cls-16" x="223.17" y="142" width="32.39" height="31.9" rx="5.7" ry="5.7"/>
          <rect class="cls-10" x="235.22" y="121.87" width="40.03" height="36.34" rx="6.77" ry="6.77"/>
          <rect class="cls-13" x="217.43" y="86.13" width="44.25" height="43.58" rx="7.79" ry="7.79"/>
          <line class="cls-10" x1="239.56" y1="86.98" x2="239.56" y2="76.78"/>
        </g>
        <g>
          <rect class="cls-14" x="79.56" y="167.23" width="16.89" height="15.33" rx="2.86" ry="2.86" transform="translate(176 349.79) rotate(-180)"/>
          <rect class="cls-19" x="86.74" y="148.94" width="21.54" height="21.21" rx="3.79" ry="3.79" transform="translate(195.01 319.1) rotate(-180)"/>
          <rect class="cls-9" x="73.64" y="135.56" width="26.62" height="24.16" rx="4.5" ry="4.5" transform="translate(173.9 295.29) rotate(-180)"/>
          <rect class="cls-4" x="82.67" y="111.8" width="29.42" height="28.98" rx="5.18" ry="5.18" transform="translate(194.75 252.58) rotate(-180)"/>
          <path class="cls-18" d="m97.26,106.06l.12-.48c39.88-12.52,115.94-6.47,115.94-6.47,0,0-51.07,10.95-116.07,6.95Z"/>
        </g>
        <g>
          <rect class="cls-6" x="51.81" y="150.65" width="11.57" height="10.91" rx="1.99" ry="1.99" transform="translate(115.18 312.22) rotate(-180)"/>
          <rect class="cls-15" x="56.72" y="137.64" width="14.75" height="15.09" rx="2.65" ry="2.65" transform="translate(128.2 290.37) rotate(-180)"/>
          <rect class="cls-2" x="47.76" y="128.12" width="18.23" height="17.19" rx="3.14" ry="3.14" transform="translate(113.74 273.43) rotate(-180)"/>
          <rect class="cls-22" x="53.94" y="111.21" width="20.15" height="20.62" rx="3.62" ry="3.62" transform="translate(128.02 243.04) rotate(-180)"/>
          <line class="cls-2" x1="64.01" y1="111.61" x2="64.01" y2="106.79"/>
        </g>
      </g>
    </g>
    <path class="cls-18" d="m290.29,3.84s-27.04,14.83-97.54-.48c0,0,66.57-4.74,97.54.48Z"/>
  </g>
</svg>