<?xml version="1.0" encoding="UTF-8"?>
<svg id="Layer_2" data-name="Layer 2" xmlns="http://www.w3.org/2000/svg" viewBox="0 0 2017.22 189.39">
  <defs>
    <style>
      .cls-1 {
        fill: #dbeffc;
      }

      .cls-1, .cls-2 {
        opacity: .52;
      }

      .cls-2 {
        fill: #bedaea;
      }
    </style>
  </defs>
  <g id="Layer_1-2" data-name="Layer 1">
    <path class="cls-2" d="m1116.76,63.12H499.5l229.7-12.04s5.22-28.34,32.81-16.41c0,0-4.47-32.81,24.61-16.41,0,0,12.68-30.82,37.29-4.59,0,0,13.42-21.51,31.32,2.36,0,0,29.83-12.93,39.53,17.08,0,0,31.32-61.83,94.71-11.86,0,0-1.22-24.61,22.88-11.93,0,0,15.9-22.37,39.02,2.24,0,0,18.64-11.93,26.1,11.19,0,0,26.85-16.41,44,17.9,0,0,22.15-3.15,27.48,11.85l56.79,10.64h-88.99Z"/>
    <path class="cls-1" d="m1124.39,59.98h-334.65l118.03-5.73s-.6-38.45,35.45-19.83c0,0,9.01-44.79,43.26-9.61,0,0,16.82-24.36,31.84,5.41,0,0,15.02-9.01,17.42,8.41,0,0,21.63-18.62,31.24,12.02l57.41,9.34Z"/>
    <path class="cls-1" d="m555.31,189.39H0l123.74-13.09s-4.66-41.84,44.75-38.11c0,0,2.8-47.34,46.61-30.2,0,0,32.63-43.63,67.12.74,0,0,21.44-10.63,32.63,12.68,0,0,15.85-1.9,15.85,17.69,0,0,26.1-12.1,44.75,25.19l47.54,1.86s26.1-46.9,71.78-8.54c0,0,25.17-31.55,51.27,5.74,0,0,13.05-13.98,22.37,7.46l102.51,18.57h-115.62Z"/>
    <path class="cls-2" d="m405.82,186.49H149.33l90.46-4.4s-.46-29.47,27.17-15.2c0,0,6.91-34.33,33.15-7.37,0,0,12.89-18.67,24.41,4.14,0,0,11.51-6.91,13.35,6.45,0,0,16.58-14.27,23.94,9.21l44,7.16Z"/>
    <path class="cls-1" d="m1461.91,113.4h555.31s-123.74-13.09-123.74-13.09c0,0,4.66-41.84-44.75-38.11,0,0-2.8-47.34-46.61-30.2,0,0-32.63-43.63-67.12.74,0,0-21.44-10.63-32.63,12.68,0,0-15.85-1.9-15.85,17.69,0,0-26.1-12.1-44.75,25.19l-47.54,1.86s-26.1-46.9-71.78-8.54c0,0-25.17-31.55-51.27,5.74,0,0-13.05-13.98-22.37,7.46l-102.51,18.57h115.62Z"/>
  </g>
</svg>