<?xml version="1.0" encoding="UTF-8"?>
<svg id="Layer_2" data-name="Layer 2" xmlns="http://www.w3.org/2000/svg" viewBox="0 0 221 441.14">
  <defs>
    <style>
      .cls-1 {
        fill: none;
        stroke: #404041;
        stroke-miterlimit: 10;
        stroke-width: .28px;
      }

      .cls-2 {
        fill: #f7d047;
      }

      .cls-3 {
        fill: #efaf42;
      }

      .cls-4 {
        fill: #e8a943;
      }

      .cls-5 {
        fill: #fff;
      }

      .cls-6 {
        fill: #e78e3d;
      }
    </style>
  </defs>
  <g id="Layer_1-2" data-name="Layer 1">
    <rect class="cls-5" y=".14" width="221" height="441"/>
    <g>
      <rect class="cls-1" x=".44" y=".14" width="220.09" height="220.09"/>
      <line class="cls-1" x1=".44" y1="195.77" x2="220.52" y2="195.77"/>
      <line class="cls-1" x1=".44" y1="171.32" x2="220.52" y2="171.32"/>
      <line class="cls-1" x1=".44" y1="146.86" x2="220.52" y2="146.86"/>
      <line class="cls-1" x1=".44" y1="122.41" x2="220.52" y2="122.41"/>
      <line class="cls-1" x1=".44" y1="97.96" x2="220.52" y2="97.96"/>
      <line class="cls-1" x1=".44" y1="73.5" x2="220.52" y2="73.5"/>
      <line class="cls-1" x1=".44" y1="49.05" x2="220.52" y2="49.05"/>
      <line class="cls-1" x1=".44" y1="24.59" x2="220.52" y2="24.59"/>
      <line class="cls-1" x1="196.07" y1=".14" x2="196.07" y2="220.23"/>
      <line class="cls-1" x1="171.62" y1=".14" x2="171.62" y2="220.23"/>
      <line class="cls-1" x1="147.16" y1=".14" x2="147.16" y2="220.23"/>
      <line class="cls-1" x1="122.71" y1=".14" x2="122.71" y2="220.23"/>
      <line class="cls-1" x1="98.25" y1=".14" x2="98.25" y2="220.23"/>
      <line class="cls-1" x1="73.8" y1=".14" x2="73.8" y2="220.23"/>
      <line class="cls-1" x1="49.34" y1=".14" x2="49.34" y2="220.23"/>
      <line class="cls-1" x1="24.89" y1=".14" x2="24.89" y2="220.23"/>
    </g>
    <g>
      <rect class="cls-1" x=".44" y="220.59" width="220.09" height="220.09"/>
      <line class="cls-1" x1=".44" y1="416.23" x2="220.52" y2="416.23"/>
      <line class="cls-1" x1=".44" y1="391.78" x2="220.52" y2="391.78"/>
      <line class="cls-1" x1=".44" y1="367.32" x2="220.52" y2="367.32"/>
      <line class="cls-1" x1=".44" y1="342.87" x2="220.52" y2="342.87"/>
      <line class="cls-1" x1=".44" y1="318.41" x2="220.52" y2="318.41"/>
      <line class="cls-1" x1=".44" y1="293.96" x2="220.52" y2="293.96"/>
      <line class="cls-1" x1=".44" y1="269.5" x2="220.52" y2="269.5"/>
      <line class="cls-1" x1=".44" y1="245.05" x2="220.52" y2="245.05"/>
      <line class="cls-1" x1="196.07" y1="220.59" x2="196.07" y2="440.68"/>
      <line class="cls-1" x1="171.62" y1="220.59" x2="171.62" y2="440.68"/>
      <line class="cls-1" x1="147.16" y1="220.59" x2="147.16" y2="440.68"/>
      <line class="cls-1" x1="122.71" y1="220.59" x2="122.71" y2="440.68"/>
      <line class="cls-1" x1="98.25" y1="220.59" x2="98.25" y2="440.68"/>
      <line class="cls-1" x1="73.8" y1="220.59" x2="73.8" y2="440.68"/>
      <line class="cls-1" x1="49.34" y1="220.59" x2="49.34" y2="440.68"/>
      <line class="cls-1" x1="24.89" y1="220.59" x2="24.89" y2="440.68"/>
    </g>
    <g>
      <path class="cls-3" d="M159.28,71.21c2.63,0,5.02-1.05,6.8-2.73-3.82-6.18-9.42-11.13-16.08-14.16-.46,3.03-.72,5.51-.72,6.86,0,5.51,4.48,10.01,9.99,10.02Z"/>
      <path class="cls-2" d="M172.42,26.94c-4.11-1.59-8.13,2.48-6.62,6.63,3.4,9.39,5.67,23.29,5.67,27.61,0,6.73-5.46,12.2-12.19,12.23-6.72-.02-12.19-5.5-12.19-12.23,0-4.33,2.26-18.22,5.67-27.61,1.5-4.15-2.51-8.21-6.62-6.63-14.5,5.59-24.56,20.12-23.41,36.84,1.25,18.09,15.9,32.74,33.99,33.99,.85,.06,1.68,.08,2.52,.08h0s.03,0,.04,0,.03,0,.04,0h0c.83,0,1.67-.02,2.52-.08,18.09-1.25,32.74-15.9,33.99-33.99,1.15-16.72-8.9-31.25-23.41-36.84Z"/>
    </g>
    <path class="cls-2" d="M184.76,111.58c-4.11-1.59-8.13,2.48-6.62,6.63,3.4,9.39,5.67,23.29,5.67,27.61,0,6.73-5.46,12.2-12.19,12.23-6.72-.02-12.19-5.5-12.19-12.23,0-4.33,2.26-18.22,5.67-27.61,1.5-4.15-2.51-8.21-6.62-6.63-14.5,5.59-24.56,20.12-23.41,36.84,1.25,18.09,15.9,32.74,33.99,33.99,.85,.06,1.68,.08,2.52,.08h0s.03,0,.04,0,.03,0,.04,0h0c.83,0,1.67-.02,2.52-.08,18.09-1.25,32.74-15.9,33.99-33.99,1.15-16.72-8.9-31.25-23.41-36.84Z"/>
    <g>
      <path class="cls-4" d="M171.62,156.4v-9.53h-10.48c.52,5.32,5.02,9.51,10.48,9.53Z"/>
      <path class="cls-4" d="M171.6,184.14c-1.05,0-1.88-.03-2.66-.08-18.94-1.31-34.22-16.58-35.52-35.52-.04-.56-.06-1.12-.08-1.68h-10.63v48.91h48.91v-11.63h-.01Z"/>
    </g>
    <g>
      <path class="cls-6" d="M63.77,318.41c-1.03,0-1.88-.03-2.68-.09-19.61-1.35-35.42-12.3-36.77-31.92-1.21-17.52,8.96-33.53,25.31-39.83,1.25-.48,2.55-.73,3.87-.73,3.47,0,6.74,1.72,8.77,4.61,.74,1.05,1.27,2.21,1.59,3.42,.32-1.21,.85-2.37,1.59-3.42,2.02-2.88,5.3-4.61,8.77-4.61,1.32,0,2.62,.24,3.87,.73,16.35,6.3,26.52,22.31,25.31,39.83-1.35,19.61-17.16,30.57-36.77,31.92-.8,.06-1.65,.08-2.65,.09h-.08s-.12,0-.12,0Zm.08-58.97c-.08,.36-.18,.72-.29,1.07-2.96,9.58-4.83,23.85-4.83,27.31s2.3,6.04,5.14,6.05c2.79-.01,5.1-2.73,5.1-6.05s-1.87-17.73-4.83-27.31c-.11-.36-.21-.71-.29-1.07Z"/>
      <path class="cls-5" d="M75.9,252.22c-3.77-1.45-7.45,2.27-6.07,6.07,3.12,8.61,5.19,21.34,5.19,25.31,0,6.17-5.01,11.19-11.17,11.21-6.16-.02-11.17-5.04-11.17-11.21,0-3.97,2.07-16.7,5.19-25.31,1.38-3.8-2.3-7.53-6.07-6.07-13.29,5.12-22.51,18.45-21.45,33.77,1.14,16.58,14.58,30.01,31.16,31.15,.78,.05,1.54,.07,2.31,.07h0s.03,0,.04,0,.03,0,.04,0h0c.76,0,1.53-.02,2.31-.07,16.58-1.14,30.01-14.58,31.16-31.15,1.06-15.32-8.16-28.65-21.45-33.77Z"/>
    </g>
    <g>
      <path class="cls-2" d="M59.95,99.5c-1.05,0-1.88-.03-2.66-.08-18.94-1.31-34.22-16.58-35.52-35.52-1.17-16.94,8.66-32.41,24.46-38.5,.79-.31,1.62-.46,2.44-.46,2.17,0,4.23,1.09,5.51,2.92,1.3,1.85,1.6,4.14,.82,6.27-3.4,9.38-5.57,23.04-5.57,27.05,0,5.81,4.73,10.56,10.54,10.57,5.8-.02,10.53-4.76,10.53-10.57,0-4.02-2.17-17.68-5.57-27.05-.77-2.14-.48-4.42,.82-6.27,1.28-1.83,3.34-2.92,5.51-2.92,.82,0,1.65,.16,2.44,.46,15.8,6.09,25.63,21.56,24.46,38.5-1.31,18.95-16.58,34.22-35.52,35.52-.79,.05-1.62,.08-2.63,.08h0s-.05,0-.05,0Z"/>
      <path class="cls-6" d="M47.83,62.22H23.34c.01,.52,.04,1.04,.08,1.56,1.25,18.09,15.9,32.74,33.99,33.99,.85,.06,1.68,.08,2.52,.08h0s.03,0,.04,0v-24.44c-6.37-.02-11.6-4.94-12.13-11.19Z"/>
    </g>
    <g>
      <path class="cls-2" d="M159.22,268.46c0-4.33,2.26-18.22,5.67-27.61,1.5-4.15-2.51-8.21-6.62-6.63-14.05,5.41-23.92,19.22-23.48,35.28h24.49c-.03-.34-.05-.69-.05-1.04Z"/>
      <path class="cls-2" d="M184.55,234.22c-4.11-1.59-8.13,2.48-6.62,6.63,3.4,9.39,5.67,23.29,5.67,27.61,0,6.73-5.46,12.2-12.19,12.23h0v24.44h0s.03,0,.04,0h0c.83,0,1.67-.02,2.52-.08,18.09-1.25,32.74-15.9,33.99-33.99,1.15-16.72-8.9-31.25-23.41-36.84Z"/>
      <path class="cls-6" d="M171.41,280.69v-11.19h-12.13c.53,6.24,5.76,11.16,12.13,11.19Z"/>
      <path class="cls-6" d="M171.37,305.13c-.83,0-1.67-.02-2.52-.08-18.09-1.25-32.74-15.9-33.99-33.99-.04-.52-.06-1.04-.08-1.56h-12.28v48.91h48.91v-13.28s-.03,0-.04,0h0Z"/>
    </g>
    <g>
      <path class="cls-6" d="M39.59,374.58h12.67c.35,0,.69,.03,1.04,.05,0-3.13,1.19-6.27,3.57-8.65,3.06-3.06,14.49-11.29,23.53-15.52,3.99-1.87,4.03-7.58,0-9.37-14.21-6.3-31.6-3.14-42.6,9.5-6.96,7.99-9.85,18.39-8.67,28.39,2.67-2.71,6.37-4.4,10.45-4.4Z"/>
      <path class="cls-6" d="M98.99,359.68c-1.79-4.03-7.5-3.99-9.37,0-4.23,9.05-12.46,20.47-15.52,23.53-2.06,2.06-4.69,3.23-7.39,3.51,.15,.83,.24,1.68,.24,2.55v12.67c0,3.49-1.24,6.7-3.28,9.22,9.19,.44,18.51-2.52,25.82-8.88,12.64-11.01,15.8-28.4,9.5-42.6Z"/>
      <path class="cls-6" d="M66.72,386.72c-1.16-6.54-6.67-11.61-13.42-12.09,0,3.12,1.18,6.23,3.55,8.61,2.7,2.68,6.35,3.84,9.87,3.48Z"/>
      <path class="cls-6" d="M39.59,400.56h0s-.02-.02-.03-.03c0,0-.02-.02-.03-.03h0c-.59-.59-1.17-1.2-1.73-1.84-4.95-5.68-7.83-12.58-8.67-19.68-2.62,2.66-4.24,6.29-4.24,10.29v12.67c0,8.08,6.61,14.69,14.69,14.69h12.67c4.59,0,8.71-2.14,11.41-5.47-7.99-.38-15.88-3.34-22.24-8.88-.64-.56-1.25-1.14-1.84-1.73Z"/>
    </g>
    <g>
      <path class="cls-6" d="M192.83,361.41c-1.79-4.03-7.5-3.99-9.37,0-4.23,9.05-12.46,20.47-15.52,23.53-4.76,4.76-12.49,4.77-17.26,.03-4.74-4.77-4.73-12.5,.03-17.26,3.06-3.06,14.49-11.29,23.53-15.52,3.99-1.87,4.03-7.58,0-9.37-14.21-6.3-31.6-3.14-42.6,9.5-8.62,9.9-11,23.5-7.13,35.44,2.72-2.14,6.13-3.43,9.86-3.43,8.79,0,15.95,7.16,15.95,15.95,0,3.96-1.46,7.58-3.85,10.37,12.27,4.54,26.57,2.33,36.87-6.64,12.64-11.01,15.8-28.4,9.5-42.6Z"/>
      <path class="cls-6" d="M133.42,402.28h0s-.02-.02-.03-.03c0,0-.02-.02-.03-.03h0c-.59-.59-1.17-1.2-1.73-1.84-3.28-3.77-5.66-8.08-7.13-12.63-3.7,2.92-6.09,7.44-6.09,12.52,0,8.79,7.16,15.95,15.95,15.95,4.84,0,9.17-2.17,12.09-5.58-4.02-1.49-7.83-3.7-11.2-6.64-.64-.56-1.25-1.14-1.84-1.73Z"/>
    </g>
    <circle class="cls-6" cx="134.36" cy="400.28" r="12.1"/>
    <g>
      <path class="cls-2" d="M74.76,123.43c-4.11-1.59-8.13,2.48-6.62,6.63,3.4,9.39,5.67,23.29,5.67,27.61,0,6.73-5.46,12.2-12.19,12.23-6.72-.02-12.19-5.5-12.19-12.23,0-4.33,2.26-18.22,5.67-27.61,1.5-4.15-2.51-8.21-6.62-6.63-14.5,5.59-24.56,20.12-23.41,36.84,1.25,18.09,15.9,32.74,33.99,33.99,.85,.06,1.68,.08,2.52,.08h0s.03,0,.04,0,.03,0,.04,0h0c.83,0,1.67-.02,2.52-.08,18.09-1.25,32.74-15.9,33.99-33.99,1.15-16.72-8.9-31.25-23.41-36.84Z"/>
      <g>
        <path class="cls-6" d="M61.62,168.24c2.14,0,4.14-.67,5.8-1.78,.21-.14,.32-.37,.32-.62h0c0-6.13-4.97-11.1-11.1-11.1h-4.7c-.38,0-.7,.29-.74,.67-.09,.92-.13,1.69-.13,2.26,0,5.81,4.73,10.56,10.54,10.57Z"/>
        <path class="cls-6" d="M61.66,195.99h0s-.05,0-.05,0c-2.42,0-3.71-.14-5.8-.44-17.67-2.56-31.15-17.11-32.37-34.92l-.02-.32c-.22-3.18-2.78-5.56-5.87-5.56h-2.29c-1.6,0-2.93,1.29-2.93,2.89,0,1.16,.04,2.33,.12,3.51,1.68,24.4,21.35,44.06,45.74,45.74,1.03,.07,2.11,.11,3.31,.11l2.71,.03,.19-.09c.22-.01,.44-.03,.65-.04h.03c1.51-.11,2.68-1.36,2.68-2.87v-4.99c0-1.85-1.58-3.25-3.42-3.12-.01,0-.02,0-.04,0-.79,.05-1.62,.08-2.63,.08Z"/>
      </g>
    </g>
  </g>
</svg>