<?xml version="1.0" encoding="UTF-8"?>
<svg id="Layer_2" data-name="Layer 2" xmlns="http://www.w3.org/2000/svg" xmlns:xlink="http://www.w3.org/1999/xlink" viewBox="0 0 2158.75 739.23">
  <defs>
    <style>
      .cls-1, .cls-2, .cls-3, .cls-4, .cls-5 {
        fill: none;
      }

      .cls-6 {
        fill: url(#linear-gradient-9);
        stroke: url(#linear-gradient-10);
        stroke-width: .44px;
      }

      .cls-6, .cls-7, .cls-2, .cls-3, .cls-8, .cls-4, .cls-9, .cls-5, .cls-10, .cls-11 {
        stroke-miterlimit: 10;
      }

      .cls-6, .cls-7, .cls-8, .cls-10, .cls-11, .cls-12 {
        opacity: .39;
      }

      .cls-13 {
        fill: url(#linear-gradient);
      }

      .cls-14 {
        fill: #686459;
      }

      .cls-15 {
        fill: #f0ffde;
      }

      .cls-16 {
        fill: #ffff5a;
      }

      .cls-17 {
        fill: #e5e3ae;
      }

      .cls-18 {
        fill: #6b6032;
      }

      .cls-19 {
        fill: #8a8c76;
      }

      .cls-20 {
        fill: #918360;
      }

      .cls-21 {
        fill: #cece76;
      }

      .cls-22 {
        fill: #a89478;
      }

      .cls-23 {
        fill: #bcac88;
      }

      .cls-24 {
        fill: #b0b283;
      }

      .cls-25 {
        fill: #d7e2c7;
      }

      .cls-26 {
        fill: #aeb5a1;
      }

      .cls-27 {
        fill: #ccca9a;
      }

      .cls-28 {
        fill: #ddd56f;
      }

      .cls-29 {
        fill: #d6d6d6;
      }

      .cls-30 {
        fill: #e0e0e0;
      }

      .cls-31 {
        fill: #d7db83;
      }

      .cls-32 {
        fill: #465070;
      }

      .cls-33 {
        fill: #55563b;
      }

      .cls-34 {
        fill: #353e56;
      }

      .cls-35 {
        fill: #494930;
      }

      .cls-36 {
        fill: #54564a;
      }

      .cls-37 {
        fill: #776b4d;
      }

      .cls-38 {
        fill: #776d5d;
      }

      .cls-39 {
        fill: #727564;
      }

      .cls-40 {
        fill: #525433;
      }

      .cls-41 {
        fill: #7a7c65;
      }

      .cls-42 {
        fill: #272e3d;
      }

      .cls-7 {
        fill: url(#linear-gradient-11);
        stroke: url(#linear-gradient-12);
        stroke-width: .78px;
      }

      .cls-2 {
        opacity: .47;
        stroke: #b7b6b6;
      }

      .cls-2, .cls-3 {
        stroke-width: 5px;
      }

      .cls-3 {
        stroke: gray;
      }

      .cls-8 {
        fill: url(#linear-gradient-7);
        stroke: url(#linear-gradient-8);
        stroke-width: .51px;
      }

      .cls-4 {
        stroke: #242424;
        stroke-width: 10px;
      }

      .cls-9 {
        fill: #bfbfbf;
        stroke: #fff;
      }

      .cls-43 {
        fill: #fff;
        opacity: .21;
      }

      .cls-44 {
        fill: url(#linear-gradient-15);
      }

      .cls-44, .cls-45 {
        opacity: .26;
      }

      .cls-45 {
        fill: url(#linear-gradient-16);
      }

      .cls-46 {
        opacity: .97;
      }

      .cls-47 {
        fill: url(#linear-gradient-14);
      }

      .cls-48 {
        fill: url(#linear-gradient-13);
      }

      .cls-5 {
        stroke: #666;
        stroke-width: 7px;
      }

      .cls-10 {
        fill: url(#linear-gradient-3);
        stroke: url(#linear-gradient-4);
      }

      .cls-11 {
        fill: url(#linear-gradient-5);
        stroke: url(#linear-gradient-6);
      }

      .cls-12 {
        fill: url(#linear-gradient-2);
      }
    </style>
    <linearGradient id="linear-gradient" x1="1077.41" y1="717.35" x2="1079.8" y2="316" gradientUnits="userSpaceOnUse">
      <stop offset="0" stop-color="#c6c9e8"/>
      <stop offset="1" stop-color="#fff" stop-opacity="0"/>
    </linearGradient>
    <linearGradient id="linear-gradient-2" x1="88.47" y1="531.47" x2="1502.24" y2="531.47" gradientUnits="userSpaceOnUse">
      <stop offset="0" stop-color="#e8e900"/>
      <stop offset=".18" stop-color="#cdc81a"/>
      <stop offset=".38" stop-color="#b6ad31"/>
      <stop offset=".59" stop-color="#a59941"/>
      <stop offset=".79" stop-color="#9c8d4a"/>
      <stop offset="1" stop-color="#998a4e"/>
    </linearGradient>
    <linearGradient id="linear-gradient-3" x1="1040.46" y1="431.81" x2="1125.19" y2="431.81" xlink:href="#linear-gradient-2"/>
    <linearGradient id="linear-gradient-4" x1="1099.92" y1="569.83" x2="1101.57" y2="291.8" xlink:href="#linear-gradient"/>
    <linearGradient id="linear-gradient-5" x1="1090.51" y1="416.34" x2="1175.25" y2="416.34" xlink:href="#linear-gradient-2"/>
    <linearGradient id="linear-gradient-6" x1="1149.98" y1="554.37" x2="1151.63" y2="276.34" xlink:href="#linear-gradient"/>
    <linearGradient id="linear-gradient-7" x1="510" y1="584.79" x2="573.42" y2="584.79" gradientTransform="translate(813.23 25.49) rotate(-180) scale(.66 -.96)" xlink:href="#linear-gradient-2"/>
    <linearGradient id="linear-gradient-8" x1="554.51" y1="660.67" x2="555.41" y2="508.38" gradientTransform="translate(813.23 25.49) rotate(-180) scale(.66 -.96)" xlink:href="#linear-gradient"/>
    <linearGradient id="linear-gradient-9" x1="556.14" y1="612.01" x2="602.69" y2="612.01" gradientTransform="translate(813.23 25.49) rotate(-180) scale(.66 -.96)" xlink:href="#linear-gradient-2"/>
    <linearGradient id="linear-gradient-10" x1="588.8" y1="687.78" x2="589.7" y2="535.42" gradientTransform="translate(813.23 25.49) rotate(-180) scale(.66 -.96)" xlink:href="#linear-gradient"/>
    <linearGradient id="linear-gradient-11" x1="1220" y1="465.97" x2="1272.08" y2="465.97" xlink:href="#linear-gradient-2"/>
    <linearGradient id="linear-gradient-12" x1="1256.52" y1="603.74" x2="1258.18" y2="325.17" xlink:href="#linear-gradient"/>
    <linearGradient id="linear-gradient-13" x1="1804.81" y1="159.86" x2="1990.48" y2="159.86" gradientUnits="userSpaceOnUse">
      <stop offset="0" stop-color="#d9e021"/>
      <stop offset=".07" stop-color="#cfd527"/>
      <stop offset=".3" stop-color="#b7ba38"/>
      <stop offset=".53" stop-color="#a6a644"/>
      <stop offset=".76" stop-color="#9c9a4b"/>
      <stop offset="1" stop-color="#99974e"/>
    </linearGradient>
    <linearGradient id="linear-gradient-14" x1="693.62" y1="75.77" x2="961.94" y2="344.09" xlink:href="#linear-gradient-13"/>
    <linearGradient id="linear-gradient-15" x1="1918.88" y1="437.41" x2="2158.75" y2="437.41" gradientUnits="userSpaceOnUse">
      <stop offset="0" stop-color="#fbcad6"/>
      <stop offset="1" stop-color="#ed9760"/>
    </linearGradient>
    <linearGradient id="linear-gradient-16" x1="1201.34" y1="408.81" x2="1669.81" y2="408.81" xlink:href="#linear-gradient-15"/>
  </defs>
  <g id="Layer_5" data-name="Layer 5">
    <g>
      <g>
        <polygon class="cls-13" points=".05 736.04 603.16 736.04 603.16 709.17 724.67 709.17 724.67 681.65 846.18 681.65 846.18 654.64 967.69 654.64 967.69 626.63 2158.75 630.68 2158.75 136.04 .05 136.04 .05 736.04"/>
        <path class="cls-12" d="m.05,736.04h603.11v-26.95h121.51v-27.61h121.51v-27.1h121.51v-28.1l1191.06,4.06v-124.75c-11.33,1.36-28.9,2.32-49.33-1.87-79.03-16.2-98.18-88.32-173.27-116.94-31.1-11.85-42.89-5.23-102.53-6.87-150-4.11-180.55-48.86-273.49-51.31-119.45-3.16-46.51-7.07-222.88,40.24-162.85,43.68-111.19,83.82-328.35,107.72-95.44,10.5-218.9,136.58-291.06,157.16-65.08,18.56-95.21,2.66-341.95-7.82-203.11-9.96-203.11,13.04-375.84,110.15Z"/>
        <path class="cls-10" d="m1092.31,294.69l-18.42,86.32s21.64,7.67,9.21,10.26-14.53,8.93-14.53,8.93l-33.42,168.72,129.39-3.17-52.01-113.84s-47.63-10.7-31.11-20.11,26.48-18.88,26.48-18.88l-15.59-118.24Z"/>
        <path class="cls-11" d="m1142.37,279.23l-18.42,86.32s21.64,7.67,9.21,10.26-14.53,8.93-14.53,8.93l-33.42,168.72,129.39-3.17-52.01-113.84s-47.63-10.7-31.11-20.11,26.48-18.88,26.48-18.88l-15.59-118.24Z"/>
        <path class="cls-8" d="m453.38,515.87l9.04,45.65s-10.62,4.06-4.52,5.43,7.13,4.72,7.13,4.72l16.4,89.22-63.5-1.68,25.53-60.2s23.38-5.66,15.27-10.63c-8.11-4.97-13-9.99-13-9.99l7.65-62.52Z"/>
        <path class="cls-6" d="m429.89,542.08l6.64,45.65s-7.8,4.06-3.32,5.43,5.23,4.72,5.23,4.72l12.04,89.22-46.61-1.68,18.74-60.2s17.16-5.66,11.21-10.63c-5.95-4.97-9.54-9.99-9.54-9.99l5.61-62.52Z"/>
        <path class="cls-7" d="m1251.87,328.85l-11.32,86.32s13.3,7.67,5.66,10.26-8.93,8.93-8.93,8.93l-20.54,168.72,79.52-3.17-31.97-113.84s-29.28-10.7-19.12-20.11,16.27-18.88,16.27-18.88l-9.58-118.24Z"/>
        <g>
          <path class="cls-28" d="m527.4,307.8s-18.07,33.27-18.86,20.42c-.79-12.85,15.4-22.08,15.4-22.08,0,0-49.3-4.15-34.39-7.75s28.52,4.95,28.52,4.95c0,0-21.78-27.15-16.42-27.15s16.03,20.8,16.03,20.8c0,0,20.66-45.52,20.25-30.41-.41,15.11-15.2,30.8-15.2,30.8,0,0,24.2-15.27,21.16-4.69-3.04,10.58-19.09,7.28-19.09,7.28,0,0,17.77.85,18.14,6.89.37,6.05-15.56.92-15.56.92Z"/>
          <path class="cls-19" d="m1964.42,73.81s6.22-67.15,34.27-73.37c28.05-6.22-13.62,55.35-13.62,55.35,0,0,57.39-38.13,50.63-18.95-6.76,19.18-44.88,32.01-44.88,32.01,0,0,59.58,1.04,39.67,10.44-19.91,9.4,26.92,12.84,26.92,12.84,0,0,40.9,11.96-21.49,11.04-62.38-.92-39.03,22.99-39.03,22.99,0,0,21.19,37.46,1.55,23.25-19.64-14.21-37.13-42.03-37.13-42.03,0,0-27.43,73.97-30.92,48.23-3.49-25.74,18.51-69.11,18.51-69.11,0,0-40.68-27.57-25.08-31.45s40.6,18.75,40.6,18.75Z"/>
          <path class="cls-31" d="m2158.62,234.87c0,85.24-69.1,154.34-154.34,154.34s-154.34-69.1-154.34-154.34,69.1-154.34,154.34-154.34c65.48,0,109.43,45.28,114.12,50.43,2.14,2.35,4.12,4.83,4.12,4.83-117.75,56.76-100.54,123.33,3.4,4.33,2.54-2.91,32.71,53.87,32.71,94.76Z"/>
          <path class="cls-48" d="m1990.48,161.07c0,51.27-41.56,92.83-92.83,92.83s-92.83-41.56-92.83-92.83c0-1.37,78.4,19.47,78.55,17.36,0,0-69.33-59.8-69.04-61.9.37-2.72,14.34-48.19,83.32-48.29,23.56-.03,53.52-10.48,51.67,12.3-2.24,27.58-57.99,124.19,14.04,15.44,1.1-1.66,2.76,2.86,4.08,4.36,14.21,16.19,23.05,37.35,23.05,60.73Z"/>
          <path class="cls-40" d="m824.39,476.87s-37.57,41.21-34.17,22.56c3.4-18.65,29.81-26.15,29.81-26.15,0,0-69.04-23.32-46.44-23.2,22.6.12,39.03,17.14,39.03,17.14,0,0-21.57-46.51-13.9-44.61,7.67,1.9,15.58,35.4,15.58,35.4,0,0,45.6-57.8,39.68-36.34-5.92,21.46-32.6,38.69-32.6,38.69,0,0,39.99-13.3,31.92.76-8.07,14.05-29.86,3.67-29.86,3.67,0,0,25.11,7.48,23.51,16.26-1.6,8.78-22.57-4.17-22.57-4.17Z"/>
          <path class="cls-40" d="m883.54,485.69s-40.47-38.36-21.89-34.6c18.58,3.76,25.57,30.31,25.57,30.31,0,0,24.65-68.58,24.1-45.98-.55,22.6-17.89,38.69-17.89,38.69,0,0,46.92-20.67,44.87-13.04-2.05,7.63-35.69,14.9-35.69,14.9,0,0,56.91,46.71,35.56,40.38-21.34-6.33-38.05-33.34-38.05-33.34,0,0,12.52,40.24-1.37,31.9-13.9-8.34-3.1-29.92-3.1-29.92,0,0-7.97,24.96-16.71,23.19s4.6-22.49,4.6-22.49Z"/>
          <path class="cls-27" d="m965.52,479.91s-32.38,45.4-31.23,26.47c1.15-18.92,26.48-29.52,26.48-29.52,0,0-71.33-14.91-48.88-17.49,22.45-2.58,40.8,12.35,40.8,12.35,0,0-26.97-43.6-19.13-42.63,7.84.97,19.7,33.28,19.7,33.28,0,0,38.37-62.83,35.06-40.82-3.31,22.01-27.75,42.3-27.75,42.3,0,0,38.12-17.98,31.78-3.06-6.34,14.92-29.21,7.21-29.21,7.21,0,0,25.83,4.43,25.29,13.33s-22.91-1.44-22.91-1.44Z"/>
          <path class="cls-27" d="m1001.62,463.53s-45.18-6.51-30.85-12.68c14.34-6.17,31.36,8.14,31.36,8.14,0,0-15.02-56.86-4.94-41.65,10.08,15.2,5.78,33.93,5.78,33.93,0,0,22.24-35.54,24.38-29.54,2.14,6-17.3,26.49-17.3,26.49,0,0,60.19,4.38,42.79,10.14-17.4,5.76-41.22-4.32-41.22-4.32,0,0,27.11,20.78,13.83,21.74-13.28.96-15.94-18.35-15.94-18.35,0,0,6.15,20.23-.6,23.13-6.75,2.9-7.28-17.02-7.28-17.02Z"/>
          <path class="cls-31" d="m632,209.83c77.73-13.06,151.32,39.37,164.38,117.09,13.06,77.73-39.37,151.32-117.09,164.38-15.65,2.63-59.3,7.27-46,.25,56.26-29.7,22.25-131.55-72.3-86.61-2.67,1.27,58.36,83.71,55.53,82.9-51.27-14.64-92.2-57.55-101.62-113.64-13.06-77.73,39.37-151.32,117.09-164.38Z"/>
          <path class="cls-47" d="m1024.73,207.85c0,102.55-88.65,185.68-198,185.68-47.27,0-117.66-26.23-111.55-26.02,56.51,1.88,241.52-164.58-11.44-14.16,0,0-3.3-2.39-6.5-5.03-13.33-10.98-67.5-91.54-68.51-140.47-.11-5.31.15-10.56.15-10.56.41-8.76,1.79-21.71,6.31-36.64,37.36-4.65,55.12-9.27,56-13.58,16.87-83.12-15.36-7.87-46.01-11.65,0,0,32.38-56.77,84.57-85.82,16.14-8.98,49.87-27.23,96.98-27.43,60.54-.25,126.89,25.9,116.49,39.57-75.29,99.01,27.27,50.81,11.61,9.11,0,0,4.66,3.99,9.42,8.71,8.13,8.04,21.54,23.56,28.16,33.21,14.61,21.32,32.32,64.82,32.32,95.07Z"/>
          <polygon class="cls-37" points="803.1 324.19 783.68 310.02 775.27 303.94 682.1 204.75 684.8 202.33 726.73 245.7 713.2 202.67 715.9 201.49 737.45 257.23 775.17 292.44 774.71 231.33 833.76 197.28 776.34 232.44 779.52 294.39 810.1 318.66 803.1 324.19"/>
          <g class="cls-46">
            <path class="cls-39" d="m998.84,549.38l-82-5.27-89.07-56.05s99.32-48.37,171.07,61.32Z"/>
            <path class="cls-36" d="m913.46,528.33l-69.56,37.56-101.83,22.32s55.68-65.61,171.39-59.89Z"/>
            <polyline class="cls-37" points="875.03 343.29 871.25 360.68 871.47 414.99 861.2 449.75 861.2 449.75 853.56 446.04 853.56 446.04 800.7 399.08 783.01 373.75 781.9 374.4 799.48 400.18 815.24 414.99 780.85 417.49 774.16 395.82 779.81 417.82 759.75 407.37 772.34 416.12 746.1 424.44 773.9 417.01 780.1 420.5 783.59 420.16 817.58 418.47 845.64 446.01 854.94 461.23 846.06 488.9 835.56 549.38 856.33 607.34 816.27 567.58 808.98 526.04 806.77 526.26 811.85 558.1 766.28 567.41 811.63 560.29 814.28 574.21 792.85 569.13 814.06 576.42 852.73 622.82 807.67 654.65 877.45 652.29 896.62 608.3 929.63 513.4 952.37 505.26 951.7 503.89 929.11 511.76 944.35 455.65 942.85 454.85 923.68 524.17 898.33 502.32 886.19 466.66 885.02 466.93 896.88 502.86 920.74 527.98 893.1 590.43 854.66 541.21 859.8 498.37 880.03 421.16 965.65 349.56 965.65 349.56 965.65 347.44 965.65 347.44 986.4 315.95 983.45 313.73 958.92 350.09 926.08 373.92 928.91 307.02 926.97 307.02 925.38 335.79 916.81 315.03 916.81 315.03 924.67 338.44 921.14 376.04 880.1 412.2 876.45 356.54 880.39 293.15"/>
          </g>
          <g class="cls-46">
            <path class="cls-18" d="m1827.29,372.75l82-5.27,89.07-56.05s-99.32-48.37-171.07,61.32Z"/>
            <path class="cls-18" d="m1912.66,351.7l69.56,37.56,101.83,22.32s-55.68-65.61-171.39-59.89Z"/>
            <polyline class="cls-18" points="1951.09 166.67 1954.87 184.05 1954.66 238.37 1964.92 273.12 1966.01 259.8 1974.09 259.8 1972.57 269.41 2025.42 222.45 2043.11 197.12 2044.22 197.77 2026.64 223.56 2010.88 238.37 2045.27 240.86 2051.97 219.2 2046.31 241.2 2066.37 230.74 2053.78 239.49 2080.03 247.81 2052.22 240.38 2046.03 243.87 2042.54 243.53 2008.54 241.85 1980.49 269.39 1971.19 284.6 1980.07 312.27 1990.56 372.75 1969.79 430.72 2009.85 390.95 2017.14 349.41 2019.35 349.63 2014.27 381.47 2059.84 390.79 2014.49 383.66 2011.84 397.58 2033.27 392.5 2012.06 399.79 1973.39 446.19 2018.46 478.02 1948.68 475.67 1929.5 431.67 1896.5 336.78 1873.75 328.64 1874.43 327.26 1897.01 335.13 1881.77 279.02 1883.28 278.22 1902.45 347.54 1927.79 325.69 1939.93 290.03 1941.11 290.31 1929.25 326.24 1905.38 351.35 1933.02 413.8 1971.46 364.59 1966.33 321.74 1946.09 244.54 1860.48 172.93 1860.48 172.93 1860.48 170.82 1860.48 170.82 1839.72 139.32 1842.67 137.1 1867.21 173.47 1900.04 197.3 1897.22 130.39 1899.16 130.39 1900.75 159.17 1909.31 138.4 1909.31 138.4 1901.45 161.81 1904.98 199.41 1946.02 235.57 1949.68 179.91 1945.73 116.52"/>
          </g>
          <rect class="cls-38" x="717.84" y="476.62" width="654.52" height="10.3"/>
          <rect class="cls-23" x="717.84" y="485.7" width="654.52" height="7.58"/>
          <polygon class="cls-30" points="843.24 653.1 964.75 653.1 964.75 626 1418.17 626 1418.17 492.06 724.99 492.06 724.99 680.2 843.24 680.2 843.24 653.1"/>
          <polygon class="cls-38" points="729.62 151.71 1101.63 258.04 2158.63 354.75 2158.75 255.47 814.92 141.68 729.62 151.71"/>
          <polygon class="cls-30" points="1309.12 242.79 2158.63 312.49 2158.63 628.2 1309.12 623.62 1309.12 242.79"/>
          <g>
            <polygon class="cls-9" points="1627.14 478.11 1671.3 470.04 1671.3 427.57 1627.14 396.12 1627.14 478.11"/>
            <polygon class="cls-9" points="1627.14 514.28 1671.3 514.28 1671.3 470.04 1627.14 478.11 1627.14 514.28"/>
            <polygon class="cls-9" points="1627.14 396.12 1671.3 427.57 1671.3 339.4 1617.61 364.15 1627.14 396.12"/>
            <polygon class="cls-9" points="1617.61 364.15 1671.3 339.4 1671.3 272.48 1597.64 266.44 1589.66 270.4 1617.61 364.15"/>
            <polygon class="cls-9" points="1627.14 540.65 1671.3 582.57 1671.3 514.28 1627.14 514.28 1627.14 540.65"/>
            <polygon class="cls-9" points="1478.65 553.29 1518.48 549.9 1627.14 540.65 1468.11 514.28 1478.65 553.29"/>
            <polygon class="cls-9" points="1597.64 266.44 1588.25 265.67 1589.66 270.4 1597.64 266.44"/>
            <polygon class="cls-9" points="1536.53 370.94 1511.39 465.97 1627.14 478.11 1627.14 396.12 1563.73 369.48 1501.32 372.84 1485.22 465.97 1463.6 512.43 1468.11 514.28 1511.39 465.97 1536.53 370.94"/>
            <polygon class="cls-9" points="1627.14 478.11 1511.39 465.97 1468.11 514.28 1627.14 540.65 1627.14 514.28 1627.14 478.11"/>
            <polygon class="cls-9" points="1468.11 357.5 1501.32 372.84 1563.73 369.48 1568.76 280.76 1563.73 369.48 1627.14 396.12 1617.61 364.15 1617.61 364.15 1617.61 364.15 1589.66 270.4 1568.76 280.76 1529.51 280.76 1463.73 336.87 1468.11 357.5 1413.75 434.23 1485.22 465.97 1501.32 372.84 1468.11 357.5"/>
            <polygon class="cls-9" points="1347.82 534.07 1323.16 625.58 1410.93 625.58 1430.55 583.43 1347.82 534.07"/>
            <polygon class="cls-9" points="1539.09 602.55 1671.3 582.57 1671.3 582.57 1627.14 540.65 1518.48 549.9 1478.65 553.29 1498.2 625.58 1548.11 625.58 1531.6 583.43 1518.48 549.9 1531.6 583.43 1548.11 625.58 1651.01 625.58 1671.3 582.57 1539.09 602.55"/>
            <polygon class="cls-9" points="1430.55 583.43 1463.6 512.43 1399.66 486.1 1329.67 547.63 1310.52 564.46 1310.52 625.58 1323.16 625.58 1347.82 534.07 1430.55 583.43"/>
            <polygon class="cls-9" points="1671.3 582.57 1671.3 582.57 1651.01 625.58 1671.3 625.58 1671.3 582.57"/>
            <polygon class="cls-9" points="1568.76 280.76 1589.66 270.4 1588.25 265.67 1513.54 259.54 1529.51 280.76 1568.76 280.76"/>
            <polygon class="cls-9" points="1478.65 553.29 1478.65 553.29 1468.11 514.28 1463.6 512.43 1430.55 583.43 1430.55 583.43 1430.55 583.43 1410.93 625.58 1498.2 625.58 1478.65 553.29 1478.65 553.29"/>
            <polygon class="cls-9" points="1463.73 336.87 1529.51 280.76 1513.54 259.54 1483.89 257.1 1459.05 314.83 1463.73 336.87"/>
            <polygon class="cls-9" points="1459.05 314.83 1483.89 257.1 1363.42 247.22 1363.42 280.76 1459.05 314.83"/>
            <polygon class="cls-9" points="1363.42 280.76 1363.42 247.22 1345.08 245.71 1310.52 242.88 1310.52 306.93 1331.21 306.93 1363.42 280.76"/>
            <polygon class="cls-9" points="1434.5 443.44 1394.63 458.92 1399.66 486.1 1463.6 512.43 1485.22 465.97 1413.75 434.23 1337.25 372.84 1331.21 306.93 1310.52 306.93 1310.52 395.74 1337.25 372.84 1310.52 395.74 1310.52 452.06 1394.63 458.92 1434.5 443.44"/>
            <polygon class="cls-9" points="1399.66 486.1 1394.63 458.92 1310.52 452.06 1310.52 564.46 1329.67 547.63 1399.66 486.1"/>
            <polygon class="cls-9" points="1463.73 336.87 1463.73 336.87 1459.05 314.83 1363.42 280.76 1331.21 306.93 1337.25 372.84 1413.75 434.23 1468.11 357.5 1463.73 336.87"/>
            <polygon class="cls-9" points="1463.73 336.87 1459.05 314.83 1463.73 336.87 1463.73 336.87"/>
          </g>
          <polygon class="cls-32" points="1490.91 26.24 1505.52 110.71 1505.54 625.24 1490.93 625.24 1490.91 26.24"/>
          <line class="cls-5" x1="1673.68" y1="231.72" x2="1673.68" y2="629.2"/>
          <rect class="cls-29" x="1371.21" y="26.24" width="119.72" height="599"/>
          <rect class="cls-32" x="1371.21" y="26.24" width="6.92" height="597.99"/>
          <rect class="cls-34" x="1380.24" y="26.24" width="8.08" height="598.99"/>
          <rect class="cls-42" x="1378.13" y="26.24" width="2.1" height="598.99"/>
          <rect class="cls-32" x="1388.31" y="26.24" width="6.92" height="598.99"/>
          <rect class="cls-34" x="1397.34" y="26.24" width="8.08" height="598.99"/>
          <rect class="cls-42" x="1395.23" y="26.24" width="2.1" height="598.99"/>
          <rect class="cls-32" x="1405.41" y="26.24" width="6.92" height="598.99"/>
          <rect class="cls-34" x="1414.44" y="26.24" width="8.08" height="598.99"/>
          <rect class="cls-42" x="1412.33" y="26.24" width="2.1" height="598.99"/>
          <rect class="cls-32" x="1422.51" y="26.24" width="6.92" height="598.99"/>
          <rect class="cls-34" x="1431.54" y="26.24" width="8.08" height="598.99"/>
          <rect class="cls-42" x="1429.43" y="26.24" width="2.1" height="597.99"/>
          <rect class="cls-32" x="1439.63" y="26.24" width="6.92" height="598.99"/>
          <rect class="cls-34" x="1448.66" y="26.24" width="8.08" height="598.99"/>
          <rect class="cls-42" x="1446.55" y="26.24" width="2.1" height="598.99"/>
          <rect class="cls-32" x="1456.73" y="26.24" width="6.92" height="598.99"/>
          <rect class="cls-34" x="1465.76" y="26.24" width="8.08" height="598.99"/>
          <rect class="cls-42" x="1463.65" y="26.24" width="2.1" height="598.99"/>
          <rect class="cls-32" x="1473.83" y="26.24" width="6.92" height="598.99"/>
          <rect class="cls-34" x="1482.86" y="26.24" width="8.08" height="598.99"/>
          <rect class="cls-42" x="1480.75" y="26.24" width="2.1" height="598.99"/>
          <line class="cls-5" x1="1916.15" y1="245.62" x2="1916.15" y2="629.2"/>
          <path class="cls-24" d="m589.54,418.26s-37.39,17.14-35.18,33.43c2.21,16.29,29.06-18.68,29.06-18.68,0,0-10.11,38.55-.46,30.99,9.65-7.56,9.17-30.59,9.17-30.59,0,0,12.9,31.66,14.2,19.07s12.95,11.76,12.95,11.76c0,0,15.33,19.42,1.92-13.77-13.41-33.18,5.18-25.61,5.18-25.61,0,0,25.95,3.63,13.71-3.96-12.24-7.58-31.87-11.21-31.87-11.21,0,0,36.93-29.89,21.39-26.47-15.54,3.43-35.98,24.12-35.98,24.12,0,0-24.28-16.09-23.29-6.94.99,9.15,19.18,17.86,19.18,17.86Z"/>
          <polygon class="cls-44" points="1918.88 629.2 1918.88 245.62 2158.75 269.75 2158.63 628.2 1918.88 629.2"/>
          <polyline class="cls-18" points="598.36 325.28 601.89 362.88 642.93 399.04 646.59 343.37 678.28 296.65 679.48 296.16 679.48 296.16 695.63 286.08 696.3 287.05 688.95 291.54 688.95 291.54 688.2 292.86 679.52 298.93 656.63 337.59 716.77 296.45 717.76 297.04 656.6 339.85 651.78 347.51 651.56 401.83 661.83 436.59 662.92 423.26 671 423.26 669.47 432.87 722.33 385.92 740.02 360.58 741.13 361.24 723.55 387.02 707.79 401.83 742.18 404.32 748.88 382.66 743.22 404.66 763.28 394.21 750.69 402.95 776.93 411.27 749.13 403.84 742.94 407.33 739.45 407 705.45 405.31 677.4 432.85 668.1 448.07 676.98 475.73 687.47 536.21 666.7 594.18 706.76 554.41 714.05 512.87 716.26 513.09 711.18 544.93 711.4 547.12 711.4 547.12 708.75 561.04 730.18 555.96 708.97 563.25 670.3 609.66 713.26 707.78 643.48 705.43 626.41 595.14 593.4 500.24 570.66 492.1 571.34 490.72 593.92 498.59 578.68 442.48 580.19 441.68 599.36 511.01 624.7 489.15 636.84 453.49 638.02 453.77 626.16 489.7 602.29 514.81 629.93 577.27 668.37 528.05 663.24 485.21 643 408 557.39 336.39 497.92 333.9 497.92 331.66 557.39 334.28 536.63 302.78 539.58 300.56 564.12 336.93 596.95 360.76 594.12 293.86 596.07 293.86 597.66 322.63"/>
          <path class="cls-41" d="m986.4,315.95s43.35,3.32,46.71,19.38c3.36,16.06-35.53-7.61-35.53-7.61,0,0,23.33,32.76,11.06,28.96-12.26-3.8-19.66-25.61-19.66-25.61,0,0-2.1,34.16-7.72,22.78-5.61-11.38-8.97,15.48-8.97,15.48,0,0-8.73,23.49-6.64-12.28,2.09-35.77-13.96-22.29-13.96-22.29,0,0-24.78,12.28-15.1.97s28.12-21.44,28.12-21.44c0,0-47.26-15.46-30.5-17.55,16.75-2.1,44.32,10.36,44.32,10.36,0,0,18.84-23.42,20.98-14.49,2.14,8.93-13.12,23.34-13.12,23.34Z"/>
          <path class="cls-41" d="m627.08,458.62s.97-23.75,10.95-26.57c9.97-2.82-3.86,19.77-3.86,19.77,0,0,19.93-14.7,17.86-7.8s-15.54,12.26-15.54,12.26c0,0,21.45-.98,14.47,2.78-6.99,3.75,9.93,3.91,9.93,3.91,0,0,14.94,3.28-7.52,4.37s-13.61,8.96-13.61,8.96c0,0,8.33,12.69.99,8.14-7.33-4.55-14.15-13.94-14.15-13.94,0,0-8.48,26.62-10.22,17.65-1.74-8.97,5.36-24.71,5.36-24.71,0,0-15.15-8.78-9.61-10.49s14.96,5.68,14.96,5.68Z"/>
          <path class="cls-35" d="m712.64,509.73s23.76-.76,27.3,8.98c3.54,9.74-19.99-2.4-19.99-2.4,0,0,16.12,18.8,9.09,17.24-7.03-1.56-13.37-14.6-13.37-14.6,0,0,2.54,21.32-1.71,14.63-4.25-6.69-3.17,10.19-3.17,10.19,0,0-2.18,15.14-4.9-7.18-2.72-22.32-9.93-12.92-9.93-12.92,0,0-12.05,9.23-8.04,1.59,4.01-7.65,12.87-15.13,12.87-15.13,0,0-27.17-6.51-18.35-8.9,8.82-2.39,25.04,3.54,25.04,3.54,0,0,7.65-15.75,9.76-10.35,2.12,5.4-4.57,15.33-4.57,15.33Z"/>
          <path class="cls-21" d="m2009.08,159.46s-33.46,53.51-33.46,32.05,27.88-35.16,27.88-35.16c0,0-81.6-11.94-56.42-16.4s46.94,11.15,46.94,11.15c0,0-33.46-47.4-24.54-46.84s24.54,36.25,24.54,36.25c0,0,39.04-73.61,36.8-48.52s-28.44,49.69-28.44,49.69c0,0,41.82-22.93,35.69-5.64s-32.5,10.15-32.5,10.15c0,0,29.48,3.23,29.48,13.33s-25.98-.06-25.98-.06Z"/>
          <path class="cls-27" d="m720.16,570.28s-56.89-27.32-35.56-29.7,38.04,23.81,38.04,23.81c0,0,2.82-82.42,10.04-57.89s-5.88,47.88-5.88,47.88c0,0,43.4-38.51,43.83-29.58s-33.3,28.41-33.3,28.41c0,0,77.49,30.63,52.3,31.2s-52.54-22.75-52.54-22.75c0,0,27.42,39.02,9.56,34.84s-13.7-31.17-13.7-31.17c0,0,.06,29.66-9.97,30.78s-2.82-25.83-2.82-25.83Z"/>
          <path class="cls-33" d="m592.19,518.58s-59.34,21.46-46.11,4.58c13.24-16.88,43.64-10.47,43.64-10.47,0,0-56.85-59.75-34.27-47.72s30.05,37.74,30.05,37.74c0,0,2.92-57.95,9.59-52s-3.06,43.66-3.06,43.66c0,0,76.14-33.84,58.9-15.47-17.24,18.37-53.04,21.56-53.04,21.56,0,0,47.06,7.77,31.56,17.58s-31.84-12.06-31.84-12.06c0,0,21.2,20.73,14.98,28.68-6.23,7.94-20.41-16.08-20.41-16.08Z"/>
          <path class="cls-33" d="m591.29,554.31s26.99,57.04,8.92,45.47c-18.06-11.58-14.56-42.45-14.56-42.45,0,0-54.1,62.25-44.26,38.64,9.84-23.61,34.72-33.49,34.72-33.49,0,0-57.96,2.59-52.68-4.62s43.76-1.09,43.76-1.09c0,0-40.9-72.59-20.98-57.17s26.49,50.76,26.49,50.76c0,0,3.27-47.58,14.51-33.09,11.24,14.49-8.99,32.84-8.99,32.84,0,0,18.63-23.07,27.13-17.63,8.5,5.45-14.07,21.84-14.07,21.84Z"/>
          <path class="cls-27" d="m540.74,314.98s-37.79,2.33-27.32-5.15c10.47-7.48,26.89,1.34,26.89,1.34,0,0-22.63-44-11.67-33.26,10.96,10.74,10.93,26.8,10.93,26.8,0,0,11.47-32.87,14.31-28.32s-9.13,24.62-9.13,24.62c0,0,49.55-6.62,36.52,1.04-13.03,7.66-34.18,3.45-34.18,3.45,0,0,25.78,12.42,15.2,15.45-10.58,3.04-16.29-12.32-16.29-12.32,0,0,8.71,15.52,3.78,19.04s-9.03-12.7-9.03-12.7Z"/>
          <path class="cls-28" d="m715.46,311.51s-37.79,2.33-27.32-5.15c10.47-7.48,26.89,1.34,26.89,1.34,0,0-22.63-44-11.67-33.26,10.96,10.74,10.93,26.8,10.93,26.8,0,0,11.47-32.87,14.31-28.32s-9.13,24.62-9.13,24.62c0,0,49.55-6.62,36.52,1.04-13.03,7.66-34.18,3.45-34.18,3.45,0,0,25.78,12.42,15.2,15.45-10.58,3.04-16.29-12.32-16.29-12.32,0,0,8.71,15.52,3.78,19.04s-9.03-12.7-9.03-12.7Z"/>
          <path class="cls-28" d="m692.47,220.76s-37.79,2.33-27.32-5.15c10.47-7.48,26.89,1.34,26.89,1.34,0,0-22.63-44-11.67-33.26,10.96,10.74,10.93,26.8,10.93,26.8,0,0,11.47-32.87,14.31-28.32s-9.13,24.62-9.13,24.62c0,0,49.55-6.62,36.52,1.04-13.03,7.66-34.18,3.45-34.18,3.45,0,0,25.78,12.42,15.2,15.45-10.58,3.04-16.29-12.32-16.29-12.32,0,0,8.71,15.52,3.78,19.04s-9.03-12.7-9.03-12.7Z"/>
          <path class="cls-28" d="m679.54,188.7s-37.79,2.33-27.32-5.15c10.47-7.48,26.89,1.34,26.89,1.34,0,0-22.63-44-11.67-33.26,10.96,10.74,10.93,26.8,10.93,26.8,0,0,11.47-32.87,14.31-28.32s-9.13,24.62-9.13,24.62c0,0,49.55-6.62,36.52,1.04-13.03,7.66-34.18,3.45-34.18,3.45,0,0,25.78,12.42,15.2,15.45-10.58,3.04-16.29-12.32-16.29-12.32,0,0,8.71,15.52,3.78,19.04s-9.03-12.7-9.03-12.7Z"/>
          <path class="cls-27" d="m698.44,295.76s-11.47,36.08-14.67,23.61c-3.2-12.47,10.96-24.59,10.96-24.59,0,0-49.2,5.22-35.23-1.12,13.97-6.35,28.94-.52,28.94-.52,0,0-26.51-22.56-21.24-23.56s19.66,17.41,19.66,17.41c0,0,11.71-48.6,14.16-33.68s-9.12,33.12-9.12,33.12c0,0,20.89-19.56,19.9-8.6-.99,10.96-17.37,10.74-17.37,10.74,0,0,17.61-2.52,19.12,3.35s-15.11,3.84-15.11,3.84Z"/>
          <path class="cls-27" d="m519.97,335.98s-18.64,32.95-19.21,20.09,15.79-21.81,15.79-21.81c0,0-49.22-5.01-34.25-8.35,14.98-3.34,28.43,5.45,28.43,5.45,0,0-21.3-27.53-15.94-27.43s15.66,21.08,15.66,21.08c0,0,21.46-45.15,20.78-30.05-.68,15.1-15.74,30.53-15.74,30.53,0,0,24.46-14.84,21.24-4.32-3.22,10.52-19.21,6.94-19.21,6.94,0,0,17.75,1.16,18.02,7.21s-15.57.65-15.57.65Z"/>
          <path class="cls-27" d="m722.2,182.23s-18.64,32.95-19.21,20.09,15.79-21.81,15.79-21.81c0,0-49.22-5.01-34.25-8.35,14.98-3.34,28.43,5.45,28.43,5.45,0,0-21.3-27.53-15.94-27.43s15.66,21.08,15.66,21.08c0,0,21.46-45.15,20.78-30.05-.68,15.1-15.74,30.53-15.74,30.53,0,0,24.46-14.84,21.24-4.32-3.22,10.52-19.21,6.94-19.21,6.94,0,0,17.75,1.16,18.02,7.21s-15.57.65-15.57.65Z"/>
          <path class="cls-33" d="m794.76,381.81s-28.35,50.1-29.21,30.55,24-33.16,24-33.16c0,0-74.85-7.62-52.07-12.69,22.78-5.07,43.22,8.28,43.22,8.28,0,0-32.39-41.86-24.24-41.71,8.15.15,23.81,32.05,23.81,32.05,0,0,32.63-68.65,31.6-45.69-1.03,22.96-23.93,46.43-23.93,46.43,0,0,37.2-22.57,32.3-6.57-4.9,16-29.21,10.55-29.21,10.55,0,0,27,1.76,27.4,10.96s-23.68.99-23.68.99Z"/>
          <path class="cls-33" d="m921.62,345.72s-28.35,50.1-29.21,30.55,24-33.16,24-33.16c0,0-74.85-7.62-52.07-12.69,22.78-5.07,43.22,8.28,43.22,8.28,0,0-32.39-41.86-24.24-41.71s23.81,32.05,23.81,32.05c0,0,32.63-68.65,31.6-45.69-1.03,22.96-23.93,46.43-23.93,46.43,0,0,37.2-22.57,32.3-6.57-4.9,16-29.21,10.55-29.21,10.55,0,0,27,1.76,27.4,10.96s-23.68.99-23.68.99Z"/>
          <path class="cls-35" d="m704.38,431.56s61.82-8.49,45.53,5.1c-16.29,13.59-44.36,1.1-44.36,1.1,0,0,42.62,69.53,23.28,53.23-19.34-16.3-21.26-42.7-21.26-42.7,0,0-14.8,55.43-20.03,48.3-5.23-7.13,11.98-41.59,11.98-41.59,0,0-80.62,16.99-60.15,2.78,20.47-14.2,55.75-9.88,55.75-9.88,0,0-43.9-17.24-26.89-23.53,17.01-6.29,28.29,18.24,28.29,18.24,0,0-16.22-24.43-8.55-30.82,7.67-6.39,16.41,19.76,16.41,19.76Z"/>
          <path class="cls-27" d="m2032.22,208.88s-51.99-25.62-32.38-27.61c19.6-1.99,34.71,22.22,34.71,22.22,0,0,3.36-75.67,9.77-53.07,6.41,22.6-5.85,43.92-5.85,43.92,0,0,40.22-34.96,40.53-26.76s-30.85,25.78-30.85,25.78c0,0,70.88,28.86,47.74,29.14-23.14.28-48.04-21.39-48.04-21.39,0,0,24.82,36.1,8.46,32.09-16.36-4-12.29-28.76-12.29-28.76,0,0-.22,27.24-9.45,28.17-9.23.93-2.35-23.74-2.35-23.74Z"/>
          <path class="cls-27" d="m1861.87,161.34s-33.46,53.51-33.46,32.05,27.88-35.16,27.88-35.16c0,0-81.6-11.94-56.42-16.4s46.94,11.15,46.94,11.15c0,0-33.46-47.4-24.54-46.84s24.54,36.25,24.54,36.25c0,0,39.04-73.61,36.8-48.52s-28.44,49.69-28.44,49.69c0,0,41.82-22.93,35.69-5.64s-32.5,10.15-32.5,10.15c0,0,29.48,3.23,29.48,13.33s-25.98-.06-25.98-.06Z"/>
          <path class="cls-27" d="m1951.36,159.46s-33.46,53.51-33.46,32.05,27.88-35.16,27.88-35.16c0,0-81.6-11.94-56.42-16.4s46.94,11.15,46.94,11.15c0,0-33.46-47.4-24.54-46.84s24.54,36.25,24.54,36.25c0,0,39.04-73.61,36.8-48.52s-28.44,49.69-28.44,49.69c0,0,41.82-22.93,35.69-5.64s-32.5,10.15-32.5,10.15c0,0,29.48,3.23,29.48,13.33s-25.98-.06-25.98-.06Z"/>
          <line class="cls-2" x1="1181.04" y1="314.74" x2="1310" y2="328.7"/>
          <line class="cls-3" x1="2158.75" y1="314.74" x2="1181.04" y2="314.74"/>
          <polygon class="cls-22" points="757.8 663.87 757.8 492.06 762.64 492.06 758.65 679.32 757.8 679.32 757.8 663.87"/>
          <polygon class="cls-22" points="785.38 663.87 785.38 492.06 790.21 492.06 786.22 679.32 785.38 679.32 785.38 663.87"/>
          <polygon class="cls-22" points="813.3 663.87 813.3 492.06 818.14 492.06 814.15 679.32 813.3 679.32 813.3 663.87"/>
          <polygon class="cls-22" points="841.17 663.73 841.17 491.91 846 491.91 842.01 679.17 841.17 679.17 841.17 663.73"/>
          <polygon class="cls-22" points="868.69 639.03 868.69 491.91 873.52 491.91 869.53 652.25 868.69 652.25 868.69 639.03"/>
          <polygon class="cls-22" points="896.28 639.03 896.28 491.91 901.11 491.91 897.12 652.25 896.28 652.25 896.28 639.03"/>
          <polygon class="cls-22" points="923.78 639.03 923.78 491.91 928.61 491.91 924.62 652.25 923.78 652.25 923.78 639.03"/>
          <polygon class="cls-22" points="951.81 639.03 951.81 491.91 956.64 491.91 952.65 652.25 951.81 652.25 951.81 639.03"/>
          <polygon class="cls-22" points="979.58 613.36 979.58 491.91 984.41 491.91 980.42 624.27 979.58 624.27 979.58 613.36"/>
          <polygon class="cls-22" points="1007.13 613.36 1007.13 491.91 1011.97 491.91 1007.98 624.27 1007.13 624.27 1007.13 613.36"/>
          <polygon class="cls-22" points="1035.16 613.36 1035.16 491.91 1039.99 491.91 1036 624.27 1035.16 624.27 1035.16 613.36"/>
          <polygon class="cls-22" points="1062.9 613.36 1062.9 491.91 1067.74 491.91 1063.75 624.27 1062.9 624.27 1062.9 613.36"/>
          <polygon class="cls-22" points="1090.07 613.36 1090.07 491.91 1094.9 491.91 1090.91 624.27 1090.07 624.27 1090.07 613.36"/>
          <polygon class="cls-22" points="1117.85 613.36 1117.85 491.91 1122.68 491.91 1118.69 624.27 1117.85 624.27 1117.85 613.36"/>
          <polygon class="cls-22" points="1145.07 613.36 1145.07 491.91 1149.91 491.91 1145.92 624.27 1145.07 624.27 1145.07 613.36"/>
          <polygon class="cls-22" points="1173.36 613.36 1173.36 491.91 1178.19 491.91 1174.2 624.27 1173.36 624.27 1173.36 613.36"/>
          <path class="cls-40" d="m905.33,447.14s-37.57,41.21-34.17,22.56c3.4-18.65,29.81-26.15,29.81-26.15,0,0-69.04-23.32-46.44-23.2,22.6.12,39.03,17.14,39.03,17.14,0,0-21.57-46.51-13.9-44.61,7.67,1.9,15.58,35.4,15.58,35.4,0,0,45.6-57.8,39.68-36.34-5.92,21.46-32.6,38.69-32.6,38.69,0,0,39.99-13.3,31.92.76-8.07,14.05-29.86,3.67-29.86,3.67,0,0,25.11,7.48,23.51,16.26-1.6,8.78-22.57-4.17-22.57-4.17Z"/>
          <g>
            <polygon class="cls-1" points="593.65 737.68 437.05 737.68 603.16 738.65 603.16 737.5 593.55 737.5 593.65 737.68"/>
            <polygon class="cls-1" points="710.47 672.07 709.23 671.61 707.94 672.91 703.9 672.91 703.98 674.86 705.75 674.02 710.47 672.07"/>
            <polygon class="cls-1" points="560.09 640.57 559.94 642.35 564.35 644.79 565.19 644.84 563.41 640.57 560.09 640.57"/>
            <polygon class="cls-1" points="765.15 680.61 763.14 682.32 766.91 682.32 766.9 682 765.15 680.61"/>
            <polygon class="cls-25" points="710.47 672.07 705.75 674.02 703.98 674.86 704.27 681.93 710.88 683.76 715.66 676.18 722.63 683.03 712.35 691.84 707.94 691.84 705.74 698.82 699.13 703.23 699.13 709.52 705.74 709.49 708.71 702.67 715.45 704.07 721.14 698.14 723.92 700 723.46 701.86 724.67 702.94 724.67 682.32 725.13 682.32 732.98 676.18 739.26 674.57 740.24 673.5 733.64 669.95 733.64 666.65 730.56 669.01 725.13 674.02 715.44 666.88 715.44 665.31 709.23 671.61 710.47 672.07"/>
            <polygon class="cls-25" points="510.77 644.65 515.59 648.35 515.59 656.88 524.12 656.88 526.49 654.39 526.14 654.57 518.06 650.41 518.06 646.99 512.18 640.15 505.32 645.52 497.24 652.86 505.92 654.7 507.81 654.65 510.77 644.65"/>
            <polygon class="cls-25" points="524.12 663.18 534.5 672.91 540.8 672.91 550.31 653.91 559.33 653.17 562.67 658.36 568.6 661.7 576.01 655.4 571.93 645.76 565.26 645.02 565.19 644.84 564.35 644.79 559.94 642.35 560.09 640.57 557.11 640.57 553.03 645.76 550.31 639.32 563.25 633.82 563.89 631.26 556.76 629.88 540.1 629.88 539.61 633.79 533.98 635.5 536.18 642.84 541.82 642.1 535.45 649.92 532.46 651.42 533.01 660.58 524.12 663.18"/>
            <polygon class="cls-15" points="488.07 698.47 485.95 698.24 485.9 697.12 484.59 698.66 484.59 700.27 482.75 700.94 482.92 704.27 484.59 704.77 486.76 701.44 490.93 700.94 490.93 704.93 487.93 707.77 488.04 707.76 488.93 707.17 489.43 707.68 490.93 707.6 492.1 710.11 494.77 710.11 494.01 710.56 494 710.85 497.22 710.18 497.29 710.34 498.53 709.31 496.81 703.95 497.86 703.38 497.73 702.97 494.79 702.97 490.31 699.14 489.15 699.67 488.07 698.47"/>
            <polygon class="cls-15" points="649.74 677.19 649.74 677.97 647.02 678.96 647.27 683.89 649.74 684.63 652.95 679.7 659.13 678.96 659.13 684.88 654.68 689.07 659.13 688.83 660.86 692.55 664.82 692.55 663.69 693.22 663.61 695.25 667.33 693.89 670.38 691.36 667.84 683.42 670.8 681.81 668.52 677.08 665.38 677.34 664.28 675.56 659.63 675.65 656.5 677.08 655.08 675.52 653.17 677.19 649.74 677.19"/>
            <polygon class="cls-15" points="481.73 697.5 481.43 697.8 481.83 697.86 481.73 697.5"/>
            <path class="cls-31" d="m562.63,635.99l-2.2.49-.34,4.09h3.32l1.78,4.27,7.24.44,5.14-2.69,5.63,5.38-3.43,5.38,4.65,5.87,2.94-2.93,4.9.24,1.96,7.82,8.63,3.66-1.81,4.29-2.72-3.45h-4.2l-1.24,2.96-4.45.49-2.72,6.41,4.94,4.19,3.96-2.22,2.22-3.45,6.02.49,6.34,12.65h4.2l6.92-6.48-5.93-1.73.49-8.14,5.44,5.67h5.69v-5.67l3.21-2.47,1.98,6.66,9.19.24.67-2.13.3-.96.78.51.92-1.84,1.37.2.7-2.23,2.44-.2,2.65,1.63,1.39-1.62v-.22s1.14-2.07,1.14-2.07l.15-1.89-1.04-1.61h-2.62l-.59-1.69-1.91-4.74,8.47-.85.85-2.11,3.39-4.44-2.54-.63,1.06-2.75,6.99,5.07,5.86-2.11,3.22,4.05.82-.3,6.82.92,1.22,3.77-1.73-.88-2.14-1.87-2.14,1.87v.08s.5.64.5.64l7.8.24,2.84-1.65v1.81l3.41,2.21-2.44,3.66-.74,2.23h6.87v3.3l-3.07.24-.47,4.25,7.33.94,5.09-2.4-.08-1.94h4.04l1.29-1.3-7.03-2.6v-3.07l-3.07-1.42.71-2.83,8.04-1.65.47,2.6-1.42,2.36,4.49.47,4.02-2.12v1.97l4.62-4.69h-6.61l-.37-11.75,15.06-4.41-3.31-11.38-4.41-1.84-8.81,11.38-10.28-4.04-2.2-9.55-16.53-6.61-1.1-5.88h8.08l1.84,3.67,17.26-3.67-12.12-11.02-10.28-8.08-8.81,10.28v5.14l-12.12,6.24-13.96-6.98-9.55-11.75,8.45,1.1,3.31-11.02-8.45-2.57-.73-5.88h-24.97l-11.38,2.2,2.57,6.98,3.31.73.73,8.81-6.61,3.67-12.12.73-7.71-4.04-8.45,8.08,5.14,8.08-6.98,8.81-4.41-4.41-7.34.37-2.3,9.19.46.09-1.71,4.64Zm31.5,16.22l3.31,1.05,4.85-2.75,5.24-3.3,2.8-5.51h2.02l5.85,1.01,2.42-3.23,4.55,6.99-.73,3.48,1.86,2.91,4.04.32,1.78,1.21,3.07-.4,2.26,1.37.65-2.1-.08-1.78-2.51-.24.32-2.1,4.69.81-.4,3.23,2.91.45.49-1.58,1.37-2.1,4.12.97.89.16,1.1-2.83.6,4.93-2.43,3.23-3.07-4.04-5.56,5.15-3.47.85h-3.67l.17-1.47-4.45,3.48,1.89,4.47-1.02.54-4.15,2.2-2.7.18-.65-2.17.73-2.07,3.8-.64v-4.16l-4.06-1.57-3.11-2.01-8.05-.37-4.28,2.01-4.69-1.46-4.21.55-1.03,2.85-3.96-1.1.49-5.42Z"/>
            <polygon class="cls-15" points="459.58 695.49 458.42 696.42 458.34 698.04 456.48 698.97 457.02 695.49 454.08 693.72 452.73 694.02 451.71 696.44 449.87 694.1 447.03 694.1 446.2 696.1 443.19 696.44 441.36 700.77 444.69 703.6 447.37 702.1 448.87 699.77 452.93 700.1 453.03 700.3 455.76 700.53 455.94 705.55 459.67 705.73 459.3 703.32 459.3 700.15 460.88 700.48 461.05 697.6 464.54 701.24 464.7 701.27 464.72 701.43 464.73 701.44 468.57 701.44 468.57 700.06 463.77 699.04 459.58 695.49"/>
            <g>
              <path class="cls-31" d="m509.98,652.86l-1.22,2.44-2.83-.6-12.57.32-3.34-6.67-10.01,1.48v4.45l4.08,1.48-.37,7.41-3.71,1.11-4.82-7.41-9.27-1.11v8.9l6.67,6.3-6.67-.37-2.59,5.59h-5.93l1.69,1.01.13,3.05-5.58-2.03-4.57-3.81,3.81-11.93-4.44-2.41,3.43-7.11,4.7.38,1.65-2.66,6.98.13,4.7,2.16,2.41-2.66,4.7-.51.25-5.08-2.66-4.82,2.28-3.55h3.93l.89-2.54,2.86-7.12-12.71-1.27-1.27-3.18-5.08-6.67,3.81-.95-1.59-4.13-10.48,7.62-8.79-3.18-9.87,12.42-11.7.35-4.25-2.48v6.38l8.15,2.48-2.48,6.03h-16.3v4.96l4.61.35.71,6.38-10.99,1.42-10.28-4.86-7.09-2.93,12.4-4.61v-4.61l4.61-2.13-1.06-4.25-12.05-2.48-.71,3.9,2.13,3.54-6.73.71-6.03-3.19v5.32l-14.53,10.73-8.15-7.54-4.61-3.54v4.96l-11.34,6.12,7.09,5.57,2.13,8.15-7.8.71-12.4-.71-4.25-4.61-11.7,13.11,8.15-1.42,8.15-.35.71,10.63-10.28-3.19-1.77,3.54.71,9.57,8.15-.35,11.34-8.51,9.92,4.61,2.13,7.44-12.05.35-10.63,1.77v7.09l-11.7-1.77-2.84,5.32-9.92-.35v6.38l6.03,1.42,3.9,6.38,6.38-7.09,10.28-.35-2.62-4.99,4.76-1.19,3.57,5.71-4.28,5.48-7.86.24-2.38,3.81h-13.57l-6.43-6.43-6.43,6.43v2.62l-22.85-1.43-5-6.19,3.33-3.57,3.09-8.57-6.43,3.81-2.62-3.81-9.52,3.57v10.24h-7.14l-7.38,5.95,4.05,2.14v3.33l-5.48,2.38-3.57,6.28h76.87l-.99-.55-75.11-.44,75.11.44-3.85-2.16.55-2.05-2.96-2.17.69-5.52,3.75,5.13.2-7.3,9.03-.23.64,2.1-7,3.95,3.85.99,10.44,1.76,1.64-3.01,6.29-3.01.25,2.39-1.38.13-1.76.88.76,3.14,5.54.25,6.04-5.78,6.79-1.76.38,4.27-1.38-2.14-1.89.5-.13,2.01,4.25,1.51,2.55-4.14-1.89-5.53-5.91-.13,1.13-1.63,2.14.25v-1.76l-2.52-.88.63-1.76,3.02.25.13,3.39,2.52.13-.25-1.63v-2.14l3.65.75.25,2.51-.13,1.51,3.02-1-.25-3.77-3.52-.75-2.83-2.39-.78.63-.05,1.1-1.26.63.36-2.35-1.99-1.2-2.51.57,1.52-1.62,4.13-1.51-.52-2.4,2.41-.31,3.14-2.04.63,1.98c1.52.16,5.44.21,5.44.21l-.1,2.24,1.26,1.36,2.82.72,3.56,2.77-1.46,1.72-1.36-.26-.26-.89-1.62,1.62,2.14,6.42-1.67,1.77,2.46.63,2.51-2.24-.21-.84,1.26-.84,2.56,2.66,3.03-.63,2.3,5.27,2.88.57,1.46-.68,3.77.1.1,1.36,2.63-1.24-2.84-1.66-5.98.83v-4.32l-2.98-1.98-.99-3.14h-1.98l-4.63-3.96,3.14-3.08,2.15,3.41,2.98-.83.17-4.05h-1.82l-5.46-5.52h2.98l.17-5.28-6.78-1.98,1.49-5.12,1.98-.83,3.97,5.12,4.63-1.82.99-4.29,7.44-2.97.5-2.64h-3.64l-.68,1.35.52,1.99h-17.86v-7.77l-4.73-1.06-6-3,6-3.71,4.06,2.61,4.24-3.49,3.59-2.71h6.62l6.83,1.65-.75,3.5-5.35,2.5,1.06,2.64,3.94-3.09,3.97,4.62v2.31l5.46,2.81,6.28-3.14,4.3-5.28-3.8.5-1.49-4.95,3.8-1.16.33-2.64h11.25l5.13.99-1.16,3.14-1.49.33-.33,3.96,2.98,1.65,5.46.33,3.47-1.82,3.8,3.63-2.32,3.63,3.14,3.96,1.98-1.98,3.31.17,1.32,5.28,4.67,1.98.83-.88,6.12-2.24-.77-3.56,3.56-.46,4.65-3.02.93,2.94c2.25.23,8.06.31,8.06.31l-.15,3.32,1.86,2.01,4.18,1.07,4.83,3.76-.02-.35,1.2-2.17-1.03-1.6h-1.77l-.4-1.14-1.29-3.2,5.72-.57.57-1.43,1.93-2.53-.74-.75-.62-.15.72-1.86,2.23,1.62h1.7l.24-7.82-10.04-2.93,2.2-7.58,2.94-1.22,5.88,7.58,6.86-2.69,1.47-6.36,11.02-4.4.73-3.91h-5.39Z"/>
              <polygon class="cls-31" points="381.61 683.31 389.38 684.96 389.53 684.66 387.76 677.82 387.75 677.82 387.07 678.36 381.61 683.31"/>
            </g>
            <path class="cls-15" d="m773.4,677.93l5.57,1.28-3.37-3.6-9.17-3.37,1.16-5.34-5.34-.7-6.97-4.53-1.39,4.41c-3.37.35-12.08.46-12.08.46l.23,4.99-1.81,1.96.97.52-4.73,3.71-1.2,4.58h14.03l2.06-2.22,1.99,2.22h9.78l2.02-1.71,1.74,1.39.02.32h2.34l-.26-1.71,4.41-2.67Z"/>
            <polygon class="cls-15" points="589.58 733.37 589.58 733.78 592.04 734.85 593.55 737.5 603.16 737.5 603.16 733.37 589.58 733.37"/>
            <polygon class="cls-15" points="532.27 648.35 526.49 654.39 532.46 651.42 532.27 648.35"/>
            <polygon class="cls-15" points="497.73 702.97 497.86 703.38 498.81 702.86 497.27 699.67 495.15 699.84 494.41 698.64 491.27 698.7 490.31 699.14 494.79 702.97 497.73 702.97"/>
            <polygon class="cls-15" points="680.95 662.94 687.97 660.4 688.02 660.43 688.02 658.62 685.18 660.28 677.38 660.04 676.88 659.4 676.78 661.82 680.95 662.94"/>
            <polygon class="cls-15" points="655.2 663.05 661 661.21 659.78 663.76 655.61 664.57 655.61 667.22 660.8 665.74 664.77 662.94 667.11 658.36 674.02 655.82 670.8 651.77 664.94 653.88 657.95 648.81 656.89 651.56 659.43 652.19 656.04 656.63 655.2 658.75 646.72 659.59 648.63 664.33 649.22 666.02 651.84 666.02 652.88 667.63 652.96 666.61 655.2 663.05"/>
            <path class="cls-15" d="m452.73,694.02l1.35-.31,2.94,1.78-.54,3.48,1.86-.93.08-1.62,1.16-.93,4.19,3.55,4.79,1.03v-2.46l2.17-1.67,1.34,4.5,6.51.17,1.5-3,1.35.2.3-.3.11.36,2.76.41v.39l1.31-1.54-.04-.82-4.83-3.76-4.18-1.07-1.86-2.01.15-3.32s-5.81-.08-8.06-.31l-.93-2.94-4.65,3.02-3.56.46.77,3.56-6.12,2.24-.83.88,1.15.49-.2.48Z"/>
            <polygon class="cls-15" points="464.54 701.24 464.72 701.43 464.7 701.27 464.54 701.24"/>
            <polygon class="cls-15" points="490.04 682.59 490.77 683.33 491.14 682.86 490.04 682.59"/>
            <polygon class="cls-15" points="751.36 680.09 749.31 682.32 753.35 682.32 751.36 680.09"/>
            <polygon class="cls-15" points="488.04 707.76 489.43 707.68 488.93 707.17 488.04 707.76"/>
            <polygon class="cls-15" points="494 710.85 493.95 711.93 496.47 711.02 497.29 710.34 497.22 710.18 494 710.85"/>
            <polygon class="cls-15" points="459.3 703.32 459.67 705.73 455.94 705.55 455.76 700.53 453.03 700.3 457.21 708.64 460.05 708.64 464.73 704.27 460.72 703.1 460.88 700.48 459.3 700.15 459.3 703.32"/>
            <polygon class="cls-15" points="644.11 675.26 644.43 674.23 643.07 674.02 642.14 675.87 643.09 676.48 644.11 675.26"/>
            <polygon class="cls-15" points="711.42 665.47 706.93 664.99 708.35 662.64 707.87 660.04 699.84 661.69 699.13 664.52 702.2 665.94 702.2 669.01 709.23 671.61 715.44 665.31 715.44 663.34 711.42 665.47"/>
            <polygon class="cls-15" points="732.98 676.18 725.13 682.32 735.28 682.32 736.47 677.73 741.2 674.02 740.24 673.5 739.26 674.57 732.98 676.18"/>
            <polygon class="cls-15" points="723.92 700 721.14 698.14 715.45 704.07 708.71 702.67 705.74 709.49 724.67 709.41 724.67 702.94 723.46 701.86 723.92 700"/>
            <polygon class="cls-17" points="509.98 652.86 515.37 652.86 514.63 656.77 503.61 661.17 502.14 667.53 495.28 670.21 489.4 662.64 486.46 663.86 484.26 671.44 494.3 674.37 494.06 682.19 492.36 682.19 494.85 684 498.81 682.57 503.26 688.16 508.52 688.32 510.44 687.2 510.44 690.07 506.77 691.19 507.89 693.89 515.23 693.89 515.23 696.13 513.15 696.28 512.83 699.15 517.78 699.79 522.41 697.6 525.6 696.28 520.02 694.21 520.02 692.14 517.94 691.19 518.42 689.27 523.85 688.16 524.17 689.91 523.21 691.51 526.24 691.82 528.96 690.39 528.96 692.78 535.5 697.6 539.17 694.21 541.25 692.62 541.25 694.85 546.35 697.6 543.16 700.11 542.2 703.77 545.72 704.09 551.3 703.77 553.22 701.7 558.48 707.6 554.81 706.96 551.14 706.8 550.82 711.58 555.45 710.14 556.25 711.74 555.93 716.04 552.26 715.88 547.15 712.06 542.68 714.13 541.72 717.47 547.15 717.63 551.94 718.43 551.94 721.62 557.21 720.82 558.48 723.21 562.95 723.05 562.95 725.92 560.24 726.55 558.48 729.42 555.61 726.24 550.98 726.08 552.16 723.83 550.02 723.3 548.41 725.86 550.34 728.33 553.88 728.43 554.95 730.14 561.06 730.14 563.95 727.26 566.85 730.14 566.85 731.32 577.14 730.68 579.39 727.9 577.89 726.29 576.5 722.44 579.39 724.15 580.57 722.44 584.86 724.05 584.86 728.65 588.08 728.65 591.4 731.32 589.58 732.29 589.58 733.37 603.16 733.37 603.16 709.92 699.13 709.52 699.13 703.23 705.74 698.82 707.94 691.84 712.35 691.84 722.63 683.03 715.66 676.18 710.88 683.76 704.27 681.93 703.98 674.86 698.89 677.26 691.56 676.32 692.04 672.07 695.11 671.84 695.11 668.53 688.25 668.53 687.87 669.66 684.42 670.78 683.56 669.79 680.67 671.51 678.92 671.97 677.29 670.47 678.53 667.54 676.67 667.07 674.84 665.74 674.78 668.52 672.3 669.46 672.4 670.68 673.79 672.39 674.03 675.28 670.89 676.96 669.85 674.68 667.42 675.97 664.97 673.32 659.07 671.9 656.55 673.32 656.55 674.24 655.08 675.52 656.5 677.08 659.63 675.65 664.28 675.56 665.38 677.34 668.52 677.08 670.8 681.81 667.84 683.42 670.38 691.36 667.33 693.89 663.61 695.25 663.69 693.22 664.82 692.55 660.86 692.55 659.13 688.83 654.68 689.07 659.13 684.88 659.13 678.96 652.95 679.7 649.74 684.63 647.27 683.89 647.02 678.96 649.74 677.97 649.74 677.19 648.38 677.19 645.84 676.38 643.5 678.62 640.34 678.62 640.39 678.45 631.2 678.22 629.22 671.56 626.01 674.02 626.01 679.7 620.32 679.7 614.89 674.02 614.39 682.17 620.32 683.89 613.4 690.37 609.2 690.37 602.86 677.73 596.84 677.23 594.62 680.69 590.66 682.91 585.72 678.71 588.44 672.3 592.89 671.8 594.12 668.84 598.32 668.84 601.04 672.3 602.86 668.01 594.23 664.35 592.27 656.53 587.37 656.28 584.43 659.21 579.78 653.35 583.21 647.97 577.57 642.59 572.43 645.28 565.19 644.84 565.26 645.02 571.93 645.76 576.01 655.4 568.6 661.7 562.67 658.36 559.33 653.17 550.31 653.91 540.8 672.91 534.5 672.91 524.12 663.18 533.01 660.58 532.46 651.42 526.49 654.39 524.12 656.88 515.59 656.88 515.59 648.35 510.77 644.65 507.81 654.65 505.92 654.7 508.75 655.3 509.98 652.86"/>
            <polygon class="cls-15" points="652.74 669.52 651.59 671.59 651.6 671.81 652.66 670.58 652.74 669.52"/>
            <polygon class="cls-27" points="550.31 639.32 553.03 645.76 557.11 640.57 560.09 640.57 560.43 636.48 562.63 635.99 564.35 631.35 563.89 631.26 563.25 633.82 550.31 639.32"/>
            <polygon class="cls-26" points="642.14 675.87 641.36 675.36 641.06 676.32 640.39 678.45 640.84 678.47 642.14 675.87"/>
            <polygon class="cls-26" points="691.43 662.64 688.02 660.43 688.02 662.87 682.58 664.52 684.24 668.53 688.25 668.53 688.99 666.3 691.43 662.64"/>
            <polygon class="cls-26" points="651.76 674.97 651.6 671.81 650.22 673.43 647.57 671.8 645.13 672 644.43 674.23 649.74 675.01 649.74 677.19 653.17 677.19 655.08 675.52 654.89 675.31 651.76 674.97"/>
            <polygon class="cls-26" points="676.88 659.32 679.02 657.45 681.15 659.32 682.88 660.2 681.66 656.43 674.84 655.51 674.02 655.82 676.88 659.4 676.88 659.32"/>
            <polygon class="cls-26" points="652.88 667.63 652.74 669.52 653.37 668.38 652.88 667.63"/>
            <polygon class="cls-26" points="682.58 664.52 688.02 662.87 688.02 660.43 687.97 660.4 680.95 662.94 676.78 661.82 676.88 659.4 674.02 655.82 667.11 658.36 664.77 662.94 660.8 665.74 655.61 667.22 655.61 664.57 659.78 663.76 661 661.21 655.2 663.05 652.96 666.61 652.88 667.63 653.37 668.38 652.74 669.52 652.66 670.58 651.6 671.81 651.76 674.97 654.89 675.31 655.08 675.52 656.55 674.24 656.55 673.32 659.07 671.9 664.97 673.32 667.42 675.97 669.85 674.68 670.89 676.96 674.03 675.28 673.79 672.39 672.4 670.68 672.3 669.46 674.78 668.52 674.84 665.74 676.67 667.07 678.53 667.54 677.29 670.47 678.92 671.97 680.67 671.51 683.56 669.79 684.42 670.78 687.87 669.66 688.25 668.53 684.24 668.53 682.58 664.52"/>
            <polygon class="cls-26" points="644.43 674.23 644.11 675.26 643.09 676.48 642.14 675.87 640.84 678.47 640.39 678.45 640.34 678.62 643.5 678.62 645.84 676.38 648.38 677.19 649.74 677.19 649.74 675.01 644.43 674.23"/>
            <polygon class="cls-27" points="598.64 655.88 602.85 655.33 607.54 656.79 611.82 654.78 619.87 655.14 622.98 657.16 627.04 658.73 627.04 662.89 623.24 663.53 622.51 665.6 623.16 667.77 625.86 667.59 630.02 665.39 631.03 664.84 629.14 660.38 633.59 656.9 633.41 658.38 637.08 658.38 640.55 657.52 646.12 652.37 649.19 656.42 651.61 653.18 651.02 648.25 649.92 651.08 649.03 650.92 644.9 649.95 643.53 652.05 643.05 653.63 640.13 653.18 640.54 649.95 635.85 649.14 635.53 651.24 638.03 651.48 638.11 653.26 637.47 655.36 635.2 653.99 632.13 654.39 630.35 653.18 626.31 652.86 624.45 649.95 625.18 646.47 620.62 639.48 618.2 642.71 612.36 641.7 610.34 641.7 607.54 647.22 602.3 650.51 597.45 653.26 594.13 652.21 593.65 657.63 597.61 658.73 598.64 655.88"/>
            <polygon class="cls-25" points="593.55 737.5 407.66 737.5 437.05 737.68 593.65 737.68 593.55 737.5"/>
            <polygon class="cls-25" points="314.72 737.5 315.03 737.68 437.05 737.68 407.66 737.5 314.72 737.5"/>
            <polygon class="cls-25" points="449.77 711.68 447.88 710.46 446.76 711.79 445.65 715.35 442.98 715.58 440.09 713.8 437.42 716.91 437.09 721.25 434.64 725.14 434.5 725.18 436.2 725.26 445.14 716.71 455.2 714.1 455.76 720.43 453.71 717.26 450.91 718.01 450.73 720.98 457.02 723.21 460.79 717.08 457.99 708.9 450.69 708.74 450.1 710.63 449.77 711.68"/>
            <path class="cls-41" d="m398.65,733.37v-5.46l-3.59-2.33,2.67-4,.92-2.77v-19.77h8.29l-.37,2.23-3.54-.19-.19,4.46,1.86.37,2.98,5.21-3.73-.19-2.61,3.35.92,2.55.45-.15.94,1.08,3.15-1.88,1.92-.5,1.78,1.64-1.36,3.2,2.03.52,2,1.45.07-3.05,2.71-1.02-.11-1.33-1.52-1.87-.26-3.16,3.43-1.84,1.14,2.49,2.65-1.4,2.67,2.89,6.45,1.56,2.75-1.55v-1.01l3.7-3.22h5.23l2.78.89,2.55-2.45h2.22l1.27-1.83,3.17.37v-2.6l-3.73-1.3.93-2.6,1.74.15-.1-.2-4.06-.33-1.5,2.33-2.67,1.5-3.34-2.83,1.84-4.33,3-.33.83-2h2.84l1.84,2.33,1.02-2.41-2.37.54,1.42-1.51-4.67-1.98-1.32-5.28-3.31-.17-1.98,1.98-3.14-3.96,2.32-3.63-3.8-3.63-3.47,1.82-5.46-.33-2.98-1.65.33-3.96,1.49-.33,1.16-3.14-5.13-.99h-11.25l-.33,2.64-3.8,1.16,1.49,4.95,3.8-.5-4.3,5.28-6.28,3.14-5.46-2.81v-2.31l-3.97-4.62-4.63,3.63-5.46,4.95,7.77,1.65.83-1.65h3.64l-.5,2.64-7.44,2.97-.99,4.29-4.63,1.82-3.97-5.12-1.98.83-1.49,5.12,6.78,1.98-.17,5.28h-2.98l5.46,5.52h1.82l-.17,4.05-2.98.83-2.15-3.41-3.14,3.08,4.63,3.96h1.98l.99,3.14,2.98,1.98v4.32l5.98-.83,2.84,1.66-2.63,1.24-.1-1.36-3.77-.1-1.46.68-2.88-.57-2.3-5.27-3.03.63-2.56-2.66-1.26.84.21.84-2.51,2.24-2.46-.63,1.67-1.77-2.14-6.42,1.62-1.62.26.89,1.36.26,1.46-1.72-3.56-2.77-2.82-.72-1.26-1.36.1-2.24s-3.92-.05-5.44-.21l-.63-1.98-3.14,2.04-2.41.31.52,2.4-4.13,1.51-1.52,1.62,2.51-.57,1.99,1.2-.36,2.35,1.26-.63.05-1.1.78-.63,2.83,2.39,3.52.75.25,3.77-3.02,1,.13-1.51-.25-2.51-3.65-.75v2.14l.25,1.63-2.52-.13-.13-3.39-3.02-.25-.63,1.76,2.52.88v1.76l-2.14-.25-1.13,1.63,5.91.13,1.89,5.53-2.55,4.14-4.25-1.51.13-2.01,1.89-.5,1.38,2.14-.38-4.27-6.79,1.76-6.04,5.78-5.54-.25-.76-3.14,1.76-.88,1.38-.13-.25-2.39-6.29,3.01-1.64,3.01-10.44-1.76-3.85-.99,7-3.95-.64-2.1-9.03.23-.2,7.3-3.75-5.13-.69,5.52,2.96,2.17-.55,2.05,3.85,2.16,93.92.55h185.89l-1.51-2.65-2.47-1.07v-.42h-190.93Z"/>
            <polygon class="cls-25" points="434.2 723.47 434.2 720.58 428.53 722.2 427.52 722.91 428 724.89 429.36 724.95 429.64 724.36 434.2 723.47"/>
            <polygon class="cls-25" points="313.73 736.95 314.72 737.5 407.66 737.5 313.73 736.95"/>
            <polygon class="cls-25" points="492.36 682.19 490.13 680.58 489.42 682.43 490.04 682.59 489.65 682.19 492.36 682.19"/>
            <polygon class="cls-25" points="460.88 700.48 464.54 701.24 461.05 697.6 460.88 700.48"/>
            <polygon class="cls-25" points="485.9 697.12 485.95 698.24 488.07 698.47 489.15 699.67 490.31 699.14 487.93 697.1 492.59 692.55 495.77 697.59 500.18 696.37 500.43 690.37 497.73 690.37 490.77 683.33 488.85 685.86 488.27 687.29 482.55 687.86 483.84 691.06 484.24 692.2 486.01 692.2 487.04 693.79 485.84 695.96 485.86 696.31 486.3 696.65 485.9 697.12"/>
            <polygon class="cls-25" points="464.73 701.44 464.72 701.43 465.07 704.99 464.89 707.22 469.36 705.73 468.99 700.15 468.57 700.06 468.57 701.44 464.73 701.44"/>
            <polygon class="cls-25" points="490.93 704.93 490.93 700.94 486.76 701.44 484.59 704.77 482.92 704.27 482.75 700.94 484.59 700.27 484.59 698.66 484.13 699.2 482.12 698.82 481.83 697.86 481.43 697.8 479.33 699.9 482.5 709.41 480.02 712.04 483.66 712.96 487.38 709.64 487.07 708.4 488.04 707.76 487.93 707.77 490.93 704.93"/>
            <polygon class="cls-25" points="494.77 710.11 492.1 710.11 490.93 707.6 489.43 707.68 492.73 711.11 494 710.85 494.01 710.56 494.77 710.11"/>
            <polygon class="cls-25" points="498.53 709.31 497.29 710.34 500.63 717.99 504.89 718.84 507.06 717.83 512.63 717.99 512.79 720 516.68 718.17 512.47 715.72 503.61 716.94 503.61 710.55 499.2 707.62 497.86 703.38 496.81 703.95 498.53 709.31"/>
            <polygon class="cls-41" points="591.4 731.32 588.08 728.65 584.86 728.65 584.86 724.05 580.57 722.44 579.39 724.15 576.5 722.44 577.89 726.29 579.39 727.9 577.14 730.68 566.85 731.32 566.85 730.14 563.95 727.26 561.06 730.14 554.95 730.14 553.88 728.43 550.34 728.33 548.41 725.86 550.02 723.3 552.16 723.83 550.98 726.08 555.61 726.24 558.48 729.42 560.24 726.55 562.95 725.92 562.95 723.05 558.48 723.21 557.21 720.82 551.94 721.62 551.94 718.43 547.15 717.63 541.72 717.47 542.68 714.13 547.15 712.06 552.26 715.88 555.93 716.04 556.25 711.74 555.45 710.14 550.82 711.58 551.14 706.8 554.81 706.96 558.48 707.6 553.22 701.7 551.3 703.77 545.72 704.09 542.2 703.77 543.16 700.11 546.35 697.6 541.25 694.85 541.25 692.62 539.17 694.21 535.5 697.6 528.96 692.78 528.96 690.39 526.24 691.82 523.21 691.51 524.17 689.91 523.85 688.16 518.42 689.27 517.94 691.19 520.02 692.14 520.02 694.21 525.6 696.28 522.41 697.6 517.78 699.79 512.83 699.15 513.15 696.28 515.23 696.13 515.23 693.89 507.89 693.89 506.77 691.19 510.44 690.07 510.44 687.2 508.52 688.32 503.26 688.16 498.81 682.57 494.85 684 492.36 682.19 489.65 682.19 490.04 682.59 491.14 682.86 490.77 683.33 497.73 690.37 500.43 690.37 500.18 696.37 495.77 697.59 492.59 692.55 487.93 697.1 490.31 699.14 491.27 698.7 494.41 698.64 495.15 699.84 497.27 699.67 498.81 702.86 497.86 703.38 499.2 707.62 503.61 710.55 503.61 716.94 512.47 715.72 516.68 718.17 512.79 720 512.63 717.99 507.06 717.83 504.89 718.84 500.63 717.99 497.29 710.34 496.47 711.02 493.95 711.93 494 710.85 492.73 711.11 489.43 707.68 488.04 707.76 487.07 708.4 487.38 709.64 483.66 712.96 480.02 712.04 482.5 709.41 479.33 699.9 481.43 697.8 480.08 697.6 478.58 700.6 472.07 700.44 470.74 695.94 468.57 697.6 468.57 700.06 468.99 700.15 469.36 705.73 464.89 707.22 465.07 704.99 464.72 701.43 464.54 701.24 460.88 700.48 460.72 703.1 464.73 704.27 460.05 708.64 457.21 708.64 453.03 700.3 451.29 700.15 450.36 702.76 454.08 704.06 454.08 706.66 450.91 706.29 449.64 708.13 450.88 708.13 450.69 708.74 457.99 708.9 460.79 717.08 457.02 723.21 450.73 720.98 450.91 718.01 453.71 717.26 455.76 720.43 455.2 714.1 445.14 716.71 436.2 725.26 434.5 725.18 428.31 727.14 429.36 724.95 428 724.89 427.52 722.91 424.19 725.25 421.63 730.25 413.18 733.37 589.58 733.37 589.58 732.29 591.4 731.32"/>
            <polygon class="cls-25" points="484.13 699.2 484.59 698.66 484.59 698.27 481.83 697.86 482.12 698.82 484.13 699.2"/>
            <polygon class="cls-25" points="486.3 696.65 485.86 696.31 485.9 697.12 486.3 696.65"/>
            <polygon class="cls-25" points="452.73 694.02 452.93 693.54 451.78 693.05 450.36 694.57 452.73 694.02"/>
            <polygon class="cls-25" points="404.4 728.25 406.29 729.21 408.62 731.25 410.96 729.21 411.07 726.47 406.51 725.25 398.84 728.03 398.65 727.91 398.65 733.37 413.18 733.37 405.73 732.37 404.4 728.25"/>
            <polygon class="cls-27" points="405.03 715.26 401.35 714.29 403.96 710.94 407.69 711.13 404.71 705.92 402.84 705.55 403.03 701.08 416.65 702.65 395.06 691.5 390.58 710.18 398.65 718.81 398.95 717.91 405.03 715.26"/>
            <polygon class="cls-27" points="444.87 710.57 442.09 709.68 436.87 709.68 433.17 712.91 433.17 713.91 430.42 715.46 423.97 713.91 421.29 711.02 418.64 712.42 417.5 709.93 414.07 711.77 414.33 714.93 415.85 716.8 415.96 718.13 413.26 719.15 413.18 722.2 411.18 720.75 409.15 720.22 410.51 717.02 408.73 715.39 406.81 715.89 403.66 717.77 402.72 716.69 402.27 716.83 403.96 721.54 419.43 724.14 421.85 719.68 431.16 715.22 431.54 718.75 429.49 718.94 426.88 720.24 427.52 722.91 428.53 722.2 434.2 720.58 434.2 723.47 429.64 724.36 429.36 724.95 434.5 725.18 434.64 725.14 437.09 721.25 437.42 716.91 440.09 713.8 442.98 715.58 445.65 715.35 446.76 711.79 447.88 710.46 449.77 711.68 450.1 710.63 450.69 708.74 449.24 708.71 449.64 708.13 447.43 708.13 444.87 710.57"/>
            <polygon class="cls-25" points="389.83 720.58 395.06 725.58 398.65 727.91 398.65 718.81 389.83 720.58"/>
            <polygon class="cls-25" points="428.31 727.14 434.5 725.18 429.36 724.95 428.31 727.14"/>
            <polygon class="cls-25" points="450.69 708.74 450.88 708.13 449.64 708.13 449.24 708.71 450.69 708.74"/>
            <polygon class="cls-27" points="429.49 718.94 431.54 718.75 431.16 715.22 421.85 719.68 419.43 724.14 403.96 721.54 402.27 716.83 398.95 717.91 398.65 718.81 398.65 727.91 404.4 728.25 406.51 725.25 411.07 726.47 410.96 729.21 408.62 731.25 406.29 729.21 404.4 728.25 405.73 732.37 413.18 733.37 421.63 730.25 424.19 725.25 427.52 722.91 426.88 720.24 429.49 718.94"/>
          </g>
          <line class="cls-5" x1="1197.37" y1="184.52" x2="1197.37" y2="624.27"/>
          <g>
            <polygon class="cls-20" points="2158.75 242.55 740.84 117.46 738.83 140.29 2158.75 260.89 2158.75 242.55"/>
            <polygon class="cls-14" points="738.83 140.29 730.13 139.55 729.11 151.51 2158.75 272.94 2158.75 272.67 2158.75 260.89 738.83 140.29"/>
          </g>
          <polygon class="cls-45" points="1201.34 192.04 1669.81 231.57 1669.81 625.58 1201.43 625.58 1201.34 192.04"/>
          <g>
            <g>
              <path class="cls-32" d="m1669.14,561.2h-46.96c-5.42,0-9.3,5.1-7.73,10.15l16.48,52.86h29.44l16.48-52.86c1.58-5.05-2.31-10.15-7.73-10.15Z"/>
              <path class="cls-31" d="m1581.08,528.08l3.77-7.46h2.72l7.87,1.36,3.26-4.37-6.25-6.28,4.89-5.19h18.46l10.32-15.01,3.26,7.1,10.23,1.91,7.15-1.09,6.25,2.46,1.9,4.64,7.87-3.28,6.79-.55,3.9,7.28,13.2-1.28,4.34,1.28v3.37l12.87,10.54,17.26-3.1,7.4,7.67-6.78,7.82,2.47,11.69-14.18,14.46,9.25,2.97,5.55,13.8-9.25,22.91-9.25-8.06-8.01,13.76-6.78-1.83-.74-5.38-4.44.25-5.67-1.73-1.72-2.89-7.39,7.35-.25-13.62.99-4.46-10.6-3.47-1.23-6.69-8.62-2.48-3.7-6.19-8.42-4.24-3.4-3.44-4.19,4.71-.25,3.47-6.16.5-4.19-6.69,3.45-6.19,3.7-.25,2.22-1.49.49-9.5s-4.44-1.15-5.17-1.15h-.74l2.71,5.57-5.67,1.69-2.71-1.69-3.94-4.42-3.94,4.42.74,4.34-6.96,3.72-3.63.25-1.97-6.61,3.45-3.3-1.72-4.46-4.19-2.72-10.84-.5-5.76,2.72-6.32-1.98-5.67.74-2.22,6.19-5.4-2.81h-6.18l-.99-5.36,5.42-4.71,6.9.99,3.2-5.7,5.91-.5,5.33.17Z"/>
            </g>
            <g>
              <path class="cls-32" d="m1693.7,575.92h-18.11c-4.15,0-7.13,3.91-5.92,7.78l12.63,40.5h9.66c5.29-16.1,11.88-31.57,13.19-48.28h-11.46Z"/>
              <path class="cls-42" d="m1711.58,575.92h-6.42c-1.31,16.71-7.9,32.18-13.19,48.28h12.9l12.63-40.5c1.21-3.87-1.77-7.78-5.92-7.78Z"/>
              <path class="cls-25" d="m1715.93,552.57c-.1,0-.2,0-.31.01-.01.09-.03.17-.04.26.04-.17.14-.24.35-.27Z"/>
              <path class="cls-25" d="m1715.59,552.85c-.04.15-.04.37-.04.71,0-.24.02-.47.04-.71Z"/>
              <path class="cls-25" d="m1715.93,552.57c.2,0,.4-.02.61-.02-.27,0-.46,0-.61.02Z"/>
              <path class="cls-16" d="m1705.22,565.31c-2.11.03-4.19.35-5.6,2.24-.99,1-3.98-2-3.98-4,.99-4,6.96-5,7.96-9-.99,1-.99-2-1.99-1,1.99-3,4.97-3,6.96-6,0,2-.99,4,0,5,1.79.9,4.37.19,7.04.03.25-1.68,1.07-3.36,1.91-5.03,2.98,5,8.95,6,12.93,1-.99,0-1.99-1-1.99-2,.99-1,2.98-1,3.98-2,.99-3-2.98-4-4.97-5,0,2-1.99,3-.99,5-.99-3-3.98-4-6.96-5,3.6,0,5.62-1.58,6.1-4.33l-5.23-.62-4.64-2.27-4.78.34-2.27,2.76-4.68-3.91-4.51-1.82-4.2,4.13-8.73-3.68-3.23-.06-.71,2.3-11,4.44-11.12-5.79-6.66,3.65,2.97,6.78-4.15,7.45,6.62,12.88-6.93.06-6.7,8.23,1.47,17.6,8.01-3.53,2.56,11.09,5.01.2,1.64-3.51,2.97,1.11,4.23.03,1.79-1.6,3.49,6.59,3.04-9.24.27-3.25,7.96-.11,2.25-4.3,6.4.15,3.83-3.44,4.47-.74c.36-3.87.45-7.81.18-11.84Z"/>
              <path class="cls-25" d="m1712.56,569.55c.99-1-.99-3-.99-5-1.57,1.06-3.98.72-6.34.76.27,4.03.19,7.96-.18,11.84l1-.17c-.12-3.19,1.42-5.85,6.51-7.43Z"/>
              <path class="cls-41" d="m1767.91,574.1l-4.91-.79-.98-4.57-3.93-1.6-3.67-1.02-1-5.89-1.85-.58-5.66-.75-1.3-3.67,5.58-2.95-2.24-4.58-12.59-3.94-3.87-12.44-3.72,4.15-2.15-.26c-.48,2.76-2.5,4.33-6.1,4.33,2.98,1,5.97,2,6.96,5-.99-2,.99-3,.99-5,1.99,1,5.97,2,4.97,5-.99,1-2.98,1-3.98,2,0,1,.99,2,1.99,2-3.98,5-9.95,4-12.93-1-.83,1.68-1.66,3.36-1.91,5.03.1,0,.2,0,.31-.01.14-.02.34-.02.61-.02-.2,0-.4.01-.61.02-.2.03-.3.1-.35.27-.03.24-.04.47-.04.71,0-.34,0-.56.04-.71,0-.09.03-.17.04-.26-2.67.16-5.26.86-7.04-.03-.99-1,0-3,0-5-1.99,3-4.97,3-6.96,6,.99-1,.99,2,1.99,1-.99,4-6.96,5-7.96,9,0,2,2.98,5,3.98,4,1.41-1.89,3.48-2.21,5.6-2.24-.13-1.9-.33-3.82-.62-5.76.3,1.94.5,3.86.62,5.76,2.36-.03,4.77.3,6.34-.76,0,2,1.99,4,.99,5-5.09,1.57-6.63,4.23-6.51,7.43l1.17-.19,3.05-1.62,1.86,4.1-.56,2.42,4.1,1.65,4.27-3.67-1.05-4.96-2.47-.96-1.2-1.49,1.67-6.58s3.27.16,3.77.32l.5.16-3.02,3.22,3.51,2.36,2.21-.58,3.62-2.17,1.76,3.85-1.42,2.8,3.96,4.02,2.43.94,2.74-4.08-1.66-2.99,2.12-2.67,3.43-.97,7.5,1.97,3.35,3.09h4.73s3.71,1.71,3.71,1.71l.21,4.7,4.28-.77,4.22,1.32,1.8-3.45-2.7-4.37Z"/>
            </g>
            <polygon class="cls-15" points="1689.71 542.29 1688.33 545.47 1685.02 543.88 1680.34 544.78 1678.27 547.13 1673.86 544.71 1669.3 543.6 1676.62 539.66 1677.22 542.29 1679.5 541.73 1679.5 538.69 1683.65 537.61 1684.33 533.98 1689.71 533.98 1687.78 537.61 1684.47 542.01 1689.71 542.29"/>
            <polyline class="cls-26" points="1696.75 571.65 1693.59 573.44 1693.59 574.61 1689.34 578.33 1683.34 578.33 1680.15 577.3 1677.22 580.13 1673.25 580.13 1674.15 577.23 1674.53 576.02 1676.7 577.43 1677.98 575.89 1679.25 571.78 1682.32 571.53 1685.64 573.58 1688.7 569.99 1689.08 564.98 1691.89 560.49 1699.17 558.18 1697.64 561.39 1692.4 562.41 1692.4 565.75 1698.92 563.88 1703.9 560.36 1706.83 554.58 1716.54 550.99 1725.09 552.14 1726.62 556.89 1724.45 555.79 1721.77 553.43 1719.09 555.79 1718.96 558.95 1724.2 560.36 1733.01 557.15 1737.35 559.97 1734.28 564.59 1732.88 568.83 1728.55 570.24 1727.47 568.99 1723.85 571.17 1721.65 571.74 1719.6 569.86 1721.16 566.16 1718.83 565.56 1716.54 563.88 1716.45 567.4 1713.34 568.57 1713.47 570.11 1715.22 572.27 1715.51 575.92 1711.57 578.04 1710.27 575.17 1707.22 576.79 1704.15 573.45"/>
            <polygon class="cls-41" points="1641.59 532.8 1638.41 533.22 1636.57 531.96 1632.39 531.62 1630.46 528.59 1631.22 524.97 1626.5 517.71 1624 521.06 1617.95 520.01 1615.86 520.01 1612.96 525.75 1607.54 529.18 1602.52 532.04 1599.09 530.95 1598.59 536.58 1602.69 537.73 1603.75 534.76 1608.11 534.19 1612.96 535.71 1617.39 533.62 1625.72 534 1628.94 536.09 1633.14 537.73 1633.14 542.06 1629.21 542.72 1628.46 544.87 1629.13 547.13 1631.92 546.94 1636.22 544.65 1637.28 544.09 1635.32 539.44 1639.92 535.82 1639.74 537.36 1643.54 537.36 1647.13 536.47 1652.88 531.11 1656.06 535.32 1658.57 531.96 1657.95 526.83 1656.82 529.77 1655.9 529.6 1651.63 528.59 1650.21 530.78 1649.71 532.42 1646.69 531.96 1647.11 528.59 1642.26 527.75 1641.93 529.94 1644.52 530.19 1644.6 532.04 1643.93 534.23 1641.59 532.8"/>
          </g>
          <rect class="cls-43" x="1332.17" y="335.3" width="45.84" height="201.81"/>
          <rect class="cls-43" x="1332.17" y="220.5" width="45.84" height="85.44"/>
          <rect class="cls-43" x="1332.17" y="543.74" width="45.84" height="55.12"/>
          <rect class="cls-43" x="2047.98" y="393.17" width="77.43" height="218.72"/>
          <rect class="cls-43" x="2110.77" y="332.8" width="29.27" height="168.33"/>
        </g>
      </g>
      <polyline class="cls-4" points="2158.75 628.68 963.99 628.68 963.99 650.78 842.48 650.78 842.48 677.87 720.97 677.87 720.97 704.97 599.46 705.48 599.46 734.21 .02 732.07"/>
    </g>
    <polygon class="cls-37" points="860.03 390.9 871.1 388.85 871.47 414.99 866.13 433.06 860.03 390.9"/>
  </g>
</svg>