<?xml version="1.0" encoding="UTF-8"?>
<svg id="Layer_2" data-name="Layer 2" xmlns="http://www.w3.org/2000/svg" xmlns:xlink="http://www.w3.org/1999/xlink" viewBox="0 0 1920 1111.05">
  <defs>
    <style>
      .cls-1, .cls-2, .cls-3, .cls-4, .cls-5, .cls-6, .cls-7, .cls-8, .cls-9, .cls-10, .cls-11, .cls-12, .cls-13, .cls-14, .cls-15 {
        fill: none;
      }

      .cls-16 {
        stroke-width: .23px;
      }

      .cls-16, .cls-17, .cls-18, .cls-19, .cls-20, .cls-21, .cls-22, .cls-23, .cls-24, .cls-25, .cls-26, .cls-27, .cls-28, .cls-29, .cls-30, .cls-31, .cls-32, .cls-2, .cls-33, .cls-34, .cls-3, .cls-4, .cls-5, .cls-35, .cls-6, .cls-36, .cls-7, .cls-8, .cls-9, .cls-10, .cls-11, .cls-37, .cls-38, .cls-39, .cls-40, .cls-41, .cls-14, .cls-15 {
        stroke-miterlimit: 10;
      }

      .cls-16, .cls-42, .cls-20, .cls-21, .cls-26, .cls-36, .cls-38 {
        fill: #fff9f5;
      }

      .cls-16, .cls-20, .cls-26, .cls-36, .cls-38 {
        stroke: #494847;
      }

      .cls-43 {
        fill: #666;
        font-family: OpenSans-Semibold, 'Open Sans';
        font-size: 27px;
        font-weight: 600;
      }

      .cls-44 {
        fill: url(#linear-gradient);
      }

      .cls-17 {
        stroke-width: .55px;
      }

      .cls-17, .cls-18, .cls-28, .cls-32, .cls-40 {
        stroke: #707070;
      }

      .cls-17, .cls-45, .cls-28, .cls-40 {
        fill: #ff590a;
      }

      .cls-18 {
        stroke-width: .27px;
      }

      .cls-18, .cls-46, .cls-32 {
        fill: #aeb5a1;
      }

      .cls-19 {
        stroke-width: .16px;
      }

      .cls-19, .cls-23, .cls-24, .cls-25, .cls-33, .cls-35, .cls-7, .cls-39, .cls-15 {
        stroke: #000;
      }

      .cls-19, .cls-23, .cls-25, .cls-29, .cls-33 {
        fill: #eae4e1;
      }

      .cls-47 {
        fill: #f6ffe9;
      }

      .cls-48 {
        fill: #f9ed10;
      }

      .cls-49, .cls-30 {
        fill: #f0ffde;
      }

      .cls-50, .cls-24 {
        fill: #ede6e2;
      }

      .cls-51, .cls-35, .cls-41, .cls-52 {
        fill: #fff;
      }

      .cls-53 {
        fill: #ff895a;
      }

      .cls-54 {
        fill: #7c7c7c;
      }

      .cls-55 {
        fill: #9ca58c;
      }

      .cls-56 {
        fill: #b8c6c9;
      }

      .cls-57 {
        fill: #8e8e8e;
      }

      .cls-58 {
        fill: #937e73;
      }

      .cls-59 {
        fill: #a5a3a2;
      }

      .cls-60 {
        fill: #b1bcba;
      }

      .cls-61 {
        fill: #bccbce;
      }

      .cls-62 {
        fill: #adbabc;
      }

      .cls-63, .cls-22, .cls-37 {
        fill: #d7e2c7;
      }

      .cls-64 {
        fill: #afa29c;
      }

      .cls-65 {
        fill: #bfbbb8;
      }

      .cls-66, .cls-31, .cls-34 {
        fill: #ccc8c6;
      }

      .cls-67 {
        fill: #ccc;
      }

      .cls-68 {
        fill: #c6c1be;
      }

      .cls-69 {
        fill: #cad0d8;
      }

      .cls-70 {
        fill: #d66213;
      }

      .cls-71 {
        fill: #d3cdc9;
      }

      .cls-72 {
        fill: #d7dfe0;
      }

      .cls-73 {
        fill: #07a385;
      }

      .cls-74 {
        fill: #9b9b9b;
      }

      .cls-75 {
        fill: #474747;
      }

      .cls-76 {
        fill: #2d5360;
      }

      .cls-77 {
        fill: #3c6b7f;
      }

      .cls-78 {
        fill: #7a7a7a;
      }

      .cls-79 {
        fill: #4d4d4d;
      }

      .cls-20 {
        stroke-width: .15px;
      }

      .cls-21 {
        stroke-width: 2px;
      }

      .cls-21, .cls-9 {
        stroke: #ccc;
      }

      .cls-22 {
        stroke-width: .26px;
      }

      .cls-22, .cls-27, .cls-29, .cls-30, .cls-31, .cls-34, .cls-37 {
        stroke: #4d4d4d;
      }

      .cls-23, .cls-24 {
        stroke-width: .24px;
      }

      .cls-25 {
        stroke-width: .08px;
      }

      .cls-26, .cls-27, .cls-31, .cls-32, .cls-14 {
        stroke-width: .25px;
      }

      .cls-27, .cls-39 {
        fill: #efecea;
      }

      .cls-28, .cls-29, .cls-30, .cls-34 {
        stroke-width: .5px;
      }

      .cls-2 {
        stroke-width: .36px;
      }

      .cls-2, .cls-10, .cls-14 {
        stroke: #474747;
      }

      .cls-33 {
        stroke-width: .1px;
      }

      .cls-3 {
        stroke: #fff;
        stroke-width: .75px;
      }

      .cls-4 {
        stroke-width: 2.67px;
      }

      .cls-4, .cls-6, .cls-11 {
        stroke: #abb7ba;
      }

      .cls-5 {
        stroke: #95a0a3;
        stroke-width: .52px;
      }

      .cls-6 {
        stroke-width: 5.33px;
      }

      .cls-36 {
        stroke-width: .1px;
      }

      .cls-8, .cls-12, .cls-13 {
        stroke: #ff590a;
      }

      .cls-11 {
        stroke-width: 12.44px;
      }

      .cls-37 {
        stroke-width: .38px;
      }

      .cls-38 {
        stroke-width: .08px;
      }

      .cls-39 {
        stroke-width: .27px;
      }

      .cls-40 {
        stroke-width: .68px;
      }

      .cls-12, .cls-13 {
        stroke-linecap: round;
        stroke-linejoin: round;
        stroke-width: 1.7px;
      }

      .cls-41 {
        stroke: #7c7c7c;
        stroke-width: .73px;
      }

      .cls-80 {
        fill: #6b6b6b;
        opacity: .56;
      }

      .cls-13 {
        stroke-dasharray: 0 0 7.98 7.98;
      }

      .cls-81 {
        fill: #6d6864;
        opacity: .29;
      }

      .cls-52 {
        opacity: .45;
      }

      .cls-15 {
        stroke-width: .25px;
      }
    </style>
    <linearGradient id="linear-gradient" x1="0" y1="475.58" x2="1920" y2="475.58" gradientUnits="userSpaceOnUse">
      <stop offset="0" stop-color="#fff"/>
      <stop offset="1" stop-color="#dd9650"/>
    </linearGradient>
  </defs>
  <g id="Layer_9" data-name="Layer 9">
    <g>
      <polygon class="cls-58" points="1824.9 797.1 1824.9 293.87 1694.09 293.87 1694.09 525.45 1694.09 797.1 1824.9 797.1"/>
      <rect class="cls-64" x="1767.98" y="424.96" width="33.69" height="13.87"/>
      <rect class="cls-64" x="1784.83" y="440.11" width="33.69" height="13.87"/>
      <rect class="cls-54" x="1685.38" y="275.85" width="148.22" height="18.02" rx="4.77" ry="4.77"/>
      <rect class="cls-64" x="1776.72" y="307.89" width="33.69" height="13.87"/>
      <rect class="cls-64" x="1757.58" y="323.23" width="33.69" height="13.87"/>
      <rect class="cls-64" x="1740.73" y="307.89" width="33.69" height="13.87"/>
      <rect class="cls-64" x="1704.39" y="362.72" width="33.69" height="13.87"/>
      <rect class="cls-64" x="1721.23" y="377.88" width="33.69" height="13.87"/>
      <rect class="cls-64" x="1784.83" y="409.8" width="33.69" height="13.87"/>
      <polygon class="cls-80" points="1824.9 293.87 1812.86 300.26 1694.09 300.26 1694.09 293.87 1824.9 293.87"/>
    </g>
  </g>
  <g id="home">
    <polygon class="cls-44" points="1888 539.5 1269.33 31.5 650.67 539.5 650.67 660.32 0 660.32 0 919.65 1920 919.65 1920 660.32 1920 566.13 1888 539.5"/>
    <line class="cls-15" x1="248.84" y1="914.32" x2="650.67" y2="914.32"/>
    <path class="cls-58" d="m0,647.38h674.25c3.4,0,6.16,2.76,6.16,6.16v15.66c0,3.4-2.76,6.16-6.16,6.16H0v-27.99h0Z"/>
    <path class="cls-37" d="m310.4,627.94l-4.21-2.45-8.86,1.23v-6.39l-4.41-2.93-1.47-4.64h-2.94l-6.86-5.87,4.65-4.56,3.18,5.05,4.41-1.22.24-6h-2.69l-8.08-8.18h4.41l.24-7.82-10.04-2.93,2.2-7.58,2.94-1.22,5.88,7.58,6.86-2.69,1.47-6.36,11.02-4.4.73-3.91h-5.39l-1.22,2.44-11.51-2.44,8.08-7.33,6.86-5.38,5.88,6.84v3.42l8.08,4.16,9.31-4.64,6.37-7.82-5.63.73-2.2-7.33,5.63-1.71.49-3.91h16.65l7.59,1.47-1.71,4.64-2.2.49-.49,5.87,4.41,2.44,8.08.49,5.14-2.69,5.63,5.38-3.43,5.38,4.65,5.87,2.94-2.93,4.9.24,1.96,7.82,8.63,3.66-1.81,4.29-2.72-3.45h-4.2l-1.24,2.96-4.45.49-2.72,6.41,4.94,4.19,3.96-2.22,2.22-3.45,6.02.49,6.34,12.65h4.2l6.92-6.48-5.93-1.73.49-8.14,5.44,5.67h5.69v-5.67l3.21-2.47,1.98,6.66,9.64.25,2.22-4.44,6.67.99v2.96l-2.72.99.25,4.93,2.47.74,3.21-4.93,6.18-.74v5.92l-4.45,4.19,4.45-.25,1.73,3.72h3.96l-1.13.67-.08,2.03,3.72-1.35,3.05-2.53-2.54-7.94,2.96-1.6-2.28-4.73-3.13.25-1.1-1.77-4.65.08-3.13,1.44-1.61-1.77-3.13-.34-.17-3.38,1.78-3.21-1.52-2.37h-2.62l-.59-1.69-1.91-4.74,8.47-.85.85-2.11,3.39-4.44-2.54-.63,1.06-2.75,6.99,5.07,5.86-2.11,6.58,8.27,7.8.24,2.84-1.65v4.25l-5.44,1.65,1.65,4.01h10.87v3.3l-3.07.24-.47,4.25,7.33.94,6.85-3.24,4.73-1.95-8.27-3.07v-3.07l-3.07-1.42.71-2.83,8.04-1.65.47,2.6-1.42,2.36,4.49.47,4.02-2.12v3.54l9.69,7.14,5.44-5.02,3.07-2.36v3.3l7.56,4.08-4.73,3.71-1.42,5.43,5.2.47,8.27-.47,2.84-3.07,7.8,8.73-5.44-.94-5.44-.24-.47,7.08,6.85-2.12,1.18,2.36-.47,6.37-5.44-.24-7.56-5.66-6.62,3.07-1.42,4.95,8.04.24,7.09,1.18v4.72l7.8-1.18,1.89,3.54,6.62-.24v4.25l-4.02.94-2.6,4.25-4.25-4.72-6.85-.24,1.75-3.32-3.18-.79-2.38,3.8,2.86,3.64,5.24.16,1.59,2.54h9.05l4.29-4.28,4.29,4.28v1.74l15.24-.95,3.33-4.12-2.22-2.38-2.06-5.7,4.29,2.54,1.75-2.54,6.35,2.38v6.81h4.76l4.92,3.96-2.7,1.43v2.22l3.65,1.58,2.38,4.18H192.37v-34.33h8.29l-.37,2.23-3.54-.19-.19,4.46,1.86.37,2.98,5.21-3.73-.19-2.61,3.35,2.61,7.25,15.46,2.6,2.42-4.46,9.32-4.46.37,3.53-2.05.19-2.61,1.3,1.12,4.65,8.2.37,8.94-8.55,10.06-2.6.56,6.32-2.05-3.16-2.79.74-.19,2.98,6.29,2.23,3.77-6.14-2.79-8.18-8.76-.19,1.68-2.42,3.17.37v-2.6l-3.73-1.3.93-2.6,4.47.37.19,5.02,3.73.19-.37-2.42v-3.16l5.4,1.12.37,3.72-.19,2.23,4.47-1.49-.37-5.58-5.22-1.12-4.19-3.55-1.16.93-.08,1.62-1.86.93.54-3.48-2.94-1.78-3.72.85,2.25-2.4,6.12-2.24-.77-3.56,3.56-.46,4.65-3.01.93,2.94c2.25.23,8.06.31,8.06.31l-.15,3.32,1.86,2.01,4.18,1.07,5.27,4.11-2.17,2.55-2.01-.39-.39-1.31-2.4,2.4,3.18,9.51-2.48,2.63,3.64.93,3.72-3.32-.31-1.24,1.86-1.24,3.8,3.94,4.49-.93,3.41,7.81,4.26.85,2.17-1,5.58.15.15,2.01,3.89-1.83Z"/>
    <path class="cls-30" d="m473.26,624.44l6.32-3.68,13.28,1.84v-9.6l6.61-4.41,2.2-6.98h4.41l10.28-8.81-6.98-6.85-4.77,7.58-6.61-1.84-.37-9.01h4.04l12.12-12.29h-6.61l-.37-11.75,15.06-4.41-3.31-11.38-4.41-1.84-8.81,11.38-10.28-4.04-2.2-9.55-16.53-6.61-1.1-5.88h8.08l1.84,3.67,17.26-3.67-12.12-11.02-10.28-8.08-8.81,10.28v5.14l-12.12,6.24-13.96-6.98-9.55-11.75,8.45,1.1,3.31-11.02-8.45-2.57-.73-5.88h-24.97l-11.38,2.2,2.57,6.98,3.31.73.73,8.81-6.61,3.67-12.12.73-7.71-4.04-8.45,8.08,5.14,8.08-6.98,8.81-4.41-4.41-7.34.37-2.94,11.75-12.94,5.5,2.72,6.44,4.08-5.19h6.3l1.85,4.45,6.67.74,4.08,9.64-7.41,6.3-5.93-3.34-3.34-5.19-9.02.74-9.51,19h-6.3l-10.38-9.73,8.9-2.59-.74-12.23-8.15,8.53h-8.53v-8.53l-4.82-3.71-2.97,10.01-14.46.37-3.34-6.67-10.01,1.48v4.45l4.08,1.48-.37,7.41-3.71,1.11-4.82-7.41-9.27-1.11v8.9l6.67,6.3-6.67-.37-2.59,5.59h-5.93l1.69,1.01.13,3.05-5.58-2.03-4.57-3.81,3.81-11.93-4.44-2.41,3.43-7.11,4.7.38,1.65-2.66,6.98.13,4.7,2.16,2.41-2.66,4.7-.51.25-5.08-2.66-4.82,2.28-3.55h3.93l.89-2.54,2.86-7.12-12.71-1.27-1.27-3.18-5.08-6.67,3.81-.95-1.59-4.13-10.48,7.62-8.79-3.18-9.87,12.42-11.7.35-4.25-2.48v6.38l8.15,2.48-2.48,6.03h-16.3v4.96l4.61.35.71,6.38-10.99,1.42-10.28-4.86-7.09-2.93,12.4-4.61v-4.61l4.61-2.13-1.06-4.25-12.05-2.48-.71,3.9,2.13,3.54-6.73.71-6.03-3.19v5.32l-14.53,10.73-8.15-7.54-4.61-3.54v4.96l-11.34,6.12,7.09,5.57,2.13,8.15-7.8.71-12.4-.71-4.25-4.61-11.7,13.11,8.15-1.42,8.15-.35.71,10.63-10.28-3.19-1.77,3.54.71,9.57,8.15-.35,11.34-8.51,9.92,4.61,2.13,7.44-12.05.35-10.63,1.77v7.09l-11.7-1.77-2.84,5.32-9.92-.35v6.38l6.03,1.42,3.9,6.38,6.38-7.09,10.28-.35-2.62-4.99,4.76-1.19,3.57,5.71-4.28,5.48-7.86.24-2.38,3.81h-13.57l-6.43-6.43-6.43,6.43v2.62l-22.85-1.43-5-6.19,3.33-3.57,3.09-8.57-6.43,3.81-2.62-3.81-9.52,3.57v10.24h-7.14l-7.38,5.95,4.05,2.14v3.33l-5.48,2.38-3.57,6.28h618.67v-51.57h-12.44l.56,3.35,5.31-.28.28,6.71-2.79.56-4.47,7.82,5.59-.28,3.91,5.03-3.91,10.9-23.19,3.91-3.63-6.71-13.97-6.71-.56,5.31,3.07.28,3.91,1.96-1.68,6.98-12.29.56-13.41-12.85-15.09-3.91-.84,9.5,3.07-4.75,4.19,1.12.28,4.47-9.43,3.35-5.65-9.22,4.19-12.29,13.13-.28-2.51-3.63-4.75.56v-3.91l5.59-1.96-1.4-3.91-6.71.56-.28,7.54-5.59.28.56-3.63v-4.75l-8.1,1.68-.56,5.59.28,3.35-6.71-2.24.56-8.38,7.82-1.68,6.29-5.33,1.74,1.39.12,2.44,2.79,1.39-.81-5.23,4.41-2.67,5.57,1.28-3.37-3.6-9.17-3.37,1.16-5.34-5.34-.7-6.97-4.53-1.39,4.41c-3.37.35-12.08.46-12.08.46l.23,4.99-2.79,3.02-6.27,1.61-7.9,6.17,3.25,3.83,3.02-.58.58-1.97,3.6,3.6-4.76,14.29,3.72,3.95-5.46,1.39-5.57-4.99.46-1.86-2.79-1.86-5.69,5.92-6.74-1.39-5.11,11.73-6.39,1.28-3.25-1.51-8.36.23-.23,3.02-5.84-2.75Z"/>
    <polygon class="cls-81" points="661.24 675.38 640.58 689.37 0 689.37 0 675.38 661.24 675.38"/>
  </g>
  <g id="Layer_4" data-name="Layer 4">
    <g id="shadow">
      <polyline class="cls-32" points="452.79 581.67 450.28 583.09 450.28 584.01 446.89 586.96 442.11 586.96 439.56 586.15 437.23 588.38 434.07 588.38 434.79 586.09 435.09 585.13 436.82 586.25 437.83 585.03 438.85 581.77 441.29 581.57 443.94 583.19 446.38 580.34 446.69 576.38 448.93 572.81 454.73 570.98 453.51 573.53 449.33 574.34 449.33 576.99 454.52 575.5 458.49 572.71 460.83 568.13 468.57 565.28 475.39 566.2 476.61 569.96 474.88 569.09 472.74 567.22 470.6 569.09 470.5 571.59 474.67 572.71 481.7 570.17 485.16 572.41 482.71 576.07 481.59 579.43 478.14 580.55 477.28 579.56 474.4 581.28 472.64 581.74 471.01 580.24 472.26 577.31 470.4 576.83 468.57 575.5 468.5 578.29 466.02 579.23 466.13 580.45 467.52 582.15 467.75 585.05 464.61 586.73 463.57 584.45 461.14 585.74 458.7 583.09"/>
      <polyline class="cls-18" points="224.14 625.23 226.89 623.68 226.89 622.68 230.59 619.45 235.82 619.45 238.6 620.34 241.15 617.89 244.6 617.89 243.82 620.4 243.49 621.45 241.6 620.23 240.49 621.56 239.38 625.12 236.71 625.34 233.82 623.57 231.15 626.68 230.82 631.02 228.37 634.91 222.03 636.91 223.36 634.13 227.92 633.24 227.92 630.35 222.25 631.97 217.92 635.02 215.36 640.02 206.91 643.14 199.46 642.14 198.12 638.02 200.01 638.98 202.35 641.02 204.68 638.98 204.79 636.24 200.24 635.02 192.56 637.8 188.78 635.35 191.45 631.35 192.67 627.68 196.44 626.46 197.38 627.54 200.54 625.65 202.46 625.15 204.24 626.79 202.88 629.99 204.91 630.52 206.91 631.97 206.98 628.92 209.69 627.9 209.58 626.57 208.05 624.7 207.8 621.54 211.23 619.7 212.37 622.19 215.02 620.79 217.69 623.68"/>
      <polygon class="cls-37" points="428.93 563.76 425.86 564.16 424.08 562.95 420.04 562.63 418.18 559.72 418.9 556.24 414.35 549.25 411.93 552.48 406.08 551.47 404.06 551.47 401.26 556.99 396.02 560.28 391.17 563.03 387.86 561.98 387.37 567.4 391.33 568.5 392.36 565.64 396.57 565.1 401.26 566.56 405.54 564.55 413.59 564.91 416.71 566.93 420.76 568.5 420.76 572.66 416.96 573.3 416.24 575.37 416.89 577.54 419.59 577.36 423.74 575.15 424.76 574.61 422.87 570.15 427.31 566.67 427.14 568.14 430.81 568.14 434.28 567.29 439.84 562.14 442.91 566.18 445.34 562.95 444.74 558.02 443.64 560.85 442.75 560.69 438.63 559.72 437.26 561.82 436.77 563.4 433.86 562.95 434.26 559.72 429.58 558.91 429.25 561.01 431.76 561.25 431.84 563.03 431.19 565.13 428.93 563.76"/>
      <path class="cls-58" d="m1268.9,32.35V0l-701.58,577c-2.53,2.08-2.87,5.84-.74,8.34l8.59,10.1c2.08,2.44,5.73,2.77,8.2.73L1268.9,32.35Z"/>
      <polygon class="cls-58" points="1268.9 32.35 1268.9 0 1919.57 535.13 1919.57 566.97 1268.9 32.35"/>
      <polygon class="cls-81" points="1268.9 32.35 1919.57 566.97 1919.57 592.24 1251.85 46.35 1268.9 32.35"/>
    </g>
  </g>
  <g id="man">
    <path class="cls-22" d="m188.46,637.18l-2.84-1.66-5.98.83v-4.32l-2.98-1.98-.99-3.14h-1.98l-4.63-3.96,3.14-3.08,2.15,3.41,2.98-.83.17-4.05h-1.82l-5.46-5.52h2.98l.17-5.28-6.78-1.98,1.49-5.12,1.98-.83,3.97,5.12,4.63-1.82.99-4.29,7.44-2.97.5-2.64h-3.64l-.83,1.65-7.77-1.65,5.46-4.95,4.63-3.63,3.97,4.62v2.31l5.46,2.81,6.28-3.14,4.3-5.28-3.8.5-1.49-4.95,3.8-1.16.33-2.64h11.25l5.13.99-1.16,3.14-1.49.33-.33,3.96,2.98,1.65,5.46.33,3.47-1.82,3.8,3.63-2.32,3.63,3.14,3.96,1.98-1.98,3.31.17,1.32,5.28,5.83,2.47-1.23,2.9-1.84-2.33h-2.84l-.83,2-3,.33-1.84,4.33,3.34,2.83,2.67-1.5,1.5-2.33,4.06.33,4.28,8.54h2.84l4.67-4.38-4.01-1.17.33-5.5,3.67,3.83h3.84v-3.83l2.17-1.67,1.34,4.5,6.51.17,1.5-3,4.51.67v2l-1.84.67.17,3.33,1.67.5,2.17-3.33,4.17-.5v4l-3,2.83,3-.17,1.17,2.51h2.67l-.76.45-.06,1.37,2.51-.91,2.06-1.71-1.71-5.36,2-1.08-1.54-3.19-2.11.17-.74-1.2-3.14.06-2.11.97-1.09-1.2-2.11-.23-.11-2.28,1.2-2.17-1.03-1.6h-1.77l-.4-1.14-1.29-3.2,5.72-.57.57-1.43,2.29-3-1.72-.43.72-1.86,4.72,3.43,3.96-1.43,4.44,5.58,5.27.16,1.92-1.12v2.87l-3.67,1.12,1.12,2.71h7.34v2.23l-2.07.16-.32,2.87,4.95.64,4.63-2.19,3.19-1.32-5.59-2.07v-2.07l-2.07-.96.48-1.91,5.43-1.12.32,1.75-.96,1.59,3.03.32,2.71-1.43v2.39l6.54,4.82,3.67-3.39,2.07-1.59v2.23l5.11,2.75-3.19,2.51-.96,3.66,3.51.32,5.59-.32,1.92-2.07,5.27,5.89-3.67-.64-3.67-.16-.32,4.78,4.63-1.43.8,1.59-.32,4.3-3.67-.16-5.11-3.82-4.47,2.07-.96,3.35,5.43.16,4.79.8v3.19l5.27-.8,1.28,2.39,4.47-.16v2.87l-2.71.64-1.76,2.87-2.87-3.19-4.63-.16,1.18-2.24-2.14-.54-1.61,2.57,1.93,2.46,3.54.11,1.07,1.71h6.11l2.89-2.89,2.89,2.89v1.18l10.29-.64,2.25-2.78-1.5-1.61-1.39-3.85,2.89,1.71,1.18-1.71,4.29,1.61v4.6h3.22l3.32,2.68-1.82.96v1.5l2.47,1.07,1.61,2.82H108.75s-5.15-2.88-5.15-2.88l.55-2.05-2.96-2.17.69-5.52,3.75,5.13.2-7.3,9.03-.23.64,2.1-7,3.94,3.85.99,10.44,1.76,1.64-3.01,6.29-3.01.25,2.39-1.38.13-1.76.88.75,3.14,5.54.25,6.04-5.78,6.79-1.76.38,4.27-1.38-2.13-1.89.5-.13,2.01,4.25,1.51,2.55-4.14-1.89-5.53-5.91-.13,1.13-1.63,2.14.25v-1.76l-2.52-.88.63-1.76,3.02.25.13,3.39,2.52.13-.25-1.63v-2.13l3.65.75.25,2.51-.13,1.51,3.02-1-.25-3.77-3.52-.75-2.83-2.39-.78.63-.05,1.1-1.26.63.36-2.35-1.99-1.2-2.51.57,1.52-1.62,4.13-1.51-.52-2.4,2.41-.31,3.14-2.04.63,1.98c1.52.16,5.44.21,5.44.21l-.1,2.24,1.26,1.36,2.82.72,3.56,2.77-1.46,1.72-1.36-.26-.26-.89-1.62,1.62,2.14,6.42-1.67,1.77,2.46.63,2.51-2.24-.21-.84,1.26-.84,2.56,2.66,3.03-.63,2.3,5.27,2.88.57,1.46-.68,3.77.1.1,1.36,2.63-1.24Z"/>
    <g>
      <rect class="cls-81" x="1045.29" y="294.16" width="9.4" height="334.94"/>
      <rect class="cls-81" x="1030.54" y="629.1" width="470.34" height="55.09" rx="7.31" ry="7.31"/>
      <rect class="cls-81" x="1035.36" y="278.14" width="470.34" height="16.02" rx="8.01" ry="8.01"/>
      <g>
        <rect class="cls-74" x="1108.16" y="234.25" width="330.46" height="443.21" transform="translate(1729.25 -817.54) rotate(90)"/>
        <rect class="cls-51" x="1060.68" y="299.51" width="425.44" height="312.69"/>
      </g>
      <path class="cls-58" d="m1500.33,620.96h-455.73c-4.04,0-7.31,3.27-7.31,7.31v40.47c0,4.04,3.27,7.31,7.31,7.31h455.73c4.04,0,7.31-3.27,7.31-7.31v-40.47c0-4.04-3.27-7.31-7.31-7.31Z"/>
      <rect class="cls-58" x="1038.53" y="274.61" width="470.34" height="16.02" rx="8.01" ry="8.01"/>
      <polygon class="cls-61" points="1254.74 307.58 1417.55 470.61 1485.5 463.86 1486.11 299.51 1246.56 299.51 1254.74 307.58"/>
      <polyline class="cls-61" points="1299 334.03 1286.16 338.87 1168.26 338.87 1168.26 329.94 1159.12 339.08 1124.77 299.51 1398.71 299.51 1299 334.03"/>
      <path class="cls-47" d="m1243.44,508.85l2.27-1.35,4.77.67v-3.52l2.37-1.61.79-2.55h1.58l3.69-3.23-2.5-2.51-1.71,2.78-2.37-.67-.13-3.3h1.45l4.35-4.5h-2.37l-.13-4.3,5.4-1.61-1.19-4.17-1.58-.67-3.16,4.17-3.69-1.48-.79-3.5-5.93-2.42-.4-2.15h2.9l.66,1.34,6.19-1.34-4.35-4.03-3.69-2.96-3.16,3.77v1.88l-4.35,2.29-5.01-2.55-3.43-4.3,3.03.4,1.19-4.03-3.03-.94-.26-2.15h-8.96l-4.08.81.92,2.55,1.19.27.26,3.23-2.37,1.34-4.35.27-2.77-1.48-3.03,2.96,1.84,2.96-2.5,3.23-1.58-1.61-2.64.13-1.05,4.3-4.64,2.01.98,2.36,1.46-1.9h2.26l.66,1.63,2.39.27,1.46,3.53-2.66,2.31-2.13-1.22-1.2-1.9-3.24.27-3.41,6.96h-2.26l-3.72-3.56,3.19-.95-.27-4.48-2.93,3.12h-3.06v-3.12l-1.73-1.36-1.06,3.66-5.19.14-1.2-2.44-3.59.54v1.63l1.46.54-.13,2.71-1.33.41-1.73-2.71-3.32-.41v3.26l2.39,2.31-2.39-.14-.93,2.05h-2.13l.61.37.05,1.12-2-.74-1.64-1.39,1.37-4.37-1.59-.88,1.23-2.6,1.68.14.59-.98,2.5.05,1.68.79.86-.98,1.68-.19.09-1.86-.96-1.77.82-1.3h1.41l.32-.93,1.03-2.61-4.56-.47-.46-1.16-1.82-2.44,1.37-.35-.57-1.51-3.76,2.79-3.15-1.16-3.54,4.55-4.2.13-1.53-.91v2.34l2.92.91-.89,2.21h-5.85v1.82l1.65.13.25,2.34-3.94.52-3.69-1.78-2.54-1.07,4.45-1.69v-1.69l1.65-.78-.38-1.56-4.32-.91-.25,1.43.76,1.3-2.42.26-2.16-1.17v1.95l-5.21,3.93-2.92-2.76-1.65-1.3v1.82l-4.07,2.24,2.54,2.04.76,2.98-2.8.26-4.45-.26-1.53-1.69-4.2,4.8,2.92-.52,2.92-.13.25,3.89-3.69-1.17-.64,1.3.25,3.5,2.92-.13,4.07-3.11,3.56,1.69.76,2.73-4.32.13-3.81.65v2.6l-4.2-.65-1.02,1.95-3.56-.13v2.34l2.16.52,1.4,55.94,2.29-56.2,3.69-.13-.94-1.83,1.71-.44,1.28,2.09-1.54,2-2.82.09-.85,55h-4.87l-2.31-55.95-2.31,55.95v.96l-8.2-.52-1.79-55.87,1.2-1.31,1.11-3.14-2.31,1.39-.94-1.39-3.42,1.31v3.75h-2.56l-2.65,55.78,1.45.78v1.22l-1.96.87-1.28,2.3h221.95v-72.48h-4.46l.2,1.23,1.9-.1.1,2.46-1,.2-1.6,2.86,2-.1,1.4,1.84-1.4,57.59-8.32,1.43-1.3-56.06-5.01-2.46-.2,1.94,1.1.1,1.4,54.32-.6,2.56-4.41.2-4.81-58.31-5.41-1.43-.3,57.08,1.1-55.34,1.5.41.1,55.24-3.38,1.23-2.03-56.98,1.5-4.5,4.71-.1-.9-1.33-1.7.2v-1.43l2-.72-.5-1.43-2.41.2-.1,2.76-2,.1.2-1.33v-1.74l-2.91.61-.2,2.05.1,1.23-2.41-.82.2-3.07,2.81-.61,2.26-1.95.62.51.04.89,1,.51-.29-1.91,1.58-.98,2,.47-1.21-1.32-3.29-1.23.42-1.96-1.92-.26-2.5-1.66-.5,1.62c-1.21.13-4.33.17-4.33.17l.08,1.83-1,1.11-2.25.59-2.83,2.26,1.17,1.4,1.08-.21.21-.72,1.29,1.32-1.71,5.23,1.33,1.45-1.96.51-2-1.83.17-.68-1-.68-2.04,2.17-2.42-.51-1.83,4.29-2.29.47-1.17-.55-3,.09-.08,1.11-2.09-1.01Z"/>
      <g>
        <path class="cls-72" d="m1059.06,299.79v312.69h425.44v-312.69h-425.44Zm203.63,259.38c0,4.43-3.59,8.03-8.03,8.03h-84.81c-4.43,0-8.03-3.59-8.03-8.03v-181.17c0-4.43,3.59-8.03,8.03-8.03h84.81c4.43,0,8.03,3.59,8.03,8.03v181.17Z"/>
        <path class="cls-72" d="m1254.67,369.97h-84.81c-4.43,0-8.03,3.59-8.03,8.03v181.17c0,4.43,3.59,8.03,8.03,8.03h84.81c4.43,0,8.03-3.59,8.03-8.03v-181.17c0-4.43-3.59-8.03-8.03-8.03Zm3.58,189.2c0,1.98-1.61,3.58-3.58,3.58h-84.81c-1.98,0-3.58-1.61-3.58-3.58v-181.17c0-1.98,1.61-3.58,3.58-3.58h84.81c1.98,0,3.58,1.61,3.58,3.58v181.17Z"/>
      </g>
      <polygon class="cls-72" points="1298.11 336.51 1298.11 611.75 1416.66 611.75 1416.66 452.9 1298.11 336.51"/>
      <polygon class="cls-69" points="1285.27 611.75 1285.27 339.03 1298.11 334.19 1298.11 611.75 1285.27 611.75"/>
      <polyline class="cls-62" points="1285.27 339.03 1113.46 338.87 1113.46 611.59 1060.68 611.59 1060.68 299.51 1486.11 299.51 1285.27 339.03"/>
      <line class="cls-56" x1="1113.46" y1="338.87" x2="1060.68" y2="299.51"/>
      <polygon class="cls-62" points="1298.11 336.51 1416.66 452.9 1485.5 445.99 1486.11 299.51 1298.11 336.51"/>
      <g>
        <g>
          <path class="cls-77" d="m1177.42,555.6h-41.95c-4.84,0-8.31,4.53-6.9,9.02l14.73,46.98h26.3l14.73-46.98c1.41-4.49-2.06-9.02-6.9-9.02Z"/>
          <path class="cls-49" d="m1098.74,526.17l3.37-6.63h2.43l7.04,1.21,2.91-3.88-5.58-5.58,4.37-4.61h16.5l9.22-13.34,2.91,6.31,9.14,1.7,6.39-.97,5.58,2.18,1.7,4.12,7.04-2.91,6.07-.49,3.49,6.47,11.8-1.13,3.88,1.13v2.99l11.5,9.36,15.42-2.75,6.61,6.82-6.06,6.95,2.2,10.39-12.67,12.85,8.26,2.64,4.96,12.27-8.26,20.37-8.26-7.16-7.16,12.23-6.06-1.63-.66-4.78-3.96.22-5.06-1.54-1.54-2.57-6.6,6.53-.22-12.11.88-3.96-9.47-3.08-1.1-5.94-7.71-2.2-3.3-5.5-7.53-3.77-3.04-3.05-3.74,4.18-.22,3.08-5.5.44-3.74-5.94,3.08-5.5,3.3-.22,1.98-1.32.44-8.44s-3.96-1.02-4.62-1.02h-.66l2.42,4.95-5.06,1.51-2.42-1.51-3.52-3.93-3.52,3.93.66,3.85-6.22,3.3-3.25.22-1.76-5.87,3.08-2.94-1.54-3.96-3.74-2.42-9.69-.44-5.14,2.42-5.65-1.76-5.06.66-1.98,5.5-4.82-2.5h-5.52l-.88-4.77,4.84-4.18,6.16.88,2.86-5.06,5.28-.44,4.76.15Z"/>
        </g>
        <g>
          <path class="cls-77" d="m1199.37,568.68h-16.18c-3.71,0-6.37,3.47-5.29,6.91l11.29,36h8.63c4.72-14.31,10.61-28.05,11.79-42.91h-10.24Z"/>
          <path class="cls-76" d="m1215.34,568.68h-5.73c-1.17,14.86-7.06,28.6-11.79,42.91h11.52l11.29-36c1.08-3.44-1.58-6.91-5.29-6.91Z"/>
          <path class="cls-63" d="m1219.23,547.93c-.09,0-.18,0-.27.01-.01.08-.03.15-.03.23.04-.15.13-.22.31-.24Z"/>
          <path class="cls-63" d="m1218.92,548.18c-.03.13-.04.33-.04.63,0-.21.01-.42.04-.63Z"/>
          <path class="cls-63" d="m1219.23,547.93c.18,0,.36-.02.54-.02-.24,0-.41,0-.54.02Z"/>
          <path class="cls-63" d="m1209.66,559.25c-1.89.03-3.74.32-5,1.99-.89.89-3.56-1.78-3.56-3.56.89-3.56,6.22-4.44,7.11-8-.89.89-.89-1.78-1.78-.89,1.78-2.67,4.44-2.67,6.22-5.33,0,1.78-.89,3.56,0,4.44,1.6.8,3.91.17,6.29.03.22-1.49.96-2.98,1.71-4.47,2.67,4.44,8,5.33,11.55.89-.89,0-1.78-.89-1.78-1.78.89-.89,2.67-.89,3.56-1.78.89-2.67-2.67-3.56-4.44-4.44,0,1.78-1.78,2.67-.89,4.44-.89-2.67-3.56-3.56-6.22-4.44,3.21,0,5.03-1.4,5.45-3.85l-4.68-.55-4.15-2.02-4.27.31-2.03,2.45-4.18-3.48-4.03-1.62-3.75,3.67-7.8-3.27-2.89-.05-.63,2.04-9.83,3.95-9.93-5.15-5.95,3.25,2.66,6.03-3.71,6.62,5.91,11.45-6.19.05-5.98,7.31,1.32,15.64,7.15-3.13,2.29,9.86,4.48.18,1.46-3.12,2.66.99,3.78.02,1.6-1.43,3.12,5.85,2.72-8.21.24-2.89,7.11-.09,2.01-3.82,5.72.13,3.42-3.05,3.99-.66c.33-3.44.4-6.94.16-10.52Z"/>
          <path class="cls-63" d="m1216.22,563.02c.89-.89-.89-2.67-.89-4.44-1.41.94-3.56.64-5.66.67.24,3.58.17,7.08-.16,10.52l.9-.15c-.1-2.84,1.27-5.2,5.82-6.6Z"/>
          <path class="cls-55" d="m1265.67,567.07l-4.39-.71-.88-4.06-3.51-1.42-3.28-.91-.89-5.24-1.65-.51-5.06-.66-1.16-3.26,4.99-2.62-2-4.07-11.25-3.5-3.46-11.05-3.32,3.68-1.92-.23c-.42,2.45-2.24,3.85-5.45,3.85,2.67.89,5.33,1.78,6.22,4.44-.89-1.78.89-2.67.89-4.44,1.78.89,5.33,1.78,4.44,4.44-.89.89-2.67.89-3.56,1.78,0,.89.89,1.78,1.78,1.78-3.56,4.44-8.89,3.56-11.55-.89-.75,1.49-1.48,2.98-1.71,4.47.09,0,.18,0,.27-.01.13-.02.3-.02.54-.02-.18,0-.36.01-.54.02-.18.03-.27.09-.31.24-.02.21-.04.42-.04.63,0-.3,0-.5.04-.63,0-.08.02-.15.03-.23-2.39.14-4.7.77-6.29-.03-.89-.89,0-2.67,0-4.44-1.78,2.67-4.44,2.67-6.22,5.33.89-.89.89,1.78,1.78.89-.89,3.56-6.22,4.44-7.11,8,0,1.78,2.67,4.44,3.56,3.56,1.26-1.68,3.11-1.97,5-1.99-.11-1.69-.29-3.39-.56-5.12.27,1.73.44,3.43.56,5.12,2.11-.03,4.26.27,5.66-.67,0,1.78,1.78,3.56.89,4.44-4.55,1.4-5.92,3.76-5.82,6.6l1.05-.17,2.72-1.44,1.67,3.65-.5,2.15,3.66,1.47,3.81-3.26-.94-4.41-2.21-.85-1.07-1.32,1.49-5.85s2.92.14,3.37.28l.45.14-2.7,2.86,3.13,2.1,1.97-.51,3.23-1.93,1.57,3.43-1.27,2.49,3.54,3.57,2.17.84,2.45-3.63-1.48-2.66,1.89-2.38,3.07-.86,6.7,1.75,2.99,2.74h4.22s3.31,1.52,3.31,1.52l.18,4.17,3.82-.68,3.77,1.17,1.61-3.06-2.42-3.88Z"/>
        </g>
        <polygon class="cls-49" points="1195.8 538.79 1194.57 541.62 1191.61 540.21 1187.43 541.01 1185.58 543.1 1181.64 540.94 1177.56 539.96 1184.11 536.45 1184.64 538.79 1186.68 538.3 1186.68 535.59 1190.38 534.64 1191 531.41 1195.8 531.41 1194.07 534.64 1191.12 538.54 1195.8 538.79"/>
        <polyline class="cls-46" points="1202.09 564.89 1199.26 566.48 1199.26 567.52 1195.47 570.82 1190.11 570.82 1187.26 569.91 1184.64 572.42 1181.1 572.42 1181.9 569.85 1182.24 568.77 1184.18 570.03 1185.32 568.66 1186.46 565.01 1189.2 564.78 1192.16 566.6 1194.9 563.41 1195.24 558.96 1197.75 554.97 1204.25 552.91 1202.88 555.77 1198.21 556.68 1198.21 559.64 1204.03 557.98 1208.47 554.85 1211.1 549.72 1219.77 546.53 1227.41 547.55 1228.78 551.77 1226.84 550.79 1224.45 548.69 1222.05 550.79 1221.94 553.6 1226.61 554.85 1234.48 552 1238.36 554.51 1235.63 558.62 1234.37 562.38 1230.5 563.64 1229.54 562.53 1226.3 564.46 1224.33 564.97 1222.51 563.29 1223.9 560.01 1221.82 559.47 1219.77 557.98 1219.69 561.11 1216.92 562.15 1217.03 563.52 1218.59 565.44 1218.86 568.68 1215.33 570.57 1214.17 568.01 1211.45 569.45 1208.7 566.49"/>
        <polygon class="cls-63" points="1152.81 530.36 1149.97 530.73 1148.32 529.61 1144.59 529.31 1142.87 526.62 1143.54 523.4 1139.33 516.94 1137.09 519.93 1131.68 519 1129.82 519 1127.23 524.09 1122.39 527.14 1117.9 529.68 1114.84 528.71 1114.39 533.72 1118.05 534.74 1119 532.1 1122.89 531.59 1127.23 532.95 1131.19 531.08 1138.63 531.42 1141.51 533.28 1145.26 534.74 1145.26 538.59 1141.75 539.18 1141.07 541.09 1141.68 543.1 1144.17 542.93 1148.01 540.89 1148.95 540.39 1147.2 536.26 1151.31 533.05 1151.15 534.41 1154.55 534.41 1157.75 533.62 1162.9 528.86 1165.74 532.6 1167.98 529.61 1167.43 525.05 1166.41 527.67 1165.59 527.52 1161.78 526.62 1160.51 528.56 1160.06 530.02 1157.37 529.61 1157.74 526.62 1153.41 525.87 1153.11 527.81 1155.42 528.04 1155.5 529.68 1154.9 531.63 1152.81 530.36"/>
      </g>
      <g>
        <line class="cls-4" x1="1417.55" y1="485.48" x2="1485.63" y2="480.6"/>
        <line class="cls-4" x1="1417.55" y1="519.18" x2="1485.9" y2="517.11"/>
        <line class="cls-4" x1="1417.55" y1="552.88" x2="1485.55" y2="551.94"/>
        <line class="cls-4" x1="1417.55" y1="586.59" x2="1485.49" y2="586.59"/>
        <line class="cls-6" x1="1421.12" y1="462.82" x2="1421.12" y2="484.15"/>
        <line class="cls-6" x1="1421.12" y1="531.16" x2="1421.12" y2="552.49"/>
        <line class="cls-6" x1="1426.56" y1="531.16" x2="1426.56" y2="552.49"/>
        <line class="cls-6" x1="1430.74" y1="590.04" x2="1430.74" y2="611.37"/>
        <line class="cls-6" x1="1436.43" y1="590.04" x2="1436.43" y2="611.37"/>
        <line class="cls-6" x1="1442.19" y1="590.04" x2="1442.19" y2="611.37"/>
        <line class="cls-6" x1="1434.6" y1="531.16" x2="1434.6" y2="552.49"/>
        <line class="cls-6" x1="1470.35" y1="459.94" x2="1470.35" y2="481.27"/>
        <line class="cls-6" x1="1435.38" y1="496.88" x2="1435.38" y2="518.21"/>
        <line class="cls-6" x1="1441.32" y1="496.88" x2="1441.32" y2="518.21"/>
        <line class="cls-6" x1="1476.32" y1="459.02" x2="1476.32" y2="480.34"/>
        <line class="cls-6" x1="1482.31" y1="458.16" x2="1482.31" y2="479.49"/>
        <line class="cls-6" x1="1426.89" y1="469.68" x2="1426.89" y2="484.15"/>
        <line class="cls-4" x1="1431.46" y1="469.68" x2="1431.46" y2="484.15"/>
        <line class="cls-4" x1="1434.36" y1="469.36" x2="1434.36" y2="483.83"/>
        <line class="cls-4" x1="1437.29" y1="469.07" x2="1437.29" y2="483.54"/>
        <line class="cls-4" x1="1440.22" y1="468.83" x2="1440.22" y2="483.29"/>
        <line class="cls-4" x1="1443.21" y1="468.57" x2="1443.21" y2="483.04"/>
        <line class="cls-4" x1="1430.58" y1="503.5" x2="1430.58" y2="517.96"/>
        <line class="cls-4" x1="1439.31" y1="538.02" x2="1439.31" y2="552.49"/>
        <line class="cls-4" x1="1442.35" y1="538.02" x2="1442.35" y2="552.49"/>
        <line class="cls-4" x1="1476.09" y1="536.48" x2="1476.09" y2="550.95"/>
        <line class="cls-4" x1="1479.04" y1="536.48" x2="1479.04" y2="550.95"/>
        <line class="cls-4" x1="1482.14" y1="536.48" x2="1482.14" y2="550.95"/>
        <line class="cls-4" x1="1484.12" y1="570.85" x2="1484.12" y2="585.31"/>
        <line class="cls-4" x1="1481.14" y1="570.85" x2="1481.14" y2="585.31"/>
        <line class="cls-4" x1="1478.9" y1="570.85" x2="1478.9" y2="585.31"/>
        <line class="cls-4" x1="1470.37" y1="570.85" x2="1470.37" y2="585.31"/>
        <line class="cls-4" x1="1464.26" y1="570.85" x2="1464.26" y2="585.31"/>
        <line class="cls-4" x1="1422.33" y1="570.85" x2="1422.33" y2="585.31"/>
        <line class="cls-4" x1="1419.4" y1="570.85" x2="1419.4" y2="585.31"/>
        <line class="cls-4" x1="1419.4" y1="597.28" x2="1419.4" y2="611.75"/>
        <line class="cls-4" x1="1422.33" y1="597.28" x2="1422.33" y2="611.75"/>
        <line class="cls-4" x1="1425.43" y1="597.28" x2="1425.43" y2="611.75"/>
        <line class="cls-4" x1="1467.29" y1="570.85" x2="1467.29" y2="585.31"/>
        <line class="cls-4" x1="1473.64" y1="570.85" x2="1473.64" y2="585.31"/>
        <line class="cls-4" x1="1445.39" y1="538.02" x2="1445.39" y2="552.49"/>
        <line class="cls-4" x1="1427.68" y1="503.5" x2="1427.68" y2="517.96"/>
        <line class="cls-4" x1="1424.78" y1="503.74" x2="1424.78" y2="518.21"/>
        <line class="cls-4" x1="1421.79" y1="503.74" x2="1421.79" y2="518.21"/>
        <line class="cls-4" x1="1419.54" y1="503.74" x2="1419.54" y2="518.21"/>
        <line class="cls-11" x1="1477" y1="502.94" x2="1477" y2="517.41"/>
        <line class="cls-11" x1="1463.83" y1="503.5" x2="1463.83" y2="517.96"/>
        <line class="cls-11" x1="1454.1" y1="538.02" x2="1454.1" y2="552.49"/>
        <line class="cls-11" x1="1455.77" y1="570.85" x2="1455.77" y2="585.31"/>
        <line class="cls-11" x1="1442.97" y1="570.85" x2="1442.97" y2="585.31"/>
        <line class="cls-11" x1="1430.16" y1="570.85" x2="1430.16" y2="585.31"/>
        <line class="cls-11" x1="1467.29" y1="533.09" x2="1467.29" y2="551.68"/>
        <polygon class="cls-5" points="1417.55 452.81 1417.55 611.59 1485.58 611.59 1485.5 445.99 1417.55 452.81"/>
      </g>
      <g>
        <g>
          <path class="cls-60" d="m1482.74,298.5l-74.7-7.85c-2.31-.24-4.18,1.43-4.18,3.74v305.39c0,2.31,1.87,4.38,4.18,4.62l74.7,7.85c2.31.24,4.18-1.43,4.18-3.74v-305.39c0-2.31-1.87-4.38-4.18-4.62Zm-.28,309.26l-74.15-7.79v-304.83l74.15,7.79v304.83Z"/>
          <polygon class="cls-52" points="1408.32 599.97 1482.47 607.77 1482.47 302.93 1408.32 295.14 1408.32 599.97"/>
        </g>
        <polygon class="cls-60" points="1482.53 405.82 1408.32 398.02 1408.32 394.32 1482.53 402.12 1482.53 405.82"/>
        <polygon class="cls-60" points="1482.53 508.69 1408.32 500.89 1408.32 497.19 1482.53 504.99 1482.53 508.69"/>
      </g>
      <g>
        <g>
          <path class="cls-60" d="m1059.4,303.13v305.39c0,2.31,1.87,3.99,4.18,3.74l74.7-7.85c2.31-.24,4.18-2.31,4.18-4.62v-305.39c0-2.31-1.87-3.99-4.18-3.74l-74.7,7.85c-2.31.24-4.18,2.31-4.18,4.62Zm4.46-.19l74.15-7.79v304.83s-74.15,7.79-74.15,7.79v-304.83Z"/>
          <polygon class="cls-52" points="1138.01 599.97 1063.86 607.77 1063.86 302.93 1138.01 295.14 1138.01 599.97"/>
        </g>
        <polygon class="cls-60" points="1063.8 405.82 1138.01 398.02 1138.01 394.32 1063.8 402.12 1063.8 405.82"/>
        <polygon class="cls-60" points="1063.8 508.69 1138.01 500.89 1138.01 497.19 1063.8 504.99 1063.8 508.69"/>
      </g>
    </g>
  </g>
  <g id="Layer_7" data-name="Layer 7">
    <g>
      <rect class="cls-35" x="32" y="771.89" width="1856" height="338.67" rx="22.97" ry="22.97"/>
      <g>
        <g>
          <g>
            <ellipse class="cls-40" cx="234.5" cy="1047.91" rx="26.02" ry="7.91"/>
            <ellipse class="cls-17" cx="644.47" cy="1002.28" rx="26.02" ry="5.18"/>
            <ellipse class="cls-17" cx="1011.28" cy="1002.28" rx="26.02" ry="5.18"/>
            <ellipse class="cls-28" cx="1287.29" cy="1047.91" rx="26.02" ry="4.25"/>
            <ellipse class="cls-28" cx="1671.67" cy="1023.5" rx="26.02" ry="4.25"/>
            <g>
              <polygon class="cls-1" points="535.05 1110.1 581.01 1110.1 581.01 1096.95 535.05 1110.1"/>
              <polygon class="cls-71" points="498.08 1088.88 498.08 1110.1 550.24 1096.95 614.78 1079.76 701.2 1056.25 964.43 977.17 964.43 966.63 500.52 1088.88 498.08 1088.88"/>
              <path class="cls-71" d="m498.08,1088.88H31.73c0,11.72,9.5,21.22,21.22,21.22h445.13v-21.22Z"/>
              <polygon class="cls-71" points="1084.51 1051.83 700.36 1054.11 700.36 1054.11 700.36 1054.11 701.21 1075.06 1087.56 1075.95 1087.56 1075.95 1203.61 982.39 1203.61 966.63 1084.51 1051.83"/>
              <rect class="cls-71" x="1088.31" y="1089.15" width="374.7" height="20.95"/>
              <polygon class="cls-68" points="1491.51 1054.11 1422.17 966.63 1422.17 982.39 1491.51 1076.67 1491.51 1069.12 1491.51 1054.11"/>
              <rect class="cls-71" x="1491.51" y="1054.11" width="396.49" height="22.57"/>
              <polygon class="cls-24" points="507.94 966.63 31.73 1025.73 31.73 1088.88 498.08 1088.88 500.52 1088.88 964.43 966.63 507.94 966.63"/>
              <polygon class="cls-24" points="1395.37 966.63 1228.72 966.63 1088.31 1089.15 1463.01 1089.15 1395.37 966.63"/>
              <polygon class="cls-50" points="1888 1054.11 1888.16 1028.42 1679.69 966.63 1422.17 966.63 1491.51 1054.11 1888 1054.11"/>
              <polygon class="cls-24" points="1000.6 966.63 964.43 977.17 700.36 1054.11 700.36 1054.11 1084.51 1051.83 1203.61 966.63 1000.6 966.63"/>
            </g>
            <g>
              <line class="cls-12" x1="31.73" y1="1047.91" x2="35.73" y2="1047.91"/>
              <path class="cls-13" d="m43.71,1047.91h330.86c19.68,0,39.28-2.39,58.38-7.12l122.94-30.46c19.1-4.73,38.7-7.12,58.38-7.12h391.59c11.65,0,23.28.84,34.81,2.51,133.64,19.28,100.7,35.78,143.98,37.94,45.14,2.26,198.25,4.25,198.25,4.25l136.04-15.67c38.67-4.45,77.53-7.11,116.44-7.95l36.3-.79h191.89"/>
              <line class="cls-12" x1="1867.55" y1="1023.5" x2="1871.55" y2="1023.5"/>
            </g>
          </g>
          <line class="cls-10" x1="581.01" y1="1002.28" x2="581.01" y2="854.5"/>
          <line class="cls-10" x1="1659.71" y1="1019.25" x2="1659.71" y2="854.5"/>
          <text class="cls-43" transform="translate(147.94 842.3)"><tspan x="0" y="0" xml:space="preserve"> UX Research</tspan></text>
          <text class="cls-43" transform="translate(1283.93 842.3)"><tspan x="0" y="0">Product Design</tspan></text>
          <text class="cls-43" transform="translate(994.07 842.3)"><tspan x="0" y="0">Visualization</tspan></text>
          <text class="cls-43" transform="translate(462.08 842.3)"><tspan x="0" y="0">Design and Conceptualization</tspan></text>
          <text class="cls-43" transform="translate(1571.35 842.3)"><tspan x="0" y="0">Collaboration</tspan></text>
          <g>
            <rect class="cls-59" x="153.81" y="995.31" width="5.64" height="45.69" rx="2.82" ry="2.82"/>
            <rect class="cls-59" x="263.24" y="983.62" width="5.64" height="45.69" rx="2.82" ry="2.82"/>
            <rect class="cls-59" x="136.15" y="997.87" width="5.64" height="31.45" rx="2.34" ry="2.34"/>
            <rect class="cls-59" x="249.14" y="983.62" width="5.64" height="31.45" rx="2.34" ry="2.34"/>
            <path class="cls-59" d="m288.36,984.35l-162.04,18.58c-5.36.61-10.42-2.6-12.15-7.72l-21.43-63.66c-2.37-7.04,2.49-14.43,9.88-15.05l159.79-13.44c5-.42,9.68,2.46,11.56,7.11l23.68,58.52c2.84,7.01-1.79,14.8-9.3,15.66Z"/>
            <path class="cls-26" d="m288.36,979.21l-162.04,18.58c-5.36.61-10.42-2.6-12.15-7.72l-21.43-63.66c-2.37-7.04,2.49-14.43,9.88-15.05l159.79-13.44c5-.42,9.68,2.46,11.56,7.11l23.68,58.52c2.84,7.01-1.79,14.8-9.3,15.66Z"/>
          </g>
          <line class="cls-10" x1="234.5" y1="1047.91" x2="234.5" y2="854.5"/>
        </g>
        <rect class="cls-27" x="700.36" y="907.01" width="71.1" height="33.01"/>
        <polygon class="cls-59" points="151.84 937.87 138.28 940.23 134.14 930.18 146.53 928.88 151.84 937.87"/>
        <polygon class="cls-59" points="167.46 936.3 153.9 938.66 149.75 928.6 162.15 927.31 167.46 936.3"/>
        <polygon class="cls-59" points="183.08 934.87 169.52 937.23 165.37 927.17 177.77 925.88 183.08 934.87"/>
        <polygon class="cls-59" points="198.26 933.11 184.71 935.47 180.56 925.41 192.96 924.12 198.26 933.11"/>
        <polygon class="cls-59" points="207.12 946.22 193.56 948.58 189.41 938.52 201.81 937.23 207.12 946.22"/>
        <polygon class="cls-59" points="200.78 964.67 187.23 967.03 183.08 956.97 195.48 955.68 200.78 964.67"/>
        <polygon class="cls-59" points="255.52 927.44 241.96 929.79 237.81 919.74 250.21 918.45 255.52 927.44"/>
        <polygon class="cls-59" points="272.09 925.91 258.53 928.26 254.39 918.21 266.79 916.92 272.09 925.91"/>
        <polygon class="cls-59" points="269.67 940.55 256.11 942.9 251.97 932.85 264.37 931.56 269.67 940.55"/>
        <polygon class="cls-70" points="266.06 970.34 252.5 972.7 248.36 962.65 260.76 961.35 266.06 970.34"/>
        <polygon class="cls-73" points="170.54 922.1 156.98 924.45 152.83 914.4 165.23 913.11 170.54 922.1"/>
        <polygon class="cls-73" points="255.52 914.53 241.96 916.89 237.81 906.83 250.21 905.54 255.52 914.53"/>
        <polygon class="cls-59" points="163.91 966.37 150.35 968.73 146.21 958.67 158.61 957.38 163.91 966.37"/>
        <polygon class="cls-59" points="169.55 979.68 155.99 982.04 151.84 971.99 164.24 970.69 169.55 979.68"/>
        <polygon class="cls-48" points="124.53 941.97 110.97 944.33 106.82 934.28 119.22 932.98 124.53 941.97"/>
        <polygon class="cls-48" points="226.89 929.2 213.33 931.56 209.19 921.5 221.59 920.21 226.89 929.2"/>
        <polygon class="cls-59" points="189.9 947.65 176.34 950 172.2 939.95 184.6 938.66 189.9 947.65"/>
        <polygon class="cls-70" points="173.73 950.66 160.17 953.02 156.02 942.96 168.42 941.67 173.73 950.66"/>
        <polygon class="cls-59" points="158.61 953.32 145.05 955.68 140.9 945.62 153.3 944.33 158.61 953.32"/>
        <g>
          <polygon class="cls-71" points="435.04 962.48 515.08 953.16 515.08 986.1 435.04 999.2 435.04 962.48"/>
          <path class="cls-57" d="m514.95,953.3v32.7l-79.79,13.06v-36.46l79.79-9.3m.25-.28l-80.29,9.35v36.98l80.29-13.14v-33.19h0Z"/>
        </g>
        <rect class="cls-21" x="456.63" y="896.95" width="82.9" height="39.64" rx="5.83" ry="5.83"/>
        <g>
          <path class="cls-23" d="m456.63,976.43v24.86c0,1.07,5.39,1.94,12.04,1.94s12.04-.87,12.04-1.94v-24.86h-24.08Z"/>
          <ellipse class="cls-26" cx="468.67" cy="976.43" rx="12.04" ry="1.94"/>
        </g>
        <g>
          <path class="cls-23" d="m490.08,972.11v23.18c0,1,5.03,1.81,11.23,1.81s11.23-.81,11.23-1.81v-23.18h-22.46Z"/>
          <ellipse class="cls-16" cx="501.3" cy="972.11" rx="11.23" ry="1.81"/>
        </g>
        <g>
          <path class="cls-23" d="m521.37,964.84v23.18c0,1,5.03,1.81,11.23,1.81s11.23-.81,11.23-1.81v-23.18h-22.46Z"/>
          <ellipse class="cls-16" cx="532.6" cy="964.84" rx="11.23" ry="1.81"/>
        </g>
        <g>
          <path class="cls-29" d="m744.97,959.84v29.16c0,1.25,5.47,2.27,12.22,2.27s12.22-1.02,12.22-2.27v-29.16h-24.45Z"/>
          <ellipse class="cls-29" cx="757.19" cy="959.84" rx="12.22" ry="2.27"/>
        </g>
        <g>
          <path class="cls-23" d="m352.38,968.56v23.18c0,1,5.03,1.81,11.23,1.81s11.23-.81,11.23-1.81v-23.18h-22.46Z"/>
          <ellipse class="cls-16" cx="363.61" cy="968.56" rx="11.23" ry="1.81"/>
        </g>
        <g>
          <polygon class="cls-65" points="368.03 995.19 368.03 957.52 434.79 962.49 434.79 999.22 368.03 995.19"/>
          <path class="cls-57" d="m368.15,957.65l66.51,4.95v36.48l-66.51-4.01v-37.42m-.25-.27v37.93l67.01,4.04v-36.98l-67.01-4.99h0Z"/>
        </g>
        <path class="cls-67" d="m464.93,902.28l-.17,27.95c0,.64,1,.64,1,0l.17-27.95c0-.64-1-.64-1,0h0Z"/>
        <path class="cls-67" d="m465.28,930.86c7.55,0,15.1,0,22.65,0,.64,0,.64-1,0-1-7.55,0-15.1,0-22.65,0-.64,0-.64,1,0,1h0Z"/>
        <path class="cls-67" d="m488.43,930.1v-28.21c0-.64-1-.64-1,0v28.21c0,.64,1,.64,1,0h0Z"/>
        <path class="cls-67" d="m465.15,902.65h23.97c.64,0,.64-1,0-1h-23.97c-.64,0-.64,1,0,1h0Z"/>
        <path class="cls-67" d="m465.15,906.08c7.68.01,15.36.03,23.05.04.64,0,.64-1,0-1-7.68-.01-15.36-.03-23.05-.04-.64,0-.64,1,0,1h0Z"/>
        <path class="cls-67" d="m478.17,905.46c-.05,4.02-.04,8.04.04,12.05.01.64,1.01.64,1,0-.08-4.02-.09-8.04-.04-12.05,0-.64-.99-.64-1,0h0Z"/>
        <path class="cls-67" d="m478.66,917.88h9.14c.64,0,.64-1,0-1h-9.14c-.64,0-.64,1,0,1h0Z"/>
        <path class="cls-67" d="m467.03,907.45v2.78c0,.26.23.51.5.5s.5-.22.5-.5v-2.78c0-.26-.23-.51-.5-.5s-.5.22-.5.5h0Z"/>
        <path class="cls-67" d="m467.8,910.73h9.01c.64,0,.64-1,0-1h-9.01c-.64,0-.64,1,0,1h0Z"/>
        <path class="cls-67" d="m477.16,910.23c.06-.8.04-1.6-.06-2.39-.02-.14-.04-.25-.15-.35-.09-.09-.23-.15-.35-.15-.24.01-.54.22-.5.5.11.79.13,1.59.06,2.39-.02.26.25.51.5.5.29-.01.48-.22.5-.5h0Z"/>
        <path class="cls-67" d="m476.54,907.21h-9.01c-.64,0-.64,1,0,1h9.01c.64,0,.64-1,0-1h0Z"/>
        <path class="cls-67" d="m467.43,912.22v5.17c0,.64,1,.64,1,0v-5.17c0-.64-1-.64-1,0h0Z"/>
        <path class="cls-67" d="m468.06,918.01h8.34c.64,0,.64-1,0-1h-8.34c-.64,0-.64,1,0,1h0Z"/>
        <path class="cls-67" d="m477.04,917.38v-5.56c0-.64-1-.64-1,0v5.56c0,.64,1,.64,1,0h0Z"/>
        <path class="cls-67" d="m467.67,912.45h9.01c.64,0,.64-1,0-1h-9.01c-.64,0-.64,1,0,1h0Z"/>
        <path class="cls-67" d="m465.68,921.06c7.51,0,15.01,0,22.52,0,.64,0,.64-1,0-1-7.51,0-15.01,0-22.52,0-.64,0-.64,1,0,1h0Z"/>
        <path class="cls-67" d="m472.33,920.83v9.27c0,.64,1,.64,1,0v-9.27c0-.64-1-.64-1,0h0Z"/>
        <path class="cls-67" d="m478.43,920.83v9.4c0,.64,1,.64,1,0v-9.4c0-.64-1-.64-1,0h0Z"/>
        <path class="cls-67" d="m482.5,928.88h2.25c.26,0,.51-.23.5-.5s-.22-.5-.5-.5h-2.25c-.26,0-.51.23-.5.5s.22.5.5.5h0Z"/>
        <path class="cls-67" d="m484.56,913.35c.54-.88,1.2-1.66,1.96-2.35.37-.33.76-.63,1.17-.9.25-.16,1.29-.96,1.59-.7.08.07.11.42.13.52.05.3.1.6.15.9.1.53.21,1.05.34,1.57.24.97.46,2.19,1.06,3.01,1.16,1.58,3.3.48,4.67-.14,2.18-.99,4.34-2.03,6.47-3.11.57-.29.07-1.15-.5-.86-2.21,1.12-4.43,2.19-6.69,3.21-.77.35-2.02,1.07-2.86.57-.47-.28-.59-.92-.75-1.4-.19-.58-.35-1.17-.49-1.77s-.27-1.19-.37-1.8c-.07-.41-.09-.85-.31-1.22-.49-.87-1.4-.54-2.1-.17-1.79.96-3.28,2.4-4.35,4.12-.34.55.52,1.05.86.5h0Z"/>
        <path class="cls-67" d="m483.29,908.91l.09,2.18.05,1.05c.01.34-.01.72.07,1.06.1.41.49.61.9.53.28-.06.53-.17.81-.2.59-.07,1.21.02,1.75.28.24.11.54.07.68-.18.13-.22.07-.57-.18-.68-.54-.26-1.12-.41-1.72-.43-.3-.01-.6.02-.89.07-.13.02-.25.05-.37.08-.11.03-.24.1-.35.09l.25.07c.18.08.05.23.08.11.02-.08,0-.18-.01-.26l-.02-.52-.05-1.09-.09-2.14c-.03-.64-1.03-.64-1,0h0Z"/>
        <path class="cls-67" d="m501.87,909.04v5.17c0,.64,1,.64,1,0v-5.17c0-.64-1-.64-1,0h0Z"/>
        <path class="cls-67" d="m502.37,914.7h21.46c.64,0,.64-1,0-1h-21.46c-.64,0-.64,1,0,1h0Z"/>
        <path class="cls-67" d="m524.85,914.07v-3.97c0-.64-1-.64-1,0v3.97c0,.64,1,.64,1,0h0Z"/>
        <path class="cls-67" d="m502.64,909.59c3.66,0,7.33,0,10.99,0h5.49c.87,0,1.75,0,2.62,0h1.37c.25,0,.5,0,.75,0h.25c.27.08.35-.07.24-.44l.39.05-.09-.04c-.57-.29-1.08.58-.5.86s1.24-.23,1.01-.87c-.27-.76-1.43-.56-2.04-.56-2.29,0-4.58,0-6.87,0-4.54,0-9.07,0-13.61-.01-.64,0-.64,1,0,1h0Z"/>
        <path class="cls-67" d="m526.87,910.7c.43.07.84.04,1.28-.04.34-.07.68-.18,1.03-.19.48-.02,1.03.13.96.71-.08.62-.56,1.09-.92,1.56-.49.63-.86,1.31-.7,2.13.05.27.37.42.62.35.28-.08.4-.35.35-.62-.13-.66.56-1.28.92-1.75.46-.59.86-1.36.7-2.13s-.9-1.19-1.65-1.25c-.38-.03-.77.05-1.15.13s-.78.2-1.16.14c-.27-.04-.54.07-.62.35-.07.24.08.57.35.62h0Z"/>
        <path class="cls-67" d="m529.12,917.22c.64,0,.64-1,0-1s-.64,1,0,1h0Z"/>
        <path class="cls-67" d="m509.95,918.97v10.99c0,.64,1,.64,1,0v-10.99c0-.64-1-.64-1,0h0Z"/>
        <path class="cls-67" d="m510.45,918.76c4.24.07,8.48.08,12.72.04.64,0,.64-1.01,0-1-4.24.05-8.48.04-12.72-.04-.64-.01-.64.99,0,1h0Z"/>
        <path class="cls-67" d="m522.53,918.31v12.05c0,.64,1,.64,1,0v-12.05c0-.64-1-.64-1,0h0Z"/>
        <path class="cls-67" d="m510.32,931.3l12.45-.18c.64,0,.64-1.01,0-1l-12.45.18c-.64,0-.64,1.01,0,1h0Z"/>
        <path class="cls-67" d="m513.1,922.37c.06-.02.11-.03.17-.05,0,0,.08-.02.02,0-.06.01.03,0,.04,0,.05,0,.1,0,.15,0,.03,0,.06,0,.09,0,.1,0-.04-.01.02,0,.11.03.21.05.31.09-.09-.03.03.02.06.03.06.03.11.07.17.1-.08-.05.03.02.05.04.04.03.07.07.11.11.06.07.02.02,0,0,.02.02.03.05.05.07.03.05.06.1.09.15.04.09,0,.02,0,0,0,.03.02.06.03.08.02.05.03.1.04.15,0,.02.01.11,0,.04,0-.06,0,.01,0,.02,0,.07,0,.13,0,.2,0,.01,0,.11,0,.04,0-.06,0,.01,0,.02-.01.06-.02.12-.04.17,0,.03-.02.06-.03.08,0,0-.03.08,0,.02.02-.06-.01.03-.02.04-.02.03-.03.07-.05.1-.02.03-.03.05-.05.07,0,0-.05.06-.01.02.04-.05-.02.02-.03.03-.02.02-.04.04-.06.06-.02.02-.03.03-.05.05.06-.05,0,0-.02,0,.02,0,.05-.01.07-.02h.04s-.06,0-.03,0c.05.02-.11-.08-.04-.02-.05-.04-.09-.09-.14-.14.05.06-.04-.06-.05-.08-.04-.06-.08-.12-.11-.19-.03-.05-.05-.1-.08-.15-.01-.02-.02-.04-.03-.07.03.07,0,0,0-.02-.05-.12-.09-.25-.12-.37-.02-.07-.03-.14-.04-.22,0-.06,0,0,0,.01,0-.04,0-.08-.01-.12-.01-.14-.01-.28,0-.42,0-.03,0-.06,0-.1.01-.15-.01.05,0-.04.01-.07.03-.14.04-.22.03-.14.08-.28.14-.42.1-.24-.11-.56-.35-.62-.29-.07-.51.09-.62.35-.27.64-.3,1.37-.14,2.04s.54,1.46,1.21,1.71c.79.3,1.43-.62,1.56-1.29s-.03-1.38-.52-1.87c-.53-.53-1.37-.76-2.09-.52-.25.08-.43.35-.35.62.08.25.35.43.62.35h0Z"/>
        <path class="cls-67" d="m513.63,922.16c-2.12-.1-4.16.46-6.17,1.05s-4.06,1.12-6.16,1.46c-4.33.71-8.73.83-13.11.95l.35.85c1.19-.97,2.39-1.94,3.58-2.91.5-.41-.21-1.11-.71-.71-1.19.97-2.39,1.94-3.58,2.91-.34.28-.06.87.35.85,4.31-.12,8.64-.26,12.91-.91,2.1-.32,4.15-.8,6.18-1.4s4.16-1.25,6.34-1.15c.64.03.64-.97,0-1h0Z"/>
        <path class="cls-67" d="m488.21,925.45c1.32,1.15,2.54,2.41,3.64,3.78.17.21.53.18.71,0,.21-.21.17-.5,0-.71-1.1-1.36-2.32-2.63-3.64-3.78-.2-.18-.51-.2-.71,0-.18.18-.2.53,0,.71h0Z"/>
        <path class="cls-67" d="m517.26,922.62c1.03-1.97,1.86-4.05,1.51-6.31s-1.59-4.09-2.79-5.88c-.24-.36-.78-.31-.91.12-.32,1.06-.78,2.05-1.39,2.98-.35.54.52,1.04.86.5.65-1,1.14-2.08,1.49-3.22l-.91.12c1.09,1.62,2.22,3.32,2.62,5.26.43,2.1-.39,4.09-1.34,5.92-.3.57.57,1.08.86.5h0Z"/>
        <path class="cls-67" d="m515.48,911.14c1.24-.07,2.48-.02,3.71.14.27.04.5-.25.5-.5,0-.3-.23-.46-.5-.5-1.23-.16-2.47-.21-3.71-.14-.27.01-.5.22-.5.5,0,.26.23.51.5.5h0Z"/>
        <g>
          <polygon class="cls-29" points="656.68 977.21 656.68 944.62 828.06 946.34 828.06 980.97 861.52 973.72 861.52 938.68 697.37 938.68 650.67 942.31 650.67 976.94 656.68 977.21"/>
          <rect class="cls-29" x="821.44" y="946.27" width="6.62" height="34.7"/>
          <polygon class="cls-34" points="656.68 977.21 701.2 968.48 701.2 945.07 656.68 944.62 656.68 977.21"/>
          <polygon class="cls-34" points="656.68 944.62 656.68 948.71 821.44 950.08 821.44 946.27 656.68 944.62"/>
        </g>
        <path class="cls-31" d="m790.02,941l22.04,3.16c2.1.3,4.23-.12,6.12-1.2l3.33-1.91c.09-.05.07-.21-.04-.22l-17.83-1.49s-.01,0-.02,0l-13.6,1.42c-.12.01-.12.22,0,.23Z"/>
        <rect class="cls-31" x="805.6" y="928.79" width="4.32" height="12.94"/>
        <g>
          <g>
            <path class="cls-66" d="m832.04,902.78l.51.79c.31.49.48,1.07.48,1.67v25c0,.62-.18,1.21-.51,1.72l-.47.71v-29.88Z"/>
            <path class="cls-79" d="m832.16,903.2l.28.43c.3.47.46,1.03.46,1.6v25c0,.6-.17,1.17-.49,1.65l-.24.36v-29.04m-.25-.86v30.72l.7-1.05c.35-.52.54-1.15.54-1.79v-25c0-.62-.17-1.22-.5-1.73l-.74-1.15h0Z"/>
          </g>
          <g>
            <path class="cls-66" d="m829.54,934.01l-47.05-2.67c-1.46-.08-2.6-1.47-2.6-3.17v-23.61c0-1.75,1.22-3.17,2.73-3.17h47.05c1.5,0,2.73,1.42,2.73,3.17v26.28c0,.85-.29,1.65-.81,2.25-.52.59-1.2.92-1.92.92h-.13Z"/>
            <path class="cls-79" d="m829.68,901.51c1.44,0,2.6,1.37,2.6,3.05v26.28c0,1.68-1.17,3.05-2.6,3.05-.04,0-.09,0-.13,0l-47.05-2.67c-1.39-.08-2.48-1.42-2.48-3.04v-23.61c0-1.68,1.17-3.05,2.6-3.05h47.05m0-.25h-47.05c-1.58,0-2.85,1.48-2.85,3.3v23.61c0,1.76,1.19,3.21,2.71,3.29l47.05,2.67s.1,0,.14,0c1.57,0,2.85-1.47,2.85-3.3v-26.28c0-1.82-1.28-3.3-2.85-3.3h0Z"/>
          </g>
          <path class="cls-45" d="m782.15,925.55v-18.24c0-1.82,1.28-3.3,2.85-3.3h42.29c1.58,0,2.85,1.48,2.85,3.3v20.64c0,1.88-1.36,3.39-2.99,3.29l-42.29-2.4c-1.52-.09-2.71-1.54-2.71-3.29Z"/>
        </g>
        <g>
          <g>
            <path class="cls-66" d="m1069.28,945.55c-.33-.52-.5-1.12-.5-1.75v-26.24c0-.65.19-1.28.54-1.81l.51-.76v31.41l-.54-.85Z"/>
            <path class="cls-79" d="m1069.7,915.4v30.57l-.31-.49c-.32-.5-.49-1.08-.49-1.69v-26.24c0-.63.18-1.23.52-1.74l.28-.42m.25-.82l-.74,1.1c-.37.55-.56,1.2-.56,1.88v26.24c0,.65.18,1.28.52,1.82l.77,1.21v-32.25h0Z"/>
          </g>
          <g>
            <path class="cls-66" d="m1072.29,947.84c-1.58,0-2.87-1.5-2.87-3.34v-27.59c0-1.84,1.29-3.34,2.87-3.34h.14s46.91-.69,46.91-.69c1.52.09,2.72,1.55,2.72,3.33v27.11c0,1.84-1.29,3.34-2.87,3.34l-46.9,1.18Z"/>
            <path class="cls-79" d="m1119.33,913.01c1.46.09,2.61,1.5,2.61,3.21v27.11c0,1.77-1.23,3.21-2.75,3.21l-46.89,1.18c-1.51,0-2.75-1.44-2.75-3.21v-27.59c0-1.77,1.23-3.21,2.74-3.21.04,0,.09,0,.15,0l46.89-.7m0-.25l-46.9.7c-.05,0-.1,0-.15,0-1.64,0-2.99,1.54-2.99,3.46v27.59c0,1.91,1.34,3.46,3,3.46l46.9-1.18c1.65,0,3-1.55,3-3.46v-27.11c0-1.85-1.25-3.37-2.85-3.46h0Z"/>
          </g>
          <g>
            <path class="cls-66" d="m1074.79,944.95c-1.58,0-2.87-1.5-2.87-3.34v-21.67c0-1.84,1.29-3.34,2.87-3.34h.14s41.9-.98,41.9-.98c1.52.09,2.72,1.55,2.72,3.33v21.47c0,1.84-1.29,3.34-2.87,3.34l-41.9,1.18Z"/>
            <path class="cls-79" d="m1116.83,915.76c1.46.09,2.6,1.5,2.6,3.21v21.47c0,1.77-1.23,3.21-2.75,3.21l-41.89,1.18c-1.51,0-2.75-1.44-2.75-3.21v-21.67c0-1.77,1.23-3.21,2.74-3.21.05,0,.09,0,.16,0l41.88-.98m0-.25l-41.89.98c-.05,0-.1,0-.15,0-1.64,0-2.99,1.54-2.99,3.46v21.67c0,1.91,1.34,3.46,3,3.46l41.89-1.18c1.65,0,3-1.55,3-3.46v-21.47c0-1.85-1.25-3.37-2.85-3.46h0Z"/>
          </g>
        </g>
        <g>
          <g>
            <path class="cls-66" d="m1151.84,930.7l.34.51c.27.41.42.89.42,1.39v20.43c0,.48-.13.95-.39,1.35l-.37.58v-24.27Z"/>
            <path class="cls-79" d="m1151.97,931.12l.11.17c.26.39.4.84.4,1.32v20.43c0,.46-.13.9-.37,1.28l-.14.22v-23.43m-.25-.82v25.11l.6-.94c.27-.42.41-.91.41-1.42v-20.43c0-.52-.15-1.04-.44-1.46l-.57-.86h0Z"/>
          </g>
          <g>
            <path class="cls-66" d="m1113.38,955.25c-1.22,0-2.21-1.15-2.21-2.57v-21.11c0-1.37.92-2.5,2.1-2.57l36.5.54h.12c1.22,0,2.21,1.15,2.21,2.57v21.48c0,1.42-.99,2.57-2.21,2.57l-36.51-.92Z"/>
            <path class="cls-79" d="m1113.27,929.13l36.52.54s.07,0,.1,0c1.15,0,2.08,1.1,2.08,2.45v21.48c0,1.35-.93,2.45-2.08,2.45l-36.52-.92c-1.15,0-2.08-1.1-2.08-2.45v-21.11c0-1.3.87-2.37,1.97-2.44m0-.25c-1.24.07-2.22,1.26-2.22,2.69v21.11c0,1.49,1.04,2.7,2.33,2.7l36.51.92c1.29,0,2.33-1.21,2.33-2.7v-21.48c0-1.5-1.05-2.7-2.33-2.7-.04,0-.08,0-.12,0l-36.51-.54h0Z"/>
          </g>
          <g>
            <path class="cls-66" d="m1115.33,953c-1.22,0-2.21-1.15-2.21-2.57v-16.72c0-1.37.92-2.5,2.1-2.57l32.61.76h.12c1.22,0,2.21,1.15,2.21,2.57v16.87c0,1.42-.99,2.57-2.21,2.57l-32.62-.92Z"/>
            <path class="cls-79" d="m1115.21,931.27l32.63.76s.07,0,.1,0c1.15,0,2.08,1.1,2.08,2.45v16.87c0,1.35-.93,2.45-2.08,2.45l-32.63-.92c-1.15,0-2.08-1.1-2.08-2.45v-16.72c0-1.3.87-2.37,1.97-2.44m0-.25c-1.24.07-2.22,1.26-2.22,2.69v16.72c0,1.49,1.04,2.7,2.33,2.7l32.62.92c1.29,0,2.33-1.21,2.33-2.7v-16.87c0-1.5-1.05-2.7-2.33-2.7-.04,0-.08,0-.12,0l-32.62-.76h0Z"/>
          </g>
        </g>
        <polygon class="cls-31" points="707.45 942.98 734.77 941.98 723.82 940.02 707.45 940.61 707.45 942.98"/>
        <polygon class="cls-31" points="707.45 939.98 707.45 924.46 723.85 924.46 723.85 939.49 707.45 939.98"/>
        <rect class="cls-27" x="734.77" y="914.27" width="12.41" height="17.15" rx=".79" ry=".79"/>
        <ellipse class="cls-27" cx="741.39" cy="915.93" rx=".42" ry=".48"/>
        <rect class="cls-27" x="749.89" y="914.27" width="12.41" height="17.15" rx=".79" ry=".79"/>
        <ellipse class="cls-27" cx="756.51" cy="915.93" rx=".42" ry=".48"/>
        <rect class="cls-27" x="720.61" y="909.96" width="7.32" height="10.12" rx=".47" ry=".47"/>
        <rect class="cls-27" x="728.59" y="909.96" width="3.66" height="5.06" rx=".23" ry=".23"/>
        <rect class="cls-27" x="728.59" y="915.93" width="3.66" height="5.06" rx=".23" ry=".23"/>
        <rect class="cls-27" x="728.59" y="921.93" width="3.66" height="5.06" rx=".23" ry=".23"/>
        <rect class="cls-27" x="710.9" y="909.96" width="3.66" height="5.06" rx=".23" ry=".23"/>
        <ellipse class="cls-27" cx="724.52" cy="910.94" rx=".25" ry=".28"/>
        <g>
          <path class="cls-59" d="m977.17,969.54l-14.61-57.79c-.8-3.16-3.64-5.37-6.9-5.37h-46.57c-4.45,0-7.81,4.04-6.99,8.42l14.74,78.96c.85,4.55,5.74,7.09,9.95,5.17l46.44-21.18c3.13-1.43,4.79-4.88,3.95-8.22Z"/>
          <rect class="cls-59" x="900.38" y="952.7" width="2.84" height="70.12" rx="1.42" ry="1.42" transform="translate(323.32 -218.17) rotate(16.77)"/>
          <rect class="cls-59" x="923.39" y="970.57" width="2.84" height="70.12" rx="1.42" ry="1.42" transform="translate(-411.12 719.51) rotate(-35.31)"/>
          <rect class="cls-59" x="955.11" y="952.7" width="2.84" height="70.12" rx="1.42" ry="1.42" transform="translate(-394.96 734.56) rotate(-35.31)"/>
          <rect class="cls-59" x="918.07" y="940.08" width="2.84" height="70.12" rx="1.42" ry="1.42" transform="translate(320.43 -223.81) rotate(16.77)"/>
          <path class="cls-39" d="m979.14,967.17l-14.61-57.79c-.8-3.16-3.64-5.37-6.9-5.37h-46.57c-4.45,0-7.81,4.04-6.99,8.42l14.74,78.96c.85,4.55,5.74,7.09,9.95,5.17l46.44-21.18c3.13-1.43,4.79-4.88,3.95-8.22Z"/>
          <polygon class="cls-45" points="919.49 937.72 925.92 977.02 958.89 966.8 951.17 935.79 919.49 937.72"/>
          <path class="cls-51" d="m936.08,962.69c3.04.28,6.11-.73,8.41-2.74.24-.21-.11-.56-.35-.35-2.2,1.93-5.14,2.86-8.05,2.6-.32-.03-.32.47,0,.5h0Z"/>
          <path class="cls-51" d="m930.3,956.09c1.31.07,2.64-.1,3.88-.52.46-.15.26-.88-.2-.72-1.19.4-2.43.56-3.68.49-.48-.03-.48.72,0,.75h0Z"/>
          <path class="cls-51" d="m929.81,955.47c.37,2.01.8,4.01,1.31,5.98.25.97.52,1.93.8,2.89.25.85.47,1.76.84,2.57.6,1.32,2.22,1.96,3.56,2.25s2.82.25,4.17-.11c1.58-.43,3.02-1.3,4.1-2.53.32-.36-.21-.89-.53-.53-2.27,2.6-6.34,3.44-9.41,1.77-.44-.24-.85-.52-1.12-.96s-.39-1.01-.54-1.5c-.33-1.07-.65-2.15-.94-3.23-.6-2.24-1.11-4.51-1.53-6.8-.09-.47-.81-.27-.72.2h0Z"/>
          <path class="cls-51" d="m944.63,966.33c-.15-1.64-.41-3.28-.79-4.88-.07-.31-.56-.18-.48.13.37,1.56.62,3.15.77,4.75.03.32.53.32.5,0h0Z"/>
          <path class="cls-51" d="m929.73,952.96l-.32-3.67c-.05-.56-.16-1.16-.14-1.72.02-.52.7-.9,1.1-1.15.85-.53,1.92-.93,2.94-.92,1.2.02,1.56,1.67,1.61,2.63.02.32.52.32.5,0-.03-.62-.16-1.22-.41-1.79-.22-.5-.5-1.03-1.04-1.23s-1.18-.1-1.73.02c-.58.12-1.15.33-1.68.6s-1.03.6-1.44,1.01c-.47.47-.34,1.02-.29,1.63l.4,4.59c.03.32.53.32.5,0h0Z"/>
          <path class="cls-51" d="m930.2,944.81c0-.48,0-.96,0-1.44v-.04s0,.03,0-.02c-.02.03-.01.02,0-.02,0,.01,0,.02-.02.02.05-.04.1-.05.17-.08.23-.09.45-.18.68-.27s.44-.18.65-.27c.1-.04.21-.09.31-.13.03-.01.06-.02.09-.03.09-.02.05-.03-.1-.04-.04-.02-.07-.05-.08-.08-.01-.03-.01-.02,0,.02,0-.04,0-.04,0,0,0,.03,0,.06,0,.08,0,.05,0,.1,0,.16,0,.12,0,.24,0,.36,0,.24,0,.48,0,.73,0,.2.17.38.38.38s.38-.17.38-.38c0-.44.02-.89,0-1.33,0-.23-.08-.46-.29-.58-.24-.14-.48-.04-.71.06-.42.17-.84.34-1.26.51-.2.08-.44.15-.62.27-.22.15-.32.36-.34.62-.02.24,0,.48,0,.71v.78c0,.2.18.38.38.38s.38-.17.38-.38h0Z"/>
          <path class="cls-51" d="m946.21,959.14c.8-.21,1.6-.43,2.4-.64.53-.14,1.45-.4,1.83.16s-.95,1.1-1.31,1.26c-.63.28-1.4.56-2.11.48-.34-.04-.67-.19-.84-.5-.16-.29-.18-.65-.03-.95s-.29-.54-.43-.25c-.35.69-.13,1.59.56,1.99.77.44,1.78.17,2.56-.11.47-.17.93-.38,1.36-.64.32-.19.67-.44.78-.82.11-.4-.09-.78-.41-1.01-.34-.24-.77-.3-1.18-.26-.51.05-1.01.21-1.5.34l-1.81.49c-.31.08-.18.57.13.48h0Z"/>
          <path class="cls-51" d="m945.65,960.07c-.05,1.02.38,1.95.88,2.81.47.8.92,1.55,1.92,1.65.87.09,1.85.04,2.49-.63.54-.57.77-1.37.94-2.12l-.36.28c1.71.15,3.07-1.93,2.49-3.48-.26-.7-.99-1.2-1.75-1.07-.87.14-1.21,1.03-1.21,1.81,0,.48.75.48.75,0s.16-1.13.76-1.08c.52.05.82.54.84,1.02.05,1.02-.79,2.14-1.87,2.05-.16-.01-.33.13-.36.28-.13.56-.27,1.16-.62,1.64-.46.62-1.24.63-1.96.57-.81-.06-1.14-.83-1.5-1.47-.4-.7-.72-1.44-.68-2.26.02-.48-.73-.48-.75,0h0Z"/>
          <path class="cls-51" d="m929.44,952.5c-.48-.04-1.77-.14-1.83.57-.03.37.21.83.32,1.18.14.44.27.88.41,1.31.53,1.73,1.07,3.46,1.6,5.18.14.46.87.26.72-.2-.45-1.46-.9-2.92-1.35-4.38-.23-.73-.45-1.46-.68-2.19-.05-.15-.09-.29-.14-.44-.03-.1-.06-.19-.09-.29-.03-.23-.09-.2-.18.08,0,0,.58-.09.63-.09.2-.01.39,0,.59.01.48.04.48-.71,0-.75h0Z"/>
          <path class="cls-51" d="m929.74,960.8c.3.81.75,1.55,1.34,2.19.19.21.58.21.77,0,.21-.22.21-.55,0-.77-.06-.07-.13-.14-.19-.21-.03-.03-.06-.07-.08-.1-.01-.02-.03-.03-.04-.05-.04-.06.07.09.02.03-.11-.15-.22-.31-.32-.47s-.18-.32-.27-.48c-.04-.08-.08-.16-.11-.24-.04-.09.03.09,0,.02,0-.02-.02-.04-.03-.06-.02-.05-.04-.09-.05-.14-.05-.14-.12-.25-.25-.32-.12-.07-.29-.1-.42-.05-.26.08-.49.38-.38.67h0Z"/>
          <polygon class="cls-59" points="931.33 920.99 933.48 933.47 960.99 932.3 958.45 920.99 931.33 920.99"/>
          <polygon class="cls-59" points="914.74 914.46 916.06 920.99 922.38 920.12 920.8 914.46 914.74 914.46"/>
          <polygon class="cls-59" points="919.49 918.54 920.81 925.07 927.13 924.2 925.55 918.54 919.49 918.54"/>
          <polygon class="cls-59" points="962.77 946.94 964.08 953.46 970.4 952.6 968.82 946.94 962.77 946.94"/>
          <polygon class="cls-59" points="965.14 954.69 966.45 961.21 972.77 960.35 971.19 954.69 965.14 954.69"/>
          <polygon class="cls-59" points="967.58 962.44 968.9 968.96 975.22 968.1 973.64 962.44 967.58 962.44"/>
          <line class="cls-3" x1="937.25" y1="960.66" x2="932.63" y2="949.6"/>
          <line class="cls-3" x1="941.17" y1="946.49" x2="932.63" y2="949.6"/>
          <line class="cls-3" x1="944.74" y1="956.75" x2="941.17" y2="946.49"/>
          <line class="cls-3" x1="937.25" y1="960.66" x2="944.74" y2="956.75"/>
        </g>
        <g>
          <rect class="cls-65" x="1037.42" y="965.53" width="100.26" height="27.65"/>
          <path class="cls-57" d="m1137.56,965.66v27.4h-100.01v-27.4h100.01m.25-.25h-100.51v27.9h100.51v-27.9h0Z"/>
        </g>
        <g>
          <polygon class="cls-71" points="1137.94 965.5 1157.4 960.29 1157.4 982.32 1137.94 993.09 1137.94 965.5"/>
          <path class="cls-57" d="m1157.27,960.45v21.8l-19.21,10.63v-27.28l19.21-5.15m.25-.33l-19.71,5.28v27.9l19.71-10.91v-22.27h0Z"/>
        </g>
        <g>
          <polygon class="cls-42" points="1039.22 965.28 1077.73 960.25 1156.57 960.25 1137.79 965.28 1039.22 965.28"/>
          <path class="cls-78" d="m1155.62,960.38l-17.84,4.78h-96.64l36.57-4.78h77.91m1.9-.25h-79.81l-40.41,5.28h100.51l19.71-5.28h0Z"/>
        </g>
        <rect class="cls-75" x="577.09" y="998.36" width="7.83" height="7.83"/>
        <rect class="cls-75" x="230.58" y="1044" width="7.83" height="7.83"/>
        <rect class="cls-75" x="1071.38" y="1006.45" width="7.83" height="7.83"/>
        <rect class="cls-75" x="1378.97" y="1044" width="7.83" height="7.83"/>
        <polygon class="cls-59" points="1251.18 997.27 1360.52 997.27 1345.09 953.6 1276.27 953.6 1251.18 997.27"/>
        <g>
          <polygon class="cls-42" points="1251.39 994.24 1276.34 950.82 1345 950.82 1360.34 994.24 1251.39 994.24"/>
          <path class="cls-78" d="m1344.91,950.94l15.25,43.17h-108.56l24.81-43.17h68.5m.18-.25h-68.82l-25.1,43.67h109.34l-15.43-43.67h0Z"/>
        </g>
        <rect class="cls-75" x="1655.79" y="1019.45" width="7.83" height="7.83"/>
        <rect class="cls-59" x="1263.71" y="995.38" width="5.64" height="39.95" rx="2.64" ry="2.64"/>
        <rect class="cls-59" x="1345.38" y="995.38" width="5.64" height="39.95" rx="2.64" ry="2.64"/>
        <polygon class="cls-53" points="1305.85 951.89 1305.85 969.65 1319.95 948.17 1318.66 933.67 1305.85 951.89"/>
        <polygon class="cls-45" points="1337.29 947.65 1319.95 948.17 1305.85 969.65 1335.73 967.06 1337.29 947.65"/>
        <polygon class="cls-42" points="1318.66 933.67 1330.56 933.67 1337.29 947.65 1319.95 948.17 1318.66 933.67"/>
        <polygon class="cls-65" points="1298.35 967.57 1276.7 969.65 1282.28 986.43 1308.64 981.09 1298.35 967.57"/>
        <polygon class="cls-65" points="1276.7 969.65 1272.47 975.43 1278.48 991.51 1282.28 986.43 1276.7 969.65"/>
        <polygon class="cls-59" points="1308.64 981.09 1308.64 985 1278.48 991.51 1282.28 986.43 1308.64 981.09"/>
        <line class="cls-10" x1="1382.88" y1="1047.91" x2="1382.88" y2="854.5"/>
        <g>
          <path class="cls-33" d="m1278.26,945.84v13.4c0,.58,1.45,1.04,3.25,1.04s3.25-.47,3.25-1.04v-13.4h-6.49Z"/>
          <ellipse class="cls-36" cx="1281.5" cy="945.84" rx="3.25" ry="1.04"/>
        </g>
        <g>
          <path class="cls-25" d="m1290.31,946.54v8.91c0,.38,1.45.69,3.25.69s3.25-.31,3.25-.69v-8.91h-6.49Z"/>
          <ellipse class="cls-38" cx="1293.56" cy="946.54" rx="3.25" ry=".69"/>
        </g>
        <polygon class="cls-14" points="1272.47 975.43 1278.48 991.51 1308.64 985 1308.64 981.09 1298.35 967.57 1276.7 969.65 1272.47 975.43"/>
        <polygon class="cls-2" points="1305.85 951.89 1305.85 969.65 1335.73 967.06 1337.29 947.65 1330.56 933.67 1318.66 933.67 1305.85 951.89"/>
        <ellipse class="cls-45" cx="1719.57" cy="936.08" rx="3.3" ry="3.89"/>
        <line class="cls-10" x1="1075.29" y1="1007.47" x2="1075.29" y2="854.5"/>
        <g>
          <path class="cls-19" d="m1335.12,953v21.18c0,.91,2.3,1.65,5.13,1.65s5.13-.74,5.13-1.65v-21.18h-10.26Z"/>
          <ellipse class="cls-20" cx="1340.25" cy="953" rx="5.13" ry="1.65"/>
        </g>
        <g>
          <path class="cls-19" d="m1341.98,961.94v21.18c0,.91,2.3,1.65,5.13,1.65s5.13-.74,5.13-1.65v-21.18h-10.26Z"/>
          <ellipse class="cls-20" cx="1347.11" cy="961.94" rx="5.13" ry="1.65"/>
        </g>
        <circle class="cls-41" cx="1675.17" cy="932.69" r="6.81"/>
        <circle class="cls-41" cx="1645.66" cy="921.85" r="6.81"/>
        <circle class="cls-41" cx="1720.41" cy="949.33" r="6.81"/>
        <circle class="cls-41" cx="1751.78" cy="936.59" r="7.71"/>
        <circle class="cls-45" cx="1719.01" cy="921.85" r="5.22"/>
        <circle class="cls-45" cx="1765.12" cy="934.77" r="5.22"/>
        <path class="cls-41" d="m1659.71,969.91l4.7,43.6s4.09,2.2,7.08.94l7.85-42.57"/>
        <path class="cls-8" d="m1697.69,912.56v38.73c0,2.4,1.56,4.51,3.85,5.22l74.06,15.62c3.51,1.08,7.07-1.54,7.07-5.22v-46.03c0-2.76-2.06-5.09-4.81-5.42l-74.06-8.9c-3.25-.39-6.11,2.15-6.11,5.42v.59Z"/>
        <polygon class="cls-9" points="1759.49 926.05 1759.49 920.39 1774.81 922.22 1774.81 927.84 1759.49 926.05"/>
        <path class="cls-41" d="m1638.85,997.26s3.66,2.78,6.81,1.3c3.14-1.48,1.66-1.3,1.66-1.3l2.59-33.68s5,.73,6.66-1.21c1.67-1.94-8.86-32.1-8.86-32.1,0,0-5.02.74-6.87,0s-10.55,29.05-9.81,30.16,5.37,2.41,6.29,2.59c.93.19,1.52,34.23,1.52,34.23Z"/>
        <circle class="cls-41" cx="1570.06" cy="916.74" r="6.55"/>
        <path class="cls-41" d="m1563.51,989.31s3.53,2.67,6.55,1.25c3.03-1.42,1.6-1.25,1.6-1.25l2.49-32.41s4.81.71,6.41-1.16c1.6-1.87-8.53-30.89-8.53-30.89,0,0-4.83.71-6.61,0-1.78-.71-10.15,27.96-9.44,29.03s5.16,2.31,6.05,2.49,1.47,32.94,1.47,32.94Z"/>
        <path class="cls-41" d="m1714.11,1042.84s4.6,3.49,8.55,1.63c3.95-1.86,2.09-1.63,2.09-1.63l3.25-42.29s6.27.92,8.37-1.51c2.09-2.44-11.13-40.31-11.13-40.31,0,0-6.3.93-8.62,0-2.32-.93-13.25,36.48-12.32,37.88.93,1.39,6.74,3.02,7.9,3.25s1.91,42.99,1.91,42.99Z"/>
        <path class="cls-41" d="m1658.54,968.49s6.79-25.25,9.82-25.68,12.17-1.02,12.17-1.02l23.72-2.3s.47.12,4.37-1.47c3.9-1.59,9.49-3.26,9.49-3.26,0,0,1.25,1.67,0,1.67s-2.55,3.06-2.55,3.06l-3.8-.64-7.9,3.4-14.59,3.06s-8.24,2.13-8.47,6.31c-.23,4.18,0,19.29,0,19.29,0,0-12.93,10.03-22.26-2.42Z"/>
        <path class="cls-41" d="m1768.71,944.51l-1.38-7.55-2.83-.13v-1.07h-1.01s.49,3.94,2.47,6.85c1.97,2.9,0,14.4,0,14.4l-7.29-6.07c-.12-.1-.26-.16-.39-.2-.9-.8-1.96-1.41-3.16-1.77l-9.21-2.8c-1.2-.36-2.3-1.01-3.21-1.88l-11.97-11.51-7.13-6.9-2.61-1.76-.58,1.1,1.27,1.39-1.27,2.01,1.99,2.57,3.21.48s18.97,20.02,18.46,25.37c-.5,5.35-2.05,22.29-2.05,22.29,0,0,.67.82,2.05,1.82v37.78s2.44,5.44,14.25,1.99l3.27-37.04c.81-.18,1.65-.4,2.52-.67l-2.72-24.09,3.45,4.94s3.87-.23,5.14-1.5c1.27-1.27-1.27-18.03-1.27-18.03Z"/>
        <path class="cls-8" d="m1767.15,933.66s-.39-9.66-15.37-11.07-31.37-.74-31.37-.74"/>
        <g>
          <polygon class="cls-42" points="369.41 957.37 441.56 950.71 513.52 953.09 434.91 962.24 369.41 957.37"/>
          <path class="cls-78" d="m441.56,950.83l70.29,2.32-76.92,8.96-64.02-4.77,70.65-6.52m0-.25l-73.65,6.8,67.01,4.99,80.29-9.35-73.65-2.43h0Z"/>
        </g>
      </g>
      <rect class="cls-7" x="32.16" y="771.89" width="1856" height="338.67" rx="22.97" ry="22.97"/>
    </g>
  </g>
</svg>