<?xml version="1.0" encoding="UTF-8"?>
<svg id="Layer_2" data-name="Layer 2" xmlns="http://www.w3.org/2000/svg" viewBox="0 0 38.26 43.48">
  <defs>
    <style>
      .cls-1 {
        stroke-linecap: round;
        stroke-linejoin: round;
        stroke-width: .24px;
      }

      .cls-1, .cls-2 {
        fill: none;
        stroke: #000;
      }

      .cls-2 {
        stroke-miterlimit: 10;
        stroke-width: 1.2px;
      }
    </style>
  </defs>
  <g id="home">
    <path class="cls-2" d="m1.56,24.92L33.89,1.07c1.62-1.19,3.89.05,3.76,2.06l-2.45,37.54c-.12,1.8-2.12,2.81-3.63,1.84l-9.45-6.05c-.92-.59-2.12-.47-2.91.28l-1.87,1.79c-1.09,1.05-2.88.81-3.66-.49l-3.15-5.24c-.27-.45-.68-.8-1.18-.99l-7.24-2.79c-1.74-.67-2.06-3-.55-4.11Z"/>
    <path class="cls-1" d="m10.11,32.11L34.65,3.09c.21-.25.6,0,.47.29l-14.51,32.7"/>
  </g>
</svg>