<?xml version="1.0" encoding="UTF-8"?>
<svg id="Layer_2" data-name="Layer 2" xmlns="http://www.w3.org/2000/svg" xmlns:xlink="http://www.w3.org/1999/xlink" viewBox="0 0 1118 601.29">
  <defs>
    <style>
      .cls-1 {
        fill: url(#linear-gradient);
      }

      .cls-2 {
        stroke-width: 3.94px;
      }

      .cls-2, .cls-3, .cls-4, .cls-5 {
        fill: none;
        stroke-miterlimit: 10;
      }

      .cls-2, .cls-5 {
        stroke: #f46708;
      }

      .cls-6 {
        fill: #f46708;
      }

      .cls-7 {
        fill: #03b2ff;
      }

      .cls-8 {
        fill: #00c3ff;
      }

      .cls-9 {
        fill: #006ee5;
      }

      .cls-10 {
        fill: #6995b1;
      }

      .cls-11 {
        fill: blue;
      }

      .cls-12 {
        fill: #ed544c;
      }

      .cls-13 {
        fill: #fee;
      }

      .cls-14 {
        fill: #f5bc48;
      }

      .cls-15 {
        fill: #ffda00;
      }

      .cls-16 {
        fill: #f38b43;
      }

      .cls-17 {
        fill: #ff0351;
      }

      .cls-18 {
        fill: #ffb808;
      }

      .cls-19 {
        fill: #31587c;
      }

      .cls-20 {
        fill: #aac5d2;
      }

      .cls-21 {
        fill: #c74135;
      }

      .cls-22 {
        fill: #dbdbdb;
      }

      .cls-23 {
        fill: #da9346;
      }

      .cls-24 {
        fill: #6d7f53;
      }

      .cls-25 {
        fill: #457395;
      }

      .cls-3 {
        stroke-width: .91px;
      }

      .cls-3, .cls-4 {
        stroke: #f2f2f2;
      }

      .cls-4 {
        stroke-width: .68px;
      }

      .cls-26 {
        fill: url(#linear-gradient-2);
        opacity: .59;
      }

      .cls-5 {
        stroke-width: 2.72px;
      }
    </style>
    <linearGradient id="linear-gradient" x1="-562" y1="300.65" x2="556" y2="300.65" gradientTransform="translate(556) rotate(-180) scale(1 -1)" gradientUnits="userSpaceOnUse">
      <stop offset="0" stop-color="#fff"/>
      <stop offset=".79" stop-color="#ff7f19"/>
    </linearGradient>
    <linearGradient id="linear-gradient-2" x1="-187.93" y1="530.75" x2="109.8" y2="530.75" gradientTransform="translate(556) rotate(-180) scale(1 -1)" gradientUnits="userSpaceOnUse">
      <stop offset="0" stop-color="#fff"/>
      <stop offset="0" stop-color="#ff7f19"/>
    </linearGradient>
  </defs>
  <g id="Layer_1-2" data-name="Layer 1">
    <g>
      <path class="cls-1" d="M613.14,497.14c65.44-6.59,120.59-49.53,120.75-115.3l.38-125.35-.12-50.53c-.1-43.37,27.32-82.02,68.28-96.26L1118,0V298.73s0,103.91,0,103.91c0,103.54-83.93,187.47-187.47,187.47l-519.2,11.18h0C152.19,601.29,0,593.97,0,563.79c0-56.08,291.2-34.22,613.14-66.65Z"/>
      <ellipse class="cls-26" cx="595.06" cy="530.75" rx="148.86" ry="8.25"/>
      <g>
        <rect class="cls-9" x="499.02" y="232.54" width="191.33" height="5.47" transform="translate(1189.37 470.55) rotate(-180)"/>
        <rect class="cls-9" x="499.02" y="397.57" width="191.33" height="5.47" transform="translate(1189.37 800.6) rotate(-180)"/>
        <g>
          <path class="cls-14" d="M655.93,231.74v-38.96c0-.51-.31-.97-.78-1.16l-1.66-.69v.42h-3.32s-.82-.42-.82-.42h-.54s1.5,.92,1.5,.92c.47,.29,.75,.8,.74,1.34l-.66,38.26c-.01,.65,.51,1.18,1.16,1.18h3.49c.5,0,.9-.4,.9-.9Z"/>
          <path class="cls-23" d="M650.04,231.87l.59-38.69c0-.65-.31-1.26-.86-1.61l-.96-.63h-1.11s1.16,.84,1.16,.84c.04,.03,.02,.1-.03,.1h-1.17s-2.87,0-2.87,0l-1.2-.94h-.49s1.31,1.16,1.31,1.16l-.24,39.62c0,.51,.41,.93,.92,.93h4.16c.43,0,.78-.35,.79-.78Z"/>
          <path class="cls-21" d="M643.98,231.56l.2-39.47c0-.07-.03-.13-.07-.17l-.95-.91s-.1-.07-.16-.07h-.03c-.21,0-.32,.25-.17,.4l.13,.14c.14,.15,.04,.4-.17,.4h-3.86c-.06,0-.11-.02-.15-.05l-1-.83s-.1-.05-.15-.05h0c-.13,0-.24,.11-.24,.24v.08c0,.07,.03,.13,.08,.18l.92,.82c.05,.05,.08,.11,.08,.18v39c0,.68,.55,1.22,1.22,1.22h3.24c.6,0,1.09-.49,1.09-1.09Z"/>
          <path class="cls-24" d="M638.05,231.72l.04-39.41c0-.06-.03-.13-.07-.17l-1.19-1.09s-.1-.06-.16-.06h-.08c-.13,0-.23,.1-.23,.23h0c0,.13-.1,.23-.23,.23h-3.56c-.13,0-.23,.1-.23,.23v40.73c0,.13,.1,.23,.23,.23h4.56c.51,0,.93-.42,.93-.93Z"/>
          <path class="cls-12" d="M631.43,232.65h-4.68c-.15,0-.28-.12-.28-.28v-41.44c0-.15,.12-.28,.28-.28h3.2c.15,0,.28-.12,.28-.28h0c0-.15,.12-.28,.28-.28h.32s.08,0,.12,.03l1.23,.6c.1,.05,.16,.14,.16,.25l-.09,40.86c0,.45-.36,.81-.81,.81Z"/>
          <path class="cls-21" d="M625.55,232.65h-4.68c-.15,0-.28-.12-.28-.28v-41.44c0-.15,.12-.28,.28-.28h3.2c.15,0,.28-.12,.28-.28h0c0-.15,.12-.28,.28-.28h.32s.08,0,.12,.03l1.23,.6c.1,.05,.16,.14,.16,.25l-.09,40.86c0,.45-.36,.81-.81,.81Z"/>
          <path class="cls-21" d="M619.68,232.65h-4.68c-.15,0-.28-.12-.28-.28v-41.44c0-.15,.12-.28,.28-.28h3.2c.15,0,.28-.12,.28-.28h0c0-.15,.12-.28,.28-.28h.32s.08,0,.12,.03l1.23,.6c.1,.05,.16,.14,.16,.25l-.09,40.86c0,.45-.36,.81-.81,.81Z"/>
          <polygon class="cls-16" points="599.32 229.65 599.54 231.54 604.65 232.65 614.62 193.65 613.72 192.43 613.28 192.1 613.05 192.65 608.87 192.1 608.51 191.54 599.32 229.65"/>
        </g>
        <g>
          <g>
            <path class="cls-14" d="M579.4,396.99v-38.96c0-.51-.31-.97-.78-1.16l-1.66-.69v.42h-3.32s-.82-.42-.82-.42h-.54s1.5,.92,1.5,.92c.47,.29,.75,.8,.74,1.34l-.66,38.26c-.01,.65,.51,1.18,1.16,1.18h3.49c.5,0,.9-.4,.9-.9Z"/>
            <path class="cls-23" d="M573.5,397.11l.59-38.69c0-.65-.31-1.26-.86-1.61l-.96-.63h-1.11s1.16,.84,1.16,.84c.04,.03,.02,.1-.03,.1h-1.17s-2.87,0-2.87,0l-1.2-.94h-.49s1.31,1.16,1.31,1.16l-.24,39.62c0,.51,.41,.93,.92,.93h4.16c.43,0,.78-.35,.79-.78Z"/>
            <path class="cls-21" d="M567.45,396.8l.2-39.47c0-.07-.03-.13-.07-.17l-.95-.91s-.1-.07-.16-.07h-.03c-.21,0-.32,.25-.17,.4l.13,.14c.14,.15,.04,.4-.17,.4h-3.86c-.06,0-.11-.02-.15-.05l-1-.83s-.1-.05-.15-.05h0c-.13,0-.24,.11-.24,.24v.08c0,.07,.03,.13,.08,.18l.92,.82c.05,.05,.08,.11,.08,.18v39c0,.68,.55,1.22,1.22,1.22h3.24c.6,0,1.09-.49,1.09-1.09Z"/>
            <path class="cls-24" d="M561.52,396.96l.04-39.41c0-.06-.03-.13-.07-.17l-1.19-1.09s-.1-.06-.16-.06h-.08c-.13,0-.23,.1-.23,.23h0c0,.13-.1,.23-.23,.23h-3.56c-.13,0-.23,.1-.23,.23v40.73c0,.13,.1,.23,.23,.23h4.56c.51,0,.93-.42,.93-.93Z"/>
            <path class="cls-12" d="M554.89,397.89h-4.68c-.15,0-.28-.12-.28-.28v-41.44c0-.15,.12-.28,.28-.28h3.2c.15,0,.28-.12,.28-.28h0c0-.15,.12-.28,.28-.28h.32s.08,0,.12,.03l1.23,.6c.1,.05,.16,.14,.16,.25l-.09,40.86c0,.45-.36,.81-.81,.81Z"/>
            <path class="cls-21" d="M549.02,397.89h-4.68c-.15,0-.28-.12-.28-.28v-41.44c0-.15,.12-.28,.28-.28h3.2c.15,0,.28-.12,.28-.28h0c0-.15,.12-.28,.28-.28h.32s.08,0,.12,.03l1.23,.6c.1,.05,.16,.14,.16,.25l-.09,40.86c0,.45-.36,.81-.81,.81Z"/>
            <path class="cls-21" d="M543.15,397.89h-4.68c-.15,0-.28-.12-.28-.28v-41.44c0-.15,.12-.28,.28-.28h3.2c.15,0,.28-.12,.28-.28h0c0-.15,.12-.28,.28-.28h.32s.08,0,.12,.03l1.23,.6c.1,.05,.16,.14,.16,.25l-.09,40.86c0,.45-.36,.81-.81,.81Z"/>
            <polygon class="cls-16" points="522.78 394.9 523 396.78 528.12 397.89 538.08 358.89 537.19 357.67 536.74 357.34 536.52 357.9 532.34 357.34 531.98 356.79 522.78 394.9"/>
          </g>
          <g>
            <path class="cls-9" d="M489.9,80.75V499.82c0,9.32,7.56,16.88,16.88,16.88h175.8c9.32,0,16.88-7.56,16.88-16.88V80.75c0-9.32-7.56-16.88-16.88-16.88h-175.8c-9.32,0-16.88,7.56-16.88,16.88Zm9.11,0c0-4.28,3.48-7.77,7.77-7.77h175.8c4.28,0,7.77,3.48,7.77,7.77V499.82c0,4.28-3.48,7.77-7.77,7.77h-175.8c-4.28,0-7.77-3.48-7.77-7.77V80.75Z"/>
            <path class="cls-9" d="M679.4,532.18h0c1.52,0,2.75-1.23,2.75-2.75v-9.52c0-1.78-1.44-3.22-3.22-3.22h-7.82c-1.77,0-3.04,1.7-2.54,3.39l3.86,6.87c.84,2.88,3.98,5.23,6.97,5.23Z"/>
            <path class="cls-9" d="M509.97,533.1h0c-1.52,0-2.75-1.23-2.75-2.75v-10.43c0-1.78,1.44-3.22,3.22-3.22h7.82c1.77,0,3.04,1.7,2.54,3.39l-3.86,7.78c-.84,2.88-3.98,5.23-6.97,5.23Z"/>
            <rect class="cls-9" x="499.02" y="177.53" width="191.33" height="5.47" transform="translate(1189.37 360.53) rotate(-180)"/>
            <rect class="cls-9" x="499.02" y="342.56" width="191.33" height="5.47" transform="translate(1189.37 690.58) rotate(-180)"/>
            <line class="cls-11" x1="594.68" y1="402.81" x2="594.68" y2="507.58"/>
            <g>
              <path class="cls-14" d="M640.41,176.31v-53.63c0-.7-.31-1.33-.78-1.6l-1.68-.95v.58h-3.36s-.83-.58-.83-.58h-.55s1.51,1.27,1.51,1.27c.47,.39,.75,1.1,.74,1.85l-.67,52.67c-.01,.89,.52,1.63,1.17,1.63h3.53c.5,0,.91-.56,.91-1.24Z"/>
              <path class="cls-14" d="M652.05,176.5l-5.1-40.02c-.07-.52-.43-.95-.93-1.09l-1.75-.5,.06,.44-3.33,.42-.88-.33-.54,.07,1.62,.76c.5,.23,.85,.72,.91,1.29l4.34,39.39c.07,.67,.67,1.15,1.32,1.07l3.5-.45c.5-.06,.85-.53,.78-1.04Z"/>
              <path class="cls-14" d="M658.08,176.32l-5.1-40.02c-.07-.52-.43-.95-.93-1.09l-1.75-.5,.06,.44-3.33,.42-.88-.33-.54,.07,1.62,.76c.5,.23,.85,.72,.91,1.29l4.34,39.39c.07,.67,.67,1.15,1.32,1.07l3.5-.45c.5-.06,.85-.53,.78-1.04Z"/>
              <path class="cls-14" d="M664.12,176.13l-5.1-40.02c-.07-.52-.43-.95-.93-1.09l-1.75-.5,.06,.44-3.33,.42-.88-.33-.54,.07,1.62,.76c.5,.23,.85,.72,.91,1.29l4.34,39.39c.07,.67,.67,1.15,1.32,1.07l3.5-.45c.5-.06,.85-.53,.78-1.04Z"/>
              <path class="cls-14" d="M670.16,175.94l-5.1-40.02c-.07-.52-.43-.95-.93-1.09l-1.75-.5,.06,.44-3.33,.42-.88-.33-.54,.07,1.62,.76c.5,.23,.85,.72,.91,1.29l4.34,39.39c.07,.67,.67,1.15,1.32,1.07l3.5-.45c.5-.06,.85-.53,.78-1.04Z"/>
              <path class="cls-23" d="M634.46,176.48l.59-53.26c0-.89-.32-1.73-.86-2.22l-.97-.87h-1.13s1.17,1.16,1.17,1.16c.04,.04,.02,.14-.03,.14h-1.19s-2.9,0-2.9,0l-1.21-1.3h-.49s1.33,1.6,1.33,1.6l-.24,54.54c0,.7,.42,1.28,.93,1.28h4.2c.44,0,.79-.48,.8-1.07Z"/>
              <path class="cls-21" d="M628.34,176.05l.21-54.33c0-.09-.03-.18-.07-.24l-.96-1.26c-.04-.06-.1-.09-.17-.09h-.03c-.21,0-.32,.34-.17,.55l.13,.19c.14,.21,.04,.55-.17,.55h-3.9c-.06,0-.11-.03-.15-.08l-1.01-1.14s-.1-.08-.15-.08h0c-.13,0-.24,.15-.24,.33v.11c0,.09,.03,.18,.08,.24l.92,1.13c.05,.06,.08,.15,.08,.24v53.68c0,.93,.55,1.68,1.23,1.68h3.28c.61,0,1.1-.67,1.1-1.5Z"/>
              <path class="cls-24" d="M622.35,176.27l.04-54.25c0-.09-.03-.17-.08-.23l-1.2-1.5c-.04-.05-.1-.08-.16-.08h-.09c-.13,0-.23,.14-.23,.32h0c0,.18-.1,.32-.23,.32h-3.6c-.13,0-.23,.14-.23,.32v56.07c0,.18,.1,.32,.23,.32h4.61c.52,0,.94-.57,.94-1.28Z"/>
              <path class="cls-12" d="M615.66,177.55h-4.72c-.15,0-.28-.1-.28-.23v-34.41c0-.13,.13-.23,.28-.23h3.23c.15,0,.28-.1,.28-.23h0c0-.13,.13-.23,.28-.23h.32s.08,0,.12,.02l1.24,.5c.1,.04,.16,.12,.16,.21l-.09,33.93c0,.37-.37,.67-.82,.67Z"/>
              <path class="cls-21" d="M609.73,177.55h-4.72c-.15,0-.28-.1-.28-.23v-34.41c0-.13,.13-.23,.28-.23h3.23c.15,0,.28-.1,.28-.23h0c0-.13,.13-.23,.28-.23h.32s.08,0,.12,.02l1.24,.5c.1,.04,.16,.12,.16,.21l-.09,33.93c0,.37-.37,.67-.82,.67Z"/>
              <path class="cls-21" d="M603.8,177.55h-4.72c-.15,0-.28-.1-.28-.23v-34.41c0-.13,.13-.23,.28-.23h3.23c.15,0,.28-.1,.28-.23h0c0-.13,.13-.23,.28-.23h.32s.08,0,.12,.02l1.24,.5c.1,.04,.16,.12,.16,.21l-.09,33.93c0,.37-.37,.67-.82,.67Z"/>
            </g>
            <g>
              <path class="cls-14" d="M506,342.26v-31.81c0-.42,.25-.79,.63-.95l1.35-.56v.35s2.69,0,2.69,0l.67-.35h.44s-1.21,.75-1.21,.75c-.38,.23-.6,.65-.6,1.1l.54,31.24c0,.53-.42,.97-.94,.97h-2.83c-.4,0-.73-.33-.73-.74Z"/>
              <path class="cls-23" d="M510.78,342.37l-.47-31.59c0-.53,.25-1.03,.69-1.32l.78-.51h.9s-.94,.69-.94,.69c-.03,.03-.02,.08,.03,.08h.95s2.32,0,2.32,0l.97-.77h.39l-1.07,.95,.19,32.35c0,.42-.33,.76-.75,.76h-3.37c-.35,0-.63-.28-.64-.63Z"/>
              <path class="cls-21" d="M515.68,342.11l-.16-32.23c0-.05,.02-.1,.06-.14l.77-.75s.08-.05,.13-.05h.03c.17,0,.26,.2,.14,.33l-.11,.11c-.12,.12-.03,.33,.14,.33h3.13s.09-.02,.12-.04l.81-.68s.08-.04,.12-.04h0c.11,0,.19,.09,.19,.19v.07c0,.06-.02,.11-.06,.14l-.74,.67s-.06,.09-.06,.14v15.47s0,16.37,0,16.37c0,.55-.44,1-.99,1h-2.63c-.49,0-.88-.4-.89-.89Z"/>
              <path class="cls-12" d="M521.64,343h5.35c.17,0,.32-.14,.32-.32v-47.75c0-.18-.14-.32-.32-.32h-3.66c-.17,0-.32-.14-.32-.32h0c0-.18-.14-.32-.32-.32h-.37s-.1,.01-.14,.03l-1.41,.69c-.11,.05-.18,.17-.18,.29l.11,47.08c0,.52,.42,.93,.93,.93Z"/>
              <path class="cls-21" d="M528.36,343h5.35c.17,0,.32-.14,.32-.32v-47.75c0-.18-.14-.32-.32-.32h-3.66c-.17,0-.32-.14-.32-.32h0c0-.18-.14-.32-.32-.32h-.37s-.1,.01-.14,.03l-1.41,.69c-.11,.05-.18,.17-.18,.29l.11,47.08c0,.52,.42,.93,.93,.93Z"/>
              <path class="cls-12" d="M534.91,343h5.35c.17,0,.32-.19,.32-.42v-63.31c0-.23-.14-.42-.32-.42h-3.66c-.17,0-.32-.19-.32-.42h0c0-.23-.14-.42-.32-.42h-.37s-.1,.01-.14,.04l-1.41,.91c-.11,.07-.18,.22-.18,.38l.11,62.43c0,.68,.42,1.24,.93,1.24Z"/>
              <path class="cls-12" d="M547.3,343h5.35c.17,0,.32-.17,.32-.37v-55.52c0-.2-.14-.37-.32-.37h-3.66c-.17,0-.32-.17-.32-.37h0c0-.2-.14-.37-.32-.37h-.37s-.1,.01-.14,.04l-1.41,.8c-.11,.06-.18,.19-.18,.33l.11,54.74c0,.6,.42,1.09,.93,1.09Z"/>
              <path class="cls-24" d="M554.38,343h5.35c.17,0,.32-.17,.32-.37v-55.52c0-.2-.14-.37-.32-.37h-3.66c-.17,0-.32-.17-.32-.37h0c0-.2-.14-.37-.32-.37h-.37s-.1,.01-.14,.04l-1.41,.8c-.11,.06-.18,.19-.18,.33l.11,54.74c0,.6,.42,1.09,.93,1.09Z"/>
              <path class="cls-21" d="M541.63,343h5.35c.17,0,.32-.17,.32-.37v-55.52c0-.2-.14-.37-.32-.37h-3.66c-.17,0-.32-.17-.32-.37h0c0-.2-.14-.37-.32-.37h-.37s-.1,.01-.14,.04l-1.41,.8c-.11,.06-.18,.19-.18,.33l.11,54.74c0,.6,.42,1.09,.93,1.09Z"/>
              <path class="cls-24" d="M561.1,343h5.35c.17,0,.32-.17,.32-.37v-55.52c0-.2-.14-.37-.32-.37h-3.66c-.17,0-.32-.17-.32-.37h0c0-.2-.14-.37-.32-.37h-.37s-.1,.01-.14,.04l-1.41,.8c-.11,.06-.18,.19-.18,.33l.11,54.74c0,.6,.42,1.09,.93,1.09Z"/>
              <path class="cls-21" d="M568.18,343h5.35c.17,0,.32-.11,.32-.25v-37.98c0-.14-.14-.25-.32-.25h-3.66c-.17,0-.32-.11-.32-.25h0c0-.14-.14-.25-.32-.25h-.37s-.1,0-.14,.03l-1.41,.55c-.11,.04-.18,.13-.18,.23l.11,37.46c0,.41,.42,.74,.93,.74Z"/>
              <path class="cls-21" d="M575.25,343h5.35c.17,0,.32-.11,.32-.25v-37.98c0-.14-.14-.25-.32-.25h-3.66c-.17,0-.32-.11-.32-.25h0c0-.14-.14-.25-.32-.25h-.37s-.1,0-.14,.03l-1.41,.55c-.11,.04-.18,.13-.18,.23l.11,37.46c0,.41,.42,.74,.93,.74Z"/>
              <path class="cls-21" d="M582.33,343h5.35c.17,0,.32-.11,.32-.25v-37.98c0-.14-.14-.25-.32-.25h-3.66c-.17,0-.32-.11-.32-.25h0c0-.14-.14-.25-.32-.25h-.37s-.1,0-.14,.03l-1.41,.55c-.11,.04-.18,.13-.18,.23l.11,37.46c0,.41,.42,.74,.93,.74Z"/>
            </g>
            <g>
              <path class="cls-14" d="M673.17,397.08v-27.61c0-.36-.22-.69-.55-.82l-1.18-.49v.3h-2.35s-.58-.3-.58-.3h-.38s1.06,.65,1.06,.65c.33,.2,.53,.57,.52,.95l-.47,27.11c0,.46,.36,.84,.82,.84h2.47c.35,0,.64-.29,.64-.64Z"/>
              <path class="cls-23" d="M669,397.17l.41-27.41c0-.46-.22-.89-.61-1.14l-.68-.45h-.79s.82,.6,.82,.6c.03,.02,.01,.07-.02,.07h-.83s-2.03,0-2.03,0l-.85-.67h-.34s.93,.82,.93,.82l-.17,28.07c0,.36,.29,.66,.65,.66h2.95c.31,0,.55-.25,.56-.55Z"/>
              <path class="cls-21" d="M664.71,396.95l.14-27.97s-.02-.09-.05-.12l-.67-.65s-.07-.05-.12-.05h-.02c-.15,0-.22,.18-.12,.28l.09,.1c.1,.11,.03,.28-.12,.28h-2.73s-.08-.01-.11-.04l-.71-.59s-.07-.04-.11-.04h0c-.09,0-.17,.08-.17,.17v.06s.02,.09,.06,.13l.65,.58s.06,.08,.06,.13v13.43s0,14.21,0,14.21c0,.48,.39,.87,.87,.87h2.3c.43,0,.77-.34,.77-.77Z"/>
              <path class="cls-12" d="M659.5,397.72h-4.68c-.15,0-.28-.12-.28-.28v-41.44c0-.15,.12-.28,.28-.28h3.2c.15,0,.28-.12,.28-.28h0c0-.15,.12-.28,.28-.28h.32s.08,0,.12,.03l1.23,.6c.1,.05,.16,.14,.16,.25l-.09,40.86c0,.45-.36,.81-.81,.81Z"/>
              <path class="cls-21" d="M653.63,397.72h-4.68c-.15,0-.28-.12-.28-.28v-41.44c0-.15,.12-.28,.28-.28h3.2c.15,0,.28-.12,.28-.28h0c0-.15,.12-.28,.28-.28h.32s.08,0,.12,.03l1.23,.6c.1,.05,.16,.14,.16,.25l-.09,40.86c0,.45-.36,.81-.81,.81Z"/>
              <path class="cls-12" d="M647.9,397.72h-4.68c-.15,0-.28-.12-.28-.28v-41.44c0-.15,.12-.28,.28-.28h3.2c.15,0,.28-.12,.28-.28h0c0-.15,.12-.28,.28-.28h.32s.08,0,.12,.03l1.23,.6c.1,.05,.16,.14,.16,.25l-.09,40.86c0,.45-.36,.81-.81,.81Z"/>
              <path class="cls-12" d="M637.07,397.72h-4.68c-.15,0-.28-.12-.28-.28v-41.44c0-.15,.12-.28,.28-.28h3.2c.15,0,.28-.12,.28-.28h0c0-.15,.12-.28,.28-.28h.32s.08,0,.12,.03l1.23,.6c.1,.05,.16,.14,.16,.25l-.09,40.86c0,.45-.36,.81-.81,.81Z"/>
              <path class="cls-24" d="M630.88,397.72h-4.68c-.15,0-.28-.12-.28-.28v-41.44c0-.15,.12-.28,.28-.28h3.2c.15,0,.28-.12,.28-.28h0c0-.15,.12-.28,.28-.28h.32s.08,0,.12,.03l1.23,.6c.1,.05,.16,.14,.16,.25l-.09,40.86c0,.45-.36,.81-.81,.81Z"/>
              <path class="cls-21" d="M642.03,397.72h-4.68c-.15,0-.28-.12-.28-.28v-41.44c0-.15,.12-.28,.28-.28h3.2c.15,0,.28-.12,.28-.28h0c0-.15,.12-.28,.28-.28h.32s.08,0,.12,.03l1.23,.6c.1,.05,.16,.14,.16,.25l-.09,40.86c0,.45-.36,.81-.81,.81Z"/>
              <path class="cls-24" d="M625.01,397.72h-4.68c-.15,0-.28-.12-.28-.28v-41.44c0-.15,.12-.28,.28-.28h3.2c.15,0,.28-.12,.28-.28h0c0-.15,.12-.28,.28-.28h.32s.08,0,.12,.03l1.23,.6c.1,.05,.16,.14,.16,.25l-.09,40.86c0,.45-.36,.81-.81,.81Z"/>
              <path class="cls-21" d="M618.82,397.72h-4.68c-.15,0-.28-.12-.28-.28v-41.44c0-.15,.12-.28,.28-.28h3.2c.15,0,.28-.12,.28-.28h0c0-.15,.12-.28,.28-.28h.32s.08,0,.12,.03l1.23,.6c.1,.05,.16,.14,.16,.25l-.09,40.86c0,.45-.36,.81-.81,.81Z"/>
              <path class="cls-21" d="M612.63,397.72h-4.68c-.15,0-.28-.12-.28-.28v-41.44c0-.15,.12-.28,.28-.28h3.2c.15,0,.28-.12,.28-.28h0c0-.15,.12-.28,.28-.28h.32s.08,0,.12,.03l1.23,.6c.1,.05,.16,.14,.16,.25l-.09,40.86c0,.45-.36,.81-.81,.81Z"/>
              <path class="cls-21" d="M606.44,397.72h-4.68c-.15,0-.28-.12-.28-.28v-41.44c0-.15,.12-.28,.28-.28h3.2c.15,0,.28-.12,.28-.28h0c0-.15,.12-.28,.28-.28h.32s.08,0,.12,.03l1.23,.6c.1,.05,.16,.14,.16,.25l-.09,40.86c0,.45-.36,.81-.81,.81Z"/>
            </g>
            <g>
              <path class="cls-6" d="M519.19,172.33h16.28v1.36c0,2.17-1.77,3.94-3.94,3.94h-8.4c-2.17,0-3.94-1.77-3.94-3.94v-1.36h0Z" transform="translate(1054.67 349.96) rotate(-180)"/>
              <path class="cls-6" d="M538.88,172.33h16.28v1.36c0,2.17-1.77,3.94-3.94,3.94h-8.4c-2.17,0-3.94-1.77-3.94-3.94v-1.36h0Z" transform="translate(1094.05 349.96) rotate(-180)"/>
              <line class="cls-2" x1="546.74" y1="106.36" x2="546.74" y2="172.33"/>
              <line class="cls-2" x1="527.05" y1="106.36" x2="527.05" y2="172.33"/>
              <path class="cls-19" d="M547.72,112.38c0-1.03,1.34-1.43,1.89-.56,3.01,4.71,6,7.53,7.86,10.01,2.07,2.75-4.83,27.37-4.83,27.37l-4.92-.81v-36Z"/>
              <path class="cls-19" d="M528.52,112.38c0-1.03,1.34-1.43,1.89-.56,3.01,4.71,6,7.53,7.86,10.01,2.07,2.75-4.83,27.37-4.83,27.37l-4.92-.81v-36Z"/>
            </g>
          </g>
          <g>
            <rect class="cls-7" x="498.56" y="403.26" width="95.67" height="104.78" rx="9.83" ry="9.83" transform="translate(1092.79 911.3) rotate(-180)"/>
            <rect class="cls-3" x="500.38" y="414.2" width="92.02" height="82.91" rx="6.45" ry="6.45" transform="translate(1002.04 -90.74) rotate(90)"/>
            <line class="cls-4" x1="581.47" y1="409.64" x2="581.47" y2="501.66"/>
            <line class="cls-4" x1="511.77" y1="409.64" x2="511.77" y2="501.66"/>
            <line class="cls-4" x1="517.13" y1="409.64" x2="517.13" y2="501.66"/>
            <line class="cls-4" x1="522.49" y1="409.64" x2="522.49" y2="501.66"/>
            <line class="cls-4" x1="527.86" y1="409.64" x2="527.86" y2="501.66"/>
            <line class="cls-4" x1="533.22" y1="409.64" x2="533.22" y2="501.66"/>
            <line class="cls-4" x1="538.58" y1="409.64" x2="538.58" y2="501.66"/>
            <line class="cls-4" x1="543.94" y1="409.64" x2="543.94" y2="501.66"/>
            <line class="cls-4" x1="549.3" y1="409.64" x2="549.3" y2="501.66"/>
            <line class="cls-4" x1="554.66" y1="409.64" x2="554.66" y2="501.66"/>
            <line class="cls-4" x1="560.03" y1="409.64" x2="560.03" y2="501.66"/>
            <line class="cls-4" x1="565.39" y1="409.64" x2="565.39" y2="501.66"/>
            <line class="cls-4" x1="570.75" y1="409.64" x2="570.75" y2="501.66"/>
            <line class="cls-4" x1="576.11" y1="409.64" x2="576.11" y2="501.66"/>
          </g>
          <g>
            <rect class="cls-7" x="595.14" y="403.26" width="95.67" height="104.78" rx="9.83" ry="9.83" transform="translate(1285.94 911.3) rotate(-180)"/>
            <rect class="cls-3" x="596.96" y="414.2" width="92.02" height="82.91" rx="6.45" ry="6.45" transform="translate(1098.62 -187.32) rotate(90)"/>
            <line class="cls-4" x1="678.05" y1="409.64" x2="678.05" y2="501.66"/>
            <line class="cls-4" x1="608.35" y1="409.64" x2="608.35" y2="501.66"/>
            <line class="cls-4" x1="613.71" y1="409.64" x2="613.71" y2="501.66"/>
            <line class="cls-4" x1="619.07" y1="409.64" x2="619.07" y2="501.66"/>
            <line class="cls-4" x1="624.43" y1="409.64" x2="624.43" y2="501.66"/>
            <line class="cls-4" x1="629.8" y1="409.64" x2="629.8" y2="501.66"/>
            <line class="cls-4" x1="635.16" y1="409.64" x2="635.16" y2="501.66"/>
            <line class="cls-4" x1="640.52" y1="409.64" x2="640.52" y2="501.66"/>
            <line class="cls-4" x1="645.88" y1="409.64" x2="645.88" y2="501.66"/>
            <line class="cls-4" x1="651.24" y1="409.64" x2="651.24" y2="501.66"/>
            <line class="cls-4" x1="656.6" y1="409.64" x2="656.6" y2="501.66"/>
            <line class="cls-4" x1="661.97" y1="409.64" x2="661.97" y2="501.66"/>
            <line class="cls-4" x1="667.33" y1="409.64" x2="667.33" y2="501.66"/>
            <line class="cls-4" x1="672.69" y1="409.64" x2="672.69" y2="501.66"/>
          </g>
        </g>
      </g>
      <g>
        <g>
          <path class="cls-9" d="M807.3,518.44l-32.83-198.61c-.45-2.72-2.81-4.72-5.57-4.72-2.83,0-5.22,2.09-5.59,4.9l-27.85,209.53c-.5,3.79,2.83,6.97,6.59,6.3l60.68-10.92c3.04-.55,5.07-3.43,4.57-6.47Zm-5.49,1.35l-60.68,10.92s-.06,0-.09,0c-.16,0-.26-.1-.31-.16-.11-.13-.11-.24-.1-.34l27.85-209.53c.03-.21,.21-.38,.43-.38s.39,.15,.43,.36l32.83,198.61c.04,.23-.12,.46-.35,.5Z"/>
          <path class="cls-8" d="M737.47,534.79c-1.07-1.22-2.23-3.64-2.02-5.25l27.85-209.53c.39-2.8,2.8-4.9,5.59-4.9h0l-4-.66c-3.19-.53-6.31,1.61-6.75,4.81,0,.02,0,.04,0,.06l-27.85,209.53s0,.02,0,.02c-.18,1.38,.66,2.7,1.95,3.23l5.24,2.68Z"/>
          <path class="cls-9" d="M893.22,552.95l-36.52-220.91c-.5-3.03-3.12-5.25-6.19-5.25-3.15,0-5.81,2.33-6.22,5.45l-30.98,233.05c-.56,4.22,3.15,7.76,7.33,7l67.5-12.14c3.38-.61,5.64-3.82,5.08-7.2Zm-6.11,1.5l-67.5,12.14s-.07,.01-.1,.01c-.17,0-.29-.11-.35-.17-.12-.14-.12-.27-.11-.38l30.98-233.05c.03-.24,.24-.42,.48-.42s.44,.17,.47,.4l36.52,220.91c.04,.26-.13,.51-.39,.55Z"/>
          <path class="cls-8" d="M815.56,571.13c-1.19-1.36-2.48-4.04-2.25-5.84l30.98-233.05c.43-3.12,3.12-5.45,6.22-5.45h0l-4.45-.73c-3.55-.59-7.02,1.79-7.51,5.35,0,.02,0,.05,0,.07l-30.98,233.05s0,.02,0,.03c-.2,1.54,.74,3,2.17,3.6l5.82,2.98Z"/>
          <polygon class="cls-13" points="768.47 320.7 838.55 331.4 808.04 560.95 740.61 530.23 768.47 320.7"/>
          <polygon class="cls-8" points="819.73 560.95 879 550.42 847.99 348.38 850.03 333 850.99 332.98 887.11 554.45 819.62 566.59 819.05 566.05 819.73 560.95"/>
        </g>
        <g>
          <polyline class="cls-22" points="779.64 357.45 778.66 357.61 793.55 361.88 794.85 344.68 792.37 360.71 777.85 357.42"/>
          <polygon class="cls-17" points="780.49 341.98 777.85 357.42 792.37 360.71 794.85 344.68 780.49 341.98"/>
        </g>
        <g>
          <polyline class="cls-22" points="773.44 506.86 772.47 507.02 787.35 511.3 788.65 494.09 786.18 510.12 771.65 506.84"/>
          <polygon class="cls-17" points="774.3 491.39 771.65 506.84 786.18 510.12 788.65 494.09 774.3 491.39"/>
        </g>
        <g>
          <polyline class="cls-22" points="767.84 375.21 766.91 375.36 781.01 379.41 782.23 363.12 779.89 378.3 766.14 375.19"/>
          <polygon class="cls-18" points="768.65 360.57 766.14 375.19 779.89 378.3 782.23 363.12 768.65 360.57"/>
        </g>
        <g>
          <polyline class="cls-22" points="765.77 393.8 764.85 393.95 778.94 398 780.17 381.71 777.83 396.89 764.08 393.78"/>
          <polygon class="cls-18" points="766.58 379.16 764.08 393.78 777.83 396.89 780.17 381.71 766.58 379.16"/>
        </g>
        <g>
          <polyline class="cls-22" points="785.05 399.31 784.13 399.46 798.22 403.51 799.45 387.22 797.1 402.4 783.35 399.29"/>
          <polygon class="cls-18" points="785.86 384.67 783.35 399.29 797.1 402.4 799.45 387.22 785.86 384.67"/>
        </g>
        <g>
          <polyline class="cls-22" points="763.71 413.08 762.78 413.23 776.87 417.28 778.1 400.99 775.76 416.17 762.01 413.06"/>
          <polygon class="cls-18" points="764.52 398.44 762.01 413.06 775.76 416.17 778.1 400.99 764.52 398.44"/>
        </g>
        <g>
          <polyline class="cls-22" points="786.43 459.9 785.51 460.05 799.6 464.1 800.82 447.81 798.48 462.99 784.73 459.88"/>
          <polygon class="cls-15" points="787.24 445.26 784.73 459.88 798.48 462.99 800.82 447.81 787.24 445.26"/>
        </g>
        <g>
          <polyline class="cls-22" points="769.22 455.08 768.29 455.23 782.38 459.28 783.61 442.99 781.27 458.17 767.52 455.06"/>
          <polygon class="cls-15" points="770.02 440.44 767.52 455.06 781.27 458.17 783.61 442.99 770.02 440.44"/>
        </g>
        <g>
          <polyline class="cls-22" points="802.27 443.38 801.34 443.53 815.43 447.58 816.66 431.29 814.32 446.46 800.57 443.35"/>
          <polygon class="cls-15" points="803.07 428.73 800.57 443.35 814.32 446.46 816.66 431.29 803.07 428.73"/>
        </g>
        <g>
          <polyline class="cls-22" points="755.45 481.25 754.52 481.4 768.61 485.44 769.84 469.16 767.5 484.33 753.75 481.22"/>
          <polygon class="cls-15" points="756.25 466.6 753.75 481.22 767.5 484.33 769.84 469.16 756.25 466.6"/>
        </g>
      </g>
    </g>
    <g>
      <path class="cls-6" d="M620.19,321.84c4.04,2.08,8.61,3.26,13.46,3.26,16.24,0,29.44-13.21,29.44-29.44,0-10.36-5.38-19.49-13.5-24.74l.96-1.66c8.69,5.57,14.45,15.32,14.45,26.41,0,17.31-14.04,31.35-31.35,31.35-5.2,0-10.1-1.27-14.42-3.51l.96-1.66Z"/>
      <line class="cls-5" x1="651.65" y1="265.73" x2="617.08" y2="325.57"/>
      <g>
        <circle class="cls-19" cx="631.26" cy="296.13" r="26.58"/>
        <circle class="cls-25" cx="633.29" cy="299.35" r="20.98"/>
        <circle class="cls-10" cx="636.87" cy="303.88" r="10.49"/>
        <circle class="cls-20" cx="639.49" cy="307.69" r="3.81"/>
      </g>
      <rect class="cls-6" x="633.29" y="326.29" width="3.58" height="6.44" transform="translate(1270.16 659.02) rotate(-180)"/>
      <path class="cls-6" d="M618.75,332.73h31.47v2.64c0,4.2-3.41,7.61-7.61,7.61h-16.24c-4.2,0-7.61-3.41-7.61-7.61v-2.64h0Z" transform="translate(1268.97 675.7) rotate(-180)"/>
    </g>
  </g>
</svg>