<?xml version="1.0" encoding="UTF-8"?>
<svg id="Layer_2" data-name="Layer 2" xmlns="http://www.w3.org/2000/svg" viewBox="0 0 234.2 455.57">
  <defs>
    <style>
      .cls-1 {
        stroke-width: .91px;
      }

      .cls-1, .cls-2, .cls-3, .cls-4, .cls-5, .cls-6, .cls-7, .cls-8, .cls-9, .cls-10, .cls-11 {
        fill: #f0f6ff;
      }

      .cls-1, .cls-2, .cls-3, .cls-4, .cls-6, .cls-7, .cls-8, .cls-12, .cls-9, .cls-10, .cls-11 {
        stroke: #4177d8;
        stroke-miterlimit: 10;
      }

      .cls-2 {
        stroke-width: 1.11px;
      }

      .cls-3 {
        stroke-width: 1.22px;
      }

      .cls-4 {
        stroke-width: 1.2px;
      }

      .cls-13 {
        fill: #fff;
      }

      .cls-14 {
        fill: #4177d8;
      }

      .cls-6 {
        stroke-width: 2px;
      }

      .cls-7 {
        stroke-width: .79px;
      }

      .cls-8 {
        stroke-width: .8px;
      }

      .cls-12 {
        fill: none;
      }

      .cls-9 {
        stroke-width: 1.79px;
      }

      .cls-10 {
        stroke-width: 1.09px;
      }

      .cls-11 {
        stroke-width: 1.28px;
      }
    </style>
  </defs>
  <g id="Layer_1-2" data-name="Layer 1">
    <polygon class="cls-13" points="105.51 61.39 105.51 152.28 220.67 145.94 220.67 50.94 105.51 61.39"/>
    <line class="cls-11" x1="163.17" y1="374.44" x2="106.51" y2="368.95"/>
    <polyline class="cls-5" points="92.55 118.28 38.67 241.61 38.67 361 .16 372.94 .16 86.44"/>
    <g>
      <polyline class="cls-12" points=".17 86.44 91.17 118.78 91.17 369.94"/>
      <path class="cls-11" d="m157.13,404.71s-11.57,5.92-7.77,9.33,15.54,1.83,15.54,1.83c0,0,3.97-5.88,2.12-11.15s-9.89,0-9.89,0Z"/>
      <path class="cls-11" d="m195.4,410.56s-2.77,4.6,0,10.24,2.77,13.64,8.77,13.64,15.59-2.26,14.29-5.13-7.66-18.75-7.66-18.75c0,0-2.02-4.39-8.83-2.25s-6.57,2.25-6.57,2.25Z"/>
      <path class="cls-11" d="m164.36,334.09s-24.69,8.61-25.94,14.48,18.71,56.14,18.71,56.14c0,0,4.74,2.27,9.89,0s-1.41-51.03-1.41-51.03l19.04-5.11,4.62,8.93s4.37,50.18,6.14,53.06,13.04,6.12,15.4,0,4.24-56.87,4.24-56.87c0,0,3.89-23.78-6.5-23.51s-3.51-31.8-3.51-31.8l-39.87-1.93s-7,22-7,24,6.19,13.66,6.19,13.66Z"/>
      <path class="cls-2" d="m166.38,308.72c-1.51.68-2.02,10.9-2.02,10.9v14.48s-7.76,6.95-10.36,0-3.16-13.51-3.16-13.51c0,0,6.63-34.26,8.59-38.35s18.45-4.87,18.45-4.87c0,0,14.05-2.88,20.27,0,6.22,2.88,11.92,1.68,13.41,11.4s8.78,40.56,6.44,41.64-9.73,11.93-16.03,6.51-2.68-36.17-2.68-36.17"/>
      <path class="cls-6" d="m128.94,401.11s-3.37,4.46-5.44,5.82l-2.07,1.37"/>
      <g>
        <path class="cls-6" d="m117.21,424.42s3.51,3.29,9.59,3.28c6.08-.01,4.28,4.76,4.28,4.76,0,0-5.94,12.25-2.46,15.33s37.12,6.11,37.12,6.11c0,0,6,2.48,2.7-2.11-3.3-4.6-14.66-5.51-17.7-10.54s-8.49-15.05-8.49-15.05l3.37-.97-4.38-11.35s3.42,1.82,8.56,3.44c6.74,2.12,12.48-8.08,9.52-8.57s-7.75-.15-10.38-3.68c-.64-.86-1.79-3.23-3.18-6.34-2.93-6.58-6.89-16.43-9.13-22.06-1-2.53-1.87-5.1-2.59-7.72-1.92-6.99-6.82-22.7-12.67-25.23-7.57-3.27-11.68-2.94-11.68-2.94l-27.93,9.59s-12.32,7.09-18.07,5.13-7.24-5.25-12-.96c-4.76,4.28-25.2,21.57-22.11,25.43,1.33,1.66,2.57,3.06,4.63,4.37,2.75,1.75,6.95,3.35,14.75,5.22,10.64,2.54,31.45-4.32,43.23-6.01,3.33-.48,5.94-.54,7.4.15,6.58,3.11,13.51,16.41,13.51,16.41,0,0,5.84,13.78,4.11,24.31Z"/>
        <path class="cls-6" d="m135.79,402.37s9.65-4.39,8.77-6.41"/>
        <path class="cls-6" d="m112.37,361.47s-22.48,19.61-31.85,21.11c-9.37,1.5-25.76,12.73-40.91,4.28"/>
        <path class="cls-6" d="m141.24,413.86s-11.13-24.73-19.01-35.35-16.46-11.56-16.46-11.56"/>
        <path class="cls-6" d="m142.25,426.19s-7.72,3.8-15.45,1.51"/>
        <path class="cls-6" d="m17.05,380.24s-.39,5.7,9.34,3.41c9.73-2.29,25.31-23.04,25.31-23.04,0,0,5.4-14.31,3.74-22.69s-2.39-14.2-10.93-24.92c-1.11-1.39-2.14-2.68-3.11-3.87-4.79-5.92-10.25-11.23-16.14-16.06-.39-.32-.69-.6-.82-.79-.82-1.15-5.61-.92-5.61-.92,0,0-8.86,2.6-8.67,13.77s8.04,56.37,7.86,60.24-4.62.09-.97,14.88Z"/>
        <path class="cls-9" d="m47.25,263.85s1.23,6.95-.4,9.67.74,10.38.74,10.38l-4.57.16-.44,2.66-1.92.59s1.35,2.82-.64,3.92-9.08-.06-10.26,1.56c0,0-4.77,3.49,2.64,9.85s-11.17,3.29-11.17,3.29l-2.71-27.72s4.54-16.53,12.94-17.87,15.79,3.51,15.79,3.51Z"/>
        <path class="cls-6" d="m53.19,328.17s17.86,7.25,19.51,9.54-7.06,5.93-7.06,5.93l-11.52-3.92-.93-11.55Z"/>
        <path class="cls-9" d="m17.36,292.57s1.78-1.52-.58-3.73-11.52-7.35-6.67-14.73,3.79-23.01,15.29-21.12,13.41-4.16,16.96,1.88,8.86,6.91,4.88,8.99-11.64,4.45-11.05,6.36-5.6.9-6.04,3.55,1.49,7.52,1.49,7.52c0,0,5.9,2.79.9,5.6-5.01,2.81-1.32,17.05-15.19,5.68Z"/>
        <polygon class="cls-6" points="76.78 355.5 116.6 341.94 104.91 332.88 74.52 345.11 76.78 355.5"/>
        <path class="cls-6" d="m31.05,300.56s-7.39-8.2-12.09-1.99.99,31.66.99,31.66c0,0,2.89,17.51,10.23,17.71s27.24,2.46,34.15,3.59,19.06-4.97,19.06-4.97c0,0,.48-9.04-4.62-8.87s-13.48,1.84-20.06-1.28c-6.58-3.11-27.67-35.87-27.67-35.87Z"/>
        <path class="cls-6" d="m78.78,337.7s-.34-4.11,4.92-5.27,8.29-.66,9.08.48,0,3.21,0,3.21c0,0,1.71-.4,1.26,1.81s.65,2.82-.8,4.9-9.83,3.74-9.83,3.74l-4.62-8.87Z"/>
        <polygon class="cls-6" points="85.84 331.77 80.22 316.66 82.27 315.98 87.66 331.4 85.84 331.77"/>
      </g>
      <path class="cls-10" d="m198.67,304.56s.94-5.1-.24-8.26-3.75-6.7-2.83-8.19,5.18-4.9,5.18-4.9c0,0,1.64-.05,2.79,2.1s.77-1.11,2.52-2.26,2.84-1.18,2.34.48-3.14,4.46-3.1,6.1-1.43,7.14-.29,8.74-2.57,5.53-6.37,6.19Z"/>
      <path class="cls-4" d="m181.11,281.95s1.76,5.29,4.33,3.95,10.57-3.52,9.38-5.19-5.62-12.1-5.62-12.1c0,0-7.38.24-8,2.19s-.1,11.14-.1,11.14Z"/>
      <path class="cls-3" d="m174.52,256.41s.47,4.4.59,6.32-.78,2.94.13,5.2,2.98,8.98,5.86,9.61c2.88.63,6.05,1.98,8.52-1.65,2.47-3.62,5.62-8.83,5.62-8.83,0,0,1.25,1.46,1.36.11s2.23-7.46.65-8.14,1.32-9.72-7.94-9.91-9.72-1.32-12.42,1.74-2.82,1.14-2.35,5.54Z"/>
      <path class="cls-1" d="m178.9,260.34s-1.49-1.65-2.16-4.52-1.87-8,1.76-9.73,4.3-3.16,4.3-3.16c0,0,.67,1.43,1.35,1.43s8.75-1.43,10.09,1.43,5.38,5.73,3.36,10.02-2.71,7.9-2.71,7.9c0,0,.69-5.76-2.68-7.19s-.95-2.92-5.52-1.46-5.92.03-5.92.03"/>
      <path class="cls-11" d="m170.55,337.91s13.64,2.49,20.13.51-10.55,1.28-6.03,10.15"/>
      <path class="cls-11" d="m156.09,336.76s-.21,4.23,1.43,6.45,4.36,5.35,4.36,5.35l8.67-4.34-3.5-5.81s1.88,2.18,3.5,2.1-2.37-5.64-2.37-5.64c0,0-2.97-3.11-5.49-2.28s-5.49,2.28-5.49,2.28c0,0-1.03.56-1.11,1.88Z"/>
      <path class="cls-11" d="m185.45,285.9s-7.8,10.64-4.54,25.59,1.87,27.68,1.87,27.68"/>
      <line class="cls-7" x1="132.42" y1="2.32" x2="132.42" y2="363.94"/>
      <line class="cls-8" x1="186.06" x2="186.06" y2="244.37"/>
      <line class="cls-8" x1="91.17" y1="223.73" x2="234.17" y2="223.73"/>
      <line class="cls-11" x1="234.17" y1="111.77" x2="91.17" y2="118.78"/>
    </g>
    <polygon class="cls-5" points="205.67 131.28 174.78 133.44 174.78 116.95 181.28 116.5 181.28 100.68 164.98 123.99 148.21 102.99 148.21 119.14 154.71 118.69 154.71 134.84 124.67 136.94 124.67 120.79 130.16 120.4 130.16 95.24 124.67 95.62 124.67 79.01 148.64 77.33 165.17 99 181.63 75.11 205.67 73.34 205.67 90.24 201.16 90.56 199.66 90.66 199.66 115.17 205.67 114.75 205.67 131.28"/>
    <polygon class="cls-14" points="201.67 129.28 170.78 131.44 170.78 114.95 177.28 114.5 177.28 98.68 160.98 121.99 144.21 100.99 144.21 117.14 150.71 116.69 150.71 132.84 120.67 134.94 120.67 118.79 126.16 118.4 126.16 93.24 120.67 93.62 120.67 77.01 144.64 75.33 161.17 97 177.63 73.11 201.67 71.34 201.67 88.24 197.16 88.56 195.66 88.66 195.66 113.17 201.67 112.75 201.67 129.28"/>
  </g>
</svg>