<?xml version="1.0" encoding="UTF-8"?>
<svg id="Layer_2" data-name="Layer 2" xmlns="http://www.w3.org/2000/svg" viewBox="0 0 368 442.75">
  <defs>
    <style>
      .cls-1 {
        stroke-width: .58px;
      }

      .cls-1, .cls-2, .cls-3, .cls-4, .cls-5, .cls-6, .cls-7, .cls-8, .cls-9, .cls-10, .cls-11, .cls-12, .cls-13, .cls-14, .cls-15, .cls-16 {
        stroke: #aa334e;
        stroke-miterlimit: 10;
      }

      .cls-1, .cls-4, .cls-9, .cls-10, .cls-12, .cls-14, .cls-15 {
        fill: #ffe1ea;
      }

      .cls-2, .cls-8, .cls-16 {
        fill: none;
      }

      .cls-2, .cls-10 {
        stroke-width: .83px;
      }

      .cls-3 {
        stroke-width: 10px;
      }

      .cls-3, .cls-6, .cls-11, .cls-13 {
        fill: #fff;
      }

      .cls-4 {
        stroke-width: .81px;
      }

      .cls-5 {
        fill: #ffccdc;
      }

      .cls-5, .cls-6, .cls-7 {
        stroke-width: 2px;
      }

      .cls-7 {
        fill: #ffebf1;
      }

      .cls-8, .cls-14 {
        stroke-width: .75px;
      }

      .cls-11 {
        stroke-width: 1.61px;
      }

      .cls-12, .cls-13 {
        stroke-width: 3px;
      }

      .cls-15 {
        stroke-width: .73px;
      }

      .cls-16 {
        stroke-width: .5px;
      }
    </style>
  </defs>
  <g id="Layer_1-2" data-name="Layer 1">
    <g>
      <rect class="cls-16" x="1.5" y="225.31" width="71" height="141"/>
      <line class="cls-16" x1="1.5" y1="319.31" x2="72.5" y2="319.31"/>
      <line class="cls-16" x1="1.5" y1="272.31" x2="72.5" y2="272.31"/>
      <line class="cls-16" x1="37" y1="225.31" x2="37" y2="366.31"/>
    </g>
    <g>
      <rect class="cls-16" x="296.5" y="225.31" width="70" height="141"/>
      <line class="cls-16" x1="366.5" y1="272.31" x2="296.5" y2="272.31"/>
      <line class="cls-16" x1="366.5" y1="319.31" x2="296.5" y2="319.31"/>
      <line class="cls-16" x1="331.5" y1="366.31" x2="331.5" y2="225.31"/>
    </g>
    <g>
      <g>
        <line class="cls-3" x1="293.5" y1="388.81" x2="292.5" y2="387.81"/>
        <polygon class="cls-14" points="1.5 73.83 1.5 90.79 20.39 125.75 40.45 146.97 30.42 146.97 30.42 182.31 1.5 182.31 1.5 224.81 54.5 224.81 180.5 224.81 180.5 73.83 1.5 73.83"/>
        <polygon class="cls-14" points="366.5 73.83 366.5 90.79 347.61 125.75 327.55 146.97 337.58 146.97 337.58 182.31 366.5 182.31 366.5 224.81 313.5 224.81 187.5 224.81 187.5 73.83 366.5 73.83"/>
        <polygon class="cls-6" points="75.4 427.32 75.4 193.65 121 134.31 178 41.31 183.82 41.31 241.11 135.81 293 199.64 293 427.32 75.4 427.32"/>
        <g>
          <path class="cls-6" d="M321.17,208.84l-14.67-3.04-48.43-62.7,.93-15.79-2,2c-2,2-8.41,2.3-8.41,2.3L184.59,32.6l-3.59-24.3,1.82,35,57.18,95,53,63.34v45.67l28.17-38.48Z"/>
          <path class="cls-6" d="M111.91,132.6s-6.41-.3-8.41-2.3l-2-2,.93,15.79-48.43,62.7-14.67,3.04,35.92,39.22,.25-37.25v-17l45-55.5,57.18-95,1.82-35-3.59,24.3-64,99Z"/>
        </g>
        <polyline class="cls-6" points="93 237.31 93 211.31 127 170.31 177 90.31 186 90.31 235 172.31 270 215.31 270 233.31 281.36 216.81 239 165.31 187.17 80.31 182 65.31 176.06 80.31 126 160.31 79 217.31 93 237.31 93 429.32 270.38 429.32 270 233.31"/>
        <path class="cls-7" d="M140,349.31V193.53l14-21.22h9.66v-20l19.34-26.56,18,26.56v20h9l14,21v156"/>
        <path class="cls-13" d="M176.27,349.31h-45.75c-4.48,0-12.2-10.48-12.2-10.48v90.5h127.68v-90.5s-6.38,11.19-11.19,11.19h-42.9"/>
        <polyline class="cls-13" points="125.79 429.32 125.79 366.21 174.5 366.21"/>
        <polyline class="cls-13" points="238.05 429.32 238.05 366.21 194.5 366.21"/>
        <g>
          <polygon class="cls-12" points="59.05 429.32 93 366.21 1.5 366.21 1.5 429.32 59.05 429.32"/>
          <line class="cls-14" x1="18.8" y1="429.31" x2="18.8" y2="366.31"/>
          <line class="cls-14" x1="1" y1="429.81" x2="1" y2="366.81"/>
          <line class="cls-14" x1="72.2" y1="402.31" x2="72.2" y2="366.81"/>
          <line class="cls-14" x1="54.4" y1="429.81" x2="54.4" y2="366.81"/>
          <line class="cls-14" x1="36.6" y1="429.81" x2="36.6" y2="366.81"/>
          <line class="cls-14" x1="2" y1="388.31" x2="19" y2="388.31"/>
          <line class="cls-14" x1="36.5" y1="388.31" x2="54" y2="388.31"/>
          <line class="cls-14" x1="2" y1="410.31" x2="19" y2="410.31"/>
          <line class="cls-14" x1="36.5" y1="410.31" x2="54" y2="410.31"/>
          <line class="cls-14" x1="72.5" y1="388.31" x2="80" y2="388.31"/>
          <line class="cls-14" x1="2" y1="366.31" x2="93" y2="366.31"/>
          <line class="cls-14" x1="1" y1="430.31" x2="59" y2="430.31"/>
          <line class="cls-14" x1="19" y1="400.31" x2="36" y2="400.31"/>
          <line class="cls-14" x1="54" y1="400.31" x2="72" y2="400.31"/>
        </g>
        <g>
          <polygon class="cls-12" points="308.95 429.32 275 366.21 366.5 366.21 366.5 429.32 308.95 429.32"/>
          <line class="cls-14" x1="349.2" y1="429.31" x2="349.2" y2="366.31"/>
          <line class="cls-14" x1="367" y1="429.81" x2="367" y2="366.81"/>
          <line class="cls-14" x1="295.8" y1="402.31" x2="295.8" y2="366.81"/>
          <line class="cls-14" x1="313.6" y1="429.81" x2="313.6" y2="366.81"/>
          <line class="cls-14" x1="331.4" y1="429.81" x2="331.4" y2="366.81"/>
          <line class="cls-14" x1="366" y1="388.31" x2="349" y2="388.31"/>
          <line class="cls-14" x1="331.5" y1="388.31" x2="314" y2="388.31"/>
          <line class="cls-14" x1="366" y1="410.31" x2="349" y2="410.31"/>
          <line class="cls-14" x1="331.5" y1="410.31" x2="314" y2="410.31"/>
          <line class="cls-14" x1="295.5" y1="388.31" x2="288" y2="388.31"/>
          <line class="cls-9" x1="366" y1="366.31" x2="275" y2="366.31"/>
          <line class="cls-14" x1="367" y1="430.31" x2="309" y2="430.31"/>
          <line class="cls-14" x1="349" y1="400.31" x2="332" y2="400.31"/>
          <line class="cls-14" x1="314" y1="400.31" x2="296" y2="400.31"/>
        </g>
        <g>
          <polyline class="cls-5" points="163 438.31 184.2 296.12 204.83 438.31"/>
          <polygon class="cls-5" points="163 438.31 204.83 438.31 187 398.31 180.18 398.31 163 438.31"/>
          <polyline class="cls-5" points="187 398.31 184.2 296.12 180.18 398.31"/>
        </g>
      </g>
      <g>
        <path class="cls-10" d="M98.98,415.35c.15-.56,.26-1.13,.33-1.71,.32-2.74,1.46-11.19,3.31-12.11,2.2-1.1,2.2-2.2,2.2-2.2,0,0-1.1-1.1-1.1-2.2s0-3.31,2.2-3.31,2.2,3.31,1.1,4.41,1.79,2.84,1.79,2.84c0,0,3.72,2.67,3.72,3.77v10.38c0,1.5-.3,2.62-.53,4.1-.2,1.28-.89,2.77-1,2-2-14-1.77,1.16-1.77,1.16v10.89c0,.87-.64,1.65-1.51,1.72-.39,.03-.7-.07-.7-.48,0-1.1,0,5.51,0,5.51,0,0,0,.52-.72,.49-.85-.04-1.51-.78-1.56-1.63l-1.03-16.49-.4-6.54s-.63-3.45-1.8-2.28c-1.1,1.1-2.2,2.2-1.15,6.05,.3,1.09-2.13,.61-2.15-.51,0-.01,0-.02,0-.03,0-.76,.48-2.68,.77-3.81Z"/>
        <path class="cls-4" d="M99.13,418.53c-.67-.68-1.03-1.6-1.01-2.55,.06-2.83,.14-9.27-.41-9.75-.7-.62-6.09-6.15-8.79-3.39s-2.7,4.93-2.7,4.93l-.99,8.87c-.06,.58,.01,1.18,.24,1.72,.32,.77,.75,1.56,.75,.2,0-1.97,1.63,7.78,1.9,9.47,.03,.17,.04,.33,.05,.5l.28,13.24s2.09,1.61,2.09-.55-.04-15.44-.04-15.44l.38,14.36s.74,1.08,1.82-1.08c1.01-2.02,.66-13.11,.61-14.48,0-.1,0-.19,0-.29l.37-7.82s.7-2.05,1.47-.52,3.28,4.38,3.28,4.38c0,0,1.81-.7,.73-1.78-.01-.01-.02-.02-.03-.03Z"/>
        <path class="cls-10" d="M91.59,397.11l-3.52,8.34s0,3.14,1.76,3.46,3.97-6.29,3.97-6.29c0,0,.09-.28,.23-.73,.22-.71,.56-1.85,.82-2.93,.36-1.53,.56-2.96,.05-2.96-1.1,0-1.1-2.2-3.31,1.1Z"/>
      </g>
      <g>
        <path class="cls-15" d="M266,401.31s1-4-1-4-4,1-4,1h-4s-2,1,0,1c1.2,0,2.46,.12,3.28,.21,.55,.06,.9,.12,.9,.12l4.82,1.67Z"/>
        <path class="cls-1" d="M261.5,399.54s.57,3.76,1.35,3.76h2.2l.95-2.36"/>
        <path class="cls-15" d="M254.54,411.04c2.29-1.14,4.35-2.69,6.1-4.56l2.96-3.17s2.4-1.13,2.4,.93,1,36.07,1,36.07c0,0,1,1-2,1h-5.47s-2.53-1-.53-1,5-2,5-2l1-1-4.15-14.11c-.38-1.28-.84-2.53-1.4-3.74-.23-.5-.45-1.21-.45-2.14,0-2,3.58-10,3.58-10l-5.73,4.17-2.85,1.84s-1,1-2,0,0-2.69,0-2.69l2,.69,.54-.27Z"/>
      </g>
      <path class="cls-15" d="M86.21,418.56l.44,1.25s-.65-8.51,.35-10.51"/>
      <line class="cls-2" x1="107" y1="399.31" x2="105" y2="399.31"/>
      <line class="cls-2" x1="95" y1="415.31" x2="98" y2="412.31"/>
      <path class="cls-2" d="M103.32,414.93s2.51-2.82,6.1,.28"/>
      <line class="cls-2" x1="106" y1="417.31" x2="107" y2="435.31"/>
      <path class="cls-11" d="M175.73,38.42l1.7,4.57c.41,1.09,1.45,1.82,2.61,1.82h0c1.18,0,2.23-.74,2.62-1.85l1.63-4.56c.14-.39,.19-.81,.15-1.22L180.7,.81h-1.3l-3.83,36.35c-.05,.43,0,.86,.16,1.26Z"/>
    </g>
    <g>
      <line class="cls-8" x1="19.5" y1="331.31" x2="19.5" y2="331.31"/>
      <line class="cls-8" x1="19.5" y1="331.31" x2="19.5" y2="331.31"/>
      <line class="cls-8" x1="19.5" y1="331.31" x2="19.5" y2="331.31"/>
    </g>
    <g>
      <rect class="cls-8" x="38.5" y="281.31" width="1"/>
      <line class="cls-8" x1="39.5" y1="281.31" x2="38.5" y2="281.31"/>
      <line class="cls-8" x1="39.5" y1="281.31" x2="38.5" y2="281.31"/>
      <line class="cls-8" x1="39.5" y1="281.31" x2="38.5" y2="281.31"/>
      <line class="cls-8" x1="39.5" y1="281.31" x2="38.5" y2="281.31"/>
    </g>
  </g>
</svg>