<?xml version="1.0" encoding="UTF-8"?>
<svg id="Layer_2" data-name="Layer 2" xmlns="http://www.w3.org/2000/svg" xmlns:xlink="http://www.w3.org/1999/xlink" viewBox="0 0 682.5 499.5">
  <defs>
    <style>
      .cls-1 {
        stroke-width: 2.96px;
      }

      .cls-1, .cls-2, .cls-3, .cls-4, .cls-5, .cls-6, .cls-7, .cls-8, .cls-9, .cls-10, .cls-11, .cls-12, .cls-13, .cls-14, .cls-15, .cls-16, .cls-17, .cls-18, .cls-19, .cls-20, .cls-21, .cls-22, .cls-23 {
        stroke-miterlimit: 10;
      }

      .cls-1, .cls-2, .cls-3, .cls-4, .cls-5, .cls-7, .cls-8, .cls-10, .cls-11, .cls-12, .cls-13, .cls-14 {
        stroke: #ff8900;
      }

      .cls-1, .cls-2, .cls-4, .cls-5, .cls-7, .cls-10, .cls-14 {
        fill: #fff8df;
      }

      .cls-2 {
        stroke-width: 3.27px;
      }

      .cls-24 {
        fill: #f28020;
      }

      .cls-25, .cls-3, .cls-8, .cls-11 {
        fill: #fff;
      }

      .cls-3, .cls-12 {
        stroke-width: 2px;
      }

      .cls-4 {
        stroke-width: 1.57px;
      }

      .cls-5 {
        stroke-width: .94px;
      }

      .cls-6 {
        stroke: url(#linear-gradient);
      }

      .cls-6, .cls-12, .cls-13, .cls-15, .cls-16, .cls-17, .cls-18, .cls-19, .cls-20, .cls-21, .cls-22, .cls-23 {
        fill: none;
      }

      .cls-6, .cls-15, .cls-16, .cls-17, .cls-18, .cls-19, .cls-20, .cls-21, .cls-22, .cls-23 {
        stroke-width: 1.17px;
      }

      .cls-7 {
        stroke-width: 1.77px;
      }

      .cls-9 {
        fill: #ff8900;
        stroke: #fff8df;
      }

      .cls-9, .cls-10, .cls-11 {
        stroke-width: 2.2px;
      }

      .cls-14 {
        stroke-width: 2.1px;
      }

      .cls-15 {
        stroke: url(#linear-gradient-10);
      }

      .cls-16 {
        stroke: url(#linear-gradient-2);
      }

      .cls-17 {
        stroke: url(#linear-gradient-4);
      }

      .cls-18 {
        stroke: url(#linear-gradient-3);
      }

      .cls-19 {
        stroke: url(#linear-gradient-6);
      }

      .cls-20 {
        stroke: url(#linear-gradient-7);
      }

      .cls-21 {
        stroke: url(#linear-gradient-5);
      }

      .cls-22 {
        stroke: url(#linear-gradient-9);
      }

      .cls-23 {
        stroke: url(#linear-gradient-8);
      }
    </style>
    <linearGradient id="linear-gradient" x1="0" y1="416.25" x2="682.5" y2="416.25" gradientUnits="userSpaceOnUse">
      <stop offset="0" stop-color="#ef5a24"/>
      <stop offset="1" stop-color="#fff"/>
    </linearGradient>
    <linearGradient id="linear-gradient-2" y1="333" y2="333" xlink:href="#linear-gradient"/>
    <linearGradient id="linear-gradient-3" y1="249.75" y2="249.75" xlink:href="#linear-gradient"/>
    <linearGradient id="linear-gradient-4" y1="166.5" y2="166.5" xlink:href="#linear-gradient"/>
    <linearGradient id="linear-gradient-5" y1="83.25" y2="83.25" xlink:href="#linear-gradient"/>
    <linearGradient id="linear-gradient-6" x1="568.17" y1="249.75" x2="569.33" y2="249.75" xlink:href="#linear-gradient"/>
    <linearGradient id="linear-gradient-7" x1="454.42" y1="249.75" x2="455.58" y2="249.75" xlink:href="#linear-gradient"/>
    <linearGradient id="linear-gradient-8" x1="340.67" y1="249.75" x2="341.83" y2="249.75" xlink:href="#linear-gradient"/>
    <linearGradient id="linear-gradient-9" x1="226.92" y1="249.75" x2="228.08" y2="249.75" xlink:href="#linear-gradient"/>
    <linearGradient id="linear-gradient-10" x1="113.17" y1="249.75" x2="114.33" y2="249.75" xlink:href="#linear-gradient"/>
  </defs>
  <g id="Layer_1-2" data-name="Layer 1">
    <circle class="cls-25" cx="321.5" cy="242.5" r="51"/>
    <g>
      <line class="cls-6" y1="416.25" x2="682.5" y2="416.25"/>
      <line class="cls-16" y1="333" x2="682.5" y2="333"/>
      <line class="cls-18" y1="249.75" x2="682.5" y2="249.75"/>
      <line class="cls-17" y1="166.5" x2="682.5" y2="166.5"/>
      <line class="cls-21" y1="83.25" x2="682.5" y2="83.25"/>
      <line class="cls-19" x1="568.75" x2="568.75" y2="499.5"/>
      <line class="cls-20" x1="455" x2="455" y2="499.5"/>
      <line class="cls-23" x1="341.25" x2="341.25" y2="499.5"/>
      <line class="cls-22" x1="227.5" x2="227.5" y2="499.5"/>
      <line class="cls-15" x1="113.75" x2="113.75" y2="499.5"/>
    </g>
    <path class="cls-1" d="m340.99,163.53s9.74,14.49,4.9,16.91-9.68,7.26-14.52,4.84c-4.84-2.42-1.29-19.89-1.29-19.89"/>
    <g>
      <path class="cls-1" d="m108.73,291.55l.68-12.11c.18-3.15,1.29-6.23,3.4-8.58s4.98-2.15,8.86-1.94c8.67.49,16.69,14.55,16.69,14.55l2.72,3.6"/>
      <path class="cls-1" d="m143.85,289.63s10.02-5.27,17.78-4.84,8.5,21.87,8.5,21.87"/>
      <path class="cls-1" d="m193.6,386.49l12.11.68c3.15.18,6.33-.59,8.9-2.42,2.53-1.8,2.7-4.71,2.91-8.59.49-8.67-12.6-18.21-12.6-18.21l-3.28-3.1"/>
      <path class="cls-1" d="m199.43,351.8s6.36-9.37,6.79-17.13c.43-7.76-20.79-10.89-20.79-10.89"/>
      <path class="cls-1" d="m117.65,340.68s-9.15-10.24-12.38-22.09c-3.23-11.85-6.67-19.83,7.55-30.7,10.91-8.34,31.24-2.14,44.27,8.32,8.32,6.68,20.87,19.38,31.42,32.06,7.63,9.16,12.4,20.4,13.36,32.28.37,4.56.37,8.97-.43,12.06-2.48,9.59-4.75,15.3-16.6,18.52-11.85,3.23-31.2-16.09-37.66-19.19"/>
      <path class="cls-1" d="m138.78,310.74s-24.14,14.21-21.13,29.94c3.01,15.73,15.39,37.82,31.34,30.93,15.95-6.89,30.5-23.58,30.5-23.58,0,0,8.41-11.2,1.09-19.39-7.32-8.19-19.9-22.26-19.9-22.26,0,0-7.56-8.46-21.9,4.35Z"/>
    </g>
    <circle class="cls-25" cx="307.5" cy="247.5" r="58"/>
    <rect class="cls-7" x="433.98" y="179.86" width="136.31" height="134.54" rx="11.91" ry="11.91"/>
    <g>
      <path class="cls-1" d="m353.14,144.78s4.4,30.64,4.4,33.06c0,1.78-1.32,7.52-2.01,10.4-.26,1.1-.13,2.26.38,3.28h0c.9,1.8,3.08,2.53,4.88,1.63h0c.87-.44,1.94-.08,2.38.79h0c.8,1.6,2.93,1.95,4.2.68l1.65-1.65c3.21-3.21,4.13-8.08,2.27-12.23-1.41-3.14-2.99-6.9-4.07-10.17-2.42-7.26-1.09-29.62-1.09-29.62"/>
      <path class="cls-1" d="m289.87,157.3s-9.74,14.49-4.9,16.91c4.84,2.42,9.68,7.26,14.52,4.84,4.84-2.42,1.29-19.89,1.29-19.89"/>
      <path class="cls-1" d="m260.76,146.39s-.28,21.97.27,29.03c.34,4.4-1.87,9.44-3.77,12.87-1.42,2.56-1.09,5.73.83,7.94l3.17,3.64c.87,1,2.49.75,3.02-.47h0c.51-1.18,1.94-1.65,3.06-1.01h0c1.13.65,2.58.17,3.1-1.02h0c.73-1.67.93-3.53.56-5.31-.62-3.05-1.54-7.79-1.54-9.38,0-2.42,5.81-36.29,5.81-36.29"/>
      <path class="cls-1" d="m313.99,146.39s-4.1,9.86-8.82,11.97c-5.69,2.54-18.3,4.71-21.6-8.43-3.3-13.14-3.44-13.22-3.44-13.22"/>
      <path class="cls-1" d="m334.84,90.46s7.78.34,22.13,13.28c7.41,6.68,13.87,31.76,13.87,31.76,0,0-7.26,9.68-14.52,9.68s-7.26-4.84-7.26-4.84v-.95c-.02-1.52.53-2.87,1.25-4.14,2.39-4.24.87-9.6-3.49-11.76l-.17-.09"/>
      <path class="cls-1" d="m279.96,136.09s30.09,15.45,42.97,9.09c11.95-5.9,26.95-9.57,26.95-9.57"/>
      <path class="cls-2" d="m319.05,142.7s-1.47,18.61,3.53,18.61,14.83,11.47,22.43,0c7.6-11.47,5.1-25.82,5.1-25.82"/>
      <path class="cls-1" d="m279.96,127.2v15.4s-13.74,11.05-20.1,2.58c-1.59-2.12-2.78-4.01-3.68-5.65-2.12-3.89-2.62-8.46-1.54-12.76,1.85-7.39,6.28-20.51,12.92-26.57,7.15-6.52,15.93-9.1,26.04-11.54l41.23,1.8s9.74,3.66,14.61,7.14,9.34,8.17,9.34,8.17c0,0,10.87,19.89,12.05,29.73,1.18,9.84-14.52,9.68-14.52,9.68,0,0-12.62-.39-11.3-6.31s-10.08,3.56-20.31,5.46c0,0-15.06,2.81-26.37-.75s-14.73-5.74-14.73-5.74l-2.06-1.13"/>
      <path class="cls-1" d="m292.21,93.17c0-4.84,7.26-14.52,16.93-14.52s18.61-1.46,29.03,16.93c8.35,14.74,11.5,28.34-4.84,33.87-6.6,2.24-17.2-1.59-29.03,2.42-14.67,4.97-14.71-8.76-14.61-18.4.1-9.68,2.52-20.31,2.52-20.31Z"/>
    </g>
    <path class="cls-7" d="m413.22,179.86h-225.8c-6.58,0-11.91,5.33-11.91,11.91v110.73c0,6.58,5.33,11.91,11.91,11.91h225.8c6.58,0,11.91-5.33,11.91-11.91v-110.73c0-6.58-5.33-11.91-11.91-11.91Zm-105.72,111.64c-24.85,0-45-20.15-45-45s20.15-45,45-45,45,20.15,45,45-20.15,45-45,45Z"/>
    <g>
      <rect class="cls-9" x="191.07" y="197.53" width="46.77" height="46.77" rx="7.9" ry="7.9"/>
      <circle class="cls-11" cx="214.46" cy="220.91" r="24.04"/>
      <g>
        <rect class="cls-10" x="217.66" y="187.65" width="1.76" height="27.05" rx=".88" ry=".88"/>
        <rect class="cls-10" x="214.13" y="211.17" width="8.23" height="12.35" rx="4.12" ry="4.12"/>
      </g>
    </g>
    <g>
      <rect class="cls-5" x="355.52" y="193.65" width="1.12" height="17.16" rx=".56" ry=".56"/>
      <rect class="cls-5" x="353.28" y="208.57" width="5.22" height="7.83" rx="2.61" ry="2.61"/>
    </g>
    <g>
      <rect class="cls-4" x="250" y="197.65" width="1.86" height="28.54" rx=".93" ry=".93"/>
      <rect class="cls-4" x="246.28" y="222.47" width="8.69" height="13.03" rx="4.34" ry="4.34"/>
    </g>
    <circle class="cls-7" cx="390.43" cy="207.48" r="9.74"/>
    <circle class="cls-7" cx="374.48" cy="224.4" r="9.74"/>
    <circle class="cls-7" cx="396.97" cy="230.04" r="9.74"/>
    <circle class="cls-7" cx="479.4" cy="210.24" r="9.74"/>
    <circle class="cls-7" cx="463.4" cy="226.24" r="9.74"/>
    <circle class="cls-14" cx="507" cy="252.24" r="31.97"/>
    <circle class="cls-8" cx="507" cy="252.24" r="28.97"/>
    <line class="cls-13" x1="487" y1="232" x2="527" y2="273"/>
    <path class="cls-12" d="m527.61,227.42l1.31-1.58c1.44-1.74,4.04-1.95,5.71-.44,1.97,1.78,4.44,4.42,6.23,7.77,1.06,1.99.22,4.46-1.81,5.44l-1.59.77"/>
    <path class="cls-12" d="m485.98,276.58l-1.38,1.51c-1.52,1.66-4.13,1.75-5.73.16-1.88-1.87-4.22-4.64-5.84-8.06-.96-2.04,0-4.47,2.07-5.35l1.63-.69"/>
    <line class="cls-13" x1="470.5" y1="196.5" x2="482.5" y2="227.5"/>
    <line class="cls-13" x1="472.5" y1="195.5" x2="490.5" y2="222.5"/>
    <g>
      <circle class="cls-24" cx="307.55" cy="245.74" r="24.95"/>
      <g>
        <path class="cls-25" d="m294.95,244.02h25.89c1.02,0,1.84.82,1.84,1.84v2.63c0,6.28-5.09,11.37-11.37,11.37h-6.84c-6.28,0-11.37-5.09-11.37-11.37v-2.63c0-1.02.82-1.84,1.84-1.84Z"/>
        <g>
          <path class="cls-25" d="m309.87,241.49l-3.36-11.62c-.44-1.51-2.4-1.92-3.38-.69-3.33,4.14-7.51,11.85,5.8,13.42.62.07,1.12-.51.94-1.11Z"/>
          <path class="cls-24" d="m311.61,246.18l1.68,5.81c.22.76,1.2.96,1.69.35,1.66-2.07,3.76-5.93-2.9-6.71-.31-.04-.56.26-.47.56Z"/>
        </g>
      </g>
    </g>
    <g>
      <g>
        <path class="cls-1" d="m421.47,365.23s-3.59-15.04,0-17.15c3.59-2.11,9.5-2.11,9.5-2.11,0,0,5.91,0,5.91,5.91s2.96,18.6,0,22.61-4.91,5.84-4.91,5.84"/>
        <path class="cls-1" d="m408.8,424.32s28.09-34,25.13-39.91c-2.96-5.91-8.87-20.7-14.78-17.74-5.91,2.96-10.35,11.51-10.35,11.51"/>
        <path class="cls-1" d="m362.98,392.16s16.26-.36,16.26-3.32-14.78-11.83-14.78-11.83l-15.46-4.43h-10.19v-17.25c0-3.08,2.26-5.72,5.31-6.11s6.89-.43,9.43,1.11c3.44,2.09,1.7-2.88.28-6.17-.63-1.46.08-3.15,1.55-3.74l2.11-.86c1.37-.56,2.93.11,3.45,1.5,2.08,5.53,7.11,24.13,9.42,24.13,2.96,0,8.37,6.53,17.74,8.87,11.83,2.96,23.65,5.91,23.65,5.91,0,0,6.38,3.69,6.15,12.19-.23,8.5-6.15,29.2-9.1,32.16s-30.44,18.79-30.44,18.79c0,0-7.99,5.86-18.34,5.36-6.08-.29-18.78-1.43-28.23-2.32-8.47-.8-16.52-4.15-22.95-9.71-1.22-1.06-2.42-2.15-3.51-3.24-8.87-8.87-17.74-26.61-11.83-44.35,5.91-17.74,20.7-41.39,20.7-50.26s-5.91-35.48,5.91-32.52,11.83,2.96,11.83,8.87-5.91,11.83-5.91,11.83l1.43,1.43c.89.89,1.16,2.24.65,3.4-.87,1.99-2.09,5.1-2.09,6.99,0,2.96,4.43,34,4.43,34"/>
        <polyline class="cls-1" points="374.88 384.05 388.11 374.06 398.28 376.6"/>
        <path class="cls-1" d="m297.31,379.06s6.98-18.17,32.63-10.1"/>
        <path class="cls-1" d="m362.98,399.07c5.91,14.91-4.3,32.64-4.3,32.64,0,0-4.57,8.59-22.31,5.77s-21.83-8.73-22.74-13.17-2-8.12-2-8.12"/>
        <path class="cls-1" d="m339.32,431.71s-14.78,0-23.65-8.87c-8.87-8.87-5.91-28.9-2.96-36.62,2.96-7.73,8.87-13.64,17.74-13.64s20.7,0,26.61,5.91c5.91,5.91,5.91,14.78,5.91,17.74,0,8.87,0,17.74-5.91,26.61-3.67,5.5-8.87,8.87-17.74,8.87Z"/>
        <rect class="cls-3" x="329.96" y="308.85" width="29.21" height="57.53" rx="3.16" ry="3.16"/>
      </g>
      <path class="cls-1" d="m366.7,358.42l-5.75-17.36s-1.63-2.6-4.36-.59,3.41,16.53,3.41,16.53"/>
      <g>
        <circle class="cls-24" cx="352.51" cy="316.51" r="4.01"/>
        <g>
          <path class="cls-25" d="m352.01,316.23h1.1c1.01,0,1.83.82,1.83,1.83v.42c0,.16-.13.3-.3.3h-4.16c-.16,0-.3-.13-.3-.3v-.42c0-1.01.82-1.83,1.83-1.83Z" transform="translate(705.13 635.01) rotate(180)"/>
          <g>
            <path class="cls-25" d="m352.88,315.83l-.54-1.87c-.07-.24-.39-.31-.54-.11-.54.67-1.21,1.91.93,2.16.1.01.18-.08.15-.18Z"/>
            <path class="cls-24" d="m353.16,316.58l.27.93c.04.12.19.15.27.06.27-.33.6-.95-.47-1.08-.05,0-.09.04-.08.09Z"/>
          </g>
        </g>
      </g>
    </g>
  </g>
</svg>