<?xml version="1.0" encoding="UTF-8"?>
<svg id="Layer_2" data-name="Layer 2" xmlns="http://www.w3.org/2000/svg" xmlns:xlink="http://www.w3.org/1999/xlink" viewBox="0 0 250.5 500.5">
  <defs>
    <style>
      .cls-1 {
        stroke: url(#linear-gradient-2);
      }

      .cls-1, .cls-2, .cls-3 {
        fill: none;
      }

      .cls-1, .cls-2, .cls-3, .cls-4, .cls-5 {
        stroke-miterlimit: 10;
      }

      .cls-2 {
        stroke: url(#linear-gradient-4);
      }

      .cls-3 {
        stroke: url(#linear-gradient-3);
      }

      .cls-6 {
        fill: url(#linear-gradient);
      }

      .cls-7 {
        fill: #fff;
      }

      .cls-8, .cls-9 {
        fill: #3b7f67;
      }

      .cls-4 {
        fill: #e8f2ed;
        stroke: #3b7f67;
        stroke-width: 2px;
      }

      .cls-5 {
        fill: #fbffff;
        stroke: #73bda4;
        stroke-width: .5px;
      }

      .cls-9 {
        font-family: BrandonGrotesque-Medium, 'Brandon Grotesque';
        font-size: 21.83px;
        font-weight: 500;
      }
    </style>
    <linearGradient id="linear-gradient" x1="122.14" y1="539.02" x2="128.67" y2="423.32" gradientUnits="userSpaceOnUse">
      <stop offset=".44" stop-color="#fff"/>
      <stop offset=".9" stop-color="#88a376"/>
    </linearGradient>
    <linearGradient id="linear-gradient-2" x1="0" y1="305.33" x2="250" y2="305.33" gradientUnits="userSpaceOnUse">
      <stop offset="0" stop-color="#00a4a8"/>
      <stop offset=".05" stop-color="#10a8ac"/>
      <stop offset=".26" stop-color="#59bdbf"/>
      <stop offset=".45" stop-color="#92cdce"/>
      <stop offset=".61" stop-color="#bcd9d9"/>
      <stop offset=".74" stop-color="#d5e0e0"/>
      <stop offset=".82" stop-color="#dfe3e3"/>
      <stop offset="1" stop-color="#e4e4e4"/>
    </linearGradient>
    <linearGradient id="linear-gradient-3" y1="152.67" y2="152.67" xlink:href="#linear-gradient-2"/>
    <linearGradient id="linear-gradient-4" x1="124.5" y1="229" x2="125.5" y2="229" xlink:href="#linear-gradient-2"/>
  </defs>
  <g id="Layer_1-2" data-name="Layer 1">
    <circle class="cls-7" cx="125" cy="111" r="92"/>
    <g>
      <g>
        <path class="cls-5" d="m83.67,171.88l.73-.29c.6-.24,1.06-.74,1.25-1.36l2.73-8.86-9.31,2.28,3.38,7.73c.2.47.74.69,1.21.5Z"/>
        <path class="cls-5" d="m75.35,163.28c-.57,1.01.24,2.25,1.4,2.12,5.84-.65,19.7-2.66,28.46-7.63,10.43-5.92,63.63-37.17,72.09-42.14.77-.45,1.49-.98,2.15-1.59,2.65-2.42,9.5-8.83,8.49-9.53-.31-.21-1.16-.4-2.26-.55-5.27-.75-10.64.34-15.28,2.96l-71.96,40.66s-5.4,3.17-8.95,1.64c-2.87-1.24-13.02-5.08-16.76-6.49-.89-.34-1.88-.29-2.73.12l-2.25,1.08c-.95.46-1.2,1.7-.49,2.49l10.85,11.96-2.76,4.9Z"/>
        <path class="cls-5" d="m62.48,155.16l15.12,6.92c1.06.49,2.23.67,3.39.53,1.94-.24,4.85-.67,5.71-1.18.62-.36,1.14-1.41,1.53-2.43.45-1.19-.32-2.49-1.57-2.69l-22.55-3.49c-.58-.09-1.17.11-1.56.55l-.35.38c-.41.44-.27,1.16.28,1.41Z"/>
        <path class="cls-5" d="m124.94,137.83l-34.97-18.62-6.09-6.5h0c.58-.44,1.37-.51,2.02-.19l8.51,4.24,37.11,9.52,8.18-5.85s1.91-1.44,3.16-.58,4.98,3.44,4.65,4.59-2.05,3.64-2.05,3.64l-8.14,5.02"/>
        <path class="cls-5" d="m130.26,144.78l2.66,1.71c.13.08.24.2.31.34l4.68,8.61c.05.09.08.18.1.28l1.52,8.31c.08.46.5.79.96.76h.21c.36-.03.68-.25.82-.59l3.4-8.27c.03-.07.05-.15.06-.23l1.41-10.27c.09-.63-.47-1.16-1.09-1.05l-1.51.28,7.18-1.32s.07-.01.1-.02c.66-.2,7.88-2.46,8.35-4.95.4-2.13-1.39-4.73-2.05-5.6-.17-.22-.42-.36-.69-.37-.45-.02-1.2.04-2.13.54s-2.63,1.3-3.92,1.9c-.69.32-1.45-.27-1.31-1.02h0c.14-.79-.7-1.38-1.39-.97l-17.65,10.34c-.6.35-.62,1.21-.03,1.59Z"/>
        <path class="cls-5" d="m142.19,140.64s1.08-1.66,2.84-2.74c1.76-1.08,5.62-3.06,5.62-3.06"/>
      </g>
      <rect class="cls-6" x=".5" y="458.5" width="250" height="42"/>
      <g>
        <line class="cls-1" y1="305.33" x2="250" y2="305.33"/>
        <line class="cls-3" y1="152.67" x2="250" y2="152.67"/>
        <line class="cls-2" x1="125" x2="125" y2="458"/>
      </g>
      <g>
        <path class="cls-4" d="m188.5,468.5l-5,12v.11c0,2.6,2.11,4.71,4.71,4.71h8.69c.33-1.55,1.85-2.53,3.39-2.19,5.12,1.13,15.97,3.37,21.21,3.37h11.84c1.42,0,2.57-1.15,2.57-2.57h0c0-.96-.54-1.83-1.39-2.26l-34.01-17.17-12,4Z"/>
        <path class="cls-4" d="m204.1,341.89l-14.83-9.02-16.9,3.8,26.32,75.13-10.49,57.91s7.06,3.92,11.65,2.71,19.4-60.72,19.4-60.72c0,0,1.29-9.8.33-11.41s-15.48-58.4-15.48-58.4Z"/>
        <path class="cls-4" d="m135.59,447.49s-8.09,4.01-7.09,8.01,12,23,12,23c0,0,3,6,6,6,.03,0,.06,0,.09,0,2.22-.03,3.91-2.02,3.71-4.24l-2.54-28.69-3.26-6.07-8.91,1.99Z"/>
        <path class="cls-4" d="m164.81,340.62s1.05,11.49,3.37,19.56,7.47,37.01,7.47,37.01l-39.34,45.09s-2.09,2.94.85,5.03,8.88,4.26,8.88,4.26c0,0,53.17-43.02,52.82-46.25s-1.44-68.29-1.44-68.29c0,0-10.82-6.32-15.82-6.47s-15.2,6.44-15.2,6.44l-1.6,3.62Z"/>
        <path class="cls-4" d="m164.01,341.17s23.53-2.33,28.51,0,9.98,8.33,9.98,8.33l1.26-8.33,2.19,8.33s5.55-30,3.55-45-6-50-7-53-22-17-22-17c0,0-5,1-7,3s-9,11-9,11c0,0-2.98,81.33-.49,92.67Z"/>
        <path class="cls-4" d="m156.5,285.5s-2,57-3,58-5.62.86-5.89,5c-.26,3.95-.19,1.95-.11,5,.08,3.16,2,4,2,4-.21.04,1.81.6,3-1,.86-1.16.43-3.76.2-5.14-.14-.85.36-1.43.8-1.86.44-.44,1.5,0,2,1,.67,1.33,0,3.11-.52,4.15-.39.78-.63,1.62-.75,2.48-.2,1.46-.35,3.37.27,3.37,1,0,5-2,5-3s3-11,2-12,12.75-50.25,12.75-50.25l2.25-11.75-17-4-3,6Z"/>
        <g>
          <path class="cls-4" d="m196.3,244.07c.18-1.4.48-2.77.94-4.1.91-2.66,2.67-6.46,5.26-6.46,4,0,3,0,6-1,.95-.32,3-1.94,3-3v-3c0-2,.29-2,1-2h2c1.14,0,.98-2.07.7-3.18l-2.7-6.82c1-1,2.01-2.96,2-3-.13-.4,2.5-6.59,1.25-8.8s-3.25-8.2-7.25-9.2-11-3-16-1-9,0-11,6-4,8-3,12,2,9,4,11,2,3,4,2c1.84-.92-1.41,4.94-1.93,5.88-.05.08-.1.16-.16.23l-2.82,3.53c-.6.75-.49,1.85.26,2.45,3.68,3,13.65,11.28,13.65,12.91,0,1.42.51-2.21.8-4.43Z"/>
          <path class="cls-4" d="m190.97,217.22c.47.72-1.47,2.28-3.05,1.5s-3.42-6.21-3.42-6.21c0,0-1-4,2-5s5,4,5,4l2,2s7-14,12-12,10.25,1.2,10.25,1.2"/>
        </g>
        <path class="cls-4" d="m203.5,341.5s1-54.14,0-59.07-5-28.93-5-28.93l-5-7s-5.19,1.64-4.6,5.32-8.4-17.32-8.4-17.32"/>
        <path class="cls-4" d="m156.5,285.5s2-3,7-2,10,8,10,8l1,5,12.42-25.04s5.58-9.96,1.58-15.96-10-12-14-11-8,1-10,4-9,20-8,37Z"/>
        <circle class="cls-4" cx="17.5" cy="463.5" r="5"/>
        <circle class="cls-4" cx="37.5" cy="481.5" r="5"/>
        <path class="cls-4" d="m108.5,405.5l45.65-55h0c1.31,1.11,1.48,3.06.4,4.39l-43.05,52.61-3-2Z"/>
        <path class="cls-4" d="m55.06,482.66c2.29-2.1,4.44-4.36,6.42-6.75l50.02-60.4s4-3.7,0-7.35c-2.6-2.38-16.65-14.22-26.13-22.2-4.9-4.12-12.21-3.5-16.36,1.38l-50.31,59.34c-2.33,2.75-2.13,6.85.48,9.35l27.58,26.53c2.31,2.22,5.94,2.26,8.3.1h0Z"/>
        <path class="cls-4" d="m52.5,469.5l45.65-55h0c1.31,1.11,1.48,3.06.4,4.39l-40.76,49.82c-1.3,1.58-3.58,1.93-5.28.79h0Z"/>
      </g>
    </g>
    <g>
      <text class="cls-9" transform="translate(86.99 82.45)"><tspan x="0" y="0">travbudd</tspan></text>
      <g>
        <path class="cls-8" d="m128.23,62.43c.04-.72.52-1.28,1.22-1.43l1.96-.42c.33-.07.67-.05.99.06l1.54.59h0s5.24-1.53,5.24-1.53c1.12-.33.8-1.99-.36-1.88l-2.18.21c-.66.06-1.29.28-1.88.6-4.34,2.38-16.35,3.19-18.04,3.41-.11.01-.21-.01-.3-.08-1.1-.81-8.24-6.08-8.24-6.08-.21.05-.35.26-.3.47l5.75,7.97c.13.18.11.42-.06.57-.54.49-1.81,1.49-2.89,2.35-.38.3-.06.9.4.75l4.45-1.4,12.74-3.72c-.03-.15-.05-.3-.05-.45Z"/>
        <path class="cls-8" d="m129.64,63.48l10.35,2.21c.28.06.58.03.84-.09l1.29-.59-9.85-3.8c-.23-.09-.49-.11-.73-.06l-1.91.41c-1.03.22-1.03,1.69,0,1.91Z"/>
        <path class="cls-8" d="m125.74,58.98l-8.41-1.82c-.23-.05-.47-.03-.69.07l-1.04.45,8.01,3.08c.19.07.39.09.59.05l1.53-.31c.82-.17.83-1.34.01-1.51Z"/>
      </g>
    </g>
  </g>
</svg>