<?xml version="1.0" encoding="UTF-8"?>
<svg id="Layer_2" data-name="Layer 2" xmlns="http://www.w3.org/2000/svg" xmlns:xlink="http://www.w3.org/1999/xlink" viewBox="0 0 250.5 500.5">
  <defs>
    <style>
      .cls-1 {
        stroke: url(#linear-gradient-2);
      }

      .cls-1, .cls-2, .cls-3 {
        fill: none;
      }

      .cls-1, .cls-2, .cls-3, .cls-4, .cls-5 {
        stroke-miterlimit: 10;
      }

      .cls-2 {
        stroke: url(#linear-gradient-4);
      }

      .cls-3 {
        stroke: url(#linear-gradient-3);
      }

      .cls-6 {
        fill: url(#linear-gradient);
      }

      .cls-7 {
        fill: #fff;
      }

      .cls-8 {
        fill: #548f7a;
      }

      .cls-9, .cls-10 {
        fill: #3b7f67;
      }

      .cls-4 {
        fill: #e8f2ed;
        stroke: #3b7f67;
        stroke-width: 2px;
      }

      .cls-5 {
        fill: #fbffff;
        stroke: #73bda4;
        stroke-width: 1.5px;
      }

      .cls-10 {
        font-family: BrandonGrotesque-Medium, 'Brandon Grotesque';
        font-size: 21.83px;
        font-weight: 500;
      }
    </style>
    <linearGradient id="linear-gradient" x1="122.14" y1="539.02" x2="128.67" y2="423.32" gradientUnits="userSpaceOnUse">
      <stop offset=".44" stop-color="#fff"/>
      <stop offset=".9" stop-color="#88a376"/>
    </linearGradient>
    <linearGradient id="linear-gradient-2" x1="0" y1="305.33" x2="250" y2="305.33" gradientUnits="userSpaceOnUse">
      <stop offset="0" stop-color="#00a4a8"/>
      <stop offset=".05" stop-color="#10a8ac"/>
      <stop offset=".26" stop-color="#59bdbf"/>
      <stop offset=".45" stop-color="#92cdce"/>
      <stop offset=".61" stop-color="#bcd9d9"/>
      <stop offset=".74" stop-color="#d5e0e0"/>
      <stop offset=".82" stop-color="#dfe3e3"/>
      <stop offset="1" stop-color="#e4e4e4"/>
    </linearGradient>
    <linearGradient id="linear-gradient-3" y1="152.67" y2="152.67" xlink:href="#linear-gradient-2"/>
    <linearGradient id="linear-gradient-4" x1="124.5" y1="229" x2="125.5" y2="229" xlink:href="#linear-gradient-2"/>
  </defs>
  <g id="Layer_1-2" data-name="Layer 1">
    <circle class="cls-7" cx="125" cy="111" r="92"/>
    <g>
      <g>
        <path class="cls-5" d="M83.67,171.88l.73-.29c.6-.24,1.06-.74,1.25-1.36l2.73-8.86-9.31,2.28,3.38,7.73c.2,.47,.74,.69,1.21,.5Z"/>
        <path class="cls-5" d="M75.35,163.28c-.57,1.01,.24,2.25,1.4,2.12,5.84-.65,19.7-2.66,28.46-7.63,10.43-5.92,63.63-37.17,72.09-42.14,.77-.45,1.49-.98,2.15-1.59,2.65-2.42,9.5-8.83,8.49-9.53-.31-.21-1.16-.4-2.26-.55-5.27-.75-10.64,.34-15.28,2.96l-71.96,40.66s-5.4,3.17-8.95,1.64c-2.87-1.24-13.02-5.08-16.76-6.49-.89-.34-1.88-.29-2.73,.12l-2.25,1.08c-.95,.46-1.2,1.7-.49,2.49l10.85,11.96-2.76,4.9Z"/>
        <path class="cls-5" d="M62.48,155.16l15.12,6.92c1.06,.49,2.23,.67,3.39,.53,1.94-.24,4.85-.67,5.71-1.18,.62-.36,1.14-1.41,1.53-2.43,.45-1.19-.32-2.49-1.57-2.69l-22.55-3.49c-.58-.09-1.17,.11-1.56,.55l-.35,.38c-.41,.44-.27,1.16,.28,1.41Z"/>
        <path class="cls-5" d="M124.94,137.83l-34.97-18.62-6.09-6.5h0c.58-.44,1.37-.51,2.02-.19l8.51,4.24,37.11,9.52,8.18-5.85s1.91-1.44,3.16-.58,4.98,3.44,4.65,4.59-2.05,3.64-2.05,3.64l-8.14,5.02"/>
        <path class="cls-5" d="M130.26,144.78l2.66,1.71c.13,.08,.24,.2,.31,.34l4.68,8.61c.05,.09,.08,.18,.1,.28l1.52,8.31c.08,.46,.5,.79,.96,.76h.21c.36-.03,.68-.25,.82-.59l3.4-8.27c.03-.07,.05-.15,.06-.23l1.41-10.27c.09-.63-.47-1.16-1.09-1.05l-1.51,.28,7.18-1.32s.07-.01,.1-.02c.66-.2,7.88-2.46,8.35-4.95,.4-2.13-1.39-4.73-2.05-5.6-.17-.22-.42-.36-.69-.37-.45-.02-1.2,.04-2.13,.54s-2.63,1.3-3.92,1.9c-.69,.32-1.45-.27-1.31-1.02h0c.14-.79-.7-1.38-1.39-.97l-17.65,10.34c-.6,.35-.62,1.21-.03,1.59Z"/>
        <path class="cls-5" d="M142.19,140.64s1.08-1.66,2.84-2.74c1.76-1.08,5.62-3.06,5.62-3.06"/>
      </g>
      <rect class="cls-6" x=".5" y="458.5" width="250" height="42"/>
      <g>
        <line class="cls-1" y1="305.33" x2="250" y2="305.33"/>
        <line class="cls-3" y1="152.67" x2="250" y2="152.67"/>
        <line class="cls-2" x1="125" x2="125" y2="458"/>
      </g>
      <g>
        <path class="cls-4" d="M181.5,468.5l-5,12v.11c0,2.6,2.11,4.71,4.71,4.71h8.69c.33-1.55,1.85-2.53,3.39-2.19,5.12,1.13,15.97,3.37,21.21,3.37h11.84c1.42,0,2.57-1.15,2.57-2.57h0c0-.96-.54-1.83-1.39-2.26l-34.01-17.17-12,4Z"/>
        <path class="cls-4" d="M197.1,341.89l-14.83-9.02-16.9,3.8,26.32,75.13-10.49,57.91s7.06,3.92,11.65,2.71,19.4-60.72,19.4-60.72c0,0,1.29-9.8,.33-11.41s-15.48-58.4-15.48-58.4Z"/>
        <path class="cls-4" d="M128.59,447.49s-8.09,4.01-7.09,8.01,12,23,12,23c0,0,3,6,6,6,.03,0,.06,0,.09,0,2.22-.03,3.91-2.02,3.71-4.24l-2.54-28.69-3.26-6.07-8.91,1.99Z"/>
        <path class="cls-4" d="M157.81,340.62s1.05,11.49,3.37,19.56,7.47,37.01,7.47,37.01l-39.34,45.09s-2.09,2.94,.85,5.03,8.88,4.26,8.88,4.26c0,0,53.17-43.02,52.82-46.25s-1.44-68.29-1.44-68.29c0,0-10.82-6.32-15.82-6.47s-15.2,6.44-15.2,6.44l-1.6,3.62Z"/>
        <path class="cls-4" d="M157.01,341.17s23.53-2.33,28.51,0,9.98,8.33,9.98,8.33l1.26-8.33,2.19,8.33s5.55-30,3.55-45-6-50-7-53-22-17-22-17c0,0-5,1-7,3s-9,11-9,11c0,0-2.98,81.33-.49,92.67Z"/>
        <path class="cls-4" d="M149.5,285.5s-2,57-3,58-5.62,.86-5.89,5c-.26,3.95-.19,1.95-.11,5,.08,3.16,2,4,2,4-.21,.04,1.81,.6,3-1,.86-1.16,.43-3.76,.2-5.14-.14-.85,.36-1.43,.8-1.86,.44-.44,1.5,0,2,1,.67,1.33,0,3.11-.52,4.15-.39,.78-.63,1.62-.75,2.48-.2,1.46-.35,3.37,.27,3.37,1,0,5-2,5-3s3-11,2-12,12.75-50.25,12.75-50.25l2.25-11.75-17-4-3,6Z"/>
        <g>
          <path class="cls-4" d="M189.3,244.07c.18-1.4,.48-2.77,.94-4.1,.91-2.66,2.67-6.46,5.26-6.46,4,0,9,2.16,9-1,0-1,.23-1.96,0-3-.08-.37-1-2.62-1-3,0-2,.29-3,1-3h2c1.14,0,1.98-1.07,1.7-2.18l-1.69-6.76s-.02-.08-.03-.12c-.13-.4-.98-3.03-.98-3.95,0-1,4.5-5.59,3.25-7.8s-3.25-8.2-7.25-9.2-11-3-16-1-9,0-11,6-4,8-3,12,2,9,4,11,2,3,4,2c1.84-.92-1.41,4.94-1.93,5.88-.05,.08-.1,.16-.16,.23l-2.82,3.53c-.6,.75-.49,1.85,.26,2.45,3.68,3,13.65,11.28,13.65,12.91,0,1.42,.51-2.21,.8-4.43Z"/>
          <path class="cls-4" d="M184.5,211.5s-2-5-5-4-2,5-2,5c0,0,1.84,5.43,3.42,6.21s3.52-.78,3.05-1.5"/>
        </g>
        <path class="cls-4" d="M196.5,341.5s1-54.14,0-59.07-5-28.93-5-28.93l-5-7s-5.19,1.64-4.6,5.32-8.4-17.32-8.4-17.32"/>
        <path class="cls-4" d="M149.5,285.5s2-3,7-2,10,8,10,8l1,5,12.42-25.04s5.58-9.96,1.58-15.96-10-12-14-11-8,1-10,4-9,20-8,37Z"/>
        <circle class="cls-4" cx="10.5" cy="463.5" r="5"/>
        <circle class="cls-4" cx="30.5" cy="481.5" r="5"/>
        <path class="cls-4" d="M101.5,405.5l45.65-55h0c1.31,1.11,1.48,3.06,.4,4.39l-43.05,52.61-3-2Z"/>
        <path class="cls-4" d="M48.06,482.66c2.29-2.1,4.44-4.36,6.42-6.75l50.02-60.4s4-3.7,0-7.35c-2.6-2.38-16.65-14.22-26.13-22.2-4.9-4.12-12.21-3.5-16.36,1.38l-50.31,59.34c-2.33,2.75-2.13,6.85,.48,9.35l27.58,26.53c2.31,2.22,5.94,2.26,8.3,.1h0Z"/>
        <path class="cls-4" d="M45.5,469.5l45.65-55h0c1.31,1.11,1.48,3.06,.4,4.39l-40.76,49.82c-1.3,1.58-3.58,1.93-5.28,.79h0Z"/>
      </g>
    </g>
    <g>
      <text class="cls-10" transform="translate(103.98 70.45)"><tspan x="0" y="0">travbudd</tspan></text>
      <g>
        <g>
          <path class="cls-7" d="M87.53,59.73l10.92,.51c-.27,5.8-5.11,10.42-10.92,10.42s-10.93-4.93-10.93-10.93,4.93-10.93,10.93-10.93,10.93,4.93,10.93,10.93h-10.93Z"/>
          <g>
            <path class="cls-8" d="M87.53,59.47s-.02,.11,.11,.09l.09-.13-.2,.03Z"/>
            <path class="cls-8" d="M88.41,59.71c.15-.06,.33-.17,.23-.29-.15,.12-.19,.07-.35,.22-.13,.02-.23-.04-.21-.09-.05,.03-.2-.03-.27,.05,.17,.1,.39,.1,.61,.02,.05,.03,0,.06,0,.09Z"/>
            <path class="cls-8" d="M98.28,57.01v.08s0-.05,0-.08Z"/>
            <path class="cls-8" d="M93.82,50.51c.05,.03,.08,.04,.09,.03-.05-.03-.09-.05-.09-.03Z"/>
            <path class="cls-8" d="M92.7,49.68s.05,.03,.07,.04c-.02-.02-.05-.04-.07-.04Z"/>
            <path class="cls-8" d="M98.28,57.01v-.22c-.06,0-.02,.11,0,.22Z"/>
            <path class="cls-8" d="M90.16,59.4s-.08,.02-.11,.03h.11s0-.03,0-.03Z"/>
            <path class="cls-8" d="M97.68,60.01h-.06s-.04,.03-.05,.05l.12-.05Z"/>
            <path class="cls-8" d="M95,60.03c.06,0,.08-.1,.1-.15-.03,.05-.08,.07-.13,.08,0,.02,0,.05,.03,.08Z"/>
            <path class="cls-8" d="M90.76,59.84l-.08,.02s.05-.01,.08-.02Z"/>
            <path class="cls-8" d="M98.7,58.57s.03-.02,.04-.03c-.01,0-.03,.01-.04,.03Z"/>
            <path class="cls-8" d="M90.6,60.39s0-.01,0-.02c-.02,.01-.02,.02,0,.02Z"/>
            <path class="cls-8" d="M87.53,59.7h.04s.01-.04,.01-.06l-.06,.06Z"/>
            <path class="cls-8" d="M90.35,48.64s.01,0,.01,0c.07,0,.03,0-.01,0Z"/>
            <path class="cls-8" d="M76.53,62.61c.03-.28,.23,.38,.24-.03-.03,.05-.26-.31-.24,.03Z"/>
            <path class="cls-8" d="M90.23,59.41h.11s-.08,0-.11,0Z"/>
            <path class="cls-8" d="M76.77,62.58h0s0-.04,0-.04c0,.02,0,.03,0,.04Z"/>
            <path class="cls-8" d="M84.47,48.76s.04,.02,.07,.03c0-.01-.02-.02-.07-.03Z"/>
            <path class="cls-8" d="M88.83,48.57l-.11-.03s.08,.03,.11,.03Z"/>
            <path class="cls-8" d="M82.41,49.74c-.06,.02-.08,.01-.15,.06h.03s.05-.05,.12-.06Z"/>
            <polygon class="cls-8" points="80.45 51.03 80.49 51.02 80.55 50.97 80.45 51.03"/>
            <path class="cls-8" d="M97.55,60.66s-.08-.07-.1-.1c.03,.08-.31,.09,.1,.1Z"/>
            <path class="cls-8" d="M90.17,59.46s.03-.04,.07-.05h-.08s0,.04,0,.05Z"/>
            <path class="cls-8" d="M82.73,50.55c-.11,.04-.21,.1-.31,.15,.09-.04,.2-.1,.31-.15Z"/>
            <path class="cls-8" d="M88.56,70.16l.08-.03s-.06,0-.08,.03Z"/>
            <path class="cls-8" d="M81.57,51.27c-.07,0-.14,.03-.2,.06,0,.02-.02,.03-.02,.05l.22-.1Z"/>
            <path class="cls-8" d="M97.45,60.55h0s0,0,0,0Z"/>
            <path class="cls-8" d="M95.05,60.7c.35,.02,.17-.13,.25-.21,.42-.02,.19,.11,.32,.2,.26-.03,.46-.15,.66-.13,.01,.02,.05,.03,0,.06,.28-.1,.81,.03,1.14-.1,.02,.01,.03,.03,.04,.04-.05-.07-.05-.15-.04-.2,.16,0,.29-.08,.35,.02-.1,0-.1,.03-.15,.06l.16-.03c.12,.14-.21,.04-.23,.14,.08,0,.17-.02,.24-.03l.15-.04c.1-.01,.27-.06,.26,.01-.07,.07-.33,.01-.25,.12-.04-.02-.08-.04-.14-.06,.05,.21-.06-.02-.03,.21,.03,.02,.05,0,.09-.01,.02,0,.03,.03,0,.08,.07,.02,.11-.03,.18,0,.08,.62-.39,.46-.3,.95,.06,.14,.22,.23,.05,.56l-.12-.15c-.14,.44,.13,.31-.1,.75-.03-.1,.06-.36,.02-.3-.2,.26,.02,.24-.05,.47h-.14c-.16,.46-.25,1.02-.5,1.5-.02-.05-.01-.15-.11-.05-.12,.32-.31,.64-.54,.92-.2,.3-.47,.55-.7,.78l-.07,.27s-.11,.05-.08-.01c-.2,.16,.05,.06,0,.18-.1,.11-.18,.1-.14,0-.12,.19-.3,.47-.52,.72-.23,.23-.49,.45-.71,.56l.05-.09c-.32,.19-.2,.44-.54,.56l.04-.06c-.68,.44-1.46,.94-2.09,1.03-.05,.2-.78,.2-.75,.44-.48,.04-.37-.06-1.01,.03-.17,.04-.22,.2-.43,.25l-.03-.12-.27,.17-.17-.12-.19,.06c.08,0,.17,.03,.17,.06-.31,.12-.78-.03-.78-.08-.24,.04-.49,.1-.74,.11,.02-.05,.14-.06,.24-.08-.4,.1-.07-.13-.43-.04,.05,.03-.03,.07-.04,.09-.18-.09-.59-.09-.89-.12l.07-.07c-.27-.06-.55-.08-.85-.13-.29-.06-.59-.13-.89-.2,.2,.09,.11,.22-.07,.18l-.03-.14c-.13,.03,.17,.11-.09,.12-.22-.1-.1-.19,.04-.18l-.28-.06s.07-.04,.1-.08c-.14,.03-.4-.28-.61-.21v-.04c-.54-.28-.83-.32-1.26-.59-.06,.09-.22-.03-.4-.04-.31-.21-.57-.56-.94-.81-.28-.16-.13,.01-.28-.03,.05-.09-.29-.39-.07-.28-.41-.34-.52-.44-1.03-.9,.02,.08,.06,.16,0,.15-.1-.08-.16-.24-.11-.26l.03,.02c-.31-.24-.51-.65-.7-1.03-.16-.4-.33-.75-.55-.98l.02,.03-.37-.52c-.11-.27,.14,.13,.11-.09-.41-.56-.39-.99-.62-1.5,.16-.48-.36-1.49-.17-2.1l-.07,.04c-.08-.15,.03-.18,.04-.29-.05,.02-.05,.16-.1,.07-.14-1.28,.24-2.63,.73-3.81,.19-.43-.26-.39,.14-.88l.04,.21c.25-.94,.91-1.73,1.4-2.54-.01,.06,.02,.09-.04,.16,.18-.11,.49-.55,.43-.61,.11-.1,.07,.02,.16-.02,.17-.11,.25-.45,.4-.45,.02,0-.02,.06-.04,.09,.06-.12,.45-.4,.29-.39,.29-.21,.49-.47,.76-.59,.07-.22,.52-.31,.48-.47,.08,.16,.6-.21,.76-.39-.04,.08,.2-.04,.16,.07,.23-.11,.42-.24,.34-.31,.5-.03,.82-.51,1.16-.36,.69-.33,1.37-.53,2.05-.66,0,.18-.75,.13-.69,.31,.31-.08,.56-.18,.81-.26,.25-.06,.51-.1,.83-.09,.17,.02-.09,.08-.15,.11,.32-.07,.64-.05,.94-.02,.3,.01,.58,.02,.89,.03,0,.02-.07,.02-.13,.03,.11,.01,.26,.07,.26-.01h-.11c-.17-.14,.49-.17,.52-.22-.23,.18,.56,.17,.2,.39,.08,0,.18,0,.17-.07,.11,.04,.13,.08,0,.11,.4,.06,.29-.06,.65,.04-.01,.04-.09,.03-.14,.07,.2-.03,.41-.04,.69,.1-.03,.02,0,.06-.09,.02,.51,.16,.94,.15,1.45,.49-.24,.07,.16,.14,.11,.28l.29,.13-.07-.13c.24,.15,.51,.19,.69,.35l-.21-.06c.16,.08,.31,.17,.45,.27l-.21-.22c.27,.11,.08-.17,.36,.09-.07-.03,.23,.17,.29,.33h0c.14,.05,.29,.09,.42,.27,0,.07-.14,.09-.13,.14,.18,0,.51,.42,.73,.45-.06-.02-.12,.03-.12,.06h.15c.07,.13,.07,.16,0,.19,.25,.3,.05-.22,.31,.18-.03-.02-.03,0-.09-.05,.3,.36,.64,.65,.86,1.03-.04,.19-.26-.28-.27-.09,.2,.23,.42,.47,.61,.73,.2,.25,.39,.51,.5,.79l-.03-.11c.22-.02,.1,.45,.33,.68-.05-.06-.15-.04-.12-.03,.11,.39,.37,.75,.6,1.34l-.07-.06c.01,.25,.14,.62,.17,.89,.06,.07,.08,.22,.14,.11-.1,.43,.04,.79,.08,1.17,.03,.19,.06,.28,.07,.44v.1s0,.06-.05,.05c-.08-.01-.16-.03-.23-.06,.06,0,.09-.05,.05-.05-.13,.02-.16,.03-.41,.05,.05,.09,.09,.05,.2,.12-.06,.05-.25,.09-.4,.09,.28-.06,0-.14-.12-.2,.02,.03-.02,.06-.01,.09-.33-.16-.05,.18-.5,.07l.02-.05c-.17,.02-.32,.09-.5,.07-.07-.1,.18-.05,.19-.13-.25,0-.5,.2-.73,.09,.11-.03,.26-.03,.37-.06-.25-.12-.28-.09-.46-.11h.02s-.43-.05-.43-.05l.11,.03c-.32,.27-.64,.05-1.07,.23,.41-.17,.07-.1,.1-.22-.11-.03-.27-.07-.23-.1-.2,.1-.34-.08-.62,.06-.01-.04-.22,0-.17-.1-.26,.03,.06,.07,.04,.11-.4,.13-.95-.16-1.53,.02-.5,.07-.59,.2-1.06,.27-.16-.06,.13-.14,.13-.14-.25-.06-.44-.05-.68,0,.05-.03,0-.06-.07-.1-.19,0-.13,.14-.38,.08,.04-.04,.1-.11,.19-.15-.23,.03-.45,.11-.68,.14-.06-.07,.14-.1,.22-.14-.26,.03-.68,.06-.76,.17l.17,.04c-.1,0-.05-.09,.02-.11,.22-.08,.32,.04,.34,.07l-.17,.02c.17,.22,.67-.04,1-.02l-.14,.16,.34-.13c.07,.04,.12,.13-.04,.16,.24,.08,.21-.06,.42,.03,.02,.01,.01,.02,0,.03l.23-.05s.04,.11-.1,.09c.42,.09,.68-.12,.84,0h-.04c.58-.04,.06-.11,.49-.25l.29,.29,.06-.12c.06,0,.18,.01,.16,.06,.22-.08-.04-.05,.09-.13,.29,.11,.8-.05,.86,.14,.1-.09-.28-.07,.03-.13,.09,.2,.36-.03,.62,.06-.08,.11-.33,.05-.07,.14,.16-.18,.51,.04,.74,0,.01-.14,.48-.06,.86-.11-.02,.05,.7,.08,1.05,.13v.02c.06-.14,.42-.12,.68-.15-.01,.09-.06,.12-.2,.16h.25c.07-.05,.1-.07,.33-.09-.02,.04-.04,.07-.07,.11,.24,0,.48-.03,.7-.06,.04-.02,.15,.03,.13-.05l-.02-.2c0-.13,0-.26,0-.4-.1,0-.27,.23-.35-.18,.05,0,.15-.03,.17,.11,0-.05-.05-.16-.03-.23,.03,.05,.07,.13,.1,.2,.03-.24-.08-.12-.08-.28,.08,0,.05-.12,.11-.1,0,.04-.02,.14,0,.2,0-.18,.04-.39,.09-.47-.04,.02-.1,.01-.13-.12-.06-.33,.07-.12,.08-.32-.07-.07-.04-.29-.16-.28-.01-.1,.04-.12,.06-.17-.06-.17-.21-.79-.27-.57v.04s0-.03,0-.03h0s0,0,0,0c-.23-.52-.27-1.14-.52-1.65h.04c-.18-.3-.35-.68-.52-.85-.04-.09-.04-.24,.02-.22-.16-.21-.21-.21-.35-.55,.19,.18,0-.11,.18,.2-.15-.3-.13-.41-.42-.64,.15,.04-.05-.27-.17-.38l.08,.23c-.12-.13-.21-.26-.29-.4h.15c-.14-.34-.41-.53-.64-.71-.24-.18-.44-.35-.55-.62-.2-.06,.23,.3,.04,.26-.22-.22-.34-.58-.41-.65-.28-.35-.44-.11-.76-.42,.02,.07-.01,.2-.3,.04-.24-.2-.2-.38-.02-.3,.06,.04,.08,.08,.07,.09,.09,.05,.21,.11,.14,0h-.06c-.09-.13-.47-.35-.34-.36-.23-.09-.13,.01,0,.12-.31-.26-.53-.34-.88-.58,.05,.05,.08,.13,.02,.1-.52-.32-.28-.04-.66-.2-.18-.17,.15-.12-.25-.24-.22-.13,0-.14,.11-.13-.39-.06-.65-.31-.86-.4l.2,.04c-.12-.02-.22-.06-.31-.09l.08,.13c-.11-.06-.2-.09-.19-.13-.14,.03,.04,.17-.21,.19-.14-.08-.47-.07-.5-.2,.47,.17-.02-.13,.39-.05-.08,0-.18-.03-.29-.08-.01-.02,.02-.02,.06-.02-.44-.22-.24,.06-.73-.03,.08-.06-.09-.15-.17-.14,.2,.03,.07,.13-.11,.15-.3-.1-.34-.01-.51-.04l.18,.05c-.07,.06-.22,.02-.44,.02-.01-.06,.2-.02,.13-.05-.25,.1-.54-.16-.88-.09-.16-.05-.01-.13-.15-.17-.38,.08-.42-.08-.82,0,.12,.09,.14,.06-.14,.17l.66-.1-.42,.16c.2,0,.41-.08,.53-.07-.2,.09-.18,.06-.08,.13-.27-.13-.53,.11-.84,.03v-.23c-.5-.06-.83,.22-1.44,.28,.07,0,.13-.01,.2,0-.06,.1-.36,.1-.55,.19,0-.08-.13-.08-.22-.1,.03,.06-.44,.1-.44,.28h-.29c-.48,.14-.46,.38-.89,.57,.09-.14-.12-.09,.14-.29-.14,.07-.28,.12-.26,.17-.11,0-.35,.28-.51,.28-.04,.06-.03,.13-.18,.22-.02,0-.02-.03-.02-.03,.02,.03-.21,.19-.04,.18-.26,.02-.56,.19-.82,.39-.26,.21-.51,.41-.74,.45-.25,.24-.54,.54-.76,.75,0-.03-.03-.03,.02-.06-.36,.25-.03,.34-.42,.64-.26,.1,.12-.24-.02-.15-.23-.11-.39,.45-.68,.63l.04-.07c-.22,.16-.31,.54-.54,.88,0,0,0-.03-.03-.02-.03,.32-.3,.77-.42,1.15-.04-.15,.03-.19-.09-.16-.06,.17,.17,.03,.04,.36-.1,.08-.25,.29-.37,.27l.14-.3c-.2,.1-.2,.39-.27,.55l-.05-.04c-.16,.5-.03,.55-.21,1.07l.06-.04c.07,.33-.15,.22-.11,.54l-.17,.05c-.03,.2-.02,.71-.03,1.06-.08-.21-.09-.64-.08-.91-.07,.19-.12,.67-.06,.78,0-.08-.02-.19,.01-.26,.09,.26,.09,.58,.04,.96-.28-.1-.15,1.01-.35,1.3,.13,.7,.05,1.4,.24,2.21,.15-.33,.07,.23,.29,.13,.06,.18,.08,.25,.07,.27,0,.19,0,.4,.02,.59-.02,.15-.11-.15-.15-.12,.12,.4-.04,.2,0,.48,.06-.08,.17,.1,.22,.33v-.36c.31,.5-.04,.56,.34,1.04l-.15-.14c.17,.26,.5,1.02,.83,1.16,0,.06-.01,.16-.1,.05,.17,.33,.44,.63,.71,.91,.25,.29,.51,.54,.66,.78h-.08c.1,.09,.24,.1,.31,.26-.02,.01-.08,0-.04,.05,.06,.04,.32,.19,.43,.33l-.16-.06c.47,.54,.91,.61,1.41,.91-.11,.15,.32,.51,.55,.67l-.02,.02c.35,.23,.67,.38,1.01,.47,.33,.11,.65,.21,1.02,.29,.37,.35,1.49,.59,2.23,.78-.11-.05,.04-.13,.17-.13,.17,.06,.5-.04,.45,.1h-.06c.12,.16,.49,.13,.78,.15l.05-.2c.37,.19,.86,.1,1.31,.06,.44-.07,.83-.18,1.06-.08,.17-.07,.39-.13,.55-.22l.02,.11c.5-.09,.75-.14,1.32-.38l-.09,.12c.34-.12,.31-.43,.59-.58l.15,.11c.56-.24,1.17-.43,1.6-.87,0,.03,.02,.08-.07,.13,.25-.15,.98-.56,.76-.67,.11,.13,.49-.39,.69-.65l.03,.11c.12-.28,.1-.31,.33-.62,.07-.06,.12,0,.01,.07,.25-.18,.09-.24,.38-.46l-.04,.15c.22-.22,.18-.23,.22-.41,.09-.18,.38-.44,.49-.42-.02-.07,.03-.24,.14-.38,.04,0,.03,.07,.02,.1,.34-.4,.33-.71,.59-.96,.03,.01,.06,0,.08-.02-.19,.37-.41,.63-.39,.6,.08,.06,.28-.22,.25,.08,.1-.27,.18-.75,.36-1.02,.02,0,.03-.02,.05-.02v.04c.04-.06,.06-.13,.08-.19,.06-.09,.11-.14,.15-.23,.09,0,.19-.34,.26-.5-.11-.03,0-.22-.17-.07,.02-.02,0,.03-.04,.14,0,.02-.02,.05-.02,.07,0,0,0,0,0-.01-.04,.1-.09,.24-.15,.39,0-.14,0-.29,.14-.44-.03-.11-.06-.22-.08-.28,.24-.15,.46-.54,.56-.57,.11-.5,.28-1.18,.13-1.53,0-.14,.09-.15,.13-.2,0,.09-.02,.18,0,.23,.02-.29,.09-.85-.04-.98,.11-.49,.11,.25,.15-.43l.04,.07c.02-.1,.04-.2,.06-.29l.02-.14s-.08-.01-.11-.02c-.17-.01-.35-.02-.51-.02-.16,0-.35,0-.46,.02l-.3,.05c-.41,.06-.82,.12-1.35-.05,.07,.02,.11,.03,.12,.06-1.2-.19-2.5,0-3.68-.26-.34-.06-.38,.03-.59,.09l-.07-.12-.36,.12c-.51,.08-.86-.33-1.5-.17l.08,.08c-.23-.03-.73,.01-.68-.08-.02,.01-.08,.08-.17,.03v-.06s-.57,.08-.57,.08c-.43-.06,.08-.24-.55-.28-.24,.01-.68,.15-.59,.19,.1,0,.24,.05,.25,.11l-.22,.02c-.05,.18-.22,.36,.3,.51l.37-.09,.11,.09h-.31c.17,.08,.29,.01,.41-.03,.03,.05,.08,.08,.15,.1l.37-.16c.04,.07-.17,.13,.07,.18,.17-.07-.16-.17,.13-.21,.17,.09,.12,.16,.33,.09,.03,.05-.02,.08-.1,.09,.19-.05,.49,0,.59-.09,.18,.11,.62,0,.6,.17,.06-.04,.33-.12,.5-.12-.32,.19,.63,.04,.54,.26,.24-.17,.83-.04,1.24-.13-.02,.01-.07,.04-.1,.03,.23,.03,.29,.08,.44,.13,.04-.15,.39-.17,.59-.26,.27,.16-.18,.17-.1,.32,0-.12,.49-.1,.4-.21,.21,.1,.18,.05,.29,.18,.05-.19,.2-.02,.38-.13,.31,.11,.07,.18,.41,.14,.16,.07-.15,.12-.15,.12Zm1.9,3.92h0c.03-.06,.05-.11,.07-.15-.01,.03-.03,.07-.07,.15Zm-.32,.58c.05-.06,.1-.15,.15-.25,.04,0,.07,.04,.03,.1,0-.04-.1,.08-.18,.15Zm1.34-.94c-.03,.11-.06,.14-.09,.14,.02-.05,.04-.11,.06-.19v-.02s.02,.04,.03,.06Z"/>
            <path class="cls-8" d="M97.91,64.02s0-.03,0-.05c-.02,.02-.03,.04-.05,.05l.02,.05,.02-.06Z"/>
            <path class="cls-8" d="M98.29,57.11h0s0,0,0,.02c0-.01,0-.01,0-.02Z"/>
            <polygon class="cls-8" points="89.27 70 89.27 70.03 89.33 69.99 89.27 70"/>
            <path class="cls-8" d="M97.31,59.51s-.02-.02-.05-.03c0,0,.02,.02,.05,.03Z"/>
            <path class="cls-8" d="M95.69,59.49l-.23-.04c.1,.02,.17,.03,.23,.04Z"/>
            <path class="cls-8" d="M94.45,59.44s-.02,.03-.02,.05h0s.02-.05,.02-.05Z"/>
            <path class="cls-8" d="M88.83,49.31h-.05c-.11,0-.04,0,.05,0Z"/>
            <path class="cls-8" d="M94.14,51.27c-.06-.02-.12-.04-.18-.07,.08,.07,.14,.12,.18,.07Z"/>
            <polygon class="cls-8" points="82.77 50.53 82.77 50.53 82.73 50.55 82.77 50.53"/>
            <path class="cls-8" d="M93.75,51.04c.07,.08,.14,.13,.21,.16-.06-.06-.14-.13-.21-.16Z"/>
            <path class="cls-8" d="M89.05,59.39h-.06s0,0,0,.01h.07Z"/>
            <path class="cls-8" d="M88.99,59.4h-.07s.06,.01,.07,0Z"/>
            <path class="cls-8" d="M88.78,59.44l.14-.03s-.11,0-.14,.03Z"/>
            <path class="cls-8" d="M90.7,59.44l.02-.04s-.02,.02-.02,.04Z"/>
            <path class="cls-8" d="M91.2,59.42c-.12,0-.3-.08-.47-.06l-.02,.03c.08-.06,.37,.1,.48,.03Z"/>
            <path class="cls-8" d="M93.29,59.92l-.42-.03c.07,.04,.17,.1-.02,.11,.53,.13-.11-.09,.44-.08Z"/>
            <path class="cls-8" d="M94.59,59.98c-.23,.02,0,.06,0,.09,.14-.04,.18-.05,0-.09Z"/>
            <path class="cls-8" d="M97.28,54.3l.1-.03c-.11-.15-.03,.02-.1,.03Z"/>
            <polygon class="cls-8" points="95.85 53.1 95.9 53.27 96.02 53.28 95.85 53.1"/>
            <path class="cls-8" d="M95.68,51.83l.06,.05c-.08-.06-.15-.13-.23-.19,.06,.04,.11,.1,.17,.15Z"/>
            <path class="cls-8" d="M80.72,50.7l.12,.07c.08-.09,.02-.22-.12-.07Z"/>
            <path class="cls-8" d="M76.82,56.41c-.08,.05-.17,.24-.14,.37,.05-.15,.13-.29,.14-.37Z"/>
            <path class="cls-8" d="M87.56,71.14s-.1,.02-.14,.04c.09,0,.18-.02,.27-.04h-.13Z"/>
          </g>
        </g>
        <path class="cls-9" d="M91.27,61.31c-.19-.69,.08-1.38,.7-1.75l1.72-1.03c.29-.17,.62-.27,.96-.27l1.65,.07,8.74-6.13c.47-.33,.06-1.05-.46-.82l-6.75,3.04c-.6,.27-1.12,.67-1.57,1.16-3.32,3.65-14.48,8.3-16,9.06-.1,.05-.2,.05-.31,.02l-9.76-3.1c-.19,.11-.25,.36-.13,.54l8.02,5.7c.18,.13,.23,.36,.13,.55-.35,.64-1.26,2.04-2.01,3.2-.26,.39,.23,.85,.61,.57l3.8-2.79,10.86-7.62c-.08-.13-.15-.26-.19-.41Z"/>
        <path class="cls-9" d="M92.89,61.86l10.56-1.25c.29-.03,.55-.16,.76-.36l1.03-.97-10.55-.42c-.25,0-.49,.05-.71,.18l-1.72,1.03c-.89,.54-.42,1.91,.61,1.79Z"/>
        <path class="cls-9" d="M87.82,58.85l-8.58,.98c-.23,.03-.45,.13-.62,.28l-.84,.77,8.57,.34c.2,0,.4-.04,.57-.14l1.4-.81c.73-.42,.34-1.51-.5-1.41Z"/>
      </g>
    </g>
  </g>
</svg>