<?xml version="1.0" encoding="UTF-8"?>
<svg id="Layer_2" data-name="Layer 2" xmlns="http://www.w3.org/2000/svg" viewBox="0 0 250.48 478.16">
  <defs>
    <style>
      .cls-1 {
        stroke-width: 3.65px;
      }

      .cls-1, .cls-2, .cls-3, .cls-4, .cls-5, .cls-6, .cls-7, .cls-8, .cls-9, .cls-10, .cls-11 {
        stroke: #f73267;
        stroke-miterlimit: 10;
      }

      .cls-1, .cls-2, .cls-4, .cls-5, .cls-6, .cls-8, .cls-11 {
        fill: none;
      }

      .cls-2 {
        stroke-dasharray: 0 0 5.95 5.95;
      }

      .cls-3 {
        fill: #f7dcef;
        stroke-width: .3px;
      }

      .cls-12, .cls-9 {
        fill: #fff;
      }

      .cls-4 {
        stroke-width: 2.49px;
      }

      .cls-5 {
        stroke-width: .35px;
      }

      .cls-6 {
        stroke-dasharray: 0 0 6.09 6.09;
      }

      .cls-7 {
        stroke-width: 1.64px;
      }

      .cls-7, .cls-10 {
        fill: #f7e8f1;
      }

      .cls-9 {
        stroke-width: 2.3px;
      }

      .cls-10 {
        stroke-width: 1.69px;
      }

      .cls-11 {
        stroke-width: 3.58px;
      }
    </style>
  </defs>
  <g id="Layer_1-2" data-name="Layer 1">
    <rect class="cls-12" x="15.5" y="1.57" width="102" height="415"/>
    <g>
      <g>
        <path class="cls-10" d="M88.23,427.13s-11.55,4.03-16.61,4.03h-11.9s-6.64,3.37-2.43,7.59,23.11,11.83,30.94,11.81,14.58-2.54,14.58-4.23,6.5-11.64,6.5-11.64"/>
        <path class="cls-10" d="M186.27,356.97c-.56-10.07-62.63-5.98-64.92,2.53-1,3.72-5.53,10.74-6.98,13.81-.44,.93-.91,1.84-1.42,2.73l-25.86,44.91c-1.19,2.06-.7,4.67,1.13,6.18,4.08,3.37,11.45,5.52,14.58,7.4,4.22,2.53,6.5,.16,6.5,.16l25.19-51.78c1.76-3.62,4.9-6.38,8.72-7.66,3.43-1.14,7.9-2.24,12.46-2.25,9.52-.02,26.37,0,26.37,0l21.93-2.55,2.95-13.82"/>
        <path class="cls-10" d="M143.2,444.15s-11.72,26.93-.77,30.15c10.95,3.23,15.17,4.07,17.7,1.54,2.53-2.53,7.85-25.28,7.85-25.28l-6.17-9.29-18.62,2.87Z"/>
        <path class="cls-10" d="M187.11,319.03l-9.27,26.98s-2.53,8.43-6.74,8.43-20.23,1.69-20.23,1.69l-1.69,.84v3.91c0,1.99-4.22,8.74-4.22,8.74,0,0-2.53-1.69-1.69-4.22s.84-4.22,.84-4.22h-3.37s-2.24,5.9-1.54,8.43-3.51,5.06-3.51,5.06c0,0-5.06-7.59-4.22-12.65l-3.37,5.9-.84-1.69s.84-4.22,2.53-5.9,7.2-7.29,7.2-7.29c0,0,10.51-5.36,14.72-5.36s15.17-7.04,15.17-7.04l5.9-25.84,14.33,4.22Z"/>
        <path class="cls-10" d="M237.11,366.29s4.8,10.07-2.78,10.91-29.51,4.22-29.51,4.22l-32.04,69.13s-36.25,.84-29.51-11.8c6.74-12.65,42.82-72.46,42.82-72.46,0,0,6.08-1.73,7.77-1.73s8.08-1.95,8.08-1.95l13.84,.26"/>
        <path class="cls-10" d="M184.75,289.65l17.54-9.4,9.27-.84,18.66,6.74s9.16,4.22,11.69,9.27,4.22,23.61,4.22,23.61l.84,5.9s-15.31,6.94-15.17,2.53-6.1-13.94-6.1-13.94l12.65,29.51s1.05,30.8-1.48,29.95-16.02-10.12-21.08-10.12-21.08,0-23.61-1.69-14.33-9.27-14.33-9.27c0,0,13.49-6.74,13.49-10.12s-3.94-15.58-3.94-15.58c0,0-14.74,1.83-16.3-1.28-1.69-3.37-4.22-5.9-4.22-5.9l8.97-19.86c1.84-4.07,4.96-7.41,8.9-9.52Z"/>
        <path class="cls-10" d="M246.97,329.15s-3.37,19.39-5.06,21.92-27.82-7.59-31.19-10.12-13.49-8.43-13.49-8.43l-5.9-2.53-7.59-10.96s4.22-6.74,6.74-5.9,6.74,7.59,6.74,7.59v-3.37h2.53l2.17,7.9s22.62,8.42,24.8,11.49c1.49,2.09,2.14-7.76,5.06-9.27l5.06-5.06,8.43-.84,1.69,7.59Z"/>
        <g>
          <path class="cls-10" d="M188.08,250.51s1.57-8.19,6.62-8.19,13.56-1.69,16.9,0,8.4,4.22,9.24,7.59-2.53,20.23-4.22,21.92-1.69,4.22-.84,5.9,2.53,3.37,2.53,3.37c0,0-2.53,11.8-5.06,13.49s-8.43,4.22-10.96,3.37-5.9-3.37-5.9-5.06,1.69-8.43,0-10.12-8.43-5.06-10.12-5.06-.84-3.37-.84-3.37l-.21-7.18-1.48-.67s-.84-.58-.84-1.42,5.18-14.57,5.18-14.57Z"/>
          <path class="cls-7" d="M221.12,263.13l-22.2-2.27,.84-5.9,21.73,2.41c.6,.07,1.06,.55,1.1,1.15l.2,2.99c.06,.94-.73,1.71-1.67,1.61Z"/>
          <path class="cls-7" d="M199.76,254.64s-1.68-2.39-4.19-3.19-10.23-2.39-10.23-2.39l-1.6,14.25s6.46,.74,8.72,.02,4.78-1.52,5.62-2.32,1.68-6.38,1.68-6.38Z"/>
          <path class="cls-10" d="M176.07,248.53c-.97,.32-1.65,1.2-1.73,2.22l-.71,9.28s0,2.53,1.69,2.53c1.32,0,6.27,.52,8.34,.74,.8,.09,1.62-.09,2.3-.52,.93-.6,2-1.69,2-3.59,0-2.36,.41-5.13,.66-6.58,.13-.74-.07-1.5-.54-2.08-.79-.99-2.24-2.29-4.34-2.29-3.37,0-6.74,0-6.74,0l-.94,.31Z"/>
        </g>
        <path class="cls-10" d="M243.81,302.12l5.69,27.03s-21.08,6.74-23.61,.84-.2-16.46-.2-16.46"/>
        <path class="cls-10" d="M2.18,398.59l66.4-7.48c3.32-.37,6.68-.29,9.98,.25l52.11,8.54c3.01,.49,3.2,4.74,.25,5.51l-64.46,16.67c-4.16,1.07-8.54,.83-12.55-.7L1.81,401.49c-1.48-.56-1.2-2.73,.37-2.91Z"/>
      </g>
      <g>
        <rect class="cls-3" x="35.93" y="73.24" width="65.57" height="8.99" rx="1.86" ry="1.86"/>
        <rect class="cls-3" x="45.31" y="82.31" width="44.64" height="4.19" rx="1.86" ry="1.86"/>
        <path class="cls-3" d="M88.94,86.18c-.75,0-1.48,.08-2.19,.23-.17-.05-.34-.08-.52-.08H49.49c-.31,0-.61,.08-.87,.22-.88-.24-1.81-.37-2.77-.37-5.78,0-10.46,4.68-10.46,10.46s4.68,10.46,10.46,10.46,10.46-4.68,10.46-10.46c0-1.61-.36-3.13-1.01-4.49,.13,.02,.26,.05,.39,.07,3.73,.39,7.89,.64,12.4,.62,4.09-.02,7.88-.26,11.32-.62,.02,0,.03,0,.05,0-.63,1.34-.98,2.84-.98,4.43,0,5.78,4.68,10.46,10.46,10.46s10.46-4.68,10.46-10.46-4.68-10.46-10.46-10.46Z"/>
        <path class="cls-3" d="M88.94,106.33c-5.34,0-9.69-4.35-9.69-9.69,0-1.43,.31-2.81,.91-4.1l.62-1.32-1.47,.23c-3.71,.39-7.49,.6-11.22,.61-.18,0-.36,0-.54,0-3.91,0-7.86-.21-11.75-.61l-1.84-.32,.64,1.35c.62,1.3,.93,2.7,.93,4.15,0,5.34-4.35,9.69-9.69,9.69s-9.69-4.35-9.69-9.69,4.35-9.69,9.69-9.69c.86,0,1.73,.12,2.57,.35l.3,.08,.27-.15c.16-.08,.33-.13,.51-.13h36.74c.1,0,.2,.02,.3,.04l.19,.06,.19-.04c.67-.14,1.35-.21,2.03-.21,5.34,0,9.69,4.35,9.69,9.69s-4.35,9.69-9.69,9.69Z"/>
        <path class="cls-3" d="M46.63,98.96c-.65-.18-1.03-.85-.85-1.5,.22-.81,1.06-1.29,1.87-1.07,1.01,.28,1.61,1.33,1.33,2.34-.35,1.27-1.66,2.02-2.93,1.67-1.59-.43-2.52-2.07-2.09-3.66,.54-1.98,2.59-3.15,4.57-2.61,2.48,.68,3.94,3.24,3.26,5.71-.85,3.1-4.05,4.92-7.14,4.07-3.87-1.06-6.15-5.06-5.09-8.93,1.32-4.84,6.32-7.69,11.16-6.36h33.38c4.84-1.32,9.83,1.52,11.16,6.36,1.06,3.87-1.22,7.87-5.09,8.93-3.1,.85-6.29-.98-7.14-4.07-.68-2.48,.78-5.04,3.26-5.71,1.98-.54,4.03,.62,4.57,2.61,.43,1.59-.5,3.22-2.09,3.66-1.27,.35-2.58-.4-2.93-1.67-.28-1.01,.32-2.06,1.33-2.34,.81-.22,1.65,.26,1.87,1.07,.18,.65-.2,1.32-.85,1.5"/>
        <ellipse class="cls-3" cx="49.88" cy="84.17" rx=".7" ry="1.4"/>
        <ellipse class="cls-3" cx="85.22" cy="84.17" rx=".7" ry="1.4"/>
        <ellipse class="cls-3" cx="82.02" cy="84.17" rx=".39" ry="1.4"/>
        <ellipse class="cls-3" cx="79.13" cy="84.24" rx=".39" ry="1.4"/>
        <ellipse class="cls-3" cx="76.23" cy="84.24" rx=".39" ry="1.4"/>
        <ellipse class="cls-3" cx="73.34" cy="84.24" rx=".39" ry="1.4"/>
        <ellipse class="cls-3" cx="70.45" cy="84.24" rx=".39" ry="1.4"/>
        <ellipse class="cls-3" cx="67.55" cy="84.24" rx=".39" ry="1.4"/>
        <ellipse class="cls-3" cx="64.66" cy="84.24" rx=".39" ry="1.4"/>
        <ellipse class="cls-3" cx="61.77" cy="84.24" rx=".39" ry="1.4"/>
        <ellipse class="cls-3" cx="58.87" cy="84.24" rx=".39" ry="1.4"/>
        <ellipse class="cls-3" cx="55.98" cy="84.24" rx=".39" ry="1.4"/>
        <ellipse class="cls-3" cx="53.09" cy="84.24" rx=".39" ry="1.4"/>
        <g>
          <path class="cls-3" d="M79.4,101.08c-.1-.23-.2-.47-.29-.71l-.16-.39h-23.12c-.13,.42-.29,.83-.48,1.22-.04,.11-.08,.22-.11,.33,8.14,.05,16.28,.1,24.41,.15l-.25-.6Z"/>
          <path class="cls-3" d="M59.1,104.04c0-.87-.71-1.58-1.58-1.58h-.09c-.87,0-1.58,.71-1.58,1.58V238.44l3.26-.59V104.04Z"/>
          <path class="cls-3" d="M54.92,103.62c0-.37-.17-.69-.44-.91-.53,.78-1.17,1.48-1.89,2.08V239.03l2.33-.42V103.62Z"/>
          <path class="cls-3" d="M51.43,105.65c-.49,.31-1.01,.58-1.55,.81V239.52l1.55-.28V105.65Z"/>
          <path class="cls-3" d="M49.26,106.69c-.35,.12-.72,.23-1.09,.31V239.83l1.09-.2V106.69Z"/>
          <path class="cls-3" d="M63.6,104.08c0-.89-.73-1.62-1.62-1.62h-.17c-.89,0-1.62,.73-1.62,1.62V237.66l3.41-.62V104.08Z"/>
          <path class="cls-3" d="M78.56,104.04c0-.87-.71-1.58-1.58-1.58h-.09c-.87,0-1.58,.71-1.58,1.58V234.93l3.26-.59V104.04Z"/>
          <path class="cls-3" d="M81.81,233.51V104.45c-.61-.57-1.15-1.21-1.61-1.91-.42,.18-.71,.59-.71,1.07V234.18l1.16-.21,1.16-.46Z"/>
          <path class="cls-3" d="M84.53,106.28c-.54-.25-1.06-.55-1.55-.89v127.65l1.55-.62V106.28Z"/>
          <path class="cls-3" d="M86.23,106.91c-.37-.1-.73-.22-1.09-.36v125.63l1.09-.43V106.91Z"/>
          <path class="cls-3" d="M74.22,104.08c0-.89-.73-1.62-1.62-1.62h-.17c-.89,0-1.62,.73-1.62,1.62V235.74l3.41-.62V104.08Z"/>
          <path class="cls-3" d="M69.49,104.25c0-.99-.81-1.79-1.79-1.79h-.6c-.99,0-1.79,.81-1.79,1.79V236.74l4.19-.75V104.25Z"/>
        </g>
        <g>
          <path class="cls-3" d="M55.01,401.69c.1,.18,.2,.37,.29,.56l.16,.31h23.12c.13-.33,.29-.66,.48-.97,.04-.09,.08-.17,.11-.26-8.14-.04-16.28-.08-24.41-.12l.25,.48Z"/>
          <path class="cls-3" d="M75.3,399.34c0,.69,.71,1.26,1.58,1.26h.09c.87,0,1.58-.57,1.58-1.26V253.08l-3.26,.47v145.8Z"/>
          <path class="cls-3" d="M79.49,399.67c0,.29,.17,.55,.44,.72,.53-.62,1.17-1.17,1.89-1.66V252.61l-2.33,.33v146.73Z"/>
          <path class="cls-3" d="M82.98,398.06c.49-.25,1.01-.46,1.55-.64V252.22l-1.55,.22v145.62Z"/>
          <path class="cls-3" d="M85.15,397.23c.35-.1,.72-.18,1.09-.25V251.98l-1.09,.16v145.1Z"/>
          <path class="cls-3" d="M70.81,399.31c0,.71,.73,1.29,1.62,1.29h.17c.89,0,1.62-.58,1.62-1.29V253.7l-3.41,.49v145.12Z"/>
          <path class="cls-3" d="M55.85,399.34c0,.69,.71,1.26,1.58,1.26h.09c.87,0,1.58-.57,1.58-1.26V255.86l-3.26,.47v143.01Z"/>
          <path class="cls-3" d="M52.59,257v142.01c.61,.45,1.15,.96,1.61,1.51,.42-.14,.71-.47,.71-.85v-143.21l-1.16,.17-1.16,.37Z"/>
          <path class="cls-3" d="M49.88,397.56c.54,.2,1.06,.44,1.55,.71v-140.9l-1.55,.49v139.7Z"/>
          <path class="cls-3" d="M48.18,397.06c.37,.08,.73,.17,1.09,.28v-139.3l-1.09,.34v138.67Z"/>
          <path class="cls-3" d="M60.19,399.31c0,.71,.73,1.29,1.62,1.29h.17c.89,0,1.62-.58,1.62-1.29V255.22l-3.41,.49v143.6Z"/>
          <path class="cls-3" d="M64.92,399.17c0,.78,.81,1.43,1.79,1.43h.6c.99,0,1.79-.64,1.79-1.43V254.43l-4.19,.6v144.14Z"/>
        </g>
      </g>
      <g>
        <rect class="cls-5" x="15.5" y="1.57" width="102" height="414"/>
        <line class="cls-5" x1="15.5" y1="363.82" x2="117.5" y2="363.82"/>
        <line class="cls-5" x1="15.5" y1="312.07" x2="117.5" y2="312.07"/>
        <line class="cls-5" x1="15.5" y1="260.32" x2="117.5" y2="260.32"/>
        <line class="cls-5" x1="15.5" y1="208.57" x2="117.5" y2="208.57"/>
        <line class="cls-5" x1="15.5" y1="156.82" x2="117.5" y2="156.82"/>
        <line class="cls-5" x1="15.5" y1="105.07" x2="117.5" y2="105.07"/>
        <polyline class="cls-5" points="117.5 53.32 15.5 53.32 15.5 1.57 41 1.57 41 415.57"/>
        <line class="cls-5" x1="92" y1="1.57" x2="92" y2="415.57"/>
        <line class="cls-5" x1="66.5" y1="1.57" x2="66.5" y2="415.57"/>
      </g>
      <polyline class="cls-11" points="92 1.79 117.5 1.79 117.5 53.57"/>
      <polyline class="cls-11" points="41.5 1.79 16 1.79 16 53.57"/>
      <polyline class="cls-11" points="41.5 415.57 16 415.57 16 363.79"/>
      <polyline class="cls-11" points="92 415.57 117.5 415.57 117.5 363.79"/>
      <g>
        <line class="cls-8" x1="183.5" y1="248.57" x2="182.72" y2="245.67"/>
        <line class="cls-6" x1="181.15" y1="239.78" x2="119.06" y2="7.41"/>
        <line class="cls-8" x1="118.27" y1="4.46" x2="117.5" y2="1.57"/>
      </g>
      <g>
        <line class="cls-8" x1="118" y1="415.07" x2="119.22" y2="412.33"/>
        <line class="cls-2" x1="121.65" y1="406.9" x2="183.56" y2="268.52"/>
        <line class="cls-8" x1="184.77" y1="265.8" x2="186" y2="263.07"/>
      </g>
    </g>
    <g>
      <path class="cls-9" d="M52.9,36.33h14.76c2.22,0,4.02,1.8,4.02,4.02v2.99c0,1.17-.51,2.29-1.4,3.05l-6.87,5.89c-.73,.63-1.66,.97-2.62,.97h-7.89c-2.22,0-4.02-1.8-4.02-4.02v-8.89c0-2.22,1.8-4.02,4.02-4.02Z"/>
      <path class="cls-1" d="M78.5,46.57V29.31c0-1.19-1.4-1.83-2.3-1.06l-20.04,17.26"/>
      <line class="cls-4" x1="77.5" y1="36.33" x2="66.37" y2="36.33"/>
    </g>
  </g>
</svg>