<?xml version="1.0" encoding="UTF-8"?>
<svg id="Layer_2" data-name="Layer 2" xmlns="http://www.w3.org/2000/svg" viewBox="0 0 1547.23 1194.89">
  <defs>
    <style>
      .cls-1 {
        fill: #f1b79b;
      }

      .cls-2 {
        fill: #eae1b9;
      }

      .cls-3 {
        fill: #e8d274;
      }

      .cls-4 {
        fill: #686868;
      }

      .cls-5 {
        fill: #8c8c8c;
      }

      .cls-6 {
        fill: #aaa;
      }

      .cls-7 {
        fill: #d3b124;
      }

      .cls-8 {
        fill: #d3d3d3;
      }

      .cls-9 {
        fill: #44546b;
      }

      .cls-10 {
        fill: #5b5041;
      }

      .cls-11 {
        fill: #353535;
      }

      .cls-12 {
        fill: #494949;
      }

      .cls-13 {
        fill: #605a5e;
      }

      .cls-14 {
        stroke-width: 13.67px;
      }

      .cls-14, .cls-15, .cls-16, .cls-17, .cls-18, .cls-19, .cls-20, .cls-21, .cls-22, .cls-23 {
        stroke-miterlimit: 10;
      }

      .cls-14, .cls-16, .cls-20, .cls-22, .cls-23 {
        fill: none;
      }

      .cls-14, .cls-16, .cls-21 {
        stroke: #f9d500;
      }

      .cls-15 {
        fill: #f2e9c2;
        stroke: #7c6919;
      }

      .cls-15, .cls-22, .cls-23 {
        stroke-width: .5px;
      }

      .cls-16 {
        stroke-width: 20.07px;
      }

      .cls-24 {
        fill: #333;
        font-family: OpenSans-Bold, 'Open Sans';
        font-size: 84.32px;
        font-weight: 700;
      }

      .cls-25 {
        fill: #666;
        font-family: OpenSans, 'Open Sans';
        font-size: 39.19px;
      }

      .cls-26, .cls-27 {
        opacity: .9;
      }

      .cls-17 {
        fill: #edc82e;
        stroke: #595959;
      }

      .cls-17, .cls-18 {
        stroke-width: .7px;
      }

      .cls-18 {
        stroke: #666;
      }

      .cls-18, .cls-19, .cls-27, .cls-21 {
        fill: #fff;
      }

      .cls-19 {
        opacity: .33;
        stroke: #494949;
        stroke-width: 2px;
      }

      .cls-20 {
        stroke-width: 9px;
      }

      .cls-20, .cls-22 {
        stroke: #edc82e;
      }

      .cls-21 {
        stroke-width: 12.67px;
      }

      .cls-23 {
        stroke: #352d0b;
      }
    </style>
  </defs>
  <g id="Layer_3" data-name="Layer 3">
    <g class="cls-26">
      <rect class="cls-27" y="305.62" width="894.92" height="359.18" rx="74.93" ry="74.93"/>
      <text class="cls-25" transform="translate(73.52 540.63)"><tspan x="0" y="0">Revision how architecture class would be</tspan><tspan x="-5.57" y="39.19">empower students to understand the link </tspan><tspan x="121.61" y="78.38">between each subject more</tspan></text>
      <g>
        <text class="cls-24" transform="translate(337.63 433.73)"><tspan x="0" y="0">Archilens</tspan></text>
        <g>
          <path class="cls-21" d="m169.28,378.2h81.16c12.22,0,22.13,9.91,22.13,22.13v16.46c0,6.45-2.82,12.59-7.72,16.79l-37.75,32.4c-4.01,3.44-9.12,5.34-14.41,5.34h-43.41c-12.22,0-22.13-9.91-22.13-22.13v-48.86c0-12.22,9.91-22.13,22.13-22.13Z"/>
          <path class="cls-16" d="m310.03,434.49v-94.88c0-6.56-7.7-10.08-12.66-5.81l-110.17,94.9"/>
          <line class="cls-14" x1="304.53" y1="378.2" x2="243.36" y2="378.2"/>
        </g>
      </g>
      <text/>
    </g>
  </g>
  <g id="Layer_7" data-name="Layer 7">
    <polygon class="cls-5" points="1187.7 817.38 1190.88 925.11 1420 998.95 1428 881.25 1187.7 817.38"/>
    <polygon class="cls-4" points="1428 881.25 1420 998.95 1524.06 892.61 1532.96 778.95 1428 881.25"/>
    <g>
      <path class="cls-3" d="m1435.78,845.14c-80.31,14.29-174.97-25.27-248.73-51.41-1.29,9.81-2.77,19.59-4.03,29.4,90.43,33.17,165.97,35.49,252.6,59.27,35.74-25.86,84.54-62.67,111.62-96.57-2.88-10.48-6.45-20.71-9.24-31.23-12.07,13.37-85.99,79.35-102.21,90.54Z"/>
      <path class="cls-2" d="m1537.99,754.6c-73,1.01-132.79-22.23-202.2-29.58-53.8,34.42-93.77,42.97-148.74,68.71,73.93,26.05,168.26,65.73,248.73,51.41,24.22-12.19,90.16-77.17,102.21-90.54Z"/>
    </g>
    <g>
      <polygon class="cls-19" points="1321 465.95 1150.57 4.95 893.72 4.95 893.72 916.35 1150.57 916.35 1316 501.95 1321 465.95"/>
      <g>
        <path class="cls-13" d="m1125.61,941.56s-29.1,10.14-41.83,10.14h-29.97s-16.73,8.49-6.12,19.11c10.61,10.61,58.19,29.78,77.92,29.75,19.73-.03,36.71-6.4,36.71-10.64s16.38-29.31,16.38-29.31"/>
        <path class="cls-9" d="m1334.49,738.89c-1.41-25.37-157.7-15.07-163.46,6.37-2.52,9.37-13.93,27.06-17.57,34.78-1.1,2.34-2.29,4.62-3.58,6.86l-65.11,113.09c-2.99,5.19-1.77,11.75,2.84,15.57,10.28,8.5,28.82,13.9,36.71,18.63,10.61,6.37,16.38.42,16.38.42l63.42-130.39c4.43-9.12,12.34-16.07,21.96-19.28,8.64-2.88,19.9-5.65,31.37-5.67,23.97-.04,66.41,0,66.41,0l55.21-6.41,7.43-34.81"/>
        <path class="cls-13" d="m1226.04,958.4s-29.51,67.8-1.93,75.93c27.58,8.13,38.2,10.25,44.56,3.88,6.37-6.37,19.78-63.66,19.78-63.66l-15.53-23.38-46.88,7.22Z"/>
        <path class="cls-1" d="m1336.61,643.36l-23.35,67.93s-6.37,21.23-16.98,21.23-50.95,4.25-50.95,4.25l-4.25,2.12v9.84c0,5.02-10.61,22-10.61,22,0,0-6.37-4.25-4.25-10.61s2.12-10.61,2.12-10.61h-8.49s-5.65,14.86-3.89,21.23-8.85,12.74-8.85,12.74c0,0-12.74-19.11-10.61-31.84l-8.49,14.86-2.12-4.25s2.12-10.61,6.37-14.86c4.25-4.25,18.12-18.35,18.12-18.35,0,0,26.46-13.5,37.07-13.5s38.21-17.72,38.21-17.72l14.86-65.07,36.09,10.61Z"/>
        <path class="cls-9" d="m1449.17,746.28c15.49,12.49,21.08,7.01,7.9,33.58-8.5,17.13-37.79,29.33-59.26,37.38-12.89,4.84-19.14,10.2-25.9,21.3-26.61,43.7-47.94,88.75-70.46,136.07-13.15-5.05-90.95,18.46-75.22-25.27,15.73-43.72,61.17-142.95,91.65-182.17,9.59-4.49,16.61-6.55,25.62-7.61,9.01-1.05,13.79-4.08,23.84-5.35,10.04-1.27,26.1.69,37.05.71"/>
        <path class="cls-7" d="m1330.65,569.37l44.17-23.66,23.35-2.12,46.99,16.98s23.06,10.61,29.43,23.35c6.37,12.74,10.61,59.44,10.61,59.44l2.12,14.86s-38.55,17.47-38.21,6.37-15.37-35.09-15.37-35.09l31.84,74.3s3.77,68.27-2.6,66.15c-3.02-1.01-13.52,3.6-24,0-11.65-4-45.29-16-52-16-12.74,0-49.63-2.75-56-7s-17.74-20.79-17.74-20.79c0,0,33.97-16.98,33.97-25.47s-9.92-39.24-9.92-39.24c0,0-37.12,4.61-41.03-3.22-4.25-8.49-10.61-14.86-10.61-14.86l22.59-50.02c4.62-10.24,12.5-18.66,22.4-23.97Z"/>
        <path class="cls-1" d="m1487.34,668.84s-8.49,48.83-12.74,55.2c-4.25,6.37-70.06-19.11-78.55-25.47-8.49-6.37-33.97-21.23-33.97-21.23l-14.86-6.37-19.11-27.6s10.61-16.98,16.98-14.86,16.98,19.11,16.98,19.11v-8.49h6.37l5.47,19.88s56.95,21.21,62.46,28.94c3.75,5.26,5.39-19.55,12.74-23.35l12.74-12.74,21.23-2.12,4.25,19.11Z"/>
        <path class="cls-1" d="m1339.04,470.81s3.94-20.63,16.68-20.63,34.14-4.25,42.55,0c8.4,4.25,21.14,10.61,23.26,19.11,2.12,8.49-6.37,50.95-10.61,55.2-4.25,4.25-4.25,10.61-2.12,14.86s6.37,8.49,6.37,8.49c0,0-6.37,29.72-12.74,33.97s-21.23,10.61-27.6,8.49-14.86-8.49-14.86-12.74,4.25-21.23,0-25.47-21.23-12.74-25.47-12.74-2.12-8.49-2.12-8.49l-.53-18.09-3.72-1.69s-2.12-1.46-2.12-3.58,13.04-36.69,13.04-36.69Z"/>
        <path class="cls-7" d="m1479.39,600.77l14.32,68.07s-53.07,16.98-59.44,2.12c-6.37-14.86-.51-41.46-.51-41.46"/>
        <g>
          <path class="cls-6" d="m664.23,964.23c1.01-.36,2.06-.56,3.13-.7l351-46.75c2.05-.44,4.17-.4,6.2.11l377.87,115.61c11.25,2.82,13.73,16.94,5.62,23.74-5.91,4.96-11.3,10.51-16.64,16.07l-85.69,89.19c-14.66,15.26-33.58,25.83-54.32,30.06-30.95,6.31-63.36,3.66-93.28-8.09l-494.12-193.6c-12.02-4.72-11.26-21.53.24-25.64Z"/>
          <path class="cls-8" d="m664.23,957.58c1.01-.36,2.06-.56,3.13-.7l351-46.75c2.05-.44,4.17-.4,6.2.11l377.87,115.61c11.25,2.82,13.73,16.94,5.62,23.74-5.91,4.96-11.3,10.51-16.64,16.07l-85.69,89.19c-14.66,15.26-33.58,25.83-54.32,30.06-30.95,6.31-63.36,3.66-93.28-8.09l-494.12-193.6c-12.02-4.72-11.26-21.53.24-25.64Z"/>
          <polygon class="cls-5" points="1177.47 946.28 1177.47 1095.9 854.56 982.43 854.56 889.05 1177.47 946.28"/>
          <polygon class="cls-4" points="1260 1034.95 1177.47 1095.9 1177.47 946.28 1259.99 922.32 1260 1034.95"/>
          <path class="cls-17" d="m1242.5,1052.45c28.73-15.96,133-104,161.5-125.6,2.6-1.97,4.54-4.68,4.54-7.95l1-18.11c-5.47-.85-3.34-2.28-4.47-3.85l-6-1c-1.66-2.32-3.15-1.89-6-2l-772-43.83c-5.23-.19-9.57,3.99-9.57,9.22v13.27c0,1.49.36,2.96,1.05,4.27h0c1.12,2.15,3.04,3.76,5.35,4.51l561.05,172.91c5.11,1.62,10.37,2.68,15.71,3.16,12.6,1.14,35.29,1.96,47.84-5.01Z"/>
          <path class="cls-18" d="m618.91,850.38l372.26-42.14c18.73-2.11,37.66-1.63,56.26,1.41l348.72,75.12c16.95,2.78,20.35,17.67,1.41,31.04l-154.82,119.83c-3.92,2.24-8.16,3.88-12.59,4.77-20.38,4.06-38.52,2.15-63.64-5.58l-549.68-168.06c-4.16-1.59-5.86-5.44-5.4-9.01s3.06-6.88,7.48-7.38Z"/>
        </g>
        <path class="cls-10" d="m1345.33,466.04s19.9-17.09,22.9-8.09,4,47,13,50,27.41,26.76,27.41,26.76c0,0,19.78-44.76,21.69-52.76s5.91-35-20.09-43-76-28-79,14,3.22,36.55,3.22,36.55l10.87-23.46Z"/>
        <path class="cls-12" d="m1431.63,503.5l-58.24-5.64,1-16,58.17,7.16c1.5.17,2.67,1.39,2.77,2.9l.5,7.54c.16,2.36-1.85,4.3-4.2,4.06Z"/>
        <path class="cls-12" d="m1377.84,482.12s-4.22-6.02-10.56-8.03c-6.33-2.01-25.76-6.02-25.76-6.02l-4.02,35.88s16.26,1.87,21.97.05c5.7-1.82,12.04-3.82,14.15-5.83,2.11-2.01,4.22-16.06,4.22-16.06Z"/>
        <path class="cls-11" d="m1318.19,466.73c-2.45.81-4.17,3.01-4.36,5.58l-1.8,23.36s0,6.37,4.25,6.37c3.33,0,15.78,1.3,21.01,1.87,2.02.22,4.07-.22,5.78-1.31,2.35-1.5,5.05-4.26,5.05-9.05,0-5.94,1.04-12.92,1.66-16.58.32-1.86-.17-3.77-1.36-5.25-2-2.48-5.64-5.77-10.92-5.77-8.49,0-16.96,0-16.96,0l-2.35.78Z"/>
      </g>
      <g>
        <rect class="cls-15" x="944.92" y="54.42" width="165.11" height="22.64" rx="4.68" ry="4.68"/>
        <rect class="cls-15" x="968.53" y="77.26" width="112.41" height="10.54" rx="4.68" ry="4.68"/>
        <path class="cls-15" d="m1078.41,87.02c-1.89,0-3.74.2-5.52.58-.42-.12-.86-.19-1.32-.19h-92.51c-.79,0-1.54.2-2.19.55-2.22-.61-4.56-.94-6.98-.94-14.55,0-26.35,11.8-26.35,26.35s11.8,26.35,26.35,26.35,26.35-11.8,26.35-26.35c0-4.04-.91-7.87-2.54-11.3.33.06.65.11.98.17,9.39.99,19.86,1.62,31.23,1.56,10.3-.05,19.84-.65,28.49-1.56.04,0,.09-.01.13-.02-1.58,3.39-2.47,7.16-2.47,11.14,0,14.55,11.8,26.35,26.35,26.35s26.35-11.8,26.35-26.35-11.8-26.35-26.35-26.35Z"/>
        <path class="cls-15" d="m1078.41,137.76c-13.45,0-24.39-10.94-24.39-24.39,0-3.6.77-7.07,2.29-10.32l1.55-3.32-3.71.58c-9.35.98-18.85,1.5-28.25,1.55-.45,0-.9,0-1.35,0-9.85,0-19.8-.52-29.59-1.55l-4.63-.81,1.62,3.41c1.56,3.28,2.35,6.8,2.35,10.46,0,13.45-10.94,24.39-24.39,24.39s-24.39-10.94-24.39-24.39,10.94-24.39,24.39-24.39c2.18,0,4.35.29,6.46.87l.75.21.69-.37c.4-.21.83-.32,1.27-.32h92.51c.25,0,.51.04.76.11l.47.14.48-.1c1.68-.36,3.4-.54,5.11-.54,13.45,0,24.39,10.94,24.39,24.39s-10.94,24.39-24.39,24.39Z"/>
        <path class="cls-15" d="m971.87,119.19c-1.64-.45-2.6-2.14-2.15-3.77.56-2.04,2.67-3.25,4.71-2.69,2.56.7,4.06,3.34,3.36,5.89-.87,3.19-4.17,5.07-7.37,4.2-3.99-1.09-6.34-5.22-5.25-9.21,1.37-4.99,6.52-7.93,11.51-6.56,6.24,1.71,9.91,8.15,8.2,14.39-2.13,7.8-10.19,12.39-17.98,10.25-9.75-2.67-15.49-12.73-12.82-22.48,3.33-12.18,15.92-19.36,28.1-16.02h84.05c12.18-3.33,24.76,3.84,28.1,16.02,2.67,9.75-3.07,19.81-12.82,22.48-7.8,2.13-15.85-2.46-17.98-10.26-1.71-6.24,1.97-12.68,8.2-14.39,4.99-1.37,10.14,1.57,11.51,6.56,1.09,3.99-1.26,8.11-5.25,9.21-3.19.87-6.49-1.01-7.37-4.2-.7-2.56.81-5.19,3.36-5.89,2.04-.56,4.15.64,4.71,2.69.45,1.64-.52,3.32-2.15,3.77"/>
        <ellipse class="cls-15" cx="980.05" cy="81.94" rx="1.76" ry="3.51"/>
        <ellipse class="cls-15" cx="1069.04" cy="81.94" rx="1.76" ry="3.51"/>
        <ellipse class="cls-15" cx="1060.97" cy="81.94" rx=".98" ry="3.51"/>
        <ellipse class="cls-15" cx="1053.69" cy="82.14" rx=".98" ry="3.51"/>
        <ellipse class="cls-15" cx="1046.4" cy="82.14" rx=".98" ry="3.51"/>
        <ellipse class="cls-15" cx="1039.12" cy="82.14" rx=".98" ry="3.51"/>
        <ellipse class="cls-15" cx="1031.83" cy="82.14" rx=".98" ry="3.51"/>
        <ellipse class="cls-15" cx="1024.54" cy="82.14" rx=".98" ry="3.51"/>
        <ellipse class="cls-15" cx="1017.26" cy="82.14" rx=".98" ry="3.51"/>
        <ellipse class="cls-15" cx="1009.97" cy="82.14" rx=".98" ry="3.51"/>
        <ellipse class="cls-15" cx="1002.69" cy="82.14" rx=".98" ry="3.51"/>
        <ellipse class="cls-15" cx="995.4" cy="82.14" rx=".98" ry="3.51"/>
        <ellipse class="cls-15" cx="988.11" cy="82.14" rx=".98" ry="3.51"/>
        <g>
          <path class="cls-15" d="m1054.37,124.53c-.26-.59-.51-1.18-.73-1.79l-.4-.99h-58.23c-.34,1.06-.74,2.09-1.2,3.08-.1.27-.19.55-.29.82,20.49.13,40.98.26,61.48.39l-.62-1.52Z"/>
          <path class="cls-15" d="m1003.27,131.98c0-2.19-1.79-3.99-3.99-3.99h-.23c-2.19,0-3.99,1.79-3.99,3.99v338.44l8.2-1.48V131.98Z"/>
          <path class="cls-15" d="m992.73,130.93c0-.92-.43-1.74-1.1-2.28-1.34,1.96-2.94,3.72-4.75,5.25v338.01l5.85-1.06V130.93Z"/>
          <path class="cls-15" d="m983.95,136.03c-1.24.78-2.54,1.47-3.9,2.04v335.06l3.9-.7V136.03Z"/>
          <path class="cls-15" d="m978.49,138.66c-.89.31-1.8.57-2.73.78v334.47l2.73-.49V138.66Z"/>
          <path class="cls-15" d="m1014.59,132.08c0-2.24-1.84-4.08-4.08-4.08h-.43c-2.24,0-4.08,1.84-4.08,4.08v336.37l8.59-1.55V132.08Z"/>
          <path class="cls-15" d="m1052.26,131.98c0-2.19-1.79-3.99-3.99-3.99h-.23c-2.19,0-3.99,1.79-3.99,3.99v329.6l8.2-1.48V131.98Z"/>
          <path class="cls-15" d="m1060.45,457.99V133.03c-1.53-1.43-2.9-3.04-4.06-4.8-1.05.44-1.8,1.49-1.8,2.7v328.76l2.93-.53,2.93-1.17Z"/>
          <path class="cls-15" d="m1067.28,137.64c-1.37-.64-2.67-1.39-3.9-2.25v321.44l3.9-1.55V137.64Z"/>
          <path class="cls-15" d="m1071.58,139.2c-.93-.25-1.84-.55-2.73-.9v316.35l2.73-1.09V139.2Z"/>
          <path class="cls-15" d="m1041.33,132.08c0-2.24-1.84-4.08-4.08-4.08h-.43c-2.24,0-4.08,1.84-4.08,4.08v331.55l8.59-1.55V132.08Z"/>
          <path class="cls-15" d="m1029.42,132.52c0-2.49-2.03-4.52-4.52-4.52h-1.5c-2.49,0-4.52,2.03-4.52,4.52v333.61l10.54-1.9V132.52Z"/>
        </g>
        <g>
          <path class="cls-15" d="m992.96,881.5c.26.47.51.94.73,1.42l.4.79h58.23c.34-.84.74-1.66,1.2-2.45.1-.22.19-.44.29-.65-20.49-.1-40.98-.21-61.48-.31l.62,1.2Z"/>
          <path class="cls-15" d="m1044.06,875.58c0,1.74,1.79,3.17,3.99,3.17h.23c2.19,0,3.99-1.42,3.99-3.17v-368.3l-8.2,1.17v367.13Z"/>
          <path class="cls-15" d="m1054.6,876.42c0,.73.43,1.39,1.1,1.81,1.34-1.55,2.94-2.96,4.75-4.17v-367.96l-5.85.84v369.48Z"/>
          <path class="cls-15" d="m1063.38,872.36c1.24-.62,2.54-1.16,3.9-1.62v-365.62l-3.9.56v366.68Z"/>
          <path class="cls-15" d="m1068.85,870.28c.89-.24,1.8-.45,2.73-.62v-365.15l-2.73.39v365.38Z"/>
          <path class="cls-15" d="m1032.74,875.5c0,1.78,1.84,3.24,4.08,3.24h.43c2.24,0,4.08-1.46,4.08-3.24v-366.66l-8.59,1.23v365.43Z"/>
          <path class="cls-15" d="m995.08,875.58c0,1.74,1.79,3.17,3.99,3.17h.23c2.19,0,3.99-1.42,3.99-3.17v-361.29l-8.2,1.17v360.11Z"/>
          <path class="cls-15" d="m986.88,517.15v357.6c1.53,1.14,2.9,2.42,4.06,3.81,1.05-.35,1.8-1.18,1.8-2.14v-360.62l-2.93.42-2.93.93Z"/>
          <path class="cls-15" d="m980.05,871.09c1.37.51,2.67,1.11,3.9,1.78v-354.8l-3.9,1.23v351.78Z"/>
          <path class="cls-15" d="m975.75,869.85c.93.2,1.84.44,2.73.71v-350.76l-2.73.86v349.18Z"/>
          <path class="cls-15" d="m1006,875.5c0,1.78,1.84,3.24,4.08,3.24h.43c2.24,0,4.08-1.46,4.08-3.24v-362.83l-8.59,1.23v361.6Z"/>
          <path class="cls-15" d="m1017.91,875.15c0,1.97,2.03,3.59,4.52,3.59h1.5c2.49,0,4.52-1.62,4.52-3.59v-364.47l-10.54,1.51v362.96Z"/>
        </g>
      </g>
      <g>
        <polyline class="cls-23" points="1150.31 4.95 1150.31 916.44 893.47 916.44 893.47 4.95"/>
        <line class="cls-23" x1="893.47" y1="786.13" x2="1150.31" y2="786.13"/>
        <line class="cls-23" x1="893.47" y1="655.82" x2="1150.31" y2="655.82"/>
        <line class="cls-23" x1="893.47" y1="525.5" x2="1150.31" y2="525.5"/>
        <line class="cls-23" x1="893.47" y1="395.19" x2="1150.31" y2="395.19"/>
        <line class="cls-23" x1="893.47" y1="264.88" x2="1150.31" y2="264.88"/>
        <line class="cls-23" x1="893.47" y1="134.57" x2="1150.31" y2="134.57"/>
        <line class="cls-23" x1="957.68" y1="4.95" x2="957.68" y2="916.44"/>
        <polyline class="cls-23" points="1150.31 4.26 893.47 4.26 893.47 4.95"/>
        <line class="cls-23" x1="1086.1" y1="4.95" x2="1086.1" y2="916.44"/>
        <line class="cls-23" x1="1021.89" y1="4.95" x2="1021.89" y2="916.44"/>
      </g>
      <polyline class="cls-20" points="1086.1 4.51 1150.31 4.51 1150.31 134.89"/>
      <polyline class="cls-22" points="958.94 916.44 894.73 916.44 894.73 786.07"/>
      <polyline class="cls-22" points="1086.1 916.44 1150.31 916.44 1150.31 786.07"/>
      <polyline class="cls-20" points="958.95 4.5 894.74 4.5 894.74 134.87"/>
      <polyline class="cls-20" points="958.95 916.87 894.74 916.87 894.74 786.5"/>
      <polyline class="cls-20" points="1086.1 916.89 1150.31 916.89 1150.31 786.51"/>
    </g>
  </g>
</svg>