<?xml version="1.0" encoding="UTF-8"?>
<svg id="Layer_2" data-name="Layer 2" xmlns="http://www.w3.org/2000/svg" viewBox="0 0 409 413.5">
  <defs>
    <style>
      .cls-1 {
        fill: none;
      }

      .cls-2 {
        fill: #ffe7bd;
      }

      .cls-3 {
        fill: #998362;
      }

      .cls-4 {
        fill: #b29970;
      }

      .cls-5 {
        fill: #d8c5ab;
      }

      .cls-6 {
        fill: #fff0d9;
        stroke: #b29970;
        stroke-miterlimit: 10;
        stroke-width: 4px;
      }
    </style>
  </defs>
  <g id="Layer_1-2" data-name="Layer 1">
    <ellipse class="cls-3" cx="298.65" cy="213.79" rx="51.09" ry="8"/>
    <ellipse class="cls-3" cx="151.99" cy="143" rx="51.09" ry="8"/>
    <g>
      <ellipse class="cls-6" cx="211" cy="37" rx="159.5" ry="35"/>
      <path class="cls-2" d="m0,392.38c43.02,12.69,119.35,21.12,206.35,21.12s159.03-7.97,202.65-20.06v-49.8c-43.62-12.09-118.09-20.06-202.65-20.06S43.02,332.01,0,344.7"/>
    </g>
    <g>
      <path class="cls-3" d="m148.41,288.16s3.56,15.65,8.19,21.76c.58,0,1.15,0,1.73,0,1.46,0,2.9,0,4.34-.02,1.84-4.31,3.7-14.35,5.41-26.32-3.2-.06-6.45-.09-9.75-.09-46.6,0-84.38,5.92-84.38,13.21,0,6.43,29.3,11.78,68.12,12.97-.28-1.22-.46-1.93-.46-1.93l6.81-19.58Z"/>
      <path class="cls-3" d="m242.7,296.71c0-3.57-9.08-6.81-23.8-9.19l-2.26,18.74c16.05-2.41,26.06-5.79,26.06-9.54Z"/>
      <path class="cls-1" d="m156.59,309.92c1.43,1.89,2.96,2.88,4.53,2.19.51-.22,1.03-.99,1.55-2.2-1.44.01-2.89.02-4.34.02-.58,0-1.15,0-1.73,0Z"/>
      <path class="cls-4" d="m303.05,213.35c-6.52-.92-1.48-1.81-19.55-.35-.12,0-6.9,1.95-7,2-1.89.9-17,18-37,14-11.77-2.35-12.84-13-12.84-13,0,0-25.55-9-51.36,0,0,0-3.19,39.24-7.23,67.59,19.86.36,37.62,1.8,50.83,3.93l1.85-15.3c1.57-13.03,11.32-23.62,24.21-26.11.18-.04.36-.07.55-.1,20.75-3.78,49.93-26.84,61-32,.85-.39-2.52-.52-3.45-.65Z"/>
      <path class="cls-4" d="m161.12,312.11c-1.56.68-3.09-.31-4.53-2.19-4.96-.02-9.82-.1-14.53-.24,1.54,6.7,6.25,28.82,2.21,33.18-4.77,5.15-6.01,7.15-6.01,7.15,0,0,30.24,20.06,72.74,3.03l5.64-46.77c-14.18,2.12-33.07,3.49-53.98,3.65-.52,1.22-1.04,1.98-1.55,2.2Z"/>
      <path class="cls-4" d="m162.66,309.91c20.91-.17,39.8-1.53,53.98-3.65l2.26-18.74c-13.21-2.13-30.96-3.57-50.83-3.93-1.71,11.97-3.57,22-5.41,26.32Z"/>
      <path class="cls-4" d="m148.41,288.16l-6.81,19.58s.18.71.46,1.93c4.72.14,9.57.23,14.53.24-4.63-6.11-8.19-21.76-8.19-21.76Z"/>
    </g>
    <path class="cls-4" d="m175.31,216s5.19-105,.19-134-9-49-9-49c0,0,7.69-6.85,15.84-5.42,8.16,1.42,23.39,90.24,23.39,90.24,0,0,9.66-3.87,13.21-14.34,3.55-10.47,5.5-62.28,5.5-62.28l6.62,3.36s-2.87,64.56-3.72,70.01-10.3,42.79-10.57,47.62,9.89,53.83,9.89,53.83c0,0-44.33-.52-51.36,0Z"/>
    <path class="cls-4" d="m182.86,198.41s-28.63-22.36-29.73-30.62-23.13-66.08-23.13-66.08l2.94-1.49,17.62,43.77s2.99,1.92,2.39-5.55,0-20.91.9-23.59,6.57-9.86,6.57-9.86l-.49,3.33s-5.29,6.56-4.79,11.85-.74,31.19,1.3,32.45,9.44,21.15,15.79,21.36,15.02-2.54,15.02-2.54l-4.38,26.95Z"/>
    <ellipse class="cls-4" cx="298.65" cy="212" rx="51.09" ry="8"/>
    <ellipse class="cls-4" cx="158.32" cy="293.88" rx="84.38" ry="13.21"/>
    <ellipse class="cls-4" cx="149.27" cy="141.44" rx="48.76" ry="7.63"/>
    <path class="cls-4" d="m173.21,68.98s-10.71.02-19.71-6.98-12.64-13.05-12.64-13.05l-3.29,2.31,7.93,9.74s30.22,26.91,31.61,32.46c1.39,5.54,3.61-14.93,0-19.7l-3.61-4.76"/>
    <rect class="cls-5" x="86.94" y="269.97" width="8.44" height="23.91"/>
    <rect class="cls-5" x="96.68" y="269.97" width="8.44" height="23.91"/>
    <rect class="cls-5" x="106.41" y="269.97" width="8.44" height="23.91"/>
    <rect class="cls-5" x="116.14" y="269.97" width="8.44" height="23.91"/>
    <rect class="cls-5" x="125.88" y="269.97" width="8.44" height="23.91"/>
    <rect class="cls-5" x="135.61" y="269.97" width="8.44" height="23.91"/>
    <rect class="cls-5" x="145.35" y="269.97" width="8.44" height="23.91"/>
    <rect class="cls-5" x="155.08" y="269.97" width="8.44" height="23.91"/>
    <rect class="cls-5" x="92.16" y="245.45" width="8.44" height="23.91"/>
    <rect class="cls-5" x="101.9" y="245.45" width="8.44" height="23.91"/>
    <rect class="cls-5" x="111.63" y="245.45" width="8.44" height="23.91"/>
    <rect class="cls-5" x="121.36" y="245.45" width="8.44" height="23.91"/>
    <rect class="cls-5" x="131.1" y="245.45" width="8.44" height="23.91"/>
    <rect class="cls-5" x="140.83" y="245.45" width="8.44" height="23.91"/>
    <rect class="cls-5" x="97.32" y="220.94" width="8.44" height="23.91"/>
    <rect class="cls-5" x="107.06" y="220.94" width="8.44" height="23.91"/>
    <rect class="cls-5" x="116.79" y="220.94" width="8.44" height="23.91"/>
    <rect class="cls-5" x="126.53" y="220.94" width="8.44" height="23.91"/>
    <rect class="cls-5" x="136.26" y="220.94" width="8.44" height="23.91"/>
    <rect class="cls-5" x="102.19" y="196.09" width="8.44" height="23.91"/>
    <rect class="cls-5" x="111.92" y="196.09" width="8.44" height="23.91"/>
    <rect class="cls-5" x="121.66" y="196.09" width="8.44" height="23.91"/>
    <rect class="cls-5" x="131.39" y="196.09" width="8.44" height="23.91"/>
    <rect class="cls-5" x="141.13" y="196.09" width="8.44" height="23.91"/>
    <rect class="cls-5" x="261.99" y="196.09" width="18.6" height="17.71"/>
    <rect class="cls-5" x="282.17" y="196.09" width="18.6" height="17.71"/>
    <rect class="cls-5" x="302.35" y="196.09" width="18.6" height="17.71"/>
    <rect class="cls-5" x="271.29" y="177.32" width="18.6" height="17.71"/>
    <rect class="cls-5" x="291.47" y="177.32" width="18.6" height="17.71"/>
    <rect class="cls-5" x="282.96" y="158.56" width="18.6" height="17.71"/>
    <rect class="cls-5" x="111.44" y="116.07" width="27.58" height="26.25"/>
    <rect class="cls-5" x="141.13" y="127.01" width="16.08" height="15.31"/>
    <rect class="cls-5" x="158.46" y="127.01" width="16.08" height="15.31"/>
    <rect class="cls-5" x="303.14" y="158.56" width="18.6" height="17.71"/>
    <rect class="cls-5" x="311.65" y="177.32" width="18.6" height="17.71"/>
    <rect class="cls-5" x="322.53" y="196.09" width="18.6" height="17.71"/>
    <rect class="cls-5" x="146" y="220.94" width="8.44" height="23.91"/>
    <rect class="cls-5" x="150.57" y="245.45" width="8.44" height="23.91"/>
    <path class="cls-3" d="m313.32,311.74c-1.91-2.19-15-3.89-30.86-3.89s-28.95,1.7-30.86,3.89h-.25v52.22c0,2.45,13.93,4.44,31.11,4.44s31.11-1.99,31.11-4.44v-52.22h-.25Z"/>
    <ellipse class="cls-4" cx="282.46" cy="311.74" rx="31.11" ry="4.44"/>
    <rect class="cls-5" x="255.73" y="291.65" width="16.85" height="19.67"/>
    <rect class="cls-5" x="274.01" y="291.65" width="16.85" height="19.67"/>
    <rect class="cls-5" x="257.28" y="228.4" width="49.5" height="57.8" rx="5.85" ry="5.85"/>
    <rect class="cls-5" x="292.28" y="291.65" width="16.85" height="19.67"/>
    <rect class="cls-5" x="280.36" y="286.18" width="3.33" height="24.44"/>
    <ellipse class="cls-3" cx="225.35" cy="79.4" rx="15" ry="25"/>
    <ellipse class="cls-5" cx="227.35" cy="79.4" rx="15" ry="25"/>
    <path class="cls-4" d="m227.4,91.4v-3.17c-1.82-.03-3.71-.6-4.81-1.38l.75-2.11c1.13.76,2.77,1.35,4.53,1.35,2.23,0,3.74-1.29,3.74-3.08s-1.23-2.8-3.55-3.74c-3.21-1.26-5.19-2.7-5.19-5.44s1.85-4.59,4.75-5.06v-3.17h1.95v3.05c1.89.06,3.17.57,4.09,1.1l-.79,2.07c-.66-.38-1.95-1.07-3.96-1.07-2.42,0-3.33,1.45-3.33,2.7,0,1.63,1.16,2.45,3.9,3.58,3.24,1.32,4.87,2.95,4.87,5.75,0,2.48-1.73,4.81-4.97,5.34v3.27h-1.98Z"/>
  </g>
</svg>