<?xml version="1.0" encoding="UTF-8"?>
<svg id="Layer_2" data-name="Layer 2" xmlns="http://www.w3.org/2000/svg" viewBox="0 0 103.85 458.68">
  <defs>
    <style>
      .cls-1 {
        stroke-width: 1.85px;
      }

      .cls-1, .cls-2 {
        fill: #fff;
      }

      .cls-1, .cls-3 {
        stroke: #969593;
        stroke-miterlimit: 10;
      }

      .cls-4 {
        fill: #969593;
      }

      .cls-3 {
        fill: none;
        stroke-width: .92px;
      }
    </style>
  </defs>
  <g id="Layer_5" data-name="Layer 5">
    <g>
      <g>
        <rect class="cls-1" x=".92" y="355.75" width="102" height="102"/>
        <g>
          <path class="cls-4" d="m27.45,413.51v2.2l-15.37-6.98v-1.95l15.37-7.01v2.2l-12.47,5.82,12.47,5.73Z"/>
          <path class="cls-4" d="m45.43,415.92c-1.77,2.13-3.99,3.17-6.53,3.17-4.73,0-8.29-3.93-8.29-8.54s3.66-8.48,8.35-8.48c2.62,0,4.85,1.13,6.46,3.38v-9.21h2.07v22.44h-2.07v-2.78Zm-12.68-5.3c0,3.51,2.74,6.59,6.37,6.59,3.32,0,6.43-2.5,6.43-6.53,0-3.75-2.77-6.59-6.4-6.59s-6.4,3.05-6.4,6.53Z"/>
          <path class="cls-4" d="m54.67,397.54c0,.95-.79,1.74-1.74,1.74s-1.71-.79-1.71-1.74.79-1.71,1.71-1.71,1.74.76,1.74,1.71Zm-2.74,4.97h2.07v16.19h-2.07v-16.19Z"/>
          <path class="cls-4" d="m56.77,402.51h2.23l5.43,11.77,5.37-11.77h2.23l-7.41,16.19h-.37l-7.47-16.19Z"/>
          <path class="cls-4" d="m74.43,413.51l12.5-5.73-12.5-5.82v-2.2l15.37,7.01v1.95l-15.37,6.98v-2.2Z"/>
        </g>
      </g>
      <g>
        <rect class="cls-1" x=".92" y=".92" width="102" height="102"/>
        <rect class="cls-4" x="8.41" y="8.52" width="87" height="87" transform="translate(103.93 .12) rotate(90)"/>
        <rect class="cls-2" x="16.57" y="23.03" width="69.49" height="6.31"/>
        <rect class="cls-2" x="16.57" y="33.62" width="69.49" height="30.38"/>
        <line class="cls-3" x1="16.57" y1="33.62" x2="86.06" y2="64"/>
        <line class="cls-3" x1="86.06" y1="33.62" x2="16.57" y2="64"/>
        <rect class="cls-2" x="16.57" y="67.92" width="69.49" height="1.39"/>
        <rect class="cls-2" x="16.57" y="71.7" width="69.49" height="1.39"/>
        <rect class="cls-2" x="16.57" y="75.49" width="69.49" height="1.39"/>
        <rect class="cls-2" x="16.57" y="79.27" width="69.49" height="1.39"/>
        <rect class="cls-2" x="16.57" y="83.06" width="69.49" height="1.39"/>
        <rect class="cls-2" x="16.57" y="86.84" width="69.49" height="1.39"/>
        <circle class="cls-2" cx="18.68" cy="15.95" r="2.1"/>
        <circle class="cls-2" cx="26.47" cy="15.95" r="2.1"/>
        <circle class="cls-2" cx="34.26" cy="15.95" r="2.1"/>
      </g>
      <g>
        <rect class="cls-1" x=".92" y="119.2" width="102" height="102"/>
        <path class="cls-4" d="m89.68,170.3s-17.97,17.56-40.14,17.56-40.14-17.56-40.14-17.56c0,0,17.97-17.56,40.14-17.56s40.14,17.56,40.14,17.56Z"/>
        <circle class="cls-2" cx="49.53" cy="170.3" r="17.56"/>
      </g>
      <g>
        <rect class="cls-1" x=".92" y="237.47" width="102" height="102"/>
        <g>
          <rect class="cls-4" x="8.41" y="245.41" width="87" height="87" transform="translate(340.83 237.01) rotate(90)"/>
          <rect class="cls-2" x="26.18" y="261.27" width="59.88" height="3.61"/>
          <rect class="cls-2" x="16.57" y="270.06" width="6.31" height="6.31"/>
          <rect class="cls-2" x="26.18" y="271.41" width="59.88" height="3.61"/>
          <rect class="cls-2" x="35.21" y="282.1" width="6.31" height="6.31"/>
          <rect class="cls-2" x="44.82" y="283.45" width="41.25" height="3.61"/>
          <rect class="cls-2" x="35.21" y="291.6" width="6.31" height="6.31"/>
          <rect class="cls-2" x="44.82" y="292.95" width="41.25" height="3.61"/>
          <rect class="cls-2" x="16.57" y="301.9" width="6.31" height="6.31"/>
          <rect class="cls-2" x="26.18" y="303.25" width="59.88" height="3.61"/>
          <rect class="cls-2" x="16.57" y="311.93" width="6.31" height="6.31"/>
          <rect class="cls-2" x="26.18" y="313.28" width="59.88" height="3.61"/>
          <g>
            <polygon class="cls-2" points="19.53 265.36 17.03 261.76 18.55 260.71 19.84 262.56 22.71 259.92 16.57 259.92 16.57 266.23 22.88 266.23 22.88 262.27 19.53 265.36"/>
            <polygon class="cls-2" points="22.88 262.27 34.51 251.58 33.26 250.22 22.71 259.92 22.88 259.92 22.88 262.27"/>
            <polygon class="cls-4" points="18.55 260.71 17.03 261.76 19.53 265.36 22.88 262.27 22.88 259.92 22.71 259.92 19.84 262.56 18.55 260.71"/>
          </g>
          <g>
            <polygon class="cls-2" points="19.53 307.34 17.03 303.74 18.55 302.69 19.84 304.54 22.71 301.9 16.57 301.9 16.57 308.21 22.88 308.21 22.88 304.25 19.53 307.34"/>
            <polygon class="cls-2" points="22.88 304.25 34.51 293.56 33.26 292.2 22.71 301.9 22.88 301.9 22.88 304.25"/>
            <polygon class="cls-4" points="18.55 302.69 17.03 303.74 19.53 307.34 22.88 304.25 22.88 301.9 22.71 301.9 19.84 304.54 18.55 302.69"/>
          </g>
        </g>
      </g>
    </g>
  </g>
</svg>