<?xml version="1.0" encoding="UTF-8"?>
<svg id="Layer_2" data-name="Layer 2" xmlns="http://www.w3.org/2000/svg" viewBox="0 0 412.65 449.5">
  <defs>
    <style>
      .cls-1 {
        stroke-width: 2.5px;
      }

      .cls-1, .cls-2, .cls-3, .cls-4, .cls-5, .cls-6, .cls-7, .cls-8, .cls-9 {
        stroke: #b29970;
        stroke-miterlimit: 10;
      }

      .cls-1, .cls-10, .cls-3, .cls-5, .cls-9 {
        fill: #ffe7bd;
      }

      .cls-2 {
        fill: #ffedc0;
        opacity: .79;
        stroke-width: 2.19px;
      }

      .cls-11 {
        fill: #fff;
      }

      .cls-12 {
        fill: #b29970;
      }

      .cls-3 {
        stroke-width: 2px;
      }

      .cls-4 {
        fill: #fff0d9;
        stroke-width: 4px;
      }

      .cls-5, .cls-6 {
        stroke-width: 2.18px;
      }

      .cls-6 {
        fill: #ffe7b6;
      }

      .cls-7 {
        fill: #ffdc9f;
      }

      .cls-8 {
        fill: none;
      }

      .cls-9 {
        stroke-width: 3.37px;
      }
    </style>
  </defs>
  <g id="Layer_1-2" data-name="Layer 1">
    <polygon class="cls-11" points="72.03 247.73 72.5 161 88.5 145 89.5 89 88.5 68 360.86 67.64 361.86 246.48 209.71 250.26 72.03 247.73"/>
    <path class="cls-9" d="m181.52,224.48s61.69-3.52,87.33,0,22.83,13.02,22.83,13.02l-114.35-.59,4.19-12.43Z"/>
    <g>
      <path class="cls-10" d="m0,428.38c43.02,12.69,119.35,21.12,206.35,21.12s159.03-7.97,202.65-20.06v-49.8c-43.62-12.09-118.09-20.06-202.65-20.06S43.02,368.01,0,380.7"/>
      <path class="cls-4" d="m94.23,105C43.53,94.7,10.49,77.84,10.49,58.79,10.49,27.43,100.07,2,210.57,2s200.08,25.43,200.08,56.79c0,13.27-16.1,25-42.89,35.14-15.76,5.97-21.02,5.18-21.02,5.18"/>
      <g>
        <line class="cls-9" x1="262.28" y1="104.98" x2="262.28" y2="34.17"/>
        <line class="cls-9" x1="214.77" y1="73.45" x2="214.77" y2="31.37"/>
        <line class="cls-9" x1="181.34" y1="62.27" x2="181.34" y2="34.17"/>
        <line class="cls-9" x1="148.55" y1="79.73" x2="148.55" y2="35.54"/>
        <line class="cls-9" x1="127.39" y1="40.42" x2="127.39" y2="94.87"/>
        <g>
          <path class="cls-3" d="m262.28,223.52c-15.8-.52-32.82-.8-50.54-.8-8.83,0-17.48.07-25.89.21l-.32-137.75c-.01-3.97,3.18-7.2,7.15-7.22,13.41-.09,41.62-.29,49.24-.36,10.09-.09,22.09,3.91,23.09,7.91s-2.72,138.02-2.72,138.02"/>
          <path class="cls-1" d="m211.13,31.36c-52.32,0-98.37,8.99-123.88,17.37-2.88.95-4.82,3.66-4.82,6.69v77.16c0,1.69.19,3.37.41,5.05.1.72.15,1.46.15,2.2,0,7.75-5.06,14.31-12.06,16.56-2.88.93-4.8,3.65-4.8,6.67v72.79c0,4.52,4.18,7.88,8.59,6.88,8.08-1.82,21.34-3.96,38.52-5.84,3.57-.39,6.29-3.41,6.29-7.01v-119.37c0-.41.03-.81.11-1.22.4-2.27,2.1-9.72,7.76-14.44,6.74-5.62,41.59-30.35,53.95-32.6,12.36-2.25,66.32,28.1,71.94,31.47s7.87,6.74,8.99,11.24c6.49,25.98-.4,132.53.06,122.35-.17,3.71,2.82,6.82,6.52,7.08,25.33,1.82,51.59,4.86,77.88,9.55,4.31.77,8.27-2.56,8.27-6.94V60.02c0-7.76-64.11-28.66-143.88-28.66Z"/>
          <line class="cls-3" x1="346.74" y1="243.96" x2="346.74" y2="54.96"/>
          <line class="cls-3" x1="338.29" y1="240.87" x2="338.29" y2="50.15"/>
          <line class="cls-3" x1="329.11" y1="240.94" x2="329.11" y2="47.56"/>
          <line class="cls-3" x1="308.24" y1="238.49" x2="308.24" y2="41.4"/>
          <line class="cls-3" x1="279.63" y1="233.68" x2="279.63" y2="36.85"/>
          <polyline class="cls-3" points="242 87 242 49.27 241.91 33.17"/>
          <polyline class="cls-3" points="201 68 200.91 48.27 200.91 31.17"/>
          <polyline class="cls-3" points="152 78 151.91 55.59 151.91 36.17"/>
          <line class="cls-3" x1="113.24" y1="236.91" x2="113.24" y2="42.04"/>
          <line class="cls-3" x1="99.79" y1="236.91" x2="99.79" y2="44.56"/>
          <line class="cls-3" x1="86.54" y1="240.29" x2="86.54" y2="48.73"/>
        </g>
      </g>
    </g>
    <path class="cls-12" d="m183.52,224.48s-3.02-77.48-8.02-106.48-9-49-9-49c0,0,7.69-6.85,15.84-5.42s23.39,90.24,23.39,90.24c0,0,9.66-3.87,13.21-14.34s5.5-62.28,5.5-62.28l6.62,3.36s-2.87,64.56-3.72,70.01-10.3,42.79-10.57,47.62,6.2,24.54,6.2,24.54c0,0-32.43,1.23-39.45,1.76Z"/>
    <path class="cls-2" d="m181.52,224.48v-49.21s15.78-5.76,81.98-2.26l-.84,50.78s-34.39-2.33-81.14.7Z"/>
    <ellipse class="cls-12" cx="211" cy="244" rx="138.5" ry="8"/>
    <line class="cls-7" x1="214.77" y1="222.72" x2="214.77" y2="77.79"/>
    <line class="cls-7" x1="241.77" y1="222.72" x2="241.77" y2="87"/>
    <path class="cls-3" d="m58.84,392.27v-30.07c0-13.38,2.31-26.66,6.82-39.26l49.85-139.18c.78-2.19,4.02-1.62,4.02.7v45.09c0,.23-.04.46-.11.68l-56.54,162.72c-.77,2.21-4.03,1.65-4.03-.68Z"/>
    <path class="cls-6" d="m62.86,392.95l56.54-162.72s21.89-4.79,61.99-5.01l-61.71,177.6s-27.45-12.92-56.82-9.87Z"/>
    <path class="cls-8" d="m113.24,245.82s28.88-5.34,62.07-3.08"/>
    <path class="cls-8" d="m108.24,261.82s28.88-5.34,62.07-3.08"/>
    <path class="cls-8" d="m102.24,278.82s28.88-5.34,62.07-3.08"/>
    <path class="cls-8" d="m97.24,294.82s28.88-5.34,62.07-3.08"/>
    <path class="cls-8" d="m91.18,310.2s29.12-3.82,62.15.18"/>
    <path class="cls-8" d="m86,325.5s25.51-2.23,58.26,3.64"/>
    <path class="cls-8" d="m80,342.5s25.51-2.23,58.26,3.64"/>
    <path class="cls-8" d="m74,359.5s25.51-2.23,58.26,3.64"/>
    <path class="cls-8" d="m69,376.5s25.51-2.23,58.26,3.64"/>
    <path class="cls-5" d="m115.29,402.08v-32.82c0-14.6,2.52-29.1,5.61-43.8l54.4-151.91c2.69-1.43,6.22-.82,6.22,1.72v49.21c0,.25-.04.5-.13.74l-61.71,177.6c-.84,2.41-4.4,1.81-4.4-.74Z"/>
    <path class="cls-12" d="m211,389.03l9.75-80.81c1.57-13.03,11.32-23.62,24.21-26.11.18-.04.36-.07.55-.1,20.75-3.78,49.93-26.84,61-32,.85-.39-2.52-.52-3.45-.65-6.52-.92-1.48-1.81-19.55-.35-.12,0-6.9,1.95-7,2-1.89.9-17,18-37,14-11.77-2.35-12.84-13-12.84-13,0,0-25.55-9-51.36,0,0,0-7.57,93.23-14.19,96.11s-12.71-23.95-12.71-23.95l-6.81,19.58s7.44,29.96,2.67,35.11-6.01,7.15-6.01,7.15c0,0,30.24,20.06,72.74,3.03Z"/>
    <path class="cls-12" d="m173.21,104.98s-10.71.02-19.71-6.98-12.64-13.05-12.64-13.05l-3.29,2.31,7.93,9.74s30.22,26.91,31.61,32.46,3.61-14.93,0-19.7l-3.61-4.76"/>
  </g>
</svg>